<svg width="2207" height="905" viewBox="0 0 2207 905" fill="none" xmlns="http://www.w3.org/2000/svg">
<path d="M11.34 279V133.2H43.56V192.24H66.06V133.2H98.46V279H66.06V215.28H43.56V279H11.34ZM124.263 279V133.2H189.783V155.16H156.483V191.34H181.863V213.66H156.483V257.22H190.143V279H124.263ZM226.731 279V219.42L199.011 133.2H229.431L243.291 179.28L255.711 133.2H284.871L257.691 219.42V279H226.731ZM301.126 304.2L299.326 294.66C302.446 293.82 305.326 292.26 307.966 289.98C310.726 287.82 312.106 284.16 312.106 279H296.626V251.28H324.526V275.22C324.406 284.1 322.426 291 318.586 295.92C314.746 300.84 308.926 303.6 301.126 304.2Z" fill="white"/>
<path d="M11.34 279H9.95388V280.386H11.34V279ZM11.34 133.2V131.814H9.95388V133.2H11.34ZM43.56 133.2H44.9461V131.814H43.56V133.2ZM43.56 192.24H42.1739V193.626H43.56V192.24ZM66.06 192.24V193.626H67.4461V192.24H66.06ZM66.06 133.2V131.814H64.6739V133.2H66.06ZM98.46 133.2H99.8461V131.814H98.46V133.2ZM98.46 279V280.386H99.8461V279H98.46ZM66.06 279H64.6739V280.386H66.06V279ZM66.06 215.28H67.4461V213.894H66.06V215.28ZM43.56 215.28V213.894H42.1739V215.28H43.56ZM43.56 279V280.386H44.9461V279H43.56ZM12.7261 279V133.2H9.95388V279H12.7261ZM11.34 134.586H43.56V131.814H11.34V134.586ZM42.1739 133.2V192.24H44.9461V133.2H42.1739ZM43.56 193.626H66.06V190.854H43.56V193.626ZM67.4461 192.24V133.2H64.6739V192.24H67.4461ZM66.06 134.586H98.46V131.814H66.06V134.586ZM97.0739 133.2V279H99.8461V133.2H97.0739ZM98.46 277.614H66.06V280.386H98.46V277.614ZM67.4461 279V215.28H64.6739V279H67.4461ZM66.06 213.894H43.56V216.666H66.06V213.894ZM42.1739 215.28V279H44.9461V215.28H42.1739ZM43.56 277.614H11.34V280.386H43.56V277.614ZM124.263 279H122.877V280.386H124.263V279ZM124.263 133.2V131.814H122.877V133.2H124.263ZM189.783 133.2H191.169V131.814H189.783V133.2ZM189.783 155.16V156.546H191.169V155.16H189.783ZM156.483 155.16V153.774H155.097V155.16H156.483ZM156.483 191.34H155.097V192.726H156.483V191.34ZM181.863 191.34H183.249V189.954H181.863V191.34ZM181.863 213.66V215.046H183.249V213.66H181.863ZM156.483 213.66V212.274H155.097V213.66H156.483ZM156.483 257.22H155.097V258.606H156.483V257.22ZM190.143 257.22H191.529V255.834H190.143V257.22ZM190.143 279V280.386H191.529V279H190.143ZM125.649 279V133.2H122.877V279H125.649ZM124.263 134.586H189.783V131.814H124.263V134.586ZM188.397 133.2V155.16H191.169V133.2H188.397ZM189.783 153.774H156.483V156.546H189.783V153.774ZM155.097 155.16V191.34H157.869V155.16H155.097ZM156.483 192.726H181.863V189.954H156.483V192.726ZM180.477 191.34V213.66H183.249V191.34H180.477ZM181.863 212.274H156.483V215.046H181.863V212.274ZM155.097 213.66V257.22H157.869V213.66H155.097ZM156.483 258.606H190.143V255.834H156.483V258.606ZM188.757 257.22V279H191.529V257.22H188.757ZM190.143 277.614H124.263V280.386H190.143V277.614ZM226.731 279H225.345V280.386H226.731V279ZM226.731 219.42H228.117V219.203L228.051 218.996L226.731 219.42ZM199.011 133.2V131.814H197.109L197.691 133.624L199.011 133.2ZM229.431 133.2L230.758 132.801L230.462 131.814H229.431V133.2ZM243.291 179.28L241.964 179.679L243.364 184.335L244.629 179.641L243.291 179.28ZM255.711 133.2V131.814H254.649L254.373 132.839L255.711 133.2ZM284.871 133.2L286.193 133.617L286.761 131.814H284.871V133.2ZM257.691 219.42L256.369 219.003L256.305 219.207V219.42H257.691ZM257.691 279V280.386H259.077V279H257.691ZM228.117 279V219.42H225.345V279H228.117ZM228.051 218.996L200.331 132.776L197.691 133.624L225.411 219.844L228.051 218.996ZM199.011 134.586H229.431V131.814H199.011V134.586ZM228.104 133.599L241.964 179.679L244.618 178.881L230.758 132.801L228.104 133.599ZM244.629 179.641L257.049 133.561L254.373 132.839L241.953 178.919L244.629 179.641ZM255.711 134.586H284.871V131.814H255.711V134.586ZM283.549 132.783L256.369 219.003L259.013 219.837L286.193 133.617L283.549 132.783ZM256.305 219.42V279H259.077V219.42H256.305ZM257.691 277.614H226.731V280.386H257.691V277.614ZM301.126 304.2L299.764 304.457L299.994 305.677L301.232 305.582L301.126 304.2ZM299.326 294.66L298.966 293.322L297.726 293.655L297.964 294.917L299.326 294.66ZM307.966 289.98L307.112 288.888L307.085 288.909L307.06 288.931L307.966 289.98ZM312.106 279H313.492V277.614H312.106V279ZM296.626 279H295.24V280.386H296.626V279ZM296.626 251.28V249.894H295.24V251.28H296.626ZM324.526 251.28H325.912V249.894H324.526V251.28ZM324.526 275.22L325.912 275.239L325.912 275.229V275.22H324.526ZM302.488 303.943L300.688 294.403L297.964 294.917L299.764 304.457L302.488 303.943ZM299.686 295.998C303.023 295.1 306.087 293.434 308.872 291.029L307.06 288.931C304.565 291.086 301.869 292.54 298.966 293.322L299.686 295.998ZM308.82 291.072C312.052 288.543 313.492 284.378 313.492 279H310.72C310.72 283.942 309.4 287.097 307.112 288.888L308.82 291.072ZM312.106 277.614H296.626V280.386H312.106V277.614ZM298.012 279V251.28H295.24V279H298.012ZM296.626 252.666H324.526V249.894H296.626V252.666ZM323.14 251.28V275.22H325.912V251.28H323.14ZM323.14 275.201C323.022 283.903 321.083 290.468 317.493 295.067L319.679 296.773C323.769 291.532 325.79 284.297 325.912 275.239L323.14 275.201ZM317.493 295.067C313.951 299.605 308.537 302.24 301.02 302.818L301.232 305.582C309.315 304.96 315.541 302.075 319.679 296.773L317.493 295.067ZM23.94 487H22.5539V488.386H23.94V487ZM23.94 365.14H25.3261V363.754H23.94V365.14ZM1.98 365.14H0.593876V366.526H1.98V365.14ZM1.98 341.2V339.814H0.593876V341.2H1.98ZM78.12 341.2H79.5061V339.814H78.12V341.2ZM78.12 365.14V366.526H79.5061V365.14H78.12ZM56.34 365.14V363.754H54.9539V365.14H56.34ZM56.34 487V488.386H57.7261V487H56.34ZM25.3261 487V365.14H22.5539V487H25.3261ZM23.94 363.754H1.98V366.526H23.94V363.754ZM3.36612 365.14V341.2H0.593876V365.14H3.36612ZM1.98 342.586H78.12V339.814H1.98V342.586ZM76.7339 341.2V365.14H79.5061V341.2H76.7339ZM78.12 363.754H56.34V366.526H78.12V363.754ZM54.9539 365.14V487H57.7261V365.14H54.9539ZM56.34 485.614H23.94V488.386H56.34V485.614ZM95.0962 487H93.7101V488.386H95.0962V487ZM95.0962 341.2V339.814H93.7101V341.2H95.0962ZM127.316 341.2H128.702V339.814H127.316V341.2ZM127.316 400.24H125.93V401.626H127.316V400.24ZM149.816 400.24V401.626H151.202V400.24H149.816ZM149.816 341.2V339.814H148.43V341.2H149.816ZM182.216 341.2H183.602V339.814H182.216V341.2ZM182.216 487V488.386H183.602V487H182.216ZM149.816 487H148.43V488.386H149.816V487ZM149.816 423.28H151.202V421.894H149.816V423.28ZM127.316 423.28V421.894H125.93V423.28H127.316ZM127.316 487V488.386H128.702V487H127.316ZM96.4824 487V341.2H93.7101V487H96.4824ZM95.0962 342.586H127.316V339.814H95.0962V342.586ZM125.93 341.2V400.24H128.702V341.2H125.93ZM127.316 401.626H149.816V398.854H127.316V401.626ZM151.202 400.24V341.2H148.43V400.24H151.202ZM149.816 342.586H182.216V339.814H149.816V342.586ZM180.83 341.2V487H183.602V341.2H180.83ZM182.216 485.614H149.816V488.386H182.216V485.614ZM151.202 487V423.28H148.43V487H151.202ZM149.816 421.894H127.316V424.666H149.816V421.894ZM125.93 423.28V487H128.702V423.28H125.93ZM127.316 485.614H95.0962V488.386H127.316V485.614ZM208.02 487H206.633V488.386H208.02V487ZM208.02 341.2V339.814H206.633V341.2H208.02ZM273.54 341.2H274.926V339.814H273.54V341.2ZM273.54 363.16V364.546H274.926V363.16H273.54ZM240.24 363.16V361.774H238.853V363.16H240.24ZM240.24 399.34H238.853V400.726H240.24V399.34ZM265.62 399.34H267.006V397.954H265.62V399.34ZM265.62 421.66V423.046H267.006V421.66H265.62ZM240.24 421.66V420.274H238.853V421.66H240.24ZM240.24 465.22H238.853V466.606H240.24V465.22ZM273.9 465.22H275.286V463.834H273.9V465.22ZM273.9 487V488.386H275.286V487H273.9ZM209.406 487V341.2H206.633V487H209.406ZM208.02 342.586H273.54V339.814H208.02V342.586ZM272.153 341.2V363.16H274.926V341.2H272.153ZM273.54 361.774H240.24V364.546H273.54V361.774ZM238.853 363.16V399.34H241.626V363.16H238.853ZM240.24 400.726H265.62V397.954H240.24V400.726ZM264.233 399.34V421.66H267.006V399.34H264.233ZM265.62 420.274H240.24V423.046H265.62V420.274ZM238.853 421.66V465.22H241.626V421.66H238.853ZM240.24 466.606H273.9V463.834H240.24V466.606ZM272.513 465.22V487H275.286V465.22H272.513ZM273.9 485.614H208.02V488.386H273.9V485.614ZM292.127 487H290.741V488.386H292.127V487ZM292.127 341.2V339.814H290.741V341.2H292.127ZM374.567 356.14L373.433 356.936L373.443 356.95L373.453 356.964L374.567 356.14ZM379.247 395.74L377.889 395.461L377.889 395.461L379.247 395.74ZM373.847 407.98L372.743 407.142L372.738 407.148L373.847 407.98ZM362.867 416.44L362.273 415.188L361.214 415.691L361.534 416.818L362.867 416.44ZM382.847 487V488.386H384.68L384.181 486.622L382.847 487ZM349.547 487L348.201 487.33L348.46 488.386H349.547V487ZM333.527 421.66L334.874 421.33L334.615 420.274H333.527V421.66ZM324.347 421.66V420.274H322.961V421.66H324.347ZM324.347 487V488.386H325.733V487H324.347ZM324.347 403.12H322.961V404.506H324.347V403.12ZM343.967 400.78L344.697 401.959L344.717 401.946L344.736 401.933L343.967 400.78ZM349.187 393.76L347.877 393.307L347.872 393.322L347.867 393.338L349.187 393.76ZM347.387 368.02L346.228 368.78L346.228 368.78L347.387 368.02ZM324.347 362.8V361.414H322.961V362.8H324.347ZM293.513 487V341.2H290.741V487H293.513ZM292.127 342.586H332.267V339.814H292.127V342.586ZM332.267 342.586C342.012 342.586 350.391 343.656 357.429 345.768L358.226 343.112C350.864 340.904 342.203 339.814 332.267 339.814V342.586ZM357.429 345.768C364.36 347.847 369.668 351.575 373.433 356.936L375.702 355.343C371.546 349.425 365.695 345.353 358.226 343.112L357.429 345.768ZM373.453 356.964C377.289 362.155 379.301 369.679 379.301 379.72H382.073C382.073 369.361 380.005 361.165 375.682 355.316L373.453 356.964ZM379.301 379.72C379.301 385.649 378.827 390.893 377.889 395.461L380.605 396.019C381.588 391.227 382.073 385.791 382.073 379.72H379.301ZM377.889 395.461C376.967 399.958 375.246 403.842 372.743 407.142L374.952 408.818C377.728 405.158 379.607 400.882 380.605 396.019L377.889 395.461ZM372.738 407.148C370.384 410.287 366.922 412.979 362.273 415.188L363.462 417.692C368.412 415.341 372.27 412.393 374.956 408.812L372.738 407.148ZM361.534 416.818L381.514 487.378L384.181 486.622L364.201 416.062L361.534 416.818ZM382.847 485.614H349.547V488.386H382.847V485.614ZM350.894 486.67L334.874 421.33L332.181 421.99L348.201 487.33L350.894 486.67ZM333.527 420.274H324.347V423.046H333.527V420.274ZM322.961 421.66V487H325.733V421.66H322.961ZM324.347 485.614H292.127V488.386H324.347V485.614ZM324.347 404.506H333.347V401.734H324.347V404.506ZM333.347 404.506C338.037 404.506 341.87 403.709 344.697 401.959L343.238 399.601C341.025 400.971 337.778 401.734 333.347 401.734V404.506ZM344.736 401.933C347.529 400.072 349.456 397.469 350.508 394.182L347.867 393.338C346.999 396.051 345.446 398.128 343.198 399.627L344.736 401.933ZM350.497 394.213C351.641 390.91 352.193 387.029 352.193 382.6H349.421C349.421 386.811 348.894 390.37 347.877 393.307L350.497 394.213ZM352.193 382.6C352.193 376.216 351.031 371.053 348.547 367.26L346.228 368.78C348.303 371.947 349.421 376.504 349.421 382.6H352.193ZM348.547 367.26C345.904 363.226 341.139 361.414 334.787 361.414V364.186C340.676 364.186 344.311 365.853 346.228 368.78L348.547 367.26ZM334.787 361.414H324.347V364.186H334.787V361.414ZM322.961 362.8V403.12H325.733V362.8H322.961ZM403.657 487H402.271V488.386H403.657V487ZM403.657 341.2V339.814H402.271V341.2H403.657ZM469.177 341.2H470.563V339.814H469.177V341.2ZM469.177 363.16V364.546H470.563V363.16H469.177ZM435.877 363.16V361.774H434.491V363.16H435.877ZM435.877 399.34H434.491V400.726H435.877V399.34ZM461.257 399.34H462.643V397.954H461.257V399.34ZM461.257 421.66V423.046H462.643V421.66H461.257ZM435.877 421.66V420.274H434.491V421.66H435.877ZM435.877 465.22H434.491V466.606H435.877V465.22ZM469.537 465.22H470.923V463.834H469.537V465.22ZM469.537 487V488.386H470.923V487H469.537ZM405.043 487V341.2H402.271V487H405.043ZM403.657 342.586H469.177V339.814H403.657V342.586ZM467.791 341.2V363.16H470.563V341.2H467.791ZM469.177 361.774H435.877V364.546H469.177V361.774ZM434.491 363.16V399.34H437.263V363.16H434.491ZM435.877 400.726H461.257V397.954H435.877V400.726ZM459.871 399.34V421.66H462.643V399.34H459.871ZM461.257 420.274H435.877V423.046H461.257V420.274ZM434.491 421.66V465.22H437.263V421.66H434.491ZM435.877 466.606H469.537V463.834H435.877V466.606ZM468.151 465.22V487H470.923V465.22H468.151ZM469.537 485.614H403.657V488.386H469.537V485.614Z" fill="white"/>
<g clip-path="url(#clip0_18_3501)">
<g filter="url(#filter0_d_18_3501)">
<g clip-path="url(#clip1_18_3501)">
<rect x="1017" y="-342.783" width="1110.29" height="1110.29" rx="555.144" transform="rotate(-19.1497 1017 -342.783)" fill="url(#paint0_linear_18_3501)"/>
<g filter="url(#filter1_i_18_3501)">
<path d="M948.483 888.358C895.519 910.806 878.565 877.919 855.526 823.561C832.487 769.203 832.964 714.043 885.928 691.595C938.892 669.147 994.387 694.631 1017.43 748.989C1040.46 803.346 1001.45 865.91 948.483 888.358Z" fill="#E31949"/>
</g>
<g filter="url(#filter2_i_18_3501)">
<path d="M1138.85 673.961C1135.69 683.113 1139.6 695.853 1148.75 699.009C1157.9 702.165 1171.14 694.565 1174.3 685.413C1177.46 676.26 1170.29 666.259 1161.13 663.103C1151.98 659.947 1142 664.808 1138.85 673.961Z" fill="#C60C38"/>
</g>
<g filter="url(#filter3_i_18_3501)">
<path d="M997.533 605.504C994.377 614.656 998.286 627.396 1007.44 630.552C1016.59 633.708 1029.83 626.108 1032.99 616.956C1036.14 607.803 1028.97 597.802 1019.82 594.646C1010.67 591.49 1000.69 596.351 997.533 605.504Z" fill="#C60C38"/>
</g>
<g filter="url(#filter4_i_18_3501)">
<path d="M1941.49 458.807C1920.24 480.525 1868.32 469.926 1846.6 448.675C1824.88 427.424 1827.61 379.588 1848.86 357.871C1870.11 336.153 1908.25 342.223 1929.97 363.474C1951.69 384.725 1962.74 437.089 1941.49 458.807Z" fill="#BA1F44"/>
</g>
<g filter="url(#filter5_i_18_3501)">
<path d="M1418.7 806.315C1454.94 810.972 1496.03 762.277 1500.69 726.036C1505.35 689.795 1467.13 646.681 1430.89 642.024C1394.64 637.367 1363.17 671.524 1358.51 707.765C1353.86 744.006 1382.46 801.657 1418.7 806.315Z" fill="#E31949"/>
</g>
<g filter="url(#filter6_i_18_3501)">
<path d="M2242.73 438.923C2189.77 461.37 2172.81 428.483 2149.78 374.126C2126.74 319.768 2127.21 264.608 2180.18 242.16C2233.14 219.712 2288.64 245.196 2311.68 299.553C2334.71 353.911 2295.7 416.475 2242.73 438.923Z" fill="#E31949"/>
</g>
<g filter="url(#filter7_i_18_3501)">
<path d="M2246.49 398.627C2213.04 412.804 2187.05 391.832 2172.87 358.381C2158.69 324.931 2161.01 283.028 2194.46 268.85C2227.91 254.672 2267.21 278.937 2281.39 312.388C2295.56 345.839 2279.94 384.449 2246.49 398.627Z" fill="#C60C38"/>
</g>
<g filter="url(#filter8_i_18_3501)">
<path d="M1517.48 414.082C1509.31 429.736 1493.07 429.896 1477.42 421.724C1461.77 413.552 1449.69 397.111 1457.86 381.456C1466.04 365.802 1488.28 362.768 1503.93 370.94C1519.59 379.112 1525.65 398.427 1517.48 414.082Z" fill="#BA1F44"/>
</g>
<g opacity="0.5" filter="url(#filter9_i_18_3501)">
<path d="M1374.76 9.07633C1357.77 58.3467 1383.62 93.5604 1434.18 110.996C1484.75 128.432 1539.51 102.624 1556.5 53.354C1573.49 4.08357 1547 -44.4875 1496.43 -61.923C1445.87 -79.3586 1391.75 -40.194 1374.76 9.07633Z" fill="#E31949"/>
</g>
<g filter="url(#filter10_i_18_3501)">
<path d="M1410.95 3.16171C1400.22 34.2798 1413.51 77.5949 1444.63 88.3245C1475.75 99.0541 1520.76 73.2159 1531.49 42.0978C1542.22 10.9796 1517.84 -23.0254 1486.72 -33.755C1455.61 -44.4846 1421.68 -27.9564 1410.95 3.16171Z" fill="#C60C38"/>
</g>
<g filter="url(#filter11_i_18_3501)">
<path d="M1632.96 620.629C1629.81 629.781 1633.72 642.521 1642.87 645.677C1652.02 648.833 1665.26 641.233 1668.42 632.081C1671.57 622.928 1664.4 612.927 1655.25 609.771C1646.1 606.615 1636.12 611.477 1632.96 620.629Z" fill="#BA1F44"/>
</g>
<g filter="url(#filter12_i_18_3501)">
<path d="M1036.97 228.225C1059.83 279.385 1105.99 288.041 1158.5 264.576C1211 241.112 1235.03 180.617 1212.17 129.458C1189.31 78.2983 1132.83 59.6329 1080.32 83.0972C1027.82 106.562 1014.11 177.066 1036.97 228.225Z" fill="#E31949"/>
</g>
<g filter="url(#filter13_i_18_3501)">
<path d="M1061.04 196.995C1075.47 229.307 1117.73 253.545 1150.04 239.106C1182.35 224.666 1198.71 171.31 1184.27 138.999C1169.83 106.688 1125.71 97.9059 1093.39 112.345C1061.08 126.785 1046.6 164.684 1061.04 196.995Z" fill="#C60C38"/>
</g>
<circle cx="1697.68" cy="272.678" r="13.4048" transform="rotate(-19.1497 1697.68 272.678)" fill="#C60C38"/>
<circle cx="1547.45" cy="322.431" r="13.4048" transform="rotate(-19.1497 1547.45 322.431)" fill="#BA1F44"/>
<circle cx="1724.37" cy="485.767" r="13.4048" transform="rotate(-19.1497 1724.37 485.767)" fill="#BA1F44"/>
<circle cx="2110.99" cy="441.333" r="13.4048" transform="rotate(-19.1497 2110.99 441.333)" fill="#BA1F44"/>
<circle cx="2077.87" cy="618.385" r="13.4048" transform="rotate(-19.1497 2077.87 618.385)" fill="#E31949"/>
<circle cx="1919.81" cy="231.325" r="13.4048" transform="rotate(-19.1497 1919.81 231.325)" fill="#E31949"/>
<circle cx="1343.27" cy="69.3722" r="13.4048" transform="rotate(-19.1497 1343.27 69.3722)" fill="#BA1F44"/>
<path d="M-141.57 890.099L185.263 647.644C275.662 580.584 384.525 543 497.043 540.008L725.43 533.935C837.288 530.96 945.552 493.798 1035.66 427.448L1231.98 282.877C1321.54 216.927 1429.06 179.804 1540.23 176.446L1776.27 169.316C1888.78 165.917 1997.51 127.941 2087.66 60.5545L2274.75 -79.2841C2365.45 -147.075 2474.93 -185.092 2588.12 -188.102L2820.52 -194.282C2933.71 -197.292 3043.19 -235.309 3133.89 -303.1L3320.11 -442.287C3410.8 -510.078 3520.28 -548.094 3633.47 -551.104L4039.85 -561.911" stroke="#A60823" stroke-width="29.6077"/>
<path d="M-192.553 1025.34L134.28 782.884C224.679 715.823 333.543 678.24 446.06 675.248L674.448 669.174C786.306 666.199 894.569 629.037 984.673 562.687L1181 418.116C1270.56 352.166 1378.08 315.044 1489.25 311.685L1725.29 304.555C1837.8 301.157 1946.52 263.181 2036.68 195.794L2223.77 55.9551C2314.47 -11.8359 2423.94 -49.8523 2537.14 -52.8625L2769.54 -59.0428C2882.73 -62.053 2992.21 -100.069 3082.91 -167.86L3269.12 -307.047C3359.82 -374.839 3469.3 -412.855 3582.49 -415.865L3988.87 -426.672" stroke="#A60823" stroke-width="29.6077"/>
<path d="M-261.744 1108.13L65.0884 865.679C155.487 798.618 264.351 761.035 376.868 758.042L605.256 751.969C717.114 748.994 825.377 711.832 915.481 645.482L1111.81 500.911C1201.37 434.961 1308.89 397.839 1420.06 394.48L1656.1 387.35C1768.61 383.952 1877.33 345.976 1967.49 278.589L2154.58 138.75C2245.27 70.959 2354.75 32.9426 2467.94 29.9325L2700.35 23.7521C2813.54 20.7419 2923.02 -17.2745 3013.72 -85.0655L3199.93 -224.253C3290.63 -292.044 3400.11 -330.06 3513.3 -333.07L3919.67 -343.877" stroke="#A60823" stroke-width="44.4116"/>
<path d="M-181.875 943.274L144.958 700.819C235.357 633.758 344.221 596.175 456.738 593.183L685.126 587.11C796.984 584.135 905.247 546.973 995.351 480.623L1191.68 336.052C1281.24 270.102 1388.76 232.979 1499.93 229.621L1735.97 222.491C1848.48 219.092 1957.2 181.116 2047.36 113.729L2234.45 -26.1093C2325.14 -93.9004 2434.62 -131.917 2547.81 -134.927L2780.22 -141.107C2893.41 -144.117 3002.89 -182.134 3093.58 -249.925L3279.8 -389.112C3370.5 -456.903 3479.98 -494.919 3593.17 -497.93L3999.54 -508.736" stroke="#A60823" stroke-width="14.8039"/>
<path d="M-99.8089 953.953L227.024 711.498C317.423 644.437 426.287 606.854 538.804 603.862L767.192 597.788C879.05 594.814 987.313 557.651 1077.42 491.301L1273.75 346.73C1363.31 280.781 1470.82 243.658 1581.99 240.3L1818.04 233.169C1930.54 229.771 2039.27 191.795 2129.42 124.408L2316.51 -15.4306C2407.21 -83.2217 2516.69 -121.238 2629.88 -124.248L2862.28 -130.429C2975.48 -133.439 3084.95 -171.455 3175.65 -239.246L3361.87 -378.433C3452.56 -446.224 3562.04 -484.241 3675.23 -487.251L4081.61 -498.058" stroke="#A60823" stroke-width="14.8039"/>
<g opacity="0.3" filter="url(#filter14_f_18_3501)">
<path d="M1350.47 -658.87V-658.87C1143.66 -18.6907 1741.47 590.059 2385.3 394.902L2591.72 332.33L791.671 948.828L1350.47 -658.87Z" fill="#86041B"/>
</g>
<g opacity="0.3" filter="url(#filter15_f_18_3501)">
<path d="M1874.86 776.731V776.731C2246.88 216.197 1835.7 -531.388 1163.09 -517.369L947.438 -512.875L2847.1 -620.299L1874.86 776.731Z" fill="#FF698D"/>
</g>
</g>
</g>
</g>
<defs>
<filter id="filter0_d_18_3501" x="600.642" y="-1108.55" width="2245.78" height="2245.78" filterUnits="userSpaceOnUse" color-interpolation-filters="sRGB">
<feFlood flood-opacity="0" result="BackgroundImageFix"/>
<feColorMatrix in="SourceAlpha" type="matrix" values="0 0 0 0 0 0 0 0 0 0 0 0 0 0 0 0 0 0 127 0" result="hardAlpha"/>
<feMorphology radius="46.262" operator="dilate" in="SourceAlpha" result="effect1_dropShadow_18_3501"/>
<feOffset dy="14.8039"/>
<feGaussianBlur stdDeviation="185.048"/>
<feComposite in2="hardAlpha" operator="out"/>
<feColorMatrix type="matrix" values="0 0 0 0 0.9125 0 0 0 0 0.0114062 0 0 0 0 0.221506 0 0 0 0.4 0"/>
<feBlend mode="normal" in2="BackgroundImageFix" result="effect1_dropShadow_18_3501"/>
<feBlend mode="normal" in="SourceGraphic" in2="effect1_dropShadow_18_3501" result="shape"/>
</filter>
<filter id="filter1_i_18_3501" x="841.018" y="683.447" width="183.169" height="218.834" filterUnits="userSpaceOnUse" color-interpolation-filters="sRGB">
<feFlood flood-opacity="0" result="BackgroundImageFix"/>
<feBlend mode="normal" in="SourceGraphic" in2="BackgroundImageFix" result="shape"/>
<feColorMatrix in="SourceAlpha" type="matrix" values="0 0 0 0 0 0 0 0 0 0 0 0 0 0 0 0 0 0 127 0" result="hardAlpha"/>
<feOffset dy="6.78032"/>
<feGaussianBlur stdDeviation="6.78032"/>
<feComposite in2="hardAlpha" operator="arithmetic" k2="-1" k3="1"/>
<feColorMatrix type="matrix" values="0 0 0 0 0.541667 0 0 0 0 0.040625 0 0 0 0 0.142143 0 0 0 1 0"/>
<feBlend mode="normal" in2="shape" result="effect1_innerShadow_18_3501"/>
</filter>
<filter id="filter2_i_18_3501" x="1137.77" y="662.141" width="37.2881" height="44.375" filterUnits="userSpaceOnUse" color-interpolation-filters="sRGB">
<feFlood flood-opacity="0" result="BackgroundImageFix"/>
<feBlend mode="normal" in="SourceGraphic" in2="BackgroundImageFix" result="shape"/>
<feColorMatrix in="SourceAlpha" type="matrix" values="0 0 0 0 0 0 0 0 0 0 0 0 0 0 0 0 0 0 127 0" result="hardAlpha"/>
<feOffset dy="6.78032"/>
<feGaussianBlur stdDeviation="6.78032"/>
<feComposite in2="hardAlpha" operator="arithmetic" k2="-1" k3="1"/>
<feColorMatrix type="matrix" values="0 0 0 0 0.541667 0 0 0 0 0.040625 0 0 0 0 0.142143 0 0 0 1 0"/>
<feBlend mode="normal" in2="shape" result="effect1_innerShadow_18_3501"/>
</filter>
<filter id="filter3_i_18_3501" x="996.454" y="593.684" width="37.2881" height="44.375" filterUnits="userSpaceOnUse" color-interpolation-filters="sRGB">
<feFlood flood-opacity="0" result="BackgroundImageFix"/>
<feBlend mode="normal" in="SourceGraphic" in2="BackgroundImageFix" result="shape"/>
<feColorMatrix in="SourceAlpha" type="matrix" values="0 0 0 0 0 0 0 0 0 0 0 0 0 0 0 0 0 0 127 0" result="hardAlpha"/>
<feOffset dy="6.78032"/>
<feGaussianBlur stdDeviation="6.78032"/>
<feComposite in2="hardAlpha" operator="arithmetic" k2="-1" k3="1"/>
<feColorMatrix type="matrix" values="0 0 0 0 0.541667 0 0 0 0 0.040625 0 0 0 0 0.142143 0 0 0 1 0"/>
<feBlend mode="normal" in2="shape" result="effect1_innerShadow_18_3501"/>
</filter>
<filter id="filter4_i_18_3501" x="1831.56" y="344.266" width="121.346" height="133.272" filterUnits="userSpaceOnUse" color-interpolation-filters="sRGB">
<feFlood flood-opacity="0" result="BackgroundImageFix"/>
<feBlend mode="normal" in="SourceGraphic" in2="BackgroundImageFix" result="shape"/>
<feColorMatrix in="SourceAlpha" type="matrix" values="0 0 0 0 0 0 0 0 0 0 0 0 0 0 0 0 0 0 127 0" result="hardAlpha"/>
<feOffset dy="6.78032"/>
<feGaussianBlur stdDeviation="6.78032"/>
<feComposite in2="hardAlpha" operator="arithmetic" k2="-1" k3="1"/>
<feColorMatrix type="matrix" values="0 0 0 0 0.541667 0 0 0 0 0.040625 0 0 0 0 0.142143 0 0 0 1 0"/>
<feBlend mode="normal" in2="shape" result="effect1_innerShadow_18_3501"/>
</filter>
<filter id="filter5_i_18_3501" x="1358.01" y="641.596" width="143.062" height="171.809" filterUnits="userSpaceOnUse" color-interpolation-filters="sRGB">
<feFlood flood-opacity="0" result="BackgroundImageFix"/>
<feBlend mode="normal" in="SourceGraphic" in2="BackgroundImageFix" result="shape"/>
<feColorMatrix in="SourceAlpha" type="matrix" values="0 0 0 0 0 0 0 0 0 0 0 0 0 0 0 0 0 0 127 0" result="hardAlpha"/>
<feOffset dy="6.78032"/>
<feGaussianBlur stdDeviation="6.78032"/>
<feComposite in2="hardAlpha" operator="arithmetic" k2="-1" k3="1"/>
<feColorMatrix type="matrix" values="0 0 0 0 0.541667 0 0 0 0 0.040625 0 0 0 0 0.142143 0 0 0 1 0"/>
<feBlend mode="normal" in2="shape" result="effect1_innerShadow_18_3501"/>
</filter>
<filter id="filter6_i_18_3501" x="2135.27" y="234.012" width="183.169" height="218.834" filterUnits="userSpaceOnUse" color-interpolation-filters="sRGB">
<feFlood flood-opacity="0" result="BackgroundImageFix"/>
<feBlend mode="normal" in="SourceGraphic" in2="BackgroundImageFix" result="shape"/>
<feColorMatrix in="SourceAlpha" type="matrix" values="0 0 0 0 0 0 0 0 0 0 0 0 0 0 0 0 0 0 127 0" result="hardAlpha"/>
<feOffset dy="6.78032"/>
<feGaussianBlur stdDeviation="6.78032"/>
<feComposite in2="hardAlpha" operator="arithmetic" k2="-1" k3="1"/>
<feColorMatrix type="matrix" values="0 0 0 0 0.541667 0 0 0 0 0.040625 0 0 0 0 0.142143 0 0 0 1 0"/>
<feBlend mode="normal" in2="shape" result="effect1_innerShadow_18_3501"/>
</filter>
<filter id="filter7_i_18_3501" x="2164.65" y="264.722" width="121.971" height="145.18" filterUnits="userSpaceOnUse" color-interpolation-filters="sRGB">
<feFlood flood-opacity="0" result="BackgroundImageFix"/>
<feBlend mode="normal" in="SourceGraphic" in2="BackgroundImageFix" result="shape"/>
<feColorMatrix in="SourceAlpha" type="matrix" values="0 0 0 0 0 0 0 0 0 0 0 0 0 0 0 0 0 0 127 0" result="hardAlpha"/>
<feOffset dy="6.78032"/>
<feGaussianBlur stdDeviation="6.78032"/>
<feComposite in2="hardAlpha" operator="arithmetic" k2="-1" k3="1"/>
<feColorMatrix type="matrix" values="0 0 0 0 0.541667 0 0 0 0 0.040625 0 0 0 0 0.142143 0 0 0 1 0"/>
<feBlend mode="normal" in2="shape" result="effect1_innerShadow_18_3501"/>
</filter>
<filter id="filter8_i_18_3501" x="1455.23" y="366.537" width="65.8837" height="67.325" filterUnits="userSpaceOnUse" color-interpolation-filters="sRGB">
<feFlood flood-opacity="0" result="BackgroundImageFix"/>
<feBlend mode="normal" in="SourceGraphic" in2="BackgroundImageFix" result="shape"/>
<feColorMatrix in="SourceAlpha" type="matrix" values="0 0 0 0 0 0 0 0 0 0 0 0 0 0 0 0 0 0 127 0" result="hardAlpha"/>
<feOffset dy="6.78032"/>
<feGaussianBlur stdDeviation="6.78032"/>
<feComposite in2="hardAlpha" operator="arithmetic" k2="-1" k3="1"/>
<feColorMatrix type="matrix" values="0 0 0 0 0.541667 0 0 0 0 0.040625 0 0 0 0 0.142143 0 0 0 1 0"/>
<feBlend mode="normal" in2="shape" result="effect1_innerShadow_18_3501"/>
</filter>
<filter id="filter9_i_18_3501" x="1369.56" y="-66.1396" width="192.08" height="189.363" filterUnits="userSpaceOnUse" color-interpolation-filters="sRGB">
<feFlood flood-opacity="0" result="BackgroundImageFix"/>
<feBlend mode="normal" in="SourceGraphic" in2="BackgroundImageFix" result="shape"/>
<feColorMatrix in="SourceAlpha" type="matrix" values="0 0 0 0 0 0 0 0 0 0 0 0 0 0 0 0 0 0 127 0" result="hardAlpha"/>
<feOffset dy="6.78032"/>
<feGaussianBlur stdDeviation="6.78032"/>
<feComposite in2="hardAlpha" operator="arithmetic" k2="-1" k3="1"/>
<feColorMatrix type="matrix" values="0 0 0 0 0.541667 0 0 0 0 0.040625 0 0 0 0 0.142143 0 0 0 1 0"/>
<feBlend mode="normal" in2="shape" result="effect1_innerShadow_18_3501"/>
</filter>
<filter id="filter10_i_18_3501" x="1407.29" y="-37.0264" width="126.779" height="134.602" filterUnits="userSpaceOnUse" color-interpolation-filters="sRGB">
<feFlood flood-opacity="0" result="BackgroundImageFix"/>
<feBlend mode="normal" in="SourceGraphic" in2="BackgroundImageFix" result="shape"/>
<feColorMatrix in="SourceAlpha" type="matrix" values="0 0 0 0 0 0 0 0 0 0 0 0 0 0 0 0 0 0 127 0" result="hardAlpha"/>
<feOffset dy="6.78032"/>
<feGaussianBlur stdDeviation="6.78032"/>
<feComposite in2="hardAlpha" operator="arithmetic" k2="-1" k3="1"/>
<feColorMatrix type="matrix" values="0 0 0 0 0.541667 0 0 0 0 0.040625 0 0 0 0 0.142143 0 0 0 1 0"/>
<feBlend mode="normal" in2="shape" result="effect1_innerShadow_18_3501"/>
</filter>
<filter id="filter11_i_18_3501" x="1631.89" y="608.809" width="37.2881" height="44.375" filterUnits="userSpaceOnUse" color-interpolation-filters="sRGB">
<feFlood flood-opacity="0" result="BackgroundImageFix"/>
<feBlend mode="normal" in="SourceGraphic" in2="BackgroundImageFix" result="shape"/>
<feColorMatrix in="SourceAlpha" type="matrix" values="0 0 0 0 0 0 0 0 0 0 0 0 0 0 0 0 0 0 127 0" result="hardAlpha"/>
<feOffset dy="6.78032"/>
<feGaussianBlur stdDeviation="6.78032"/>
<feComposite in2="hardAlpha" operator="arithmetic" k2="-1" k3="1"/>
<feColorMatrix type="matrix" values="0 0 0 0 0.541667 0 0 0 0 0.040625 0 0 0 0 0.142143 0 0 0 1 0"/>
<feBlend mode="normal" in2="shape" result="effect1_innerShadow_18_3501"/>
</filter>
<filter id="filter12_i_18_3501" x="1026.32" y="73.0771" width="194.502" height="210.669" filterUnits="userSpaceOnUse" color-interpolation-filters="sRGB">
<feFlood flood-opacity="0" result="BackgroundImageFix"/>
<feBlend mode="normal" in="SourceGraphic" in2="BackgroundImageFix" result="shape"/>
<feColorMatrix in="SourceAlpha" type="matrix" values="0 0 0 0 0 0 0 0 0 0 0 0 0 0 0 0 0 0 127 0" result="hardAlpha"/>
<feOffset dy="6.78032"/>
<feGaussianBlur stdDeviation="6.78032"/>
<feComposite in2="hardAlpha" operator="arithmetic" k2="-1" k3="1"/>
<feColorMatrix type="matrix" values="0 0 0 0 0.541667 0 0 0 0 0.040625 0 0 0 0 0.142143 0 0 0 1 0"/>
<feBlend mode="normal" in2="shape" result="effect1_innerShadow_18_3501"/>
</filter>
<filter id="filter13_i_18_3501" x="1055.44" y="105.621" width="134.113" height="144.533" filterUnits="userSpaceOnUse" color-interpolation-filters="sRGB">
<feFlood flood-opacity="0" result="BackgroundImageFix"/>
<feBlend mode="normal" in="SourceGraphic" in2="BackgroundImageFix" result="shape"/>
<feColorMatrix in="SourceAlpha" type="matrix" values="0 0 0 0 0 0 0 0 0 0 0 0 0 0 0 0 0 0 127 0" result="hardAlpha"/>
<feOffset dy="6.78032"/>
<feGaussianBlur stdDeviation="6.78032"/>
<feComposite in2="hardAlpha" operator="arithmetic" k2="-1" k3="1"/>
<feColorMatrix type="matrix" values="0 0 0 0 0.541667 0 0 0 0 0.040625 0 0 0 0 0.142143 0 0 0 1 0"/>
<feBlend mode="normal" in2="shape" result="effect1_innerShadow_18_3501"/>
</filter>
<filter id="filter14_f_18_3501" x="680.642" y="-769.899" width="2022.11" height="1829.76" filterUnits="userSpaceOnUse" color-interpolation-filters="sRGB">
<feFlood flood-opacity="0" result="BackgroundImageFix"/>
<feBlend mode="normal" in="SourceGraphic" in2="BackgroundImageFix" result="shape"/>
<feGaussianBlur stdDeviation="55.5144" result="effect1_foregroundBlur_18_3501"/>
</filter>
<filter id="filter15_f_18_3501" x="780.895" y="-786.842" width="2232.75" height="1730.12" filterUnits="userSpaceOnUse" color-interpolation-filters="sRGB">
<feFlood flood-opacity="0" result="BackgroundImageFix"/>
<feBlend mode="normal" in="SourceGraphic" in2="BackgroundImageFix" result="shape"/>
<feGaussianBlur stdDeviation="83.2717" result="effect1_foregroundBlur_18_3501"/>
</filter>
<linearGradient id="paint0_linear_18_3501" x1="1970.92" y1="-162.361" x2="709.82" y2="1031.2" gradientUnits="userSpaceOnUse">
<stop stop-color="#F3164E"/>
<stop offset="1" stop-color="#8B0119"/>
</linearGradient>
<clipPath id="clip0_18_3501">
<rect width="1361" height="905" fill="white" transform="translate(846)"/>
</clipPath>
<clipPath id="clip1_18_3501">
<rect x="1017" y="-342.783" width="1110.29" height="1110.29" rx="555.144" transform="rotate(-19.1497 1017 -342.783)" fill="white"/>
</clipPath>
</defs>
</svg>
