<svg width="1361" height="905" viewBox="0 0 1361 905" fill="none" xmlns="http://www.w3.org/2000/svg">
<g clip-path="url(#clip0_16_1513)">
<g filter="url(#filter0_d_16_1513)">
<g clip-path="url(#clip1_16_1513)">
<rect x="171" y="-342.783" width="1110.29" height="1110.29" rx="555.144" transform="rotate(-19.1497 171 -342.783)" fill="url(#paint0_linear_16_1513)"/>
<g filter="url(#filter1_i_16_1513)">
<path d="M102.483 888.358C49.5194 910.806 32.5645 877.919 9.52589 823.561C-13.5127 769.203 -13.0361 714.043 39.9277 691.595C92.8915 669.147 148.387 694.631 171.425 748.989C194.464 803.346 155.447 865.91 102.483 888.358Z" fill="#E31949"/>
</g>
<g filter="url(#filter2_i_16_1513)">
<path d="M292.847 673.961C289.691 683.113 293.6 695.853 302.752 699.009C311.905 702.165 325.144 694.565 328.3 685.413C331.456 676.26 324.285 666.259 315.133 663.103C305.98 659.947 296.002 664.808 292.847 673.961Z" fill="#C60C38"/>
</g>
<g filter="url(#filter3_i_16_1513)">
<path d="M151.532 605.504C148.377 614.656 152.286 627.396 161.438 630.552C170.59 633.708 183.83 626.108 186.986 616.956C190.142 607.803 182.971 597.802 173.818 594.646C164.666 591.49 154.688 596.351 151.532 605.504Z" fill="#C60C38"/>
</g>
<g filter="url(#filter4_i_16_1513)">
<path d="M1095.49 458.807C1074.24 480.524 1022.32 469.925 1000.6 448.674C978.884 427.423 981.607 379.588 1002.86 357.87C1024.11 336.153 1062.25 342.223 1083.97 363.474C1105.69 384.725 1116.74 437.089 1095.49 458.807Z" fill="#BA1F44"/>
</g>
<g filter="url(#filter5_i_16_1513)">
<path d="M572.697 806.314C608.938 810.971 650.033 762.276 654.69 726.035C659.347 689.794 621.126 646.681 584.885 642.024C548.645 637.366 517.17 671.524 512.513 707.765C507.856 744.006 536.456 801.657 572.697 806.314Z" fill="#E31949"/>
</g>
<g filter="url(#filter6_i_16_1513)">
<path d="M1396.73 438.922C1343.77 461.37 1326.81 428.483 1303.78 374.125C1280.74 319.768 1281.21 264.608 1334.18 242.16C1387.14 219.712 1442.64 245.195 1465.68 299.553C1488.71 353.911 1449.7 416.475 1396.73 438.922Z" fill="#E31949"/>
</g>
<g filter="url(#filter7_i_16_1513)">
<path d="M1400.49 398.627C1367.04 412.804 1341.05 391.832 1326.87 358.381C1312.69 324.93 1315.01 283.027 1348.46 268.85C1381.91 254.672 1421.21 278.937 1435.39 312.388C1449.56 345.838 1433.94 384.449 1400.49 398.627Z" fill="#C60C38"/>
</g>
<g filter="url(#filter8_i_16_1513)">
<path d="M671.48 414.081C663.307 429.736 647.075 429.896 631.421 421.724C615.767 413.551 603.692 397.11 611.864 381.456C620.037 365.802 642.278 362.767 657.933 370.94C673.587 379.112 679.652 398.427 671.48 414.081Z" fill="#BA1F44"/>
</g>
<g opacity="0.5" filter="url(#filter9_i_16_1513)">
<path d="M528.76 9.07584C511.772 58.3462 537.616 93.5599 588.183 110.995C638.75 128.431 693.514 102.624 710.503 53.3535C727.491 4.08309 700.999 -44.4879 650.432 -61.9235C599.866 -79.3591 545.749 -40.1945 528.76 9.07584Z" fill="#E31949"/>
</g>
<g filter="url(#filter10_i_16_1513)">
<path d="M564.953 3.16097C554.223 34.2791 567.513 77.5941 598.631 88.3237C629.75 99.0533 674.764 73.2152 685.494 42.097C696.224 10.9789 671.843 -23.0262 640.725 -33.7558C609.607 -44.4854 575.682 -27.9572 564.953 3.16097Z" fill="#C60C38"/>
</g>
<g filter="url(#filter11_i_16_1513)">
<path d="M786.964 620.629C783.808 629.781 787.717 642.521 796.869 645.677C806.022 648.833 819.261 641.233 822.417 632.081C825.573 622.928 818.402 612.927 809.25 609.771C800.097 606.615 790.119 611.476 786.964 620.629Z" fill="#BA1F44"/>
</g>
<g filter="url(#filter12_i_16_1513)">
<path d="M190.97 228.225C213.832 279.385 259.992 288.04 312.498 264.576C365.003 241.112 389.034 180.617 366.171 129.458C343.309 78.298 286.827 59.6327 234.321 83.097C181.815 106.561 168.107 177.066 190.97 228.225Z" fill="#E31949"/>
</g>
<g filter="url(#filter13_i_16_1513)">
<path d="M215.035 196.995C229.475 229.306 271.731 253.545 304.043 239.106C336.354 224.666 352.708 171.31 338.269 138.999C323.829 106.688 279.706 97.9056 247.395 112.345C215.084 126.785 200.596 164.684 215.035 196.995Z" fill="#C60C38"/>
</g>
<circle cx="851.676" cy="272.678" r="13.4048" transform="rotate(-19.1497 851.676 272.678)" fill="#C60C38"/>
<circle cx="701.448" cy="322.431" r="13.4048" transform="rotate(-19.1497 701.448 322.431)" fill="#BA1F44"/>
<circle cx="878.366" cy="485.767" r="13.4048" transform="rotate(-19.1497 878.366 485.767)" fill="#BA1F44"/>
<circle cx="1264.99" cy="441.333" r="13.4048" transform="rotate(-19.1497 1264.99 441.333)" fill="#BA1F44"/>
<circle cx="1231.87" cy="618.384" r="13.4048" transform="rotate(-19.1497 1231.87 618.384)" fill="#E31949"/>
<circle cx="1073.81" cy="231.324" r="13.4048" transform="rotate(-19.1497 1073.81 231.324)" fill="#E31949"/>
<circle cx="497.274" cy="69.3722" r="13.4048" transform="rotate(-19.1497 497.274 69.3722)" fill="#BA1F44"/>
<path d="M-987.57 890.099L-660.737 647.644C-570.338 580.584 -461.475 543 -348.957 540.008L-120.569 533.935C-8.7116 530.96 99.5518 493.798 189.656 427.448L385.984 282.877C475.545 216.927 583.06 179.804 694.232 176.446L930.274 169.316C1042.78 165.917 1151.51 127.941 1241.66 60.5545L1428.75 -79.2841C1519.45 -147.075 1628.93 -185.092 1742.12 -188.102L1974.52 -194.282C2087.72 -197.292 2197.19 -235.309 2287.89 -303.1L2474.11 -442.287C2564.8 -510.078 2674.28 -548.094 2787.47 -551.104L3193.85 -561.911" stroke="#A60823" stroke-width="29.6077"/>
<path d="M-1038.55 1025.34L-711.72 782.884C-621.321 715.823 -512.457 678.24 -399.94 675.248L-171.552 669.174C-59.694 666.199 48.5694 629.037 138.673 562.687L335.002 418.116C424.562 352.166 532.078 315.044 643.25 311.685L879.292 304.555C991.797 301.157 1100.52 263.181 1190.68 195.794L1377.77 55.9551C1468.47 -11.8359 1577.94 -49.8523 1691.14 -52.8625L1923.54 -59.0428C2036.73 -62.053 2146.21 -100.069 2236.91 -167.86L2423.12 -307.047C2513.82 -374.839 2623.3 -412.855 2736.49 -415.865L3142.87 -426.672" stroke="#A60823" stroke-width="29.6077"/>
<path d="M-1107.74 1108.13L-780.912 865.679C-690.513 798.618 -581.649 761.035 -469.131 758.042L-240.744 751.969C-128.886 748.994 -20.6225 711.832 69.4814 645.482L265.81 500.911C355.37 434.961 462.886 397.839 574.058 394.48L810.1 387.35C922.606 383.952 1031.33 345.976 1121.49 278.589L1308.58 138.75C1399.27 70.959 1508.75 32.9426 1621.94 29.9325L1854.35 23.7521C1967.54 20.7419 2077.02 -17.2745 2167.72 -85.0655L2353.93 -224.253C2444.63 -292.044 2554.11 -330.06 2667.3 -333.07L3073.67 -343.877" stroke="#A60823" stroke-width="44.4116"/>
<path d="M-1027.87 943.274L-701.042 700.819C-610.643 633.758 -501.779 596.175 -389.262 593.183L-160.874 587.11C-49.0163 584.135 59.2471 546.973 149.351 480.623L345.68 336.052C435.24 270.102 542.755 232.979 653.927 229.621L889.969 222.491C1002.48 219.092 1111.2 181.116 1201.36 113.729L1388.45 -26.1093C1479.14 -93.9004 1588.62 -131.917 1701.81 -134.927L1934.22 -141.107C2047.41 -144.117 2156.89 -182.134 2247.58 -249.925L2433.8 -389.112C2524.5 -456.903 2633.98 -494.919 2747.17 -497.93L3153.54 -508.736" stroke="#A60823" stroke-width="14.8039"/>
<path d="M-945.809 953.953L-618.976 711.498C-528.577 644.437 -419.713 606.854 -307.196 603.862L-78.8082 597.788C33.0496 594.814 141.313 557.651 231.417 491.301L427.745 346.73C517.306 280.781 624.821 243.658 735.993 240.3L972.035 233.169C1084.54 229.771 1193.27 191.795 1283.42 124.408L1470.51 -15.4306C1561.21 -83.2217 1670.69 -121.238 1783.88 -124.248L2016.28 -130.429C2129.48 -133.439 2238.95 -171.455 2329.65 -239.246L2515.87 -378.433C2606.56 -446.224 2716.04 -484.241 2829.23 -487.251L3235.61 -498.058" stroke="#A60823" stroke-width="14.8039"/>
<g opacity="0.3" filter="url(#filter14_f_16_1513)">
<path d="M504.468 -658.87V-658.87C297.664 -18.6907 895.471 590.059 1539.3 394.902L1745.72 332.33L-54.3291 948.828L504.468 -658.87Z" fill="#86041B"/>
</g>
<g opacity="0.3" filter="url(#filter15_f_16_1513)">
<path d="M1028.86 776.731V776.731C1400.88 216.197 989.699 -531.388 317.091 -517.369L101.438 -512.875L2001.1 -620.299L1028.86 776.731Z" fill="#FF698D"/>
</g>
</g>
</g>
</g>
<defs>
<filter id="filter0_d_16_1513" x="-245.358" y="-1108.55" width="2245.78" height="2245.78" filterUnits="userSpaceOnUse" color-interpolation-filters="sRGB">
<feFlood flood-opacity="0" result="BackgroundImageFix"/>
<feColorMatrix in="SourceAlpha" type="matrix" values="0 0 0 0 0 0 0 0 0 0 0 0 0 0 0 0 0 0 127 0" result="hardAlpha"/>
<feMorphology radius="46.262" operator="dilate" in="SourceAlpha" result="effect1_dropShadow_16_1513"/>
<feOffset dy="14.8039"/>
<feGaussianBlur stdDeviation="185.048"/>
<feComposite in2="hardAlpha" operator="out"/>
<feColorMatrix type="matrix" values="0 0 0 0 0.9125 0 0 0 0 0.0114062 0 0 0 0 0.221506 0 0 0 0.4 0"/>
<feBlend mode="normal" in2="BackgroundImageFix" result="effect1_dropShadow_16_1513"/>
<feBlend mode="normal" in="SourceGraphic" in2="effect1_dropShadow_16_1513" result="shape"/>
</filter>
<filter id="filter1_i_16_1513" x="-4.9825" y="683.447" width="183.169" height="218.834" filterUnits="userSpaceOnUse" color-interpolation-filters="sRGB">
<feFlood flood-opacity="0" result="BackgroundImageFix"/>
<feBlend mode="normal" in="SourceGraphic" in2="BackgroundImageFix" result="shape"/>
<feColorMatrix in="SourceAlpha" type="matrix" values="0 0 0 0 0 0 0 0 0 0 0 0 0 0 0 0 0 0 127 0" result="hardAlpha"/>
<feOffset dy="6.78032"/>
<feGaussianBlur stdDeviation="6.78032"/>
<feComposite in2="hardAlpha" operator="arithmetic" k2="-1" k3="1"/>
<feColorMatrix type="matrix" values="0 0 0 0 0.541667 0 0 0 0 0.040625 0 0 0 0 0.142143 0 0 0 1 0"/>
<feBlend mode="normal" in2="shape" result="effect1_innerShadow_16_1513"/>
</filter>
<filter id="filter2_i_16_1513" x="291.768" y="662.141" width="37.2881" height="44.375" filterUnits="userSpaceOnUse" color-interpolation-filters="sRGB">
<feFlood flood-opacity="0" result="BackgroundImageFix"/>
<feBlend mode="normal" in="SourceGraphic" in2="BackgroundImageFix" result="shape"/>
<feColorMatrix in="SourceAlpha" type="matrix" values="0 0 0 0 0 0 0 0 0 0 0 0 0 0 0 0 0 0 127 0" result="hardAlpha"/>
<feOffset dy="6.78032"/>
<feGaussianBlur stdDeviation="6.78032"/>
<feComposite in2="hardAlpha" operator="arithmetic" k2="-1" k3="1"/>
<feColorMatrix type="matrix" values="0 0 0 0 0.541667 0 0 0 0 0.040625 0 0 0 0 0.142143 0 0 0 1 0"/>
<feBlend mode="normal" in2="shape" result="effect1_innerShadow_16_1513"/>
</filter>
<filter id="filter3_i_16_1513" x="150.454" y="593.684" width="37.2881" height="44.375" filterUnits="userSpaceOnUse" color-interpolation-filters="sRGB">
<feFlood flood-opacity="0" result="BackgroundImageFix"/>
<feBlend mode="normal" in="SourceGraphic" in2="BackgroundImageFix" result="shape"/>
<feColorMatrix in="SourceAlpha" type="matrix" values="0 0 0 0 0 0 0 0 0 0 0 0 0 0 0 0 0 0 127 0" result="hardAlpha"/>
<feOffset dy="6.78032"/>
<feGaussianBlur stdDeviation="6.78032"/>
<feComposite in2="hardAlpha" operator="arithmetic" k2="-1" k3="1"/>
<feColorMatrix type="matrix" values="0 0 0 0 0.541667 0 0 0 0 0.040625 0 0 0 0 0.142143 0 0 0 1 0"/>
<feBlend mode="normal" in2="shape" result="effect1_innerShadow_16_1513"/>
</filter>
<filter id="filter4_i_16_1513" x="985.563" y="344.265" width="121.346" height="133.272" filterUnits="userSpaceOnUse" color-interpolation-filters="sRGB">
<feFlood flood-opacity="0" result="BackgroundImageFix"/>
<feBlend mode="normal" in="SourceGraphic" in2="BackgroundImageFix" result="shape"/>
<feColorMatrix in="SourceAlpha" type="matrix" values="0 0 0 0 0 0 0 0 0 0 0 0 0 0 0 0 0 0 127 0" result="hardAlpha"/>
<feOffset dy="6.78032"/>
<feGaussianBlur stdDeviation="6.78032"/>
<feComposite in2="hardAlpha" operator="arithmetic" k2="-1" k3="1"/>
<feColorMatrix type="matrix" values="0 0 0 0 0.541667 0 0 0 0 0.040625 0 0 0 0 0.142143 0 0 0 1 0"/>
<feBlend mode="normal" in2="shape" result="effect1_innerShadow_16_1513"/>
</filter>
<filter id="filter5_i_16_1513" x="512.015" y="641.596" width="143.062" height="171.809" filterUnits="userSpaceOnUse" color-interpolation-filters="sRGB">
<feFlood flood-opacity="0" result="BackgroundImageFix"/>
<feBlend mode="normal" in="SourceGraphic" in2="BackgroundImageFix" result="shape"/>
<feColorMatrix in="SourceAlpha" type="matrix" values="0 0 0 0 0 0 0 0 0 0 0 0 0 0 0 0 0 0 127 0" result="hardAlpha"/>
<feOffset dy="6.78032"/>
<feGaussianBlur stdDeviation="6.78032"/>
<feComposite in2="hardAlpha" operator="arithmetic" k2="-1" k3="1"/>
<feColorMatrix type="matrix" values="0 0 0 0 0.541667 0 0 0 0 0.040625 0 0 0 0 0.142143 0 0 0 1 0"/>
<feBlend mode="normal" in2="shape" result="effect1_innerShadow_16_1513"/>
</filter>
<filter id="filter6_i_16_1513" x="1289.27" y="234.011" width="183.169" height="218.834" filterUnits="userSpaceOnUse" color-interpolation-filters="sRGB">
<feFlood flood-opacity="0" result="BackgroundImageFix"/>
<feBlend mode="normal" in="SourceGraphic" in2="BackgroundImageFix" result="shape"/>
<feColorMatrix in="SourceAlpha" type="matrix" values="0 0 0 0 0 0 0 0 0 0 0 0 0 0 0 0 0 0 127 0" result="hardAlpha"/>
<feOffset dy="6.78032"/>
<feGaussianBlur stdDeviation="6.78032"/>
<feComposite in2="hardAlpha" operator="arithmetic" k2="-1" k3="1"/>
<feColorMatrix type="matrix" values="0 0 0 0 0.541667 0 0 0 0 0.040625 0 0 0 0 0.142143 0 0 0 1 0"/>
<feBlend mode="normal" in2="shape" result="effect1_innerShadow_16_1513"/>
</filter>
<filter id="filter7_i_16_1513" x="1318.65" y="264.722" width="121.971" height="145.18" filterUnits="userSpaceOnUse" color-interpolation-filters="sRGB">
<feFlood flood-opacity="0" result="BackgroundImageFix"/>
<feBlend mode="normal" in="SourceGraphic" in2="BackgroundImageFix" result="shape"/>
<feColorMatrix in="SourceAlpha" type="matrix" values="0 0 0 0 0 0 0 0 0 0 0 0 0 0 0 0 0 0 127 0" result="hardAlpha"/>
<feOffset dy="6.78032"/>
<feGaussianBlur stdDeviation="6.78032"/>
<feComposite in2="hardAlpha" operator="arithmetic" k2="-1" k3="1"/>
<feColorMatrix type="matrix" values="0 0 0 0 0.541667 0 0 0 0 0.040625 0 0 0 0 0.142143 0 0 0 1 0"/>
<feBlend mode="normal" in2="shape" result="effect1_innerShadow_16_1513"/>
</filter>
<filter id="filter8_i_16_1513" x="609.233" y="366.536" width="65.8837" height="67.325" filterUnits="userSpaceOnUse" color-interpolation-filters="sRGB">
<feFlood flood-opacity="0" result="BackgroundImageFix"/>
<feBlend mode="normal" in="SourceGraphic" in2="BackgroundImageFix" result="shape"/>
<feColorMatrix in="SourceAlpha" type="matrix" values="0 0 0 0 0 0 0 0 0 0 0 0 0 0 0 0 0 0 127 0" result="hardAlpha"/>
<feOffset dy="6.78032"/>
<feGaussianBlur stdDeviation="6.78032"/>
<feComposite in2="hardAlpha" operator="arithmetic" k2="-1" k3="1"/>
<feColorMatrix type="matrix" values="0 0 0 0 0.541667 0 0 0 0 0.040625 0 0 0 0 0.142143 0 0 0 1 0"/>
<feBlend mode="normal" in2="shape" result="effect1_innerShadow_16_1513"/>
</filter>
<filter id="filter9_i_16_1513" x="523.556" y="-66.1401" width="192.08" height="189.363" filterUnits="userSpaceOnUse" color-interpolation-filters="sRGB">
<feFlood flood-opacity="0" result="BackgroundImageFix"/>
<feBlend mode="normal" in="SourceGraphic" in2="BackgroundImageFix" result="shape"/>
<feColorMatrix in="SourceAlpha" type="matrix" values="0 0 0 0 0 0 0 0 0 0 0 0 0 0 0 0 0 0 127 0" result="hardAlpha"/>
<feOffset dy="6.78032"/>
<feGaussianBlur stdDeviation="6.78032"/>
<feComposite in2="hardAlpha" operator="arithmetic" k2="-1" k3="1"/>
<feColorMatrix type="matrix" values="0 0 0 0 0.541667 0 0 0 0 0.040625 0 0 0 0 0.142143 0 0 0 1 0"/>
<feBlend mode="normal" in2="shape" result="effect1_innerShadow_16_1513"/>
</filter>
<filter id="filter10_i_16_1513" x="561.286" y="-37.0273" width="126.779" height="134.602" filterUnits="userSpaceOnUse" color-interpolation-filters="sRGB">
<feFlood flood-opacity="0" result="BackgroundImageFix"/>
<feBlend mode="normal" in="SourceGraphic" in2="BackgroundImageFix" result="shape"/>
<feColorMatrix in="SourceAlpha" type="matrix" values="0 0 0 0 0 0 0 0 0 0 0 0 0 0 0 0 0 0 127 0" result="hardAlpha"/>
<feOffset dy="6.78032"/>
<feGaussianBlur stdDeviation="6.78032"/>
<feComposite in2="hardAlpha" operator="arithmetic" k2="-1" k3="1"/>
<feColorMatrix type="matrix" values="0 0 0 0 0.541667 0 0 0 0 0.040625 0 0 0 0 0.142143 0 0 0 1 0"/>
<feBlend mode="normal" in2="shape" result="effect1_innerShadow_16_1513"/>
</filter>
<filter id="filter11_i_16_1513" x="785.885" y="608.809" width="37.2881" height="44.375" filterUnits="userSpaceOnUse" color-interpolation-filters="sRGB">
<feFlood flood-opacity="0" result="BackgroundImageFix"/>
<feBlend mode="normal" in="SourceGraphic" in2="BackgroundImageFix" result="shape"/>
<feColorMatrix in="SourceAlpha" type="matrix" values="0 0 0 0 0 0 0 0 0 0 0 0 0 0 0 0 0 0 127 0" result="hardAlpha"/>
<feOffset dy="6.78032"/>
<feGaussianBlur stdDeviation="6.78032"/>
<feComposite in2="hardAlpha" operator="arithmetic" k2="-1" k3="1"/>
<feColorMatrix type="matrix" values="0 0 0 0 0.541667 0 0 0 0 0.040625 0 0 0 0 0.142143 0 0 0 1 0"/>
<feBlend mode="normal" in2="shape" result="effect1_innerShadow_16_1513"/>
</filter>
<filter id="filter12_i_16_1513" x="180.317" y="73.0769" width="194.502" height="210.669" filterUnits="userSpaceOnUse" color-interpolation-filters="sRGB">
<feFlood flood-opacity="0" result="BackgroundImageFix"/>
<feBlend mode="normal" in="SourceGraphic" in2="BackgroundImageFix" result="shape"/>
<feColorMatrix in="SourceAlpha" type="matrix" values="0 0 0 0 0 0 0 0 0 0 0 0 0 0 0 0 0 0 127 0" result="hardAlpha"/>
<feOffset dy="6.78032"/>
<feGaussianBlur stdDeviation="6.78032"/>
<feComposite in2="hardAlpha" operator="arithmetic" k2="-1" k3="1"/>
<feColorMatrix type="matrix" values="0 0 0 0 0.541667 0 0 0 0 0.040625 0 0 0 0 0.142143 0 0 0 1 0"/>
<feBlend mode="normal" in2="shape" result="effect1_innerShadow_16_1513"/>
</filter>
<filter id="filter13_i_16_1513" x="209.443" y="105.62" width="134.113" height="144.533" filterUnits="userSpaceOnUse" color-interpolation-filters="sRGB">
<feFlood flood-opacity="0" result="BackgroundImageFix"/>
<feBlend mode="normal" in="SourceGraphic" in2="BackgroundImageFix" result="shape"/>
<feColorMatrix in="SourceAlpha" type="matrix" values="0 0 0 0 0 0 0 0 0 0 0 0 0 0 0 0 0 0 127 0" result="hardAlpha"/>
<feOffset dy="6.78032"/>
<feGaussianBlur stdDeviation="6.78032"/>
<feComposite in2="hardAlpha" operator="arithmetic" k2="-1" k3="1"/>
<feColorMatrix type="matrix" values="0 0 0 0 0.541667 0 0 0 0 0.040625 0 0 0 0 0.142143 0 0 0 1 0"/>
<feBlend mode="normal" in2="shape" result="effect1_innerShadow_16_1513"/>
</filter>
<filter id="filter14_f_16_1513" x="-165.358" y="-769.899" width="2022.11" height="1829.76" filterUnits="userSpaceOnUse" color-interpolation-filters="sRGB">
<feFlood flood-opacity="0" result="BackgroundImageFix"/>
<feBlend mode="normal" in="SourceGraphic" in2="BackgroundImageFix" result="shape"/>
<feGaussianBlur stdDeviation="55.5144" result="effect1_foregroundBlur_16_1513"/>
</filter>
<filter id="filter15_f_16_1513" x="-65.1054" y="-786.842" width="2232.75" height="1730.12" filterUnits="userSpaceOnUse" color-interpolation-filters="sRGB">
<feFlood flood-opacity="0" result="BackgroundImageFix"/>
<feBlend mode="normal" in="SourceGraphic" in2="BackgroundImageFix" result="shape"/>
<feGaussianBlur stdDeviation="83.2717" result="effect1_foregroundBlur_16_1513"/>
</filter>
<linearGradient id="paint0_linear_16_1513" x1="1124.92" y1="-162.361" x2="-136.18" y2="1031.2" gradientUnits="userSpaceOnUse">
<stop stop-color="#F3164E"/>
<stop offset="1" stop-color="#8B0119"/>
</linearGradient>
<clipPath id="clip0_16_1513">
<rect width="1361" height="905" fill="white"/>
</clipPath>
<clipPath id="clip1_16_1513">
<rect x="171" y="-342.783" width="1110.29" height="1110.29" rx="555.144" transform="rotate(-19.1497 171 -342.783)" fill="white"/>
</clipPath>
</defs>
</svg>
