<svg width="2235" height="569" viewBox="0 0 2235 569" fill="none" xmlns="http://www.w3.org/2000/svg">
<path d="M11.34 262V116.2H43.56V175.24H66.06V116.2H98.46V262H66.06V198.28H43.56V262H11.34ZM124.263 262V116.2H189.783V138.16H156.483V174.34H181.863V196.66H156.483V240.22H190.143V262H124.263ZM226.731 262V202.42L199.011 116.2H229.431L243.291 162.28L255.711 116.2H284.871L257.691 202.42V262H226.731ZM301.126 287.2L299.326 277.66C302.446 276.82 305.326 275.26 307.966 272.98C310.726 270.82 312.106 267.16 312.106 262H296.626V234.28H324.526V258.22C324.406 267.1 322.426 274 318.586 278.92C314.746 283.84 308.926 286.6 301.126 287.2Z" fill="white"/>
<path d="M11.34 262H9.95388V263.386H11.34V262ZM11.34 116.2V114.814H9.95388V116.2H11.34ZM43.56 116.2H44.9461V114.814H43.56V116.2ZM43.56 175.24H42.1739V176.626H43.56V175.24ZM66.06 175.24V176.626H67.4461V175.24H66.06ZM66.06 116.2V114.814H64.6739V116.2H66.06ZM98.46 116.2H99.8461V114.814H98.46V116.2ZM98.46 262V263.386H99.8461V262H98.46ZM66.06 262H64.6739V263.386H66.06V262ZM66.06 198.28H67.4461V196.894H66.06V198.28ZM43.56 198.28V196.894H42.1739V198.28H43.56ZM43.56 262V263.386H44.9461V262H43.56ZM12.7261 262V116.2H9.95388V262H12.7261ZM11.34 117.586H43.56V114.814H11.34V117.586ZM42.1739 116.2V175.24H44.9461V116.2H42.1739ZM43.56 176.626H66.06V173.854H43.56V176.626ZM67.4461 175.24V116.2H64.6739V175.24H67.4461ZM66.06 117.586H98.46V114.814H66.06V117.586ZM97.0739 116.2V262H99.8461V116.2H97.0739ZM98.46 260.614H66.06V263.386H98.46V260.614ZM67.4461 262V198.28H64.6739V262H67.4461ZM66.06 196.894H43.56V199.666H66.06V196.894ZM42.1739 198.28V262H44.9461V198.28H42.1739ZM43.56 260.614H11.34V263.386H43.56V260.614ZM124.263 262H122.877V263.386H124.263V262ZM124.263 116.2V114.814H122.877V116.2H124.263ZM189.783 116.2H191.169V114.814H189.783V116.2ZM189.783 138.16V139.546H191.169V138.16H189.783ZM156.483 138.16V136.774H155.097V138.16H156.483ZM156.483 174.34H155.097V175.726H156.483V174.34ZM181.863 174.34H183.249V172.954H181.863V174.34ZM181.863 196.66V198.046H183.249V196.66H181.863ZM156.483 196.66V195.274H155.097V196.66H156.483ZM156.483 240.22H155.097V241.606H156.483V240.22ZM190.143 240.22H191.529V238.834H190.143V240.22ZM190.143 262V263.386H191.529V262H190.143ZM125.649 262V116.2H122.877V262H125.649ZM124.263 117.586H189.783V114.814H124.263V117.586ZM188.397 116.2V138.16H191.169V116.2H188.397ZM189.783 136.774H156.483V139.546H189.783V136.774ZM155.097 138.16V174.34H157.869V138.16H155.097ZM156.483 175.726H181.863V172.954H156.483V175.726ZM180.477 174.34V196.66H183.249V174.34H180.477ZM181.863 195.274H156.483V198.046H181.863V195.274ZM155.097 196.66V240.22H157.869V196.66H155.097ZM156.483 241.606H190.143V238.834H156.483V241.606ZM188.757 240.22V262H191.529V240.22H188.757ZM190.143 260.614H124.263V263.386H190.143V260.614ZM226.731 262H225.345V263.386H226.731V262ZM226.731 202.42H228.117V202.203L228.051 201.996L226.731 202.42ZM199.011 116.2V114.814H197.109L197.691 116.624L199.011 116.2ZM229.431 116.2L230.758 115.801L230.462 114.814H229.431V116.2ZM243.291 162.28L241.964 162.679L243.364 167.335L244.629 162.641L243.291 162.28ZM255.711 116.2V114.814H254.649L254.373 115.839L255.711 116.2ZM284.871 116.2L286.193 116.617L286.761 114.814H284.871V116.2ZM257.691 202.42L256.369 202.003L256.305 202.207V202.42H257.691ZM257.691 262V263.386H259.077V262H257.691ZM228.117 262V202.42H225.345V262H228.117ZM228.051 201.996L200.331 115.776L197.691 116.624L225.411 202.844L228.051 201.996ZM199.011 117.586H229.431V114.814H199.011V117.586ZM228.104 116.599L241.964 162.679L244.618 161.881L230.758 115.801L228.104 116.599ZM244.629 162.641L257.049 116.561L254.373 115.839L241.953 161.919L244.629 162.641ZM255.711 117.586H284.871V114.814H255.711V117.586ZM283.549 115.783L256.369 202.003L259.013 202.837L286.193 116.617L283.549 115.783ZM256.305 202.42V262H259.077V202.42H256.305ZM257.691 260.614H226.731V263.386H257.691V260.614ZM301.126 287.2L299.764 287.457L299.994 288.677L301.232 288.582L301.126 287.2ZM299.326 277.66L298.966 276.322L297.726 276.655L297.964 277.917L299.326 277.66ZM307.966 272.98L307.112 271.888L307.085 271.909L307.06 271.931L307.966 272.98ZM312.106 262H313.492V260.614H312.106V262ZM296.626 262H295.24V263.386H296.626V262ZM296.626 234.28V232.894H295.24V234.28H296.626ZM324.526 234.28H325.912V232.894H324.526V234.28ZM324.526 258.22L325.912 258.239L325.912 258.229V258.22H324.526ZM302.488 286.943L300.688 277.403L297.964 277.917L299.764 287.457L302.488 286.943ZM299.686 278.998C303.023 278.1 306.087 276.434 308.872 274.029L307.06 271.931C304.565 274.086 301.869 275.54 298.966 276.322L299.686 278.998ZM308.82 274.072C312.052 271.543 313.492 267.378 313.492 262H310.72C310.72 266.942 309.4 270.097 307.112 271.888L308.82 274.072ZM312.106 260.614H296.626V263.386H312.106V260.614ZM298.012 262V234.28H295.24V262H298.012ZM296.626 235.666H324.526V232.894H296.626V235.666ZM323.14 234.28V258.22H325.912V234.28H323.14ZM323.14 258.201C323.022 266.903 321.083 273.468 317.493 278.067L319.679 279.773C323.769 274.532 325.79 267.297 325.912 258.239L323.14 258.201ZM317.493 278.067C313.951 282.605 308.537 285.24 301.02 285.818L301.232 288.582C309.315 287.96 315.541 285.075 319.679 279.773L317.493 278.067ZM23.94 470H22.5539V471.386H23.94V470ZM23.94 348.14H25.3261V346.754H23.94V348.14ZM1.98 348.14H0.593876V349.526H1.98V348.14ZM1.98 324.2V322.814H0.593876V324.2H1.98ZM78.12 324.2H79.5061V322.814H78.12V324.2ZM78.12 348.14V349.526H79.5061V348.14H78.12ZM56.34 348.14V346.754H54.9539V348.14H56.34ZM56.34 470V471.386H57.7261V470H56.34ZM25.3261 470V348.14H22.5539V470H25.3261ZM23.94 346.754H1.98V349.526H23.94V346.754ZM3.36612 348.14V324.2H0.593876V348.14H3.36612ZM1.98 325.586H78.12V322.814H1.98V325.586ZM76.7339 324.2V348.14H79.5061V324.2H76.7339ZM78.12 346.754H56.34V349.526H78.12V346.754ZM54.9539 348.14V470H57.7261V348.14H54.9539ZM56.34 468.614H23.94V471.386H56.34V468.614ZM95.0962 470H93.7101V471.386H95.0962V470ZM95.0962 324.2V322.814H93.7101V324.2H95.0962ZM127.316 324.2H128.702V322.814H127.316V324.2ZM127.316 383.24H125.93V384.626H127.316V383.24ZM149.816 383.24V384.626H151.202V383.24H149.816ZM149.816 324.2V322.814H148.43V324.2H149.816ZM182.216 324.2H183.602V322.814H182.216V324.2ZM182.216 470V471.386H183.602V470H182.216ZM149.816 470H148.43V471.386H149.816V470ZM149.816 406.28H151.202V404.894H149.816V406.28ZM127.316 406.28V404.894H125.93V406.28H127.316ZM127.316 470V471.386H128.702V470H127.316ZM96.4824 470V324.2H93.7101V470H96.4824ZM95.0962 325.586H127.316V322.814H95.0962V325.586ZM125.93 324.2V383.24H128.702V324.2H125.93ZM127.316 384.626H149.816V381.854H127.316V384.626ZM151.202 383.24V324.2H148.43V383.24H151.202ZM149.816 325.586H182.216V322.814H149.816V325.586ZM180.83 324.2V470H183.602V324.2H180.83ZM182.216 468.614H149.816V471.386H182.216V468.614ZM151.202 470V406.28H148.43V470H151.202ZM149.816 404.894H127.316V407.666H149.816V404.894ZM125.93 406.28V470H128.702V406.28H125.93ZM127.316 468.614H95.0962V471.386H127.316V468.614ZM208.02 470H206.633V471.386H208.02V470ZM208.02 324.2V322.814H206.633V324.2H208.02ZM273.54 324.2H274.926V322.814H273.54V324.2ZM273.54 346.16V347.546H274.926V346.16H273.54ZM240.24 346.16V344.774H238.853V346.16H240.24ZM240.24 382.34H238.853V383.726H240.24V382.34ZM265.62 382.34H267.006V380.954H265.62V382.34ZM265.62 404.66V406.046H267.006V404.66H265.62ZM240.24 404.66V403.274H238.853V404.66H240.24ZM240.24 448.22H238.853V449.606H240.24V448.22ZM273.9 448.22H275.286V446.834H273.9V448.22ZM273.9 470V471.386H275.286V470H273.9ZM209.406 470V324.2H206.633V470H209.406ZM208.02 325.586H273.54V322.814H208.02V325.586ZM272.153 324.2V346.16H274.926V324.2H272.153ZM273.54 344.774H240.24V347.546H273.54V344.774ZM238.853 346.16V382.34H241.626V346.16H238.853ZM240.24 383.726H265.62V380.954H240.24V383.726ZM264.233 382.34V404.66H267.006V382.34H264.233ZM265.62 403.274H240.24V406.046H265.62V403.274ZM238.853 404.66V448.22H241.626V404.66H238.853ZM240.24 449.606H273.9V446.834H240.24V449.606ZM272.513 448.22V470H275.286V448.22H272.513ZM273.9 468.614H208.02V471.386H273.9V468.614ZM292.127 470H290.741V471.386H292.127V470ZM292.127 324.2V322.814H290.741V324.2H292.127ZM374.567 339.14L373.433 339.936L373.443 339.95L373.453 339.964L374.567 339.14ZM379.247 378.74L377.889 378.461L377.889 378.461L379.247 378.74ZM373.847 390.98L372.743 390.142L372.738 390.148L373.847 390.98ZM362.867 399.44L362.273 398.188L361.214 398.691L361.534 399.818L362.867 399.44ZM382.847 470V471.386H384.68L384.181 469.622L382.847 470ZM349.547 470L348.201 470.33L348.46 471.386H349.547V470ZM333.527 404.66L334.874 404.33L334.615 403.274H333.527V404.66ZM324.347 404.66V403.274H322.961V404.66H324.347ZM324.347 470V471.386H325.733V470H324.347ZM324.347 386.12H322.961V387.506H324.347V386.12ZM343.967 383.78L344.697 384.959L344.717 384.946L344.736 384.933L343.967 383.78ZM349.187 376.76L347.877 376.307L347.872 376.322L347.867 376.338L349.187 376.76ZM347.387 351.02L346.228 351.78L346.228 351.78L347.387 351.02ZM324.347 345.8V344.414H322.961V345.8H324.347ZM293.513 470V324.2H290.741V470H293.513ZM292.127 325.586H332.267V322.814H292.127V325.586ZM332.267 325.586C342.012 325.586 350.391 326.656 357.429 328.768L358.226 326.112C350.864 323.904 342.203 322.814 332.267 322.814V325.586ZM357.429 328.768C364.36 330.847 369.668 334.575 373.433 339.936L375.702 338.343C371.546 332.425 365.695 328.353 358.226 326.112L357.429 328.768ZM373.453 339.964C377.289 345.155 379.301 352.679 379.301 362.72H382.073C382.073 352.361 380.005 344.165 375.682 338.316L373.453 339.964ZM379.301 362.72C379.301 368.649 378.827 373.893 377.889 378.461L380.605 379.019C381.588 374.227 382.073 368.791 382.073 362.72H379.301ZM377.889 378.461C376.967 382.958 375.246 386.842 372.743 390.142L374.952 391.818C377.728 388.158 379.607 383.882 380.605 379.019L377.889 378.461ZM372.738 390.148C370.384 393.287 366.922 395.979 362.273 398.188L363.462 400.692C368.412 398.341 372.27 395.393 374.956 391.812L372.738 390.148ZM361.534 399.818L381.514 470.378L384.181 469.622L364.201 399.062L361.534 399.818ZM382.847 468.614H349.547V471.386H382.847V468.614ZM350.894 469.67L334.874 404.33L332.181 404.99L348.201 470.33L350.894 469.67ZM333.527 403.274H324.347V406.046H333.527V403.274ZM322.961 404.66V470H325.733V404.66H322.961ZM324.347 468.614H292.127V471.386H324.347V468.614ZM324.347 387.506H333.347V384.734H324.347V387.506ZM333.347 387.506C338.037 387.506 341.87 386.709 344.697 384.959L343.238 382.601C341.025 383.971 337.778 384.734 333.347 384.734V387.506ZM344.736 384.933C347.529 383.072 349.456 380.469 350.508 377.182L347.867 376.338C346.999 379.051 345.446 381.128 343.198 382.627L344.736 384.933ZM350.497 377.213C351.641 373.91 352.193 370.029 352.193 365.6H349.421C349.421 369.811 348.894 373.37 347.877 376.307L350.497 377.213ZM352.193 365.6C352.193 359.216 351.031 354.053 348.547 350.26L346.228 351.78C348.303 354.947 349.421 359.504 349.421 365.6H352.193ZM348.547 350.26C345.904 346.226 341.139 344.414 334.787 344.414V347.186C340.676 347.186 344.311 348.853 346.228 351.78L348.547 350.26ZM334.787 344.414H324.347V347.186H334.787V344.414ZM322.961 345.8V386.12H325.733V345.8H322.961ZM403.657 470H402.271V471.386H403.657V470ZM403.657 324.2V322.814H402.271V324.2H403.657ZM469.177 324.2H470.563V322.814H469.177V324.2ZM469.177 346.16V347.546H470.563V346.16H469.177ZM435.877 346.16V344.774H434.491V346.16H435.877ZM435.877 382.34H434.491V383.726H435.877V382.34ZM461.257 382.34H462.643V380.954H461.257V382.34ZM461.257 404.66V406.046H462.643V404.66H461.257ZM435.877 404.66V403.274H434.491V404.66H435.877ZM435.877 448.22H434.491V449.606H435.877V448.22ZM469.537 448.22H470.923V446.834H469.537V448.22ZM469.537 470V471.386H470.923V470H469.537ZM405.043 470V324.2H402.271V470H405.043ZM403.657 325.586H469.177V322.814H403.657V325.586ZM467.791 324.2V346.16H470.563V324.2H467.791ZM469.177 344.774H435.877V347.546H469.177V344.774ZM434.491 346.16V382.34H437.263V346.16H434.491ZM435.877 383.726H461.257V380.954H435.877V383.726ZM459.871 382.34V404.66H462.643V382.34H459.871ZM461.257 403.274H435.877V406.046H461.257V403.274ZM434.491 404.66V448.22H437.263V404.66H434.491ZM435.877 449.606H469.537V446.834H435.877V449.606ZM468.151 448.22V470H470.923V448.22H468.151ZM469.537 468.614H403.657V471.386H469.537V468.614Z" fill="white"/>
<g clip-path="url(#clip0_21_3502)">
<g clip-path="url(#clip1_21_3502)">
<rect x="1045" y="-342.783" width="1110.29" height="1110.29" rx="555.144" transform="rotate(-19.1497 1045 -342.783)" fill="url(#paint0_linear_21_3502)"/>
<g filter="url(#filter0_i_21_3502)">
<path d="M1969.49 458.807C1948.24 480.525 1896.32 469.926 1874.6 448.675C1852.88 427.424 1855.61 379.588 1876.86 357.871C1898.11 336.153 1936.25 342.223 1957.97 363.474C1979.69 384.725 1990.74 437.089 1969.49 458.807Z" fill="#BA1F44"/>
</g>
<g filter="url(#filter1_i_21_3502)">
<path d="M2270.73 438.923C2217.77 461.37 2200.81 428.483 2177.78 374.126C2154.74 319.768 2155.21 264.608 2208.18 242.16C2261.14 219.712 2316.64 245.196 2339.68 299.553C2362.71 353.911 2323.7 416.475 2270.73 438.923Z" fill="#E31949"/>
</g>
<g filter="url(#filter2_i_21_3502)">
<path d="M2274.49 398.627C2241.04 412.804 2215.05 391.832 2200.87 358.381C2186.69 324.93 2189.01 283.027 2222.46 268.85C2255.91 254.672 2295.21 278.937 2309.39 312.388C2323.56 345.838 2307.94 384.449 2274.49 398.627Z" fill="#C60C38"/>
</g>
<g filter="url(#filter3_i_21_3502)">
<path d="M1545.48 414.082C1537.31 429.736 1521.07 429.896 1505.42 421.724C1489.77 413.552 1477.69 397.111 1485.86 381.456C1494.04 365.802 1516.28 362.768 1531.93 370.94C1547.59 379.112 1553.65 398.427 1545.48 414.082Z" fill="#BA1F44"/>
</g>
<g opacity="0.5" filter="url(#filter4_i_21_3502)">
<path d="M1402.76 9.07633C1385.77 58.3467 1411.62 93.5604 1462.18 110.996C1512.75 128.432 1567.51 102.624 1584.5 53.354C1601.49 4.08357 1575 -44.4875 1524.43 -61.923C1473.87 -79.3586 1419.75 -40.194 1402.76 9.07633Z" fill="#E31949"/>
</g>
<g filter="url(#filter5_i_21_3502)">
<path d="M1438.95 3.16171C1428.22 34.2798 1441.51 77.5949 1472.63 88.3245C1503.75 99.0541 1548.76 73.2159 1559.49 42.0978C1570.22 10.9796 1545.84 -23.0254 1514.72 -33.755C1483.61 -44.4846 1449.68 -27.9564 1438.95 3.16171Z" fill="#C60C38"/>
</g>
<g filter="url(#filter6_i_21_3502)">
<path d="M1064.97 228.225C1087.83 279.385 1133.99 288.041 1186.5 264.576C1239 241.112 1263.03 180.617 1240.17 129.458C1217.31 78.2983 1160.83 59.6329 1108.32 83.0972C1055.82 106.562 1042.11 177.066 1064.97 228.225Z" fill="#E31949"/>
</g>
<g filter="url(#filter7_i_21_3502)">
<path d="M1089.04 196.995C1103.47 229.307 1145.73 253.545 1178.04 239.106C1210.35 224.666 1226.71 171.31 1212.27 138.999C1197.83 106.688 1153.71 97.9059 1121.39 112.345C1089.08 126.785 1074.6 164.684 1089.04 196.995Z" fill="#C60C38"/>
</g>
<circle cx="1725.68" cy="272.678" r="13.4048" transform="rotate(-19.1497 1725.68 272.678)" fill="#C60C38"/>
<circle cx="1575.45" cy="322.431" r="13.4048" transform="rotate(-19.1497 1575.45 322.431)" fill="#BA1F44"/>
<circle cx="1752.37" cy="485.767" r="13.4048" transform="rotate(-19.1497 1752.37 485.767)" fill="#BA1F44"/>
<circle cx="2138.99" cy="441.333" r="13.4048" transform="rotate(-19.1497 2138.99 441.333)" fill="#BA1F44"/>
<circle cx="1947.81" cy="231.324" r="13.4048" transform="rotate(-19.1497 1947.81 231.324)" fill="#E31949"/>
<circle cx="1371.27" cy="69.3722" r="13.4048" transform="rotate(-19.1497 1371.27 69.3722)" fill="#BA1F44"/>
<path d="M-113.57 890.099L213.263 647.644C303.662 580.584 412.525 543 525.043 540.008L753.431 533.935C865.288 530.96 973.552 493.798 1063.66 427.448L1259.98 282.877C1349.54 216.927 1457.06 179.804 1568.23 176.446L1804.27 169.316C1916.78 165.917 2025.51 127.941 2115.66 60.5545L2302.75 -79.2841C2393.45 -147.075 2502.93 -185.092 2616.12 -188.102L2848.52 -194.282C2961.72 -197.292 3071.19 -235.309 3161.89 -303.1L3348.11 -442.287C3438.8 -510.078 3548.28 -548.094 3661.47 -551.104L4067.85 -561.911" stroke="#A60823" stroke-width="29.6077"/>
<path d="M-164.552 1025.34L162.28 782.884C252.679 715.823 361.543 678.24 474.06 675.248L702.448 669.174C814.306 666.199 922.569 629.037 1012.67 562.687L1209 418.116C1298.56 352.166 1406.08 315.044 1517.25 311.685L1753.29 304.555C1865.8 301.157 1974.52 263.181 2064.68 195.794L2251.77 55.9551C2342.47 -11.8359 2451.94 -49.8523 2565.14 -52.8625L2797.54 -59.0428C2910.73 -62.053 3020.21 -100.069 3110.91 -167.86L3297.12 -307.047C3387.82 -374.839 3497.3 -412.855 3610.49 -415.865L4016.87 -426.672" stroke="#A60823" stroke-width="29.6077"/>
<path d="M-233.744 1108.13L93.0885 865.679C183.487 798.618 292.351 761.035 404.869 758.042L633.256 751.969C745.114 748.994 853.378 711.832 943.481 645.482L1139.81 500.911C1229.37 434.961 1336.89 397.839 1448.06 394.48L1684.1 387.35C1796.61 383.952 1905.33 345.976 1995.49 278.589L2182.58 138.75C2273.27 70.959 2382.75 32.9426 2495.94 29.9325L2728.35 23.7521C2841.54 20.7419 2951.02 -17.2745 3041.72 -85.0655L3227.93 -224.253C3318.63 -292.044 3428.11 -330.06 3541.3 -333.07L3947.67 -343.877" stroke="#A60823" stroke-width="44.4116"/>
<path d="M-153.875 943.274L172.958 700.819C263.357 633.758 372.221 596.175 484.738 593.183L713.126 587.11C824.984 584.135 933.247 546.973 1023.35 480.623L1219.68 336.052C1309.24 270.102 1416.76 232.979 1527.93 229.621L1763.97 222.491C1876.48 219.092 1985.2 181.116 2075.36 113.729L2262.45 -26.1093C2353.14 -93.9004 2462.62 -131.917 2575.81 -134.927L2808.22 -141.107C2921.41 -144.117 3030.89 -182.134 3121.58 -249.925L3307.8 -389.112C3398.5 -456.903 3507.98 -494.919 3621.17 -497.93L4027.54 -508.736" stroke="#A60823" stroke-width="14.8039"/>
<path d="M-71.8088 953.953L255.024 711.498C345.423 644.437 454.287 606.854 566.804 603.862L795.192 597.788C907.05 594.814 1015.31 557.651 1105.42 491.301L1301.75 346.73C1391.31 280.781 1498.82 243.658 1609.99 240.3L1846.04 233.169C1958.54 229.771 2067.27 191.795 2157.42 124.408L2344.51 -15.4306C2435.21 -83.2217 2544.69 -121.238 2657.88 -124.248L2890.28 -130.429C3003.48 -133.439 3112.95 -171.455 3203.65 -239.246L3389.87 -378.433C3480.56 -446.224 3590.04 -484.241 3703.23 -487.251L4109.61 -498.058" stroke="#A60823" stroke-width="14.8039"/>
<g opacity="0.3" filter="url(#filter8_f_21_3502)">
<path d="M1378.47 -658.87V-658.87C1171.66 -18.6907 1769.47 590.059 2413.3 394.902L2619.72 332.33L819.671 948.828L1378.47 -658.87Z" fill="#86041B"/>
</g>
<g opacity="0.3" filter="url(#filter9_f_21_3502)">
<path d="M1902.86 776.731V776.731C2274.88 216.197 1863.7 -531.388 1191.09 -517.369L975.438 -512.875L2875.1 -620.299L1902.86 776.731Z" fill="#FF698D"/>
</g>
</g>
</g>
<defs>
<filter id="filter0_i_21_3502" x="1859.56" y="344.266" width="121.346" height="133.272" filterUnits="userSpaceOnUse" color-interpolation-filters="sRGB">
<feFlood flood-opacity="0" result="BackgroundImageFix"/>
<feBlend mode="normal" in="SourceGraphic" in2="BackgroundImageFix" result="shape"/>
<feColorMatrix in="SourceAlpha" type="matrix" values="0 0 0 0 0 0 0 0 0 0 0 0 0 0 0 0 0 0 127 0" result="hardAlpha"/>
<feOffset dy="6.78032"/>
<feGaussianBlur stdDeviation="6.78032"/>
<feComposite in2="hardAlpha" operator="arithmetic" k2="-1" k3="1"/>
<feColorMatrix type="matrix" values="0 0 0 0 0.541667 0 0 0 0 0.040625 0 0 0 0 0.142143 0 0 0 1 0"/>
<feBlend mode="normal" in2="shape" result="effect1_innerShadow_21_3502"/>
</filter>
<filter id="filter1_i_21_3502" x="2163.27" y="234.012" width="183.169" height="218.834" filterUnits="userSpaceOnUse" color-interpolation-filters="sRGB">
<feFlood flood-opacity="0" result="BackgroundImageFix"/>
<feBlend mode="normal" in="SourceGraphic" in2="BackgroundImageFix" result="shape"/>
<feColorMatrix in="SourceAlpha" type="matrix" values="0 0 0 0 0 0 0 0 0 0 0 0 0 0 0 0 0 0 127 0" result="hardAlpha"/>
<feOffset dy="6.78032"/>
<feGaussianBlur stdDeviation="6.78032"/>
<feComposite in2="hardAlpha" operator="arithmetic" k2="-1" k3="1"/>
<feColorMatrix type="matrix" values="0 0 0 0 0.541667 0 0 0 0 0.040625 0 0 0 0 0.142143 0 0 0 1 0"/>
<feBlend mode="normal" in2="shape" result="effect1_innerShadow_21_3502"/>
</filter>
<filter id="filter2_i_21_3502" x="2192.65" y="264.722" width="121.97" height="145.18" filterUnits="userSpaceOnUse" color-interpolation-filters="sRGB">
<feFlood flood-opacity="0" result="BackgroundImageFix"/>
<feBlend mode="normal" in="SourceGraphic" in2="BackgroundImageFix" result="shape"/>
<feColorMatrix in="SourceAlpha" type="matrix" values="0 0 0 0 0 0 0 0 0 0 0 0 0 0 0 0 0 0 127 0" result="hardAlpha"/>
<feOffset dy="6.78032"/>
<feGaussianBlur stdDeviation="6.78032"/>
<feComposite in2="hardAlpha" operator="arithmetic" k2="-1" k3="1"/>
<feColorMatrix type="matrix" values="0 0 0 0 0.541667 0 0 0 0 0.040625 0 0 0 0 0.142143 0 0 0 1 0"/>
<feBlend mode="normal" in2="shape" result="effect1_innerShadow_21_3502"/>
</filter>
<filter id="filter3_i_21_3502" x="1483.23" y="366.537" width="65.8835" height="67.325" filterUnits="userSpaceOnUse" color-interpolation-filters="sRGB">
<feFlood flood-opacity="0" result="BackgroundImageFix"/>
<feBlend mode="normal" in="SourceGraphic" in2="BackgroundImageFix" result="shape"/>
<feColorMatrix in="SourceAlpha" type="matrix" values="0 0 0 0 0 0 0 0 0 0 0 0 0 0 0 0 0 0 127 0" result="hardAlpha"/>
<feOffset dy="6.78032"/>
<feGaussianBlur stdDeviation="6.78032"/>
<feComposite in2="hardAlpha" operator="arithmetic" k2="-1" k3="1"/>
<feColorMatrix type="matrix" values="0 0 0 0 0.541667 0 0 0 0 0.040625 0 0 0 0 0.142143 0 0 0 1 0"/>
<feBlend mode="normal" in2="shape" result="effect1_innerShadow_21_3502"/>
</filter>
<filter id="filter4_i_21_3502" x="1397.56" y="-66.1396" width="192.081" height="189.363" filterUnits="userSpaceOnUse" color-interpolation-filters="sRGB">
<feFlood flood-opacity="0" result="BackgroundImageFix"/>
<feBlend mode="normal" in="SourceGraphic" in2="BackgroundImageFix" result="shape"/>
<feColorMatrix in="SourceAlpha" type="matrix" values="0 0 0 0 0 0 0 0 0 0 0 0 0 0 0 0 0 0 127 0" result="hardAlpha"/>
<feOffset dy="6.78032"/>
<feGaussianBlur stdDeviation="6.78032"/>
<feComposite in2="hardAlpha" operator="arithmetic" k2="-1" k3="1"/>
<feColorMatrix type="matrix" values="0 0 0 0 0.541667 0 0 0 0 0.040625 0 0 0 0 0.142143 0 0 0 1 0"/>
<feBlend mode="normal" in2="shape" result="effect1_innerShadow_21_3502"/>
</filter>
<filter id="filter5_i_21_3502" x="1435.29" y="-37.0264" width="126.779" height="134.602" filterUnits="userSpaceOnUse" color-interpolation-filters="sRGB">
<feFlood flood-opacity="0" result="BackgroundImageFix"/>
<feBlend mode="normal" in="SourceGraphic" in2="BackgroundImageFix" result="shape"/>
<feColorMatrix in="SourceAlpha" type="matrix" values="0 0 0 0 0 0 0 0 0 0 0 0 0 0 0 0 0 0 127 0" result="hardAlpha"/>
<feOffset dy="6.78032"/>
<feGaussianBlur stdDeviation="6.78032"/>
<feComposite in2="hardAlpha" operator="arithmetic" k2="-1" k3="1"/>
<feColorMatrix type="matrix" values="0 0 0 0 0.541667 0 0 0 0 0.040625 0 0 0 0 0.142143 0 0 0 1 0"/>
<feBlend mode="normal" in2="shape" result="effect1_innerShadow_21_3502"/>
</filter>
<filter id="filter6_i_21_3502" x="1054.32" y="73.0771" width="194.502" height="210.669" filterUnits="userSpaceOnUse" color-interpolation-filters="sRGB">
<feFlood flood-opacity="0" result="BackgroundImageFix"/>
<feBlend mode="normal" in="SourceGraphic" in2="BackgroundImageFix" result="shape"/>
<feColorMatrix in="SourceAlpha" type="matrix" values="0 0 0 0 0 0 0 0 0 0 0 0 0 0 0 0 0 0 127 0" result="hardAlpha"/>
<feOffset dy="6.78032"/>
<feGaussianBlur stdDeviation="6.78032"/>
<feComposite in2="hardAlpha" operator="arithmetic" k2="-1" k3="1"/>
<feColorMatrix type="matrix" values="0 0 0 0 0.541667 0 0 0 0 0.040625 0 0 0 0 0.142143 0 0 0 1 0"/>
<feBlend mode="normal" in2="shape" result="effect1_innerShadow_21_3502"/>
</filter>
<filter id="filter7_i_21_3502" x="1083.44" y="105.621" width="134.113" height="144.534" filterUnits="userSpaceOnUse" color-interpolation-filters="sRGB">
<feFlood flood-opacity="0" result="BackgroundImageFix"/>
<feBlend mode="normal" in="SourceGraphic" in2="BackgroundImageFix" result="shape"/>
<feColorMatrix in="SourceAlpha" type="matrix" values="0 0 0 0 0 0 0 0 0 0 0 0 0 0 0 0 0 0 127 0" result="hardAlpha"/>
<feOffset dy="6.78032"/>
<feGaussianBlur stdDeviation="6.78032"/>
<feComposite in2="hardAlpha" operator="arithmetic" k2="-1" k3="1"/>
<feColorMatrix type="matrix" values="0 0 0 0 0.541667 0 0 0 0 0.040625 0 0 0 0 0.142143 0 0 0 1 0"/>
<feBlend mode="normal" in2="shape" result="effect1_innerShadow_21_3502"/>
</filter>
<filter id="filter8_f_21_3502" x="708.642" y="-769.899" width="2022.11" height="1829.76" filterUnits="userSpaceOnUse" color-interpolation-filters="sRGB">
<feFlood flood-opacity="0" result="BackgroundImageFix"/>
<feBlend mode="normal" in="SourceGraphic" in2="BackgroundImageFix" result="shape"/>
<feGaussianBlur stdDeviation="55.5144" result="effect1_foregroundBlur_21_3502"/>
</filter>
<filter id="filter9_f_21_3502" x="808.895" y="-786.842" width="2232.75" height="1730.12" filterUnits="userSpaceOnUse" color-interpolation-filters="sRGB">
<feFlood flood-opacity="0" result="BackgroundImageFix"/>
<feBlend mode="normal" in="SourceGraphic" in2="BackgroundImageFix" result="shape"/>
<feGaussianBlur stdDeviation="83.2717" result="effect1_foregroundBlur_21_3502"/>
</filter>
<linearGradient id="paint0_linear_21_3502" x1="1998.92" y1="-162.361" x2="737.82" y2="1031.2" gradientUnits="userSpaceOnUse">
<stop stop-color="#F3164E"/>
<stop offset="1" stop-color="#8B0119"/>
</linearGradient>
<clipPath id="clip0_21_3502">
<rect width="1361" height="569" fill="white" transform="translate(874)"/>
</clipPath>
<clipPath id="clip1_21_3502">
<rect x="1045" y="-342.783" width="1110.29" height="1110.29" rx="555.144" transform="rotate(-19.1497 1045 -342.783)" fill="white"/>
</clipPath>
</defs>
</svg>
