<svg width="237" height="287" viewBox="0 0 237 287" fill="none" xmlns="http://www.w3.org/2000/svg">
<g filter="url(#filter0_d_2_417)">
<g clip-path="url(#clip0_2_417)">
<rect x="1" y="116.957" width="135.277" height="135.277" rx="67.6383" transform="rotate(-30.1559 1 116.957)" fill="url(#paint0_linear_2_417)"/>
<g filter="url(#filter1_i_2_417)">
<path d="M9.4589 203.298C7.23094 206.263 3.86145 205.742 0.896205 203.514C-2.06904 201.286 -4.01021 197.467 -1.78225 194.502C0.44571 191.537 5.15868 191.667 8.12392 193.895C11.0892 196.123 11.6869 200.333 9.4589 203.298Z" fill="#E31949"/>
</g>
<g filter="url(#filter2_i_2_417)">
<path d="M39.2229 235.723C39.0583 236.891 39.8222 238.324 40.9902 238.488C42.1582 238.653 43.5649 237.436 43.7294 236.268C43.8939 235.1 42.8037 234.07 41.6357 233.906C40.4676 233.741 39.3874 234.555 39.2229 235.723Z" fill="#C60C38"/>
</g>
<g filter="url(#filter3_i_2_417)">
<path d="M20.7296 230.823C20.565 231.991 21.3289 233.423 22.4969 233.588C23.6649 233.752 25.0716 232.536 25.2361 231.368C25.4006 230.2 24.3104 229.17 23.1424 229.006C21.9743 228.841 20.8941 229.655 20.7296 230.823Z" fill="#C60C38"/>
</g>
<g filter="url(#filter4_i_2_417)">
<path d="M73.5148 112.39C71.303 115.748 67.9339 115.826 64.4875 113.556C61.0412 111.286 60.0404 106.723 62.2522 103.365C64.464 100.007 68.6801 99.34 72.1264 101.61C75.5727 103.88 75.7266 109.032 73.5148 112.39Z" fill="#E31949"/>
</g>
<g filter="url(#filter5_i_2_417)">
<path d="M72.1731 109.899C70.7761 112.02 67.5029 113.247 65.3821 111.85C63.2612 110.453 62.7213 106.485 64.1183 104.364C65.5152 102.244 68.7415 102.133 70.8623 103.53C72.9831 104.927 73.57 107.779 72.1731 109.899Z" fill="#C60C38"/>
</g>
<g filter="url(#filter6_i_2_417)">
<path d="M130.213 191.321C128.176 194.412 121.72 194.352 118.629 192.316C115.537 190.28 114.75 184.495 116.786 181.404C118.823 178.312 123.526 178.151 126.618 180.187C129.71 182.223 132.249 188.229 130.213 191.321Z" fill="#BA1F44"/>
</g>
<g filter="url(#filter7_i_2_417)">
<path d="M75.771 245.043C80.2137 244.756 83.9959 237.977 83.7099 233.534C83.4239 229.091 77.8499 224.824 73.4073 225.11C68.9646 225.396 65.9948 230.213 66.2808 234.656C66.5669 239.099 71.3284 245.329 75.771 245.043Z" fill="#E31949"/>
</g>
<g filter="url(#filter8_i_2_417)">
<path d="M119.416 110.452C117.398 117.236 112.95 116.27 105.987 114.199C99.0241 112.129 93.8267 107.764 95.8441 100.98C97.8615 94.1953 104.626 90.9245 111.589 92.995C118.551 95.0655 121.433 103.668 119.416 110.452Z" fill="#E31949"/>
</g>
<g filter="url(#filter9_i_2_417)">
<path d="M115.887 106.939C114.613 111.224 110.587 112.048 106.302 110.774C102.017 109.5 98.2225 105.998 99.4966 101.713C100.771 97.4287 106.151 95.5997 110.436 96.8739C114.72 98.148 117.161 102.654 115.887 106.939Z" fill="#C60C38"/>
</g>
<g filter="url(#filter10_i_2_417)">
<path d="M165.778 181.935C159.966 185.852 157.174 182.313 153.154 176.348C149.134 170.383 147.908 163.775 153.72 159.858C159.532 155.941 166.762 157.698 170.782 163.663C174.802 169.629 171.591 178.019 165.778 181.935Z" fill="#E31949"/>
</g>
<g filter="url(#filter11_i_2_417)">
<path d="M165.29 177.029C161.619 179.502 158.023 177.599 155.549 173.928C153.076 170.257 152.378 165.192 156.049 162.718C159.72 160.244 164.984 162.232 167.458 165.903C169.932 169.574 168.961 174.555 165.29 177.029Z" fill="#C60C38"/>
</g>
<g filter="url(#filter12_i_2_417)">
<path d="M78.4617 195.834C77.8485 197.897 75.9108 198.294 73.8485 197.68C71.7862 197.067 69.9597 195.382 70.5729 193.319C71.1862 191.257 73.7757 190.377 75.838 190.99C77.9003 191.603 79.075 193.772 78.4617 195.834Z" fill="#BA1F44"/>
</g>
<g filter="url(#filter13_i_2_417)">
<path d="M153.795 119.441C151.567 122.406 148.197 121.885 145.232 119.657C142.267 117.43 140.326 113.61 142.554 110.645C144.782 107.68 149.494 107.81 152.46 110.038C155.425 112.266 156.023 116.476 153.795 119.441Z" fill="#E31949"/>
</g>
<g opacity="0.5" filter="url(#filter14_i_2_417)">
<path d="M51.972 150.716C51.0863 157.004 54.9963 160.615 61.4495 161.524C67.9028 162.433 73.8523 158.072 74.738 151.784C75.6237 145.497 71.3255 140.304 64.8722 139.395C58.419 138.486 52.8577 144.429 51.972 150.716Z" fill="#E31949"/>
</g>
<g filter="url(#filter15_i_2_417)">
<path d="M56.1628 149.167C55.6034 153.138 58.2004 158.01 62.1717 158.569C66.1429 159.128 70.9256 154.991 71.485 151.02C72.0444 147.049 68.3375 143.549 64.3663 142.989C60.395 142.43 56.7222 145.196 56.1628 149.167Z" fill="#C60C38"/>
</g>
<g filter="url(#filter16_i_2_417)">
<path d="M48.1284 126.984C47.9638 128.152 48.7277 129.585 49.8957 129.749C51.0637 129.914 52.4704 128.697 52.6349 127.529C52.7994 126.361 51.7092 125.332 50.5412 125.167C49.3732 125.003 48.2929 125.816 48.1284 126.984Z" fill="#E31949"/>
</g>
<g filter="url(#filter17_i_2_417)">
<path d="M12.2762 119.131C12.1117 120.299 12.8755 121.732 14.0435 121.896C15.2115 122.061 16.6182 120.844 16.7827 119.676C16.9473 118.508 15.857 117.478 14.689 117.314C13.521 117.149 12.4407 117.963 12.2762 119.131Z" fill="#E31949"/>
</g>
<g filter="url(#filter18_i_2_417)">
<path d="M174.758 172.624C174.594 173.792 175.358 175.225 176.526 175.389C177.694 175.554 179.1 174.337 179.265 173.169C179.429 172.001 178.339 170.972 177.171 170.807C176.003 170.643 174.923 171.456 174.758 172.624Z" fill="#C60C38"/>
</g>
<g filter="url(#filter19_i_2_417)">
<path d="M183.558 151.867C183.394 153.035 184.158 154.467 185.326 154.632C186.494 154.796 187.9 153.58 188.065 152.411C188.229 151.243 187.139 150.214 185.971 150.05C184.803 149.885 183.723 150.699 183.558 151.867Z" fill="#C60C38"/>
</g>
<g filter="url(#filter20_i_2_417)">
<path d="M165.065 146.966C164.901 148.134 165.664 149.566 166.832 149.731C168 149.895 169.407 148.679 169.572 147.511C169.736 146.343 168.646 145.313 167.478 145.149C166.31 144.984 165.23 145.798 165.065 146.966Z" fill="#C60C38"/>
</g>
<g filter="url(#filter21_i_2_417)">
<path d="M97.0778 217.851C96.9133 219.019 97.6771 220.452 98.8452 220.616C100.013 220.781 101.42 219.564 101.584 218.396C101.749 217.228 100.659 216.198 99.4906 216.034C98.3226 215.869 97.2424 216.683 97.0778 217.851Z" fill="#BA1F44"/>
</g>
<g opacity="0.8">
<g filter="url(#filter22_i_2_417)">
<path d="M34.8639 129.242C31.0513 129.887 27.3333 133.696 27.9789 137.509C28.6244 141.321 33.8228 144.508 37.6354 143.863C41.448 143.217 43.5817 138.789 42.9361 134.976C42.2906 131.164 38.6765 128.596 34.8639 129.242Z" fill="#E31949"/>
</g>
<g filter="url(#filter23_i_2_417)">
<path d="M33.3417 132.243C31.2165 132.603 29.144 134.726 29.5038 136.851C29.8637 138.976 32.7614 140.753 34.8867 140.393C37.0119 140.033 38.2013 137.565 37.8415 135.439C37.4816 133.314 35.467 131.883 33.3417 132.243Z" fill="#C60C38"/>
</g>
</g>
<g filter="url(#filter24_i_2_417)">
<path d="M16.6705 184.783C20.5949 190.37 26.3168 190.332 32.0506 186.304C37.7844 182.276 39.2512 174.482 35.3269 168.896C31.4025 163.309 24.2133 162.39 18.4795 166.418C12.7457 170.446 12.7462 179.197 16.6705 184.783Z" fill="#E31949"/>
</g>
<g filter="url(#filter25_i_2_417)">
<path d="M18.8223 180.489C21.3008 184.017 26.9184 185.933 30.4469 183.455C33.9754 180.976 34.6902 174.214 32.2117 170.686C29.7331 167.157 24.2519 167.133 20.7234 169.612C17.1949 172.09 16.3437 176.96 18.8223 180.489Z" fill="#C60C38"/>
</g>
<g filter="url(#filter26_i_2_417)">
<path d="M79.7684 73.5576C78.8177 80.3066 83.0145 84.1818 89.9411 85.1575C96.8678 86.1332 103.254 81.453 104.204 74.704C105.155 67.955 100.542 62.3813 93.6149 61.4056C86.6883 60.4299 80.7191 66.8086 79.7684 73.5576Z" fill="#E31949"/>
</g>
<g filter="url(#filter27_i_2_417)">
<path d="M84.2664 71.8948C83.666 76.1573 86.4535 81.3859 90.716 81.9863C94.9786 82.5868 100.112 78.146 100.713 73.8835C101.313 69.6209 97.3342 65.8644 93.0716 65.264C88.8091 64.6635 84.8669 67.6322 84.2664 71.8948Z" fill="#C60C38"/>
</g>
<circle cx="96.7237" cy="174.731" r="1.63323" transform="rotate(-30.1559 96.7237 174.731)" fill="#C60C38"/>
<circle cx="79.9139" cy="184.176" r="1.63323" transform="rotate(-30.1559 79.9139 184.176)" fill="#BA1F44"/>
<circle cx="64.9089" cy="126.475" r="1.63323" transform="rotate(-30.1559 64.9089 126.475)" fill="#E31949"/>
<circle cx="104.872" cy="199.596" r="1.63323" transform="rotate(-30.1559 104.872 199.596)" fill="#BA1F44"/>
<circle cx="150.078" cy="185.288" r="1.63323" transform="rotate(-30.1559 150.078 185.288)" fill="#BA1F44"/>
<circle cx="150.235" cy="207.234" r="1.63323" transform="rotate(-30.1559 150.235 207.234)" fill="#E31949"/>
<circle cx="122.328" cy="164.619" r="1.63323" transform="rotate(-30.1559 122.328 164.619)" fill="#E31949"/>
<circle cx="79.433" cy="106.888" r="1.63323" transform="rotate(-30.1559 79.433 106.888)" fill="#E31949"/>
<circle cx="72.7461" cy="126.959" r="1.63323" transform="rotate(-30.1559 72.7461 126.959)" fill="#E31949"/>
<circle cx="49.6089" cy="158.66" r="1.63323" transform="rotate(-30.1559 49.6089 158.66)" fill="#BA1F44"/>
<circle cx="115.592" cy="70.2101" r="1.63323" transform="rotate(-30.1559 115.592 70.2101)" fill="#BA1F44"/>
<path d="M-108.885 291.356L-75.4361 254.757C-66.1844 244.633 -54.0388 237.606 -40.6515 234.631L-13.478 228.592C-0.169255 225.635 11.9144 218.672 21.1473 208.641L41.265 186.784C50.4422 176.813 62.4373 169.872 75.6551 166.885L103.719 160.541C117.096 157.518 129.216 150.447 138.431 140.29L157.554 119.214C166.824 108.997 179.033 101.904 192.501 98.9106L220.152 92.7656C233.62 89.7726 245.829 82.6794 255.099 72.462L274.132 51.484C283.403 41.2666 295.612 34.1734 309.079 31.1805L357.429 20.4354" stroke="#A60823" stroke-width="3.60737"/>
<path d="M-111.837 308.716L-78.3877 272.117C-69.1361 261.994 -56.9904 254.967 -43.6032 251.992L-16.4297 245.953C-3.12091 242.995 8.96275 236.032 18.1956 226.001L38.3133 204.144C47.4905 194.173 59.4856 187.232 72.7035 184.245L100.768 177.902C114.144 174.878 126.264 167.807 135.479 157.651L154.602 136.574C163.872 126.357 176.081 119.264 189.549 116.271L217.2 110.126C230.668 107.133 242.877 100.04 252.147 89.8223L271.181 68.8442C280.451 58.6269 292.66 51.5337 306.128 48.5407L354.478 37.7956" stroke="#A60823" stroke-width="3.60737"/>
<path d="M-118.186 320.228L-84.737 283.628C-75.4853 273.505 -63.3397 266.478 -49.9524 263.503L-22.7789 257.464C-9.47016 254.507 2.6135 247.544 11.8464 237.512L31.9641 215.655C41.1413 205.685 53.1364 198.744 66.3542 195.756L94.4185 189.413C107.795 186.39 119.915 179.319 129.13 169.162L148.253 148.086C157.523 137.869 169.732 130.775 183.2 127.782L210.851 121.637C224.319 118.644 236.528 111.551 245.798 101.334L264.832 80.3558C274.102 70.1384 286.311 63.0452 299.778 60.0522L348.129 49.3072" stroke="#A60823" stroke-width="5.41106"/>
<path d="M-112.468 298.653L-79.0196 262.054C-69.7679 251.931 -57.6223 244.903 -44.235 241.928L-17.0615 235.89C-3.75275 232.932 8.33091 225.969 17.5638 215.938L37.6815 194.081C46.8587 184.11 58.8538 177.169 72.0716 174.182L100.136 167.838C113.512 164.815 125.633 157.744 134.848 147.588L153.97 126.511C163.241 116.294 175.45 109.201 188.917 106.208L216.568 100.063C230.036 97.0697 242.245 89.9765 251.515 79.7592L270.549 58.7811C279.819 48.5638 292.028 41.4705 305.496 38.4776L353.846 27.7325" stroke="#A60823" stroke-width="1.80369"/>
<path d="M-102.405 298.021L-68.9562 261.422C-59.7046 251.299 -47.5589 244.272 -34.1716 241.297L-6.99818 235.258C6.3106 232.3 18.3943 225.337 27.6272 215.306L47.7448 193.449C56.922 183.478 68.9172 176.537 82.135 173.55L110.199 167.207C123.576 164.183 135.696 157.112 144.911 146.956L164.034 125.88C173.304 115.662 185.513 108.569 198.981 105.576L226.632 99.4309C240.099 96.438 252.308 89.3447 261.579 79.1274L280.612 58.1493C289.883 47.932 302.092 40.8387 315.559 37.8458L363.909 27.1007" stroke="#A60823" stroke-width="1.80369"/>
<g opacity="0.3" filter="url(#filter28_f_2_417)">
<path d="M33.5296 71.3964V71.3964C23.6875 152.771 109.344 211.671 181.805 173.355L205.037 161.069L4.09498 276.672L33.5296 71.3964Z" fill="#86041B"/>
</g>
<g opacity="0.3" filter="url(#filter29_f_2_417)">
<path d="M129.639 230.894V230.894C161.093 155.202 94.5277 75.3562 14.4112 92.6781L-11.276 98.232L213.421 41.1966L129.639 230.894Z" fill="#FF698D"/>
</g>
</g>
</g>
<defs>
<filter id="filter0_d_2_417" x="-49.7287" y="0.0749706" width="286.383" height="286.383" filterUnits="userSpaceOnUse" color-interpolation-filters="sRGB">
<feFlood flood-opacity="0" result="BackgroundImageFix"/>
<feColorMatrix in="SourceAlpha" type="matrix" values="0 0 0 0 0 0 0 0 0 0 0 0 0 0 0 0 0 0 127 0" result="hardAlpha"/>
<feMorphology radius="5.63652" operator="dilate" in="SourceAlpha" result="effect1_dropShadow_2_417"/>
<feOffset dy="1.80369"/>
<feGaussianBlur stdDeviation="22.5461"/>
<feComposite in2="hardAlpha" operator="out"/>
<feColorMatrix type="matrix" values="0 0 0 0 0.9125 0 0 0 0 0.0114062 0 0 0 0 0.221506 0 0 0 0.4 0"/>
<feBlend mode="normal" in2="BackgroundImageFix" result="effect1_dropShadow_2_417"/>
<feBlend mode="normal" in="SourceGraphic" in2="effect1_dropShadow_2_417" result="shape"/>
</filter>
<filter id="filter1_i_2_417" x="-2.7467" y="192.247" width="13.5526" height="13.9346" filterUnits="userSpaceOnUse" color-interpolation-filters="sRGB">
<feFlood flood-opacity="0" result="BackgroundImageFix"/>
<feBlend mode="normal" in="SourceGraphic" in2="BackgroundImageFix" result="shape"/>
<feColorMatrix in="SourceAlpha" type="matrix" values="0 0 0 0 0 0 0 0 0 0 0 0 0 0 0 0 0 0 127 0" result="hardAlpha"/>
<feOffset dy="0.826108"/>
<feGaussianBlur stdDeviation="0.826108"/>
<feComposite in2="hardAlpha" operator="arithmetic" k2="-1" k3="1"/>
<feColorMatrix type="matrix" values="0 0 0 0 0.541667 0 0 0 0 0.040625 0 0 0 0 0.142143 0 0 0 1 0"/>
<feBlend mode="normal" in2="shape" result="effect1_innerShadow_2_417"/>
</filter>
<filter id="filter2_i_2_417" x="39.2006" y="233.885" width="4.54541" height="5.44452" filterUnits="userSpaceOnUse" color-interpolation-filters="sRGB">
<feFlood flood-opacity="0" result="BackgroundImageFix"/>
<feBlend mode="normal" in="SourceGraphic" in2="BackgroundImageFix" result="shape"/>
<feColorMatrix in="SourceAlpha" type="matrix" values="0 0 0 0 0 0 0 0 0 0 0 0 0 0 0 0 0 0 127 0" result="hardAlpha"/>
<feOffset dy="0.826108"/>
<feGaussianBlur stdDeviation="0.826108"/>
<feComposite in2="hardAlpha" operator="arithmetic" k2="-1" k3="1"/>
<feColorMatrix type="matrix" values="0 0 0 0 0.541667 0 0 0 0 0.040625 0 0 0 0 0.142143 0 0 0 1 0"/>
<feBlend mode="normal" in2="shape" result="effect1_innerShadow_2_417"/>
</filter>
<filter id="filter3_i_2_417" x="20.7073" y="228.984" width="4.54541" height="5.44452" filterUnits="userSpaceOnUse" color-interpolation-filters="sRGB">
<feFlood flood-opacity="0" result="BackgroundImageFix"/>
<feBlend mode="normal" in="SourceGraphic" in2="BackgroundImageFix" result="shape"/>
<feColorMatrix in="SourceAlpha" type="matrix" values="0 0 0 0 0 0 0 0 0 0 0 0 0 0 0 0 0 0 127 0" result="hardAlpha"/>
<feOffset dy="0.826108"/>
<feGaussianBlur stdDeviation="0.826108"/>
<feComposite in2="hardAlpha" operator="arithmetic" k2="-1" k3="1"/>
<feColorMatrix type="matrix" values="0 0 0 0 0.541667 0 0 0 0 0.040625 0 0 0 0 0.142143 0 0 0 1 0"/>
<feBlend mode="normal" in2="shape" result="effect1_innerShadow_2_417"/>
</filter>
<filter id="filter4_i_2_417" x="61.0768" y="100.28" width="13.9053" height="15.6555" filterUnits="userSpaceOnUse" color-interpolation-filters="sRGB">
<feFlood flood-opacity="0" result="BackgroundImageFix"/>
<feBlend mode="normal" in="SourceGraphic" in2="BackgroundImageFix" result="shape"/>
<feColorMatrix in="SourceAlpha" type="matrix" values="0 0 0 0 0 0 0 0 0 0 0 0 0 0 0 0 0 0 127 0" result="hardAlpha"/>
<feOffset dy="0.826108"/>
<feGaussianBlur stdDeviation="0.826108"/>
<feComposite in2="hardAlpha" operator="arithmetic" k2="-1" k3="1"/>
<feColorMatrix type="matrix" values="0 0 0 0 0.541667 0 0 0 0 0.040625 0 0 0 0 0.142143 0 0 0 1 0"/>
<feBlend mode="normal" in2="shape" result="effect1_innerShadow_2_417"/>
</filter>
<filter id="filter5_i_2_417" x="63.3451" y="102.604" width="9.58667" height="10.6678" filterUnits="userSpaceOnUse" color-interpolation-filters="sRGB">
<feFlood flood-opacity="0" result="BackgroundImageFix"/>
<feBlend mode="normal" in="SourceGraphic" in2="BackgroundImageFix" result="shape"/>
<feColorMatrix in="SourceAlpha" type="matrix" values="0 0 0 0 0 0 0 0 0 0 0 0 0 0 0 0 0 0 127 0" result="hardAlpha"/>
<feOffset dy="0.826108"/>
<feGaussianBlur stdDeviation="0.826108"/>
<feComposite in2="hardAlpha" operator="arithmetic" k2="-1" k3="1"/>
<feColorMatrix type="matrix" values="0 0 0 0 0.541667 0 0 0 0 0.040625 0 0 0 0 0.142143 0 0 0 1 0"/>
<feBlend mode="normal" in2="shape" result="effect1_innerShadow_2_417"/>
</filter>
<filter id="filter6_i_2_417" x="115.659" y="178.837" width="15.2855" height="15.7464" filterUnits="userSpaceOnUse" color-interpolation-filters="sRGB">
<feFlood flood-opacity="0" result="BackgroundImageFix"/>
<feBlend mode="normal" in="SourceGraphic" in2="BackgroundImageFix" result="shape"/>
<feColorMatrix in="SourceAlpha" type="matrix" values="0 0 0 0 0 0 0 0 0 0 0 0 0 0 0 0 0 0 127 0" result="hardAlpha"/>
<feOffset dy="0.826108"/>
<feGaussianBlur stdDeviation="0.826108"/>
<feComposite in2="hardAlpha" operator="arithmetic" k2="-1" k3="1"/>
<feColorMatrix type="matrix" values="0 0 0 0 0.541667 0 0 0 0 0.040625 0 0 0 0 0.142143 0 0 0 1 0"/>
<feBlend mode="normal" in2="shape" result="effect1_innerShadow_2_417"/>
</filter>
<filter id="filter7_i_2_417" x="66.2618" y="225.096" width="17.4633" height="20.7816" filterUnits="userSpaceOnUse" color-interpolation-filters="sRGB">
<feFlood flood-opacity="0" result="BackgroundImageFix"/>
<feBlend mode="normal" in="SourceGraphic" in2="BackgroundImageFix" result="shape"/>
<feColorMatrix in="SourceAlpha" type="matrix" values="0 0 0 0 0 0 0 0 0 0 0 0 0 0 0 0 0 0 127 0" result="hardAlpha"/>
<feOffset dy="0.826108"/>
<feGaussianBlur stdDeviation="0.826108"/>
<feComposite in2="hardAlpha" operator="arithmetic" k2="-1" k3="1"/>
<feColorMatrix type="matrix" values="0 0 0 0 0.541667 0 0 0 0 0.040625 0 0 0 0 0.142143 0 0 0 1 0"/>
<feBlend mode="normal" in2="shape" result="effect1_innerShadow_2_417"/>
</filter>
<filter id="filter8_i_2_417" x="95.4048" y="92.379" width="24.6412" height="24.1784" filterUnits="userSpaceOnUse" color-interpolation-filters="sRGB">
<feFlood flood-opacity="0" result="BackgroundImageFix"/>
<feBlend mode="normal" in="SourceGraphic" in2="BackgroundImageFix" result="shape"/>
<feColorMatrix in="SourceAlpha" type="matrix" values="0 0 0 0 0 0 0 0 0 0 0 0 0 0 0 0 0 0 127 0" result="hardAlpha"/>
<feOffset dy="0.826108"/>
<feGaussianBlur stdDeviation="0.826108"/>
<feComposite in2="hardAlpha" operator="arithmetic" k2="-1" k3="1"/>
<feColorMatrix type="matrix" values="0 0 0 0 0.541667 0 0 0 0 0.040625 0 0 0 0 0.142143 0 0 0 1 0"/>
<feBlend mode="normal" in2="shape" result="effect1_innerShadow_2_417"/>
</filter>
<filter id="filter9_i_2_417" x="99.2465" y="96.4757" width="16.9781" height="15.6713" filterUnits="userSpaceOnUse" color-interpolation-filters="sRGB">
<feFlood flood-opacity="0" result="BackgroundImageFix"/>
<feBlend mode="normal" in="SourceGraphic" in2="BackgroundImageFix" result="shape"/>
<feColorMatrix in="SourceAlpha" type="matrix" values="0 0 0 0 0 0 0 0 0 0 0 0 0 0 0 0 0 0 127 0" result="hardAlpha"/>
<feOffset dy="0.826108"/>
<feGaussianBlur stdDeviation="0.826108"/>
<feComposite in2="hardAlpha" operator="arithmetic" k2="-1" k3="1"/>
<feColorMatrix type="matrix" values="0 0 0 0 0.541667 0 0 0 0 0.040625 0 0 0 0 0.142143 0 0 0 1 0"/>
<feBlend mode="normal" in2="shape" result="effect1_innerShadow_2_417"/>
</filter>
<filter id="filter10_i_2_417" x="149.746" y="157.766" width="22.8279" height="26.6452" filterUnits="userSpaceOnUse" color-interpolation-filters="sRGB">
<feFlood flood-opacity="0" result="BackgroundImageFix"/>
<feBlend mode="normal" in="SourceGraphic" in2="BackgroundImageFix" result="shape"/>
<feColorMatrix in="SourceAlpha" type="matrix" values="0 0 0 0 0 0 0 0 0 0 0 0 0 0 0 0 0 0 127 0" result="hardAlpha"/>
<feOffset dy="0.826108"/>
<feGaussianBlur stdDeviation="0.826108"/>
<feComposite in2="hardAlpha" operator="arithmetic" k2="-1" k3="1"/>
<feColorMatrix type="matrix" values="0 0 0 0 0.541667 0 0 0 0 0.040625 0 0 0 0 0.142143 0 0 0 1 0"/>
<feBlend mode="normal" in2="shape" result="effect1_innerShadow_2_417"/>
</filter>
<filter id="filter11_i_2_417" x="153.495" y="161.621" width="15.3326" height="17.3505" filterUnits="userSpaceOnUse" color-interpolation-filters="sRGB">
<feFlood flood-opacity="0" result="BackgroundImageFix"/>
<feBlend mode="normal" in="SourceGraphic" in2="BackgroundImageFix" result="shape"/>
<feColorMatrix in="SourceAlpha" type="matrix" values="0 0 0 0 0 0 0 0 0 0 0 0 0 0 0 0 0 0 127 0" result="hardAlpha"/>
<feOffset dy="0.826108"/>
<feGaussianBlur stdDeviation="0.826108"/>
<feComposite in2="hardAlpha" operator="arithmetic" k2="-1" k3="1"/>
<feColorMatrix type="matrix" values="0 0 0 0 0.541667 0 0 0 0 0.040625 0 0 0 0 0.142143 0 0 0 1 0"/>
<feBlend mode="normal" in2="shape" result="effect1_innerShadow_2_417"/>
</filter>
<filter id="filter12_i_2_417" x="70.4525" y="190.798" width="8.17188" height="7.97131" filterUnits="userSpaceOnUse" color-interpolation-filters="sRGB">
<feFlood flood-opacity="0" result="BackgroundImageFix"/>
<feBlend mode="normal" in="SourceGraphic" in2="BackgroundImageFix" result="shape"/>
<feColorMatrix in="SourceAlpha" type="matrix" values="0 0 0 0 0 0 0 0 0 0 0 0 0 0 0 0 0 0 127 0" result="hardAlpha"/>
<feOffset dy="0.826108"/>
<feGaussianBlur stdDeviation="0.826108"/>
<feComposite in2="hardAlpha" operator="arithmetic" k2="-1" k3="1"/>
<feColorMatrix type="matrix" values="0 0 0 0 0.541667 0 0 0 0 0.040625 0 0 0 0 0.142143 0 0 0 1 0"/>
<feBlend mode="normal" in2="shape" result="effect1_innerShadow_2_417"/>
</filter>
<filter id="filter13_i_2_417" x="141.589" y="108.39" width="13.5526" height="13.9346" filterUnits="userSpaceOnUse" color-interpolation-filters="sRGB">
<feFlood flood-opacity="0" result="BackgroundImageFix"/>
<feBlend mode="normal" in="SourceGraphic" in2="BackgroundImageFix" result="shape"/>
<feColorMatrix in="SourceAlpha" type="matrix" values="0 0 0 0 0 0 0 0 0 0 0 0 0 0 0 0 0 0 127 0" result="hardAlpha"/>
<feOffset dy="0.826108"/>
<feGaussianBlur stdDeviation="0.826108"/>
<feComposite in2="hardAlpha" operator="arithmetic" k2="-1" k3="1"/>
<feColorMatrix type="matrix" values="0 0 0 0 0.541667 0 0 0 0 0.040625 0 0 0 0 0.142143 0 0 0 1 0"/>
<feBlend mode="normal" in2="shape" result="effect1_innerShadow_2_417"/>
</filter>
<filter id="filter14_i_2_417" x="51.8475" y="139.302" width="23.0059" height="23.1672" filterUnits="userSpaceOnUse" color-interpolation-filters="sRGB">
<feFlood flood-opacity="0" result="BackgroundImageFix"/>
<feBlend mode="normal" in="SourceGraphic" in2="BackgroundImageFix" result="shape"/>
<feColorMatrix in="SourceAlpha" type="matrix" values="0 0 0 0 0 0 0 0 0 0 0 0 0 0 0 0 0 0 127 0" result="hardAlpha"/>
<feOffset dy="0.826108"/>
<feGaussianBlur stdDeviation="0.826108"/>
<feComposite in2="hardAlpha" operator="arithmetic" k2="-1" k3="1"/>
<feColorMatrix type="matrix" values="0 0 0 0 0.541667 0 0 0 0 0.040625 0 0 0 0 0.142143 0 0 0 1 0"/>
<feBlend mode="normal" in2="shape" result="effect1_innerShadow_2_417"/>
</filter>
<filter id="filter15_i_2_417" x="56.0872" y="142.918" width="15.454" height="16.5286" filterUnits="userSpaceOnUse" color-interpolation-filters="sRGB">
<feFlood flood-opacity="0" result="BackgroundImageFix"/>
<feBlend mode="normal" in="SourceGraphic" in2="BackgroundImageFix" result="shape"/>
<feColorMatrix in="SourceAlpha" type="matrix" values="0 0 0 0 0 0 0 0 0 0 0 0 0 0 0 0 0 0 127 0" result="hardAlpha"/>
<feOffset dy="0.826108"/>
<feGaussianBlur stdDeviation="0.826108"/>
<feComposite in2="hardAlpha" operator="arithmetic" k2="-1" k3="1"/>
<feColorMatrix type="matrix" values="0 0 0 0 0.541667 0 0 0 0 0.040625 0 0 0 0 0.142143 0 0 0 1 0"/>
<feBlend mode="normal" in2="shape" result="effect1_innerShadow_2_417"/>
</filter>
<filter id="filter16_i_2_417" x="48.1061" y="125.146" width="4.54541" height="5.44452" filterUnits="userSpaceOnUse" color-interpolation-filters="sRGB">
<feFlood flood-opacity="0" result="BackgroundImageFix"/>
<feBlend mode="normal" in="SourceGraphic" in2="BackgroundImageFix" result="shape"/>
<feColorMatrix in="SourceAlpha" type="matrix" values="0 0 0 0 0 0 0 0 0 0 0 0 0 0 0 0 0 0 127 0" result="hardAlpha"/>
<feOffset dy="0.826108"/>
<feGaussianBlur stdDeviation="0.826108"/>
<feComposite in2="hardAlpha" operator="arithmetic" k2="-1" k3="1"/>
<feColorMatrix type="matrix" values="0 0 0 0 0.541667 0 0 0 0 0.040625 0 0 0 0 0.142143 0 0 0 1 0"/>
<feBlend mode="normal" in2="shape" result="effect1_innerShadow_2_417"/>
</filter>
<filter id="filter17_i_2_417" x="12.2539" y="117.293" width="4.54541" height="5.44452" filterUnits="userSpaceOnUse" color-interpolation-filters="sRGB">
<feFlood flood-opacity="0" result="BackgroundImageFix"/>
<feBlend mode="normal" in="SourceGraphic" in2="BackgroundImageFix" result="shape"/>
<feColorMatrix in="SourceAlpha" type="matrix" values="0 0 0 0 0 0 0 0 0 0 0 0 0 0 0 0 0 0 127 0" result="hardAlpha"/>
<feOffset dy="0.826108"/>
<feGaussianBlur stdDeviation="0.826108"/>
<feComposite in2="hardAlpha" operator="arithmetic" k2="-1" k3="1"/>
<feColorMatrix type="matrix" values="0 0 0 0 0.541667 0 0 0 0 0.040625 0 0 0 0 0.142143 0 0 0 1 0"/>
<feBlend mode="normal" in2="shape" result="effect1_innerShadow_2_417"/>
</filter>
<filter id="filter18_i_2_417" x="174.736" y="170.786" width="4.54541" height="5.44452" filterUnits="userSpaceOnUse" color-interpolation-filters="sRGB">
<feFlood flood-opacity="0" result="BackgroundImageFix"/>
<feBlend mode="normal" in="SourceGraphic" in2="BackgroundImageFix" result="shape"/>
<feColorMatrix in="SourceAlpha" type="matrix" values="0 0 0 0 0 0 0 0 0 0 0 0 0 0 0 0 0 0 127 0" result="hardAlpha"/>
<feOffset dy="0.826108"/>
<feGaussianBlur stdDeviation="0.826108"/>
<feComposite in2="hardAlpha" operator="arithmetic" k2="-1" k3="1"/>
<feColorMatrix type="matrix" values="0 0 0 0 0.541667 0 0 0 0 0.040625 0 0 0 0 0.142143 0 0 0 1 0"/>
<feBlend mode="normal" in2="shape" result="effect1_innerShadow_2_417"/>
</filter>
<filter id="filter19_i_2_417" x="183.536" y="150.028" width="4.54541" height="5.44452" filterUnits="userSpaceOnUse" color-interpolation-filters="sRGB">
<feFlood flood-opacity="0" result="BackgroundImageFix"/>
<feBlend mode="normal" in="SourceGraphic" in2="BackgroundImageFix" result="shape"/>
<feColorMatrix in="SourceAlpha" type="matrix" values="0 0 0 0 0 0 0 0 0 0 0 0 0 0 0 0 0 0 127 0" result="hardAlpha"/>
<feOffset dy="0.826108"/>
<feGaussianBlur stdDeviation="0.826108"/>
<feComposite in2="hardAlpha" operator="arithmetic" k2="-1" k3="1"/>
<feColorMatrix type="matrix" values="0 0 0 0 0.541667 0 0 0 0 0.040625 0 0 0 0 0.142143 0 0 0 1 0"/>
<feBlend mode="normal" in2="shape" result="effect1_innerShadow_2_417"/>
</filter>
<filter id="filter20_i_2_417" x="165.043" y="145.128" width="4.54541" height="5.44452" filterUnits="userSpaceOnUse" color-interpolation-filters="sRGB">
<feFlood flood-opacity="0" result="BackgroundImageFix"/>
<feBlend mode="normal" in="SourceGraphic" in2="BackgroundImageFix" result="shape"/>
<feColorMatrix in="SourceAlpha" type="matrix" values="0 0 0 0 0 0 0 0 0 0 0 0 0 0 0 0 0 0 127 0" result="hardAlpha"/>
<feOffset dy="0.826108"/>
<feGaussianBlur stdDeviation="0.826108"/>
<feComposite in2="hardAlpha" operator="arithmetic" k2="-1" k3="1"/>
<feColorMatrix type="matrix" values="0 0 0 0 0.541667 0 0 0 0 0.040625 0 0 0 0 0.142143 0 0 0 1 0"/>
<feBlend mode="normal" in2="shape" result="effect1_innerShadow_2_417"/>
</filter>
<filter id="filter21_i_2_417" x="97.0555" y="216.013" width="4.54541" height="5.44452" filterUnits="userSpaceOnUse" color-interpolation-filters="sRGB">
<feFlood flood-opacity="0" result="BackgroundImageFix"/>
<feBlend mode="normal" in="SourceGraphic" in2="BackgroundImageFix" result="shape"/>
<feColorMatrix in="SourceAlpha" type="matrix" values="0 0 0 0 0 0 0 0 0 0 0 0 0 0 0 0 0 0 127 0" result="hardAlpha"/>
<feOffset dy="0.826108"/>
<feGaussianBlur stdDeviation="0.826108"/>
<feComposite in2="hardAlpha" operator="arithmetic" k2="-1" k3="1"/>
<feColorMatrix type="matrix" values="0 0 0 0 0.541667 0 0 0 0 0.040625 0 0 0 0 0.142143 0 0 0 1 0"/>
<feBlend mode="normal" in2="shape" result="effect1_innerShadow_2_417"/>
</filter>
<filter id="filter22_i_2_417" x="27.9054" y="129.142" width="15.145" height="15.63" filterUnits="userSpaceOnUse" color-interpolation-filters="sRGB">
<feFlood flood-opacity="0" result="BackgroundImageFix"/>
<feBlend mode="normal" in="SourceGraphic" in2="BackgroundImageFix" result="shape"/>
<feColorMatrix in="SourceAlpha" type="matrix" values="0 0 0 0 0 0 0 0 0 0 0 0 0 0 0 0 0 0 127 0" result="hardAlpha"/>
<feOffset dy="0.826108"/>
<feGaussianBlur stdDeviation="0.826108"/>
<feComposite in2="hardAlpha" operator="arithmetic" k2="-1" k3="1"/>
<feColorMatrix type="matrix" values="0 0 0 0 0.541667 0 0 0 0 0.040625 0 0 0 0 0.142143 0 0 0 1 0"/>
<feBlend mode="normal" in2="shape" result="effect1_innerShadow_2_417"/>
</filter>
<filter id="filter23_i_2_417" x="29.4629" y="132.187" width="8.44226" height="9.07823" filterUnits="userSpaceOnUse" color-interpolation-filters="sRGB">
<feFlood flood-opacity="0" result="BackgroundImageFix"/>
<feBlend mode="normal" in="SourceGraphic" in2="BackgroundImageFix" result="shape"/>
<feColorMatrix in="SourceAlpha" type="matrix" values="0 0 0 0 0 0 0 0 0 0 0 0 0 0 0 0 0 0 127 0" result="hardAlpha"/>
<feOffset dy="0.826108"/>
<feGaussianBlur stdDeviation="0.826108"/>
<feComposite in2="hardAlpha" operator="arithmetic" k2="-1" k3="1"/>
<feColorMatrix type="matrix" values="0 0 0 0 0.541667 0 0 0 0 0.040625 0 0 0 0 0.142143 0 0 0 1 0"/>
<feBlend mode="normal" in2="shape" result="effect1_innerShadow_2_417"/>
</filter>
<filter id="filter24_i_2_417" x="13.9213" y="163.939" width="23.6056" height="26.0576" filterUnits="userSpaceOnUse" color-interpolation-filters="sRGB">
<feFlood flood-opacity="0" result="BackgroundImageFix"/>
<feBlend mode="normal" in="SourceGraphic" in2="BackgroundImageFix" result="shape"/>
<feColorMatrix in="SourceAlpha" type="matrix" values="0 0 0 0 0 0 0 0 0 0 0 0 0 0 0 0 0 0 127 0" result="hardAlpha"/>
<feOffset dy="0.826108"/>
<feGaussianBlur stdDeviation="0.826108"/>
<feComposite in2="hardAlpha" operator="arithmetic" k2="-1" k3="1"/>
<feColorMatrix type="matrix" values="0 0 0 0 0.541667 0 0 0 0 0.040625 0 0 0 0 0.142143 0 0 0 1 0"/>
<feBlend mode="normal" in2="shape" result="effect1_innerShadow_2_417"/>
</filter>
<filter id="filter25_i_2_417" x="17.403" y="167.877" width="16.2745" height="17.5244" filterUnits="userSpaceOnUse" color-interpolation-filters="sRGB">
<feFlood flood-opacity="0" result="BackgroundImageFix"/>
<feBlend mode="normal" in="SourceGraphic" in2="BackgroundImageFix" result="shape"/>
<feColorMatrix in="SourceAlpha" type="matrix" values="0 0 0 0 0 0 0 0 0 0 0 0 0 0 0 0 0 0 127 0" result="hardAlpha"/>
<feOffset dy="0.826108"/>
<feGaussianBlur stdDeviation="0.826108"/>
<feComposite in2="hardAlpha" operator="arithmetic" k2="-1" k3="1"/>
<feColorMatrix type="matrix" values="0 0 0 0 0.541667 0 0 0 0 0.040625 0 0 0 0 0.142143 0 0 0 1 0"/>
<feBlend mode="normal" in2="shape" result="effect1_innerShadow_2_417"/>
</filter>
<filter id="filter26_i_2_417" x="79.6348" y="61.3064" width="24.6935" height="24.8059" filterUnits="userSpaceOnUse" color-interpolation-filters="sRGB">
<feFlood flood-opacity="0" result="BackgroundImageFix"/>
<feBlend mode="normal" in="SourceGraphic" in2="BackgroundImageFix" result="shape"/>
<feColorMatrix in="SourceAlpha" type="matrix" values="0 0 0 0 0 0 0 0 0 0 0 0 0 0 0 0 0 0 127 0" result="hardAlpha"/>
<feOffset dy="0.826108"/>
<feGaussianBlur stdDeviation="0.826108"/>
<feComposite in2="hardAlpha" operator="arithmetic" k2="-1" k3="1"/>
<feColorMatrix type="matrix" values="0 0 0 0 0.541667 0 0 0 0 0.040625 0 0 0 0 0.142143 0 0 0 1 0"/>
<feBlend mode="normal" in2="shape" result="effect1_innerShadow_2_417"/>
</filter>
<filter id="filter27_i_2_417" x="84.1852" y="65.1868" width="16.5876" height="17.6804" filterUnits="userSpaceOnUse" color-interpolation-filters="sRGB">
<feFlood flood-opacity="0" result="BackgroundImageFix"/>
<feBlend mode="normal" in="SourceGraphic" in2="BackgroundImageFix" result="shape"/>
<feColorMatrix in="SourceAlpha" type="matrix" values="0 0 0 0 0 0 0 0 0 0 0 0 0 0 0 0 0 0 127 0" result="hardAlpha"/>
<feOffset dy="0.826108"/>
<feGaussianBlur stdDeviation="0.826108"/>
<feComposite in2="hardAlpha" operator="arithmetic" k2="-1" k3="1"/>
<feColorMatrix type="matrix" values="0 0 0 0 0.541667 0 0 0 0 0.040625 0 0 0 0 0.142143 0 0 0 1 0"/>
<feBlend mode="normal" in2="shape" result="effect1_innerShadow_2_417"/>
</filter>
<filter id="filter28_f_2_417" x="-9.43268" y="57.8687" width="227.998" height="232.331" filterUnits="userSpaceOnUse" color-interpolation-filters="sRGB">
<feFlood flood-opacity="0" result="BackgroundImageFix"/>
<feBlend mode="normal" in="SourceGraphic" in2="BackgroundImageFix" result="shape"/>
<feGaussianBlur stdDeviation="6.76383" result="effect1_foregroundBlur_2_417"/>
</filter>
<filter id="filter29_f_2_417" x="-31.5675" y="20.9051" width="265.28" height="230.28" filterUnits="userSpaceOnUse" color-interpolation-filters="sRGB">
<feFlood flood-opacity="0" result="BackgroundImageFix"/>
<feBlend mode="normal" in="SourceGraphic" in2="BackgroundImageFix" result="shape"/>
<feGaussianBlur stdDeviation="10.1457" result="effect1_foregroundBlur_2_417"/>
</filter>
<linearGradient id="paint0_linear_2_417" x1="117.225" y1="138.939" x2="-36.4265" y2="284.361" gradientUnits="userSpaceOnUse">
<stop stop-color="#F3164E"/>
<stop offset="1" stop-color="#8B0119"/>
</linearGradient>
<clipPath id="clip0_2_417">
<rect x="1" y="116.957" width="135.277" height="135.277" rx="67.6383" transform="rotate(-30.1559 1 116.957)" fill="white"/>
</clipPath>
</defs>
</svg>
