<svg width="603" height="495" viewBox="0 0 603 495" fill="none" xmlns="http://www.w3.org/2000/svg">
<g filter="url(#filter0_d_2_284)">
<g clip-path="url(#clip0_2_284)">
<rect x="128" y="206.314" width="277.231" height="277.231" rx="138.616" transform="rotate(-17.4889 128 206.314)" fill="url(#paint0_linear_2_284)"/>
<path opacity="0.5" d="M537.23 526.357C523.625 539.478 508.093 536.363 494.627 522.4C481.161 508.436 481.274 486.48 494.879 473.36C508.484 460.239 528.508 461.524 541.974 475.487C555.44 489.451 550.836 513.236 537.23 526.357Z" fill="#C0B1E2"/>
<g opacity="0.5" filter="url(#filter2_i_2_284)">
<path d="M326.224 413.925C315.68 441.85 329.891 462.438 358.551 473.259C387.21 484.08 418.991 470.215 429.534 442.29C440.078 414.366 425.718 386.119 397.058 375.298C368.399 364.477 336.767 386 326.224 413.925Z" fill="#C0B1E2"/>
</g>
<g opacity="0.7" filter="url(#filter3_i_2_284)">
<path d="M347.038 411.141C340.379 428.778 347.269 453.796 364.905 460.455C382.542 467.114 408.741 453.069 415.401 435.433C422.06 417.796 408.666 397.924 391.03 391.265C373.393 384.606 353.697 393.505 347.038 411.141Z" fill="#A896D3"/>
</g>
<g opacity="0.7" filter="url(#filter4_i_2_284)">
<path d="M241.238 477.363C239.189 482.791 241.309 490.492 246.738 492.541C252.166 494.591 260.23 490.268 262.28 484.839C264.33 479.411 260.207 473.294 254.779 471.245C249.35 469.195 243.288 471.934 241.238 477.363Z" fill="#A896D3"/>
</g>
<g opacity="0.7" filter="url(#filter5_i_2_284)">
<path d="M333.056 301.121C331.098 306.308 333.124 313.666 338.311 315.625C343.499 317.583 351.204 313.452 353.163 308.265C355.122 303.078 351.182 297.233 345.995 295.275C340.808 293.316 335.015 295.933 333.056 301.121Z" fill="#C0B1E2"/>
</g>
<g opacity="0.7" filter="url(#filter6_i_2_284)">
<path d="M176.722 228.148C174.763 233.336 176.79 240.694 181.977 242.653C187.164 244.611 194.87 240.48 196.829 235.293C198.787 230.106 194.848 224.261 189.661 222.302C184.473 220.344 178.681 222.961 176.722 228.148Z" fill="#A896D3"/>
</g>
<g opacity="0.7" filter="url(#filter7_i_2_284)">
<path d="M120.47 454.273C118.511 459.46 120.537 466.819 125.725 468.777C130.912 470.736 138.618 466.605 140.576 461.418C142.535 456.23 138.596 450.386 133.408 448.427C128.221 446.468 122.428 449.086 120.47 454.273Z" fill="#A896D3"/>
</g>
<g opacity="0.8">
<g opacity="0.5" filter="url(#filter8_i_2_284)">
<path d="M466.43 82.4559C446.887 35.5786 405.262 26.6788 357.151 46.7362C309.04 66.7937 285.882 121.055 305.425 167.932C324.968 214.81 375.716 233.015 423.827 212.958C471.938 192.9 485.974 129.333 466.43 82.4559Z" fill="#E6D7FF"/>
</g>
<g opacity="0.7" filter="url(#filter9_i_2_284)">
<path d="M443.912 110.199C431.569 80.5919 393.837 57.6623 364.231 70.0054C334.624 82.3484 318.584 130.317 330.927 159.924C343.27 189.531 383.047 198.498 412.654 186.155C442.26 173.812 456.255 139.805 443.912 110.199Z" fill="#C0B1E2"/>
</g>
<g opacity="0.7" filter="url(#filter10_i_2_284)">
<path d="M416.816 103.502C409.935 86.9986 388.902 74.217 372.399 81.0974C355.895 87.9778 346.954 114.717 353.834 131.221C360.715 147.724 382.887 152.723 399.391 145.843C415.895 138.963 423.696 120.006 416.816 103.502Z" fill="#A896D3"/>
</g>
</g>
<g opacity="0.8">
<g opacity="0.5" filter="url(#filter11_i_2_284)">
<path d="M261.26 279.486C232.52 277.951 217.751 297.022 216.176 326.518C214.601 356.013 236.622 381.168 265.361 382.703C294.1 384.238 315.863 362.794 317.438 333.298C319.013 303.803 289.999 281.021 261.26 279.486Z" fill="#E6D7FF"/>
</g>
<g opacity="0.7" filter="url(#filter12_i_2_284)">
<path d="M269.895 297.801C251.744 296.832 230.766 310.468 229.797 328.619C228.827 346.77 249.384 366.744 267.535 367.714C285.686 368.683 300.036 350.573 301.006 332.422C301.975 314.271 288.046 298.77 269.895 297.801Z" fill="#C0B1E2"/>
</g>
<g opacity="0.7" filter="url(#filter13_i_2_284)">
<path d="M259.821 309.993C249.703 309.453 238.009 317.054 237.469 327.172C236.928 337.29 248.387 348.424 258.505 348.965C268.623 349.505 276.622 339.41 277.163 329.292C277.703 319.174 269.939 310.534 259.821 309.993Z" fill="#A896D3"/>
</g>
</g>
<circle cx="438.646" cy="354.183" r="7.67732" transform="rotate(-17.4889 438.646 354.183)" fill="#C0B1E2"/>
<circle cx="410.544" cy="316.083" r="7.67732" transform="rotate(-17.4889 410.544 316.083)" fill="#C0B1E2"/>
<circle cx="445.985" cy="326.381" r="7.67732" transform="rotate(-17.4889 445.985 326.381)" fill="#C0B1E2"/>
<circle cx="307.194" cy="447.922" r="7.67732" transform="rotate(-17.4889 307.194 447.922)" fill="#A896D3"/>
<g opacity="0.8">
<g opacity="0.5" filter="url(#filter14_i_2_284)">
<path d="M131.582 350.497C111.236 349.411 100.781 362.911 99.6656 383.792C98.5506 404.673 114.14 422.481 134.485 423.568C154.831 424.654 170.237 409.474 171.352 388.593C172.467 367.712 151.927 351.584 131.582 350.497Z" fill="#E6D7FF"/>
</g>
<g opacity="0.7" filter="url(#filter15_i_2_284)">
<path d="M137.695 363.462C124.846 362.776 109.995 372.43 109.309 385.279C108.622 398.129 123.175 412.269 136.025 412.956C148.874 413.642 159.033 400.821 159.719 387.971C160.406 375.122 150.545 364.149 137.695 363.462Z" fill="#A896D3"/>
</g>
<g opacity="0.7" filter="url(#filter16_i_2_284)">
<path d="M130.563 372.096C123.4 371.713 115.121 377.094 114.739 384.257C114.356 391.42 122.468 399.302 129.631 399.685C136.794 400.067 142.457 392.92 142.839 385.758C143.222 378.595 137.725 372.478 130.563 372.096Z" fill="#A896D3"/>
</g>
</g>
<g filter="url(#filter17_f_2_284)">
<path d="M324.149 30.894V30.894C195.13 393.957 527.263 752.382 899.085 651.343L1018.3 618.948L-22.4417 942.008L324.149 30.894Z" fill="url(#paint1_linear_2_284)" fill-opacity="0.4"/>
</g>
<g opacity="0.2" filter="url(#filter18_f_2_284)">
<path d="M600.527 861.464V861.464C822.808 546.739 599.823 111.931 214.53 108.791L90.996 107.785L1180.31 77.8181L600.527 861.464Z" fill="white"/>
</g>
</g>
</g>
<defs>
<filter id="filter0_d_2_284" x="0.821056" y="0.0604463" width="602.088" height="602.088" filterUnits="userSpaceOnUse" color-interpolation-filters="sRGB">
<feFlood flood-opacity="0" result="BackgroundImageFix"/>
<feColorMatrix in="SourceAlpha" type="matrix" values="0 0 0 0 0 0 0 0 0 0 0 0 0 0 0 0 0 0 127 0" result="hardAlpha"/>
<feMorphology radius="21.1965" operator="dilate" in="SourceAlpha" result="effect1_dropShadow_2_284"/>
<feOffset dy="4.2393"/>
<feGaussianBlur stdDeviation="52.9912"/>
<feComposite in2="hardAlpha" operator="out"/>
<feColorMatrix type="matrix" values="0 0 0 0 0.651 0 0 0 0 0.561337 0 0 0 0 0.904167 0 0 0 0.3 0"/>
<feBlend mode="normal" in2="BackgroundImageFix" result="effect1_dropShadow_2_284"/>
<feBlend mode="normal" in="SourceGraphic" in2="effect1_dropShadow_2_284" result="shape"/>
</filter>
<filter id="filter2_i_2_284" x="322.749" y="372.448" width="110.241" height="108.373" filterUnits="userSpaceOnUse" color-interpolation-filters="sRGB">
<feFlood flood-opacity="0" result="BackgroundImageFix"/>
<feBlend mode="normal" in="SourceGraphic" in2="BackgroundImageFix" result="shape"/>
<feColorMatrix in="SourceAlpha" type="matrix" values="0 0 0 0 0 0 0 0 0 0 0 0 0 0 0 0 0 0 127 0" result="hardAlpha"/>
<feOffset dy="3.88329"/>
<feGaussianBlur stdDeviation="3.88329"/>
<feComposite in2="hardAlpha" operator="arithmetic" k2="-1" k3="1"/>
<feColorMatrix type="matrix" values="0 0 0 0 0.356863 0 0 0 0 0.262745 0 0 0 0 0.623529 0 0 0 0.5 0"/>
<feBlend mode="normal" in2="shape" result="effect1_innerShadow_2_284"/>
</filter>
<filter id="filter3_i_2_284" x="344.54" y="389.055" width="72.5992" height="76.9691" filterUnits="userSpaceOnUse" color-interpolation-filters="sRGB">
<feFlood flood-opacity="0" result="BackgroundImageFix"/>
<feBlend mode="normal" in="SourceGraphic" in2="BackgroundImageFix" result="shape"/>
<feColorMatrix in="SourceAlpha" type="matrix" values="0 0 0 0 0 0 0 0 0 0 0 0 0 0 0 0 0 0 127 0" result="hardAlpha"/>
<feOffset dy="3.88329"/>
<feGaussianBlur stdDeviation="3.88329"/>
<feComposite in2="hardAlpha" operator="arithmetic" k2="-1" k3="1"/>
<feColorMatrix type="matrix" values="0 0 0 0 0.356863 0 0 0 0 0.262745 0 0 0 0 0.623529 0 0 0 0.5 0"/>
<feBlend mode="normal" in2="shape" result="effect1_innerShadow_2_284"/>
</filter>
<filter id="filter4_i_2_284" x="240.469" y="470.564" width="22.346" height="24.2468" filterUnits="userSpaceOnUse" color-interpolation-filters="sRGB">
<feFlood flood-opacity="0" result="BackgroundImageFix"/>
<feBlend mode="normal" in="SourceGraphic" in2="BackgroundImageFix" result="shape"/>
<feColorMatrix in="SourceAlpha" type="matrix" values="0 0 0 0 0 0 0 0 0 0 0 0 0 0 0 0 0 0 127 0" result="hardAlpha"/>
<feOffset dy="1.75109"/>
<feGaussianBlur stdDeviation="1.75109"/>
<feComposite in2="hardAlpha" operator="arithmetic" k2="-1" k3="1"/>
<feColorMatrix type="matrix" values="0 0 0 0 0.403922 0 0 0 0 0.309804 0 0 0 0 0.0156863 0 0 0 0.25 0"/>
<feBlend mode="normal" in2="shape" result="effect1_innerShadow_2_284"/>
</filter>
<filter id="filter5_i_2_284" x="332.322" y="294.625" width="21.3528" height="25.3792" filterUnits="userSpaceOnUse" color-interpolation-filters="sRGB">
<feFlood flood-opacity="0" result="BackgroundImageFix"/>
<feBlend mode="normal" in="SourceGraphic" in2="BackgroundImageFix" result="shape"/>
<feColorMatrix in="SourceAlpha" type="matrix" values="0 0 0 0 0 0 0 0 0 0 0 0 0 0 0 0 0 0 127 0" result="hardAlpha"/>
<feOffset dy="3.88329"/>
<feGaussianBlur stdDeviation="3.88329"/>
<feComposite in2="hardAlpha" operator="arithmetic" k2="-1" k3="1"/>
<feColorMatrix type="matrix" values="0 0 0 0 0.356863 0 0 0 0 0.262745 0 0 0 0 0.623529 0 0 0 0.5 0"/>
<feBlend mode="normal" in2="shape" result="effect1_innerShadow_2_284"/>
</filter>
<filter id="filter6_i_2_284" x="175.987" y="221.652" width="21.3528" height="25.3792" filterUnits="userSpaceOnUse" color-interpolation-filters="sRGB">
<feFlood flood-opacity="0" result="BackgroundImageFix"/>
<feBlend mode="normal" in="SourceGraphic" in2="BackgroundImageFix" result="shape"/>
<feColorMatrix in="SourceAlpha" type="matrix" values="0 0 0 0 0 0 0 0 0 0 0 0 0 0 0 0 0 0 127 0" result="hardAlpha"/>
<feOffset dy="3.88329"/>
<feGaussianBlur stdDeviation="3.88329"/>
<feComposite in2="hardAlpha" operator="arithmetic" k2="-1" k3="1"/>
<feColorMatrix type="matrix" values="0 0 0 0 0.356863 0 0 0 0 0.262745 0 0 0 0 0.623529 0 0 0 0.5 0"/>
<feBlend mode="normal" in2="shape" result="effect1_innerShadow_2_284"/>
</filter>
<filter id="filter7_i_2_284" x="119.735" y="447.777" width="21.3528" height="25.3791" filterUnits="userSpaceOnUse" color-interpolation-filters="sRGB">
<feFlood flood-opacity="0" result="BackgroundImageFix"/>
<feBlend mode="normal" in="SourceGraphic" in2="BackgroundImageFix" result="shape"/>
<feColorMatrix in="SourceAlpha" type="matrix" values="0 0 0 0 0 0 0 0 0 0 0 0 0 0 0 0 0 0 127 0" result="hardAlpha"/>
<feOffset dy="3.88329"/>
<feGaussianBlur stdDeviation="3.88329"/>
<feComposite in2="hardAlpha" operator="arithmetic" k2="-1" k3="1"/>
<feColorMatrix type="matrix" values="0 0 0 0 0.356863 0 0 0 0 0.262745 0 0 0 0 0.623529 0 0 0 0.5 0"/>
<feBlend mode="normal" in2="shape" result="effect1_innerShadow_2_284"/>
</filter>
<filter id="filter8_i_2_284" x="298.487" y="36.6638" width="176.462" height="188.245" filterUnits="userSpaceOnUse" color-interpolation-filters="sRGB">
<feFlood flood-opacity="0" result="BackgroundImageFix"/>
<feBlend mode="normal" in="SourceGraphic" in2="BackgroundImageFix" result="shape"/>
<feColorMatrix in="SourceAlpha" type="matrix" values="0 0 0 0 0 0 0 0 0 0 0 0 0 0 0 0 0 0 127 0" result="hardAlpha"/>
<feOffset dy="3.88329"/>
<feGaussianBlur stdDeviation="3.88329"/>
<feComposite in2="hardAlpha" operator="arithmetic" k2="-1" k3="1"/>
<feColorMatrix type="matrix" values="0 0 0 0 0.356863 0 0 0 0 0.262745 0 0 0 0 0.623529 0 0 0 0.5 0"/>
<feBlend mode="normal" in2="shape" result="effect1_innerShadow_2_284"/>
</filter>
<filter id="filter9_i_2_284" x="326.734" y="66.5937" width="121.665" height="128.823" filterUnits="userSpaceOnUse" color-interpolation-filters="sRGB">
<feFlood flood-opacity="0" result="BackgroundImageFix"/>
<feBlend mode="normal" in="SourceGraphic" in2="BackgroundImageFix" result="shape"/>
<feColorMatrix in="SourceAlpha" type="matrix" values="0 0 0 0 0 0 0 0 0 0 0 0 0 0 0 0 0 0 127 0" result="hardAlpha"/>
<feOffset dy="3.88329"/>
<feGaussianBlur stdDeviation="3.88329"/>
<feComposite in2="hardAlpha" operator="arithmetic" k2="-1" k3="1"/>
<feColorMatrix type="matrix" values="0 0 0 0 0.356863 0 0 0 0 0.262745 0 0 0 0 0.623529 0 0 0 0.5 0"/>
<feBlend mode="normal" in2="shape" result="effect1_innerShadow_2_284"/>
</filter>
<filter id="filter10_i_2_284" x="351.497" y="79.1956" width="67.8198" height="73.5285" filterUnits="userSpaceOnUse" color-interpolation-filters="sRGB">
<feFlood flood-opacity="0" result="BackgroundImageFix"/>
<feBlend mode="normal" in="SourceGraphic" in2="BackgroundImageFix" result="shape"/>
<feColorMatrix in="SourceAlpha" type="matrix" values="0 0 0 0 0 0 0 0 0 0 0 0 0 0 0 0 0 0 127 0" result="hardAlpha"/>
<feOffset dy="3.88329"/>
<feGaussianBlur stdDeviation="3.88329"/>
<feComposite in2="hardAlpha" operator="arithmetic" k2="-1" k3="1"/>
<feColorMatrix type="matrix" values="0 0 0 0 0.356863 0 0 0 0 0.262745 0 0 0 0 0.623529 0 0 0 0.5 0"/>
<feBlend mode="normal" in2="shape" result="effect1_innerShadow_2_284"/>
</filter>
<filter id="filter11_i_2_284" x="216.096" y="279.4" width="101.404" height="107.264" filterUnits="userSpaceOnUse" color-interpolation-filters="sRGB">
<feFlood flood-opacity="0" result="BackgroundImageFix"/>
<feBlend mode="normal" in="SourceGraphic" in2="BackgroundImageFix" result="shape"/>
<feColorMatrix in="SourceAlpha" type="matrix" values="0 0 0 0 0 0 0 0 0 0 0 0 0 0 0 0 0 0 127 0" result="hardAlpha"/>
<feOffset dy="3.88329"/>
<feGaussianBlur stdDeviation="3.88329"/>
<feComposite in2="hardAlpha" operator="arithmetic" k2="-1" k3="1"/>
<feColorMatrix type="matrix" values="0 0 0 0 0.356863 0 0 0 0 0.262745 0 0 0 0 0.623529 0 0 0 0.5 0"/>
<feBlend mode="normal" in2="shape" result="effect1_innerShadow_2_284"/>
</filter>
<filter id="filter12_i_2_284" x="229.764" y="297.752" width="71.2896" height="73.8819" filterUnits="userSpaceOnUse" color-interpolation-filters="sRGB">
<feFlood flood-opacity="0" result="BackgroundImageFix"/>
<feBlend mode="normal" in="SourceGraphic" in2="BackgroundImageFix" result="shape"/>
<feColorMatrix in="SourceAlpha" type="matrix" values="0 0 0 0 0 0 0 0 0 0 0 0 0 0 0 0 0 0 127 0" result="hardAlpha"/>
<feOffset dy="3.88329"/>
<feGaussianBlur stdDeviation="3.88329"/>
<feComposite in2="hardAlpha" operator="arithmetic" k2="-1" k3="1"/>
<feColorMatrix type="matrix" values="0 0 0 0 0.356863 0 0 0 0 0.262745 0 0 0 0 0.623529 0 0 0 0.5 0"/>
<feBlend mode="normal" in2="shape" result="effect1_innerShadow_2_284"/>
</filter>
<filter id="filter13_i_2_284" x="237.45" y="309.966" width="39.739" height="42.9025" filterUnits="userSpaceOnUse" color-interpolation-filters="sRGB">
<feFlood flood-opacity="0" result="BackgroundImageFix"/>
<feBlend mode="normal" in="SourceGraphic" in2="BackgroundImageFix" result="shape"/>
<feColorMatrix in="SourceAlpha" type="matrix" values="0 0 0 0 0 0 0 0 0 0 0 0 0 0 0 0 0 0 127 0" result="hardAlpha"/>
<feOffset dy="3.88329"/>
<feGaussianBlur stdDeviation="3.88329"/>
<feComposite in2="hardAlpha" operator="arithmetic" k2="-1" k3="1"/>
<feColorMatrix type="matrix" values="0 0 0 0 0.356863 0 0 0 0 0.262745 0 0 0 0 0.623529 0 0 0 0.5 0"/>
<feBlend mode="normal" in2="shape" result="effect1_innerShadow_2_284"/>
</filter>
<filter id="filter14_i_2_284" x="99.6093" y="350.436" width="71.7865" height="77.0696" filterUnits="userSpaceOnUse" color-interpolation-filters="sRGB">
<feFlood flood-opacity="0" result="BackgroundImageFix"/>
<feBlend mode="normal" in="SourceGraphic" in2="BackgroundImageFix" result="shape"/>
<feColorMatrix in="SourceAlpha" type="matrix" values="0 0 0 0 0 0 0 0 0 0 0 0 0 0 0 0 0 0 127 0" result="hardAlpha"/>
<feOffset dy="3.88329"/>
<feGaussianBlur stdDeviation="3.88329"/>
<feComposite in2="hardAlpha" operator="arithmetic" k2="-1" k3="1"/>
<feColorMatrix type="matrix" values="0 0 0 0 0.356863 0 0 0 0 0.262745 0 0 0 0 0.623529 0 0 0 0.5 0"/>
<feBlend mode="normal" in2="shape" result="effect1_innerShadow_2_284"/>
</filter>
<filter id="filter15_i_2_284" x="109.285" y="363.428" width="50.468" height="53.4373" filterUnits="userSpaceOnUse" color-interpolation-filters="sRGB">
<feFlood flood-opacity="0" result="BackgroundImageFix"/>
<feBlend mode="normal" in="SourceGraphic" in2="BackgroundImageFix" result="shape"/>
<feColorMatrix in="SourceAlpha" type="matrix" values="0 0 0 0 0 0 0 0 0 0 0 0 0 0 0 0 0 0 127 0" result="hardAlpha"/>
<feOffset dy="3.88329"/>
<feGaussianBlur stdDeviation="3.88329"/>
<feComposite in2="hardAlpha" operator="arithmetic" k2="-1" k3="1"/>
<feColorMatrix type="matrix" values="0 0 0 0 0.356863 0 0 0 0 0.262745 0 0 0 0 0.623529 0 0 0 0.5 0"/>
<feBlend mode="normal" in2="shape" result="effect1_innerShadow_2_284"/>
</filter>
<filter id="filter16_i_2_284" x="114.726" y="372.076" width="28.1324" height="31.5061" filterUnits="userSpaceOnUse" color-interpolation-filters="sRGB">
<feFlood flood-opacity="0" result="BackgroundImageFix"/>
<feBlend mode="normal" in="SourceGraphic" in2="BackgroundImageFix" result="shape"/>
<feColorMatrix in="SourceAlpha" type="matrix" values="0 0 0 0 0 0 0 0 0 0 0 0 0 0 0 0 0 0 127 0" result="hardAlpha"/>
<feOffset dy="3.88329"/>
<feGaussianBlur stdDeviation="3.88329"/>
<feComposite in2="hardAlpha" operator="arithmetic" k2="-1" k3="1"/>
<feColorMatrix type="matrix" values="0 0 0 0 0.403922 0 0 0 0 0.309804 0 0 0 0 0.0156863 0 0 0 0.25 0"/>
<feBlend mode="normal" in2="shape" result="effect1_innerShadow_2_284"/>
</filter>
<filter id="filter17_f_2_284" x="-64.8347" y="-11.499" width="1125.53" height="995.9" filterUnits="userSpaceOnUse" color-interpolation-filters="sRGB">
<feFlood flood-opacity="0" result="BackgroundImageFix"/>
<feBlend mode="normal" in="SourceGraphic" in2="BackgroundImageFix" result="shape"/>
<feGaussianBlur stdDeviation="21.1965" result="effect1_foregroundBlur_2_284"/>
</filter>
<filter id="filter18_f_2_284" x="38.0048" y="24.8268" width="1195.3" height="889.628" filterUnits="userSpaceOnUse" color-interpolation-filters="sRGB">
<feFlood flood-opacity="0" result="BackgroundImageFix"/>
<feBlend mode="normal" in="SourceGraphic" in2="BackgroundImageFix" result="shape"/>
<feGaussianBlur stdDeviation="26.4956" result="effect1_foregroundBlur_2_284"/>
</filter>
<linearGradient id="paint0_linear_2_284" x1="366.188" y1="251.364" x2="51.2993" y2="549.388" gradientUnits="userSpaceOnUse">
<stop stop-color="#E2D8FE"/>
<stop offset="1" stop-color="#836EBE"/>
</linearGradient>
<linearGradient id="paint1_linear_2_284" x1="294.581" y1="592.486" x2="554.783" y2="424.654" gradientUnits="userSpaceOnUse">
<stop stop-color="#705EA9"/>
<stop offset="1" stop-color="#C4B7EA"/>
</linearGradient>
<clipPath id="clip0_2_284">
<rect x="128" y="206.314" width="277.231" height="277.231" rx="138.616" transform="rotate(-17.4889 128 206.314)" fill="white"/>
</clipPath>
</defs>
</svg>
