<svg width="775" height="775" viewBox="0 0 775 775" fill="none" xmlns="http://www.w3.org/2000/svg">
<g filter="url(#filter0_d_8_1385)">
<g clip-path="url(#clip0_8_1385)">
<rect x="68" y="223.117" width="507.594" height="507.594" rx="253.797" transform="rotate(-17.7938 68 223.117)" fill="url(#paint0_linear_8_1385)"/>
<g filter="url(#filter1_f_8_1385)">
<path opacity="0.8" d="M-983.206 897.235L-836.267 792.423C-793.674 762.041 -742.633 745.763 -690.314 745.875L-592.743 746.084C-540.73 746.195 -489.973 730.107 -447.521 700.055L-362.237 639.681C-320.04 609.809 -269.632 593.731 -217.932 593.652L-116.897 593.498C-64.578 593.419 -13.5976 576.954 28.8846 546.416L109.949 488.143C152.686 457.422 204.016 440.947 256.649 441.06L355.978 441.273C408.611 441.386 459.941 424.911 502.677 394.19L583.331 336.213C626.068 305.492 677.398 289.018 730.03 289.131L910.32 289.517" stroke="#D66C14" stroke-width="27.0717"/>
<path opacity="0.5" d="M-1050.76 1005.79L-903.817 900.979C-861.223 870.597 -810.183 854.319 -757.863 854.431L-660.293 854.64C-608.28 854.751 -557.523 838.664 -515.07 808.611L-429.786 748.237C-387.589 718.366 -337.181 702.287 -285.481 702.208L-184.447 702.055C-132.127 701.975 -81.1471 685.51 -38.6648 654.972L42.3999 596.699C85.1365 565.978 136.467 549.504 189.099 549.616L288.429 549.829C341.061 549.942 392.391 533.468 435.128 502.747L515.782 444.769C558.518 414.048 609.848 397.574 662.481 397.687L842.771 398.073" stroke="#D66C14" stroke-width="20.3038"/>
<path d="M-1005.74 936.453L-858.801 831.641C-816.208 801.258 -765.167 784.98 -712.848 785.092L-615.277 785.301C-563.264 785.413 -512.507 769.325 -470.055 739.272L-384.771 678.899C-342.574 649.027 -292.166 632.948 -240.466 632.87L-139.431 632.716C-87.112 632.636 -36.1317 616.171 6.35054 585.633L87.4153 527.36C130.152 496.639 181.482 480.165 234.115 480.278L333.444 480.491C386.077 480.603 437.407 464.129 480.143 433.408L560.797 375.431C603.534 344.71 654.864 328.236 707.496 328.348L887.786 328.734" stroke="#D66C14" stroke-width="13.5358"/>
<path d="M-1030.29 962.101L-883.35 857.289C-840.757 826.907 -789.716 810.629 -737.397 810.741L-639.826 810.95C-587.813 811.061 -537.056 794.974 -494.604 764.921L-409.32 704.548C-367.123 674.676 -316.715 658.597 -265.015 658.518L-163.98 658.365C-111.661 658.285 -60.6806 641.82 -18.1984 611.282L62.8663 553.009C105.603 522.288 156.933 505.814 209.566 505.927L308.895 506.139C361.528 506.252 412.858 489.778 455.594 459.057L536.248 401.079C578.985 370.358 630.315 353.884 682.947 353.997L863.237 354.383" stroke="#D66C14" stroke-width="6.76792"/>
<path d="M-1018.8 966.819L-871.865 862.007C-829.271 831.625 -778.231 815.346 -725.912 815.459L-628.341 815.668C-576.328 815.779 -525.571 799.691 -483.119 769.639L-397.835 709.265C-355.638 679.393 -305.23 663.314 -253.53 663.236L-152.495 663.082C-100.176 663.002 -49.1955 646.538 -6.7133 615.999L74.3514 557.726C117.088 527.005 168.418 510.531 221.051 510.644L320.38 510.857C373.013 510.969 424.343 494.495 467.079 463.774L547.733 405.797C590.47 375.076 641.8 358.602 694.432 358.714L874.723 359.101" stroke="#D66C14" stroke-width="3.38396"/>
<path d="M-1036.86 982.704L-889.917 877.892C-847.323 847.51 -796.282 831.232 -743.963 831.344L-646.392 831.553C-594.379 831.664 -543.622 815.577 -501.17 785.524L-415.886 725.15C-373.689 695.279 -323.281 679.2 -271.581 679.121L-170.546 678.967C-118.227 678.888 -67.2468 662.423 -24.7646 631.885L56.3001 573.612C99.0368 542.891 150.367 526.417 202.999 526.529L302.329 526.742C354.961 526.855 406.292 510.381 449.028 479.66L529.682 421.682C572.418 390.961 623.748 374.487 676.381 374.6L856.671 374.986" stroke="#D66C14" stroke-width="3.38396"/>
<path d="M-1003.18 1058.82L-847.055 949.563C-805.456 920.451 -755.99 904.672 -705.217 904.32L-595.209 903.555C-544.734 903.205 -495.543 887.609 -454.088 858.812L-357.908 792.003C-316.703 763.381 -267.85 747.795 -217.682 747.268L-104.125 746.073C-53.3543 745.539 -3.94518 729.584 37.5497 700.324L129.41 635.549C171.154 606.113 220.902 590.147 271.979 589.792L383.888 589.015C434.966 588.66 484.713 572.694 526.457 543.258L617.917 478.765C659.661 449.329 709.408 433.363 760.486 433.008L950.847 431.686" stroke="#D66C14" stroke-width="1.69198"/>
<path d="M-1032.12 1081.12L-875.998 971.859C-834.399 942.748 -784.933 926.969 -734.161 926.616L-624.152 925.852C-573.677 925.502 -524.487 909.905 -483.031 881.109L-386.852 814.3C-345.646 785.677 -296.793 770.092 -246.625 769.564L-133.069 768.37C-82.2978 767.836 -32.8887 751.881 8.60623 722.621L100.467 657.846C142.211 628.41 191.958 612.444 243.036 612.089L354.945 611.311C406.022 610.957 455.77 594.99 497.514 565.555L588.973 501.062C630.717 471.626 680.465 455.66 731.542 455.305L921.903 453.983" stroke="#D66C14" stroke-width="1.69198"/>
<path d="M-993.624 1081.13L-837.5 971.874C-795.901 942.763 -746.435 926.984 -695.662 926.631L-585.653 925.867C-535.179 925.516 -485.988 909.92 -444.533 881.124L-348.353 814.315C-307.148 785.692 -258.295 770.107 -208.127 769.579L-94.5703 768.385C-43.7993 767.851 5.60987 751.896 47.1048 722.636L138.965 657.861C180.709 628.425 230.457 612.459 281.534 612.104L393.443 611.326C444.521 610.972 494.268 595.005 536.012 565.57L627.472 501.077C669.216 471.641 718.963 455.675 770.041 455.32L960.402 453.998" stroke="#D66C14" stroke-width="6.76792"/>
<path opacity="0.8" d="M-1004.73 1093.58L-848.609 984.324C-807.01 955.213 -757.545 939.434 -706.772 939.081L-596.763 938.317C-546.289 937.966 -497.098 922.37 -455.642 893.574L-359.463 826.765C-318.258 798.142 -269.405 782.557 -219.236 782.029L-105.68 780.835C-54.909 780.301 -5.49987 764.346 35.995 735.086L127.856 670.311C169.6 640.875 219.347 624.909 270.425 624.554L382.333 623.776C433.411 623.422 483.158 607.455 524.902 578.02L616.362 513.527C658.106 484.091 707.854 468.125 758.931 467.77L949.292 466.448" stroke="#D66C14" stroke-width="13.5358"/>
<path d="M-983.312 1113.42L-827.188 1004.16C-785.589 975.047 -736.123 959.269 -685.35 958.916L-575.342 958.152C-524.867 957.801 -475.677 942.205 -434.221 913.408L-338.042 846.599C-296.836 817.977 -247.983 802.391 -197.815 801.864L-84.2585 800.669C-33.4875 800.135 15.9216 784.181 57.4165 754.92L149.277 690.145C191.021 660.709 240.769 644.743 291.846 644.388L403.755 643.611C454.832 643.256 504.58 627.29 546.324 597.854L637.784 533.361C679.528 503.926 729.275 487.959 780.353 487.604L970.714 486.282" stroke="#D66C14" stroke-width="3.38396"/>
<path d="M-1016.75 887.564L-869.81 782.752C-827.216 752.37 -776.175 736.092 -723.856 736.204L-626.285 736.413C-574.272 736.524 -523.515 720.437 -481.063 690.384L-395.779 630.01C-353.582 600.138 -303.174 584.06 -251.474 583.981L-150.44 583.827C-98.1202 583.748 -47.1398 567.283 -4.65764 536.745L76.4071 478.472C119.144 447.751 170.474 431.276 223.106 431.389L322.436 431.602C375.068 431.715 426.398 415.241 469.135 384.52L549.789 326.542C592.525 295.821 643.855 279.347 696.488 279.46L876.778 279.846" stroke="#D66C14" stroke-width="6.76792"/>
<path d="M-1041.18 884.135L-894.244 779.323C-851.651 748.941 -800.61 732.663 -748.291 732.775L-650.72 732.984C-598.707 733.095 -547.95 717.008 -505.498 686.955L-420.214 626.581C-378.017 596.71 -327.609 580.631 -275.909 580.552L-174.874 580.399C-122.555 580.319 -71.5745 563.854 -29.0923 533.316L51.9724 475.043C94.709 444.322 146.039 427.848 198.672 427.961L298.001 428.173C350.634 428.286 401.964 411.812 444.7 381.091L525.354 323.113C568.091 292.392 619.421 275.918 672.053 276.031L852.344 276.417" stroke="#D66C14" stroke-width="3.38396"/>
<path opacity="0.5" d="M-1193.46 752.364L-1037.33 643.105C-995.732 613.993 -946.266 598.215 -895.493 597.862L-785.484 597.098C-735.01 596.747 -685.819 581.151 -644.364 552.355L-548.184 485.546C-506.979 456.923 -458.126 441.338 -407.958 440.81L-294.401 439.616C-243.63 439.082 -194.221 423.127 -152.726 393.867L-60.8655 329.091C-19.1214 299.656 30.626 283.689 81.7035 283.335L193.612 282.557C244.69 282.202 294.437 266.236 336.181 236.8L427.641 172.308C469.385 142.872 519.133 126.906 570.21 126.551L760.571 125.228" stroke="#D66C14" stroke-width="6.76792"/>
<path d="M-1164.66 728.863L-1008.54 619.605C-966.937 590.493 -917.471 574.715 -866.698 574.362L-756.69 573.598C-706.215 573.247 -657.025 557.651 -615.569 528.855L-519.39 462.045C-478.184 433.423 -429.331 417.838 -379.163 417.31L-265.606 416.116C-214.836 415.582 -165.426 399.627 -123.931 370.367L-32.0709 305.591C9.67325 276.155 59.4207 260.189 110.498 259.834L222.407 259.057C273.484 258.702 323.232 242.736 364.976 213.3L456.436 148.807C498.18 119.372 547.927 103.405 599.005 103.051L789.366 101.728" stroke="#D66C14" stroke-width="3.38396"/>
<path opacity="0.7" d="M-1172.24 669.708L-1016.12 560.449C-974.519 531.338 -925.053 515.559 -874.28 515.207L-764.272 514.442C-713.797 514.092 -664.607 498.495 -623.151 469.699L-526.971 402.89C-485.766 374.267 -436.913 358.682 -386.745 358.155L-273.188 356.96C-222.417 356.426 -173.008 340.471 -131.513 311.211L-39.6528 246.436C2.09134 217 51.8388 201.034 102.916 200.679L214.825 199.902C265.903 199.547 315.65 183.58 357.394 154.145L448.854 89.652C490.598 60.2162 540.345 44.25 591.423 43.8952L781.784 42.5727" stroke="#D66C14" stroke-width="3.38396"/>
<path opacity="0.8" d="M-1188.6 777.2L-1032.47 667.941C-990.874 638.83 -941.408 623.051 -890.636 622.698L-780.627 621.934C-730.152 621.583 -680.962 605.987 -639.506 577.191L-543.327 510.382C-502.121 481.759 -453.268 466.174 -403.1 465.646L-289.544 464.452C-238.773 463.918 -189.364 447.963 -147.869 418.703L-56.0081 353.928C-14.264 324.492 35.4835 308.526 86.561 308.171L198.47 307.393C249.547 307.039 299.295 291.072 341.039 261.637L432.498 197.144C474.243 167.708 523.99 151.742 575.067 151.387L765.429 150.065" stroke="#D66C14" stroke-width="13.5358"/>
<path opacity="0.7" d="M-1172.42 816.357L-1016.3 707.098C-974.697 677.986 -925.231 662.208 -874.458 661.855L-764.449 661.091C-713.975 660.74 -664.784 645.144 -623.329 616.348L-527.149 549.539C-485.944 520.916 -437.091 505.331 -386.923 504.803L-273.366 503.609C-222.595 503.075 -173.186 487.12 -131.691 457.86L-39.8306 393.084C1.91348 363.649 51.661 347.682 102.738 347.328L214.647 346.55C265.725 346.195 315.472 330.229 357.216 300.793L448.676 236.301C490.42 206.865 540.167 190.899 591.245 190.544L781.606 189.221" stroke="#D66C14" stroke-width="6.76792"/>
<path opacity="0.7" d="M-1218.44 813.355L-1062.31 704.097C-1020.71 674.985 -971.246 659.206 -920.474 658.854L-810.465 658.089C-759.99 657.739 -710.8 642.143 -669.344 613.346L-573.165 546.537C-531.959 517.914 -483.106 502.329 -432.938 501.802L-319.382 500.607C-268.611 500.073 -219.202 484.118 -177.707 454.858L-85.846 390.083C-44.1019 360.647 5.64557 344.681 56.7231 344.326L168.632 343.549C219.709 343.194 269.457 327.228 311.201 297.792L402.661 233.299C444.405 203.863 494.152 187.897 545.23 187.542L735.591 186.22" stroke="#D66C14" stroke-width="6.76792"/>
<path d="M-1219.53 774.467L-1063.41 665.209C-1021.81 636.097 -972.342 620.318 -921.569 619.966L-811.561 619.201C-761.086 618.851 -711.896 603.255 -670.44 574.458L-574.26 507.649C-533.055 479.026 -484.202 463.441 -434.034 462.914L-320.477 461.719C-269.706 461.185 -220.297 445.23 -178.802 415.97L-86.9417 351.195C-45.1976 321.759 4.54987 305.793 55.6274 305.438L167.536 304.661C218.614 304.306 268.361 288.34 310.105 258.904L401.565 194.411C443.309 164.975 493.056 149.009 544.134 148.654L734.495 147.332" stroke="#D66C14" stroke-width="3.38396"/>
<path opacity="0.6" d="M14.7838 638.226C16.5896 641.427 34.3309 637.486 47.4231 630.593C60.5152 623.7 72.1053 616.943 70.2996 613.743C68.4938 610.542 53.9761 612.11 40.8839 619.002C27.7918 625.895 12.9781 635.026 14.7838 638.226Z" fill="#91470A"/>
<path opacity="0.7" d="M620.218 425.27C624.657 434.907 597.036 461.31 565.16 477.133C533.284 492.957 503.758 503.917 499.319 494.281C494.879 484.644 517.207 458.059 549.083 442.235C580.958 426.412 615.778 415.633 620.218 425.27Z" fill="#D66C14"/>
<path opacity="0.6" d="M606.638 431.407C610.08 438.878 588.068 460.946 563.354 473.214C538.641 485.482 513.666 495.588 510.224 488.117C506.782 480.645 526.176 458.425 550.89 446.157C575.603 433.889 603.196 423.935 606.638 431.407Z" fill="#F8B375"/>
<path d="M521.246 218.612C524.315 226.244 514.578 241.38 501.876 246.922C489.173 252.465 476.012 255.968 472.942 248.336C469.873 240.704 478.058 224.827 490.761 219.284C503.463 213.741 518.176 210.98 521.246 218.612Z" fill="#F8B375"/>
<path opacity="0.6" d="M512.565 223.686C514.542 228.602 508.27 238.351 500.088 241.921C491.906 245.491 483.429 247.748 481.452 242.832C479.474 237.916 484.747 227.689 492.929 224.119C501.111 220.549 510.588 218.77 512.565 223.686Z" fill="#BA6824"/>
<path opacity="0.5" d="M597.633 435.184C599.802 439.891 581.333 458.138 562.642 467.416C543.951 476.694 523.425 487.06 521.257 482.353C519.088 477.645 536.098 459.648 554.789 450.37C573.48 441.092 595.465 430.477 597.633 435.184Z" fill="#D66C14"/>
<path opacity="0.6" d="M586.797 442.945C588.335 446.282 574.753 458.358 561.5 464.937C548.248 471.516 535.985 476.957 534.447 473.62C532.91 470.282 542.679 459.429 555.932 452.851C569.185 446.272 585.259 439.607 586.797 442.945Z" fill="#91470A"/>
<path opacity="0.6" d="M380.056 405.49C380.45 409.144 363.729 416.263 349.07 418.277C334.412 420.29 321.055 421.541 320.661 417.887C320.267 414.233 332.985 407.059 347.643 405.046C362.302 403.033 379.662 401.837 380.056 405.49Z" fill="#91470A"/>
<path d="M373.739 545.903C374.897 549.39 366.218 557.638 357.557 560.795C348.895 563.952 340.857 566.265 339.699 562.777C338.542 559.29 344.704 551.321 353.365 548.165C362.027 545.008 372.582 542.415 373.739 545.903Z" fill="#CE7422"/>
<path opacity="0.5" d="M335.681 226.694C334.285 223.072 321.256 223.465 307.1 228.919C292.943 234.373 279.92 244.331 281.315 247.953C282.711 251.575 298.417 248.583 312.574 243.128C326.731 237.674 337.076 230.317 335.681 226.694Z" fill="#D66C14"/>
<path opacity="0.4" d="M389.478 190.291C387.17 187.17 380.733 186.561 375.96 190.091C371.188 193.622 368.981 200.989 371.289 204.11C373.597 207.231 380.244 205.864 385.016 202.334C389.789 198.803 391.787 193.411 389.478 190.291Z" fill="#D66C14"/>
<path opacity="0.3" d="M259.213 270.758C258.026 267.062 254.161 263.768 251.021 264.776C247.881 265.783 246.033 271.219 247.219 274.915C248.406 278.611 252.534 280.283 255.674 279.275C258.815 278.267 260.399 274.454 259.213 270.758Z" fill="#D66C14"/>
<path opacity="0.3" d="M207.838 276.79C207.113 274.532 204.779 272.509 202.895 273.114C201.011 273.719 199.918 277.029 200.643 279.288C201.368 281.546 203.855 282.58 205.739 281.975C207.623 281.37 208.563 279.049 207.838 276.79Z" fill="#D66C14"/>
</g>
<g filter="url(#filter2_f_8_1385)">
<path d="M252.201 65.68V65.68C120.962 343.839 356.382 654.844 659.722 604.043L756.98 587.755L-95.2671 761.919L252.201 65.68Z" fill="url(#paint1_linear_8_1385)" fill-opacity="0.4"/>
</g>
<g opacity="0.2" filter="url(#filter3_f_8_1385)">
<path d="M531.268 704.03V704.03C679.445 434.513 463.696 109.554 157.796 141.512L59.7167 151.758L921.098 30.5952L531.268 704.03Z" fill="#FFEAB3"/>
</g>
</g>
</g>
<defs>
<filter id="filter0_d_8_1385" x="0.320801" y="0.320801" width="773.787" height="773.787" filterUnits="userSpaceOnUse" color-interpolation-filters="sRGB">
<feFlood flood-opacity="0" result="BackgroundImageFix"/>
<feColorMatrix in="SourceAlpha" type="matrix" values="0 0 0 0 0 0 0 0 0 0 0 0 0 0 0 0 0 0 127 0" result="hardAlpha"/>
<feOffset/>
<feGaussianBlur stdDeviation="33.8396"/>
<feComposite in2="hardAlpha" operator="out"/>
<feColorMatrix type="matrix" values="0 0 0 0 0.404167 0 0 0 0 0.156468 0 0 0 0 0.0690452 0 0 0 0.8 0"/>
<feBlend mode="normal" in2="BackgroundImageFix" result="effect1_dropShadow_8_1385"/>
<feBlend mode="normal" in="SourceGraphic" in2="effect1_dropShadow_8_1385" result="shape"/>
</filter>
<filter id="filter1_f_8_1385" x="-1224.73" y="36.6508" width="2253.99" height="1082.38" filterUnits="userSpaceOnUse" color-interpolation-filters="sRGB">
<feFlood flood-opacity="0" result="BackgroundImageFix"/>
<feBlend mode="normal" in="SourceGraphic" in2="BackgroundImageFix" result="shape"/>
<feGaussianBlur stdDeviation="2.11497" result="effect1_foregroundBlur_8_1385"/>
</filter>
<filter id="filter2_f_8_1385" x="-129.107" y="31.8404" width="919.927" height="763.918" filterUnits="userSpaceOnUse" color-interpolation-filters="sRGB">
<feFlood flood-opacity="0" result="BackgroundImageFix"/>
<feBlend mode="normal" in="SourceGraphic" in2="BackgroundImageFix" result="shape"/>
<feGaussianBlur stdDeviation="16.9198" result="effect1_foregroundBlur_8_1385"/>
</filter>
<filter id="filter3_f_8_1385" x="17.4172" y="-11.7043" width="945.981" height="758.034" filterUnits="userSpaceOnUse" color-interpolation-filters="sRGB">
<feFlood flood-opacity="0" result="BackgroundImageFix"/>
<feBlend mode="normal" in="SourceGraphic" in2="BackgroundImageFix" result="shape"/>
<feGaussianBlur stdDeviation="21.1497" result="effect1_foregroundBlur_8_1385"/>
</filter>
<linearGradient id="paint0_linear_8_1385" x1="565.019" y1="404.158" x2="68" y2="485.796" gradientUnits="userSpaceOnUse">
<stop stop-color="#F4E8D5"/>
<stop offset="1" stop-color="#FC7100"/>
</linearGradient>
<linearGradient id="paint1_linear_8_1385" x1="128.594" y1="582.168" x2="346.924" y2="454.694" gradientUnits="userSpaceOnUse">
<stop stop-color="#511D04"/>
<stop offset="1" stop-color="#CD7121"/>
</linearGradient>
<clipPath id="clip0_8_1385">
<rect x="68" y="223.117" width="507.594" height="507.594" rx="253.797" transform="rotate(-17.7938 68 223.117)" fill="white"/>
</clipPath>
</defs>
</svg>
