<svg width="1704" height="480" viewBox="0 0 1704 480" fill="none" xmlns="http://www.w3.org/2000/svg">
<path d="M1222.1 292V211H1245.9C1250.77 211 1254.7 211.9 1257.7 213.7C1260.77 215.5 1263 218.133 1264.4 221.6C1265.87 225 1266.6 229.133 1266.6 234C1266.6 239.267 1265.7 243.533 1263.9 246.8C1262.1 250 1259.57 252.333 1256.3 253.8C1253.1 255.267 1249.3 256 1244.9 256H1236.9V292H1222.1ZM1236.9 245.6H1242.5C1245.17 245.6 1247.23 245.233 1248.7 244.5C1250.23 243.7 1251.27 242.467 1251.8 240.8C1252.4 239.067 1252.7 236.767 1252.7 233.9C1252.7 230.967 1252.47 228.6 1252 226.8C1251.6 224.933 1250.67 223.567 1249.2 222.7C1247.8 221.833 1245.57 221.4 1242.5 221.4H1236.9V245.6ZM1276.83 292V211H1296.23C1301.7 211 1306.3 211.667 1310.03 213C1313.83 214.267 1316.7 216.467 1318.63 219.6C1320.63 222.733 1321.63 227 1321.63 232.4C1321.63 235.667 1321.33 238.6 1320.73 241.2C1320.13 243.8 1319.1 246.033 1317.63 247.9C1316.23 249.7 1314.27 251.1 1311.73 252.1L1323.03 292H1308.23L1298.43 254.9H1291.63V292H1276.83ZM1291.63 245.6H1296.23C1299.1 245.6 1301.37 245.2 1303.03 244.4C1304.77 243.533 1306 242.2 1306.73 240.4C1307.47 238.533 1307.83 236.167 1307.83 233.3C1307.83 229.233 1307.07 226.2 1305.53 224.2C1304.07 222.133 1301.23 221.1 1297.03 221.1H1291.63V245.6ZM1356.5 293.1C1350.77 293.1 1346.2 292.033 1342.8 289.9C1339.4 287.767 1336.97 284.7 1335.5 280.7C1334.03 276.7 1333.3 271.967 1333.3 266.5V236.2C1333.3 230.733 1334.03 226.067 1335.5 222.2C1336.97 218.267 1339.4 215.267 1342.8 213.2C1346.2 211.133 1350.77 210.1 1356.5 210.1C1362.37 210.1 1366.97 211.133 1370.3 213.2C1373.7 215.267 1376.13 218.267 1377.6 222.2C1379.13 226.067 1379.9 230.733 1379.9 236.2V266.6C1379.9 272 1379.13 276.7 1377.6 280.7C1376.13 284.633 1373.7 287.7 1370.3 289.9C1366.97 292.033 1362.37 293.1 1356.5 293.1ZM1356.5 282.2C1358.97 282.2 1360.77 281.667 1361.9 280.6C1363.1 279.533 1363.9 278.067 1364.3 276.2C1364.7 274.333 1364.9 272.3 1364.9 270.1V232.8C1364.9 230.533 1364.7 228.5 1364.3 226.7C1363.9 224.9 1363.1 223.5 1361.9 222.5C1360.77 221.433 1358.97 220.9 1356.5 220.9C1354.17 220.9 1352.4 221.433 1351.2 222.5C1350 223.5 1349.2 224.9 1348.8 226.7C1348.4 228.5 1348.2 230.533 1348.2 232.8V270.1C1348.2 272.3 1348.37 274.333 1348.7 276.2C1349.1 278.067 1349.9 279.533 1351.1 280.6C1352.3 281.667 1354.1 282.2 1356.5 282.2ZM1387.36 294V283.6C1389.49 283.6 1391.26 283.467 1392.66 283.2C1394.06 282.933 1395.12 282.467 1395.86 281.8C1396.66 281.067 1397.22 280.033 1397.56 278.7C1397.89 277.3 1398.06 275.533 1398.06 273.4V211H1412.76V274C1412.76 278.533 1412.22 282.3 1411.16 285.3C1410.09 288.233 1408.22 290.433 1405.56 291.9C1402.96 293.3 1399.26 294 1394.46 294H1387.36ZM1427.07 292V211H1461.07V221.4H1441.87V244.7H1456.97V255H1441.87V281.8H1461.27V292H1427.07ZM1493.65 293.1C1487.71 293.1 1483.05 291.933 1479.65 289.6C1476.31 287.267 1473.98 284.1 1472.65 280.1C1471.31 276.033 1470.65 271.367 1470.65 266.1V237.2C1470.65 231.667 1471.31 226.867 1472.65 222.8C1473.98 218.733 1476.31 215.6 1479.65 213.4C1483.05 211.2 1487.71 210.1 1493.65 210.1C1499.25 210.1 1503.61 211.067 1506.75 213C1509.95 214.867 1512.21 217.567 1513.55 221.1C1514.88 224.633 1515.55 228.733 1515.55 233.4V240.2H1501.35V233.2C1501.35 230.933 1501.21 228.867 1500.95 227C1500.75 225.133 1500.11 223.667 1499.05 222.6C1498.05 221.467 1496.28 220.9 1493.75 220.9C1491.21 220.9 1489.35 221.5 1488.15 222.7C1487.01 223.833 1486.28 225.4 1485.95 227.4C1485.61 229.333 1485.45 231.533 1485.45 234V269.2C1485.45 272.133 1485.68 274.567 1486.15 276.5C1486.61 278.367 1487.45 279.8 1488.65 280.8C1489.91 281.733 1491.61 282.2 1493.75 282.2C1496.21 282.2 1497.95 281.633 1498.95 280.5C1500.01 279.3 1500.68 277.733 1500.95 275.8C1501.21 273.867 1501.35 271.7 1501.35 269.3V262H1515.55V268.5C1515.55 273.3 1514.91 277.567 1513.65 281.3C1512.38 284.967 1510.15 287.867 1506.95 290C1503.81 292.067 1499.38 293.1 1493.65 293.1ZM1535.95 292V221.9H1523.05V211H1563.45V221.9H1550.75V292H1535.95ZM1593.22 293.1C1588.35 293.1 1584.29 292.167 1581.02 290.3C1577.75 288.367 1575.29 285.567 1573.62 281.9C1571.95 278.233 1571.02 273.733 1570.82 268.4L1583.52 265.9C1583.65 269.033 1584.02 271.8 1584.62 274.2C1585.29 276.6 1586.25 278.467 1587.52 279.8C1588.85 281.067 1590.59 281.7 1592.72 281.7C1595.12 281.7 1596.82 281 1597.82 279.6C1598.82 278.133 1599.32 276.3 1599.32 274.1C1599.32 270.567 1598.52 267.667 1596.92 265.4C1595.32 263.133 1593.19 260.867 1590.52 258.6L1580.32 249.6C1577.45 247.133 1575.15 244.4 1573.42 241.4C1571.75 238.333 1570.92 234.567 1570.92 230.1C1570.92 223.7 1572.79 218.767 1576.52 215.3C1580.25 211.833 1585.35 210.1 1591.82 210.1C1595.62 210.1 1598.79 210.7 1601.32 211.9C1603.85 213.033 1605.85 214.633 1607.32 216.7C1608.85 218.767 1609.99 221.133 1610.72 223.8C1611.45 226.4 1611.92 229.167 1612.12 232.1L1599.52 234.3C1599.39 231.767 1599.09 229.5 1598.62 227.5C1598.22 225.5 1597.45 223.933 1596.32 222.8C1595.25 221.667 1593.65 221.1 1591.52 221.1C1589.32 221.1 1587.62 221.833 1586.42 223.3C1585.29 224.7 1584.72 226.467 1584.72 228.6C1584.72 231.333 1585.29 233.6 1586.42 235.4C1587.55 237.133 1589.19 238.933 1591.32 240.8L1601.42 249.7C1604.75 252.5 1607.59 255.8 1609.92 259.6C1612.32 263.333 1613.52 267.867 1613.52 273.2C1613.52 277.067 1612.65 280.5 1610.92 283.5C1609.25 286.5 1606.89 288.867 1603.82 290.6C1600.82 292.267 1597.29 293.1 1593.22 293.1ZM1667.65 293.1C1663.92 293.1 1660.65 292.333 1657.85 290.8C1655.12 289.2 1652.98 287 1651.45 284.2C1649.98 281.333 1649.25 278 1649.25 274.2C1649.25 269.067 1650.35 264.6 1652.55 260.8C1654.82 257 1657.62 253.5 1660.95 250.3C1659.68 247.9 1658.38 245.5 1657.05 243.1C1655.72 240.633 1654.62 238.133 1653.75 235.6C1652.88 233.067 1652.45 230.5 1652.45 227.9C1652.45 224.433 1653.15 221.367 1654.55 218.7C1655.95 216.033 1657.95 213.933 1660.55 212.4C1663.15 210.8 1666.28 210 1669.95 210C1673.35 210 1676.32 210.667 1678.85 212C1681.45 213.333 1683.52 215.233 1685.05 217.7C1686.58 220.1 1687.35 222.933 1687.35 226.2C1687.35 229.8 1686.55 233.133 1684.95 236.2C1683.42 239.267 1681.55 242.067 1679.35 244.6C1677.15 247.067 1675.02 249.367 1672.95 251.5L1683.75 270C1684.42 268.8 1684.98 267.267 1685.45 265.4C1685.92 263.533 1686.28 261.533 1686.55 259.4C1686.88 257.267 1687.12 255.3 1687.25 253.5H1698.05C1698.05 256.767 1697.72 259.867 1697.05 262.8C1696.45 265.733 1695.62 268.467 1694.55 271C1693.48 273.467 1692.32 275.767 1691.05 277.9C1691.85 278.833 1692.88 279.667 1694.15 280.4C1695.48 281.067 1696.88 281.433 1698.35 281.5V293C1697.95 293.067 1697.55 293.1 1697.15 293.1C1696.82 293.167 1696.48 293.2 1696.15 293.2C1694.35 293.133 1692.68 292.733 1691.15 292C1689.62 291.2 1688.22 290.233 1686.95 289.1C1685.68 287.967 1684.55 286.833 1683.55 285.7C1681.82 287.9 1679.62 289.7 1676.95 291.1C1674.28 292.433 1671.18 293.1 1667.65 293.1ZM1667.95 283.1C1669.95 283.1 1671.68 282.6 1673.15 281.6C1674.62 280.6 1675.88 279.433 1676.95 278.1L1665.85 259.4C1664.32 261.6 1663.15 263.933 1662.35 266.4C1661.55 268.8 1661.15 271.3 1661.15 273.9C1661.15 275.5 1661.38 277.033 1661.85 278.5C1662.32 279.9 1663.05 281.033 1664.05 281.9C1665.05 282.7 1666.35 283.1 1667.95 283.1ZM1668.75 244.3C1669.88 242.833 1670.98 241.067 1672.05 239C1673.12 236.933 1673.98 234.767 1674.65 232.5C1675.32 230.233 1675.65 228.067 1675.65 226C1675.65 224.2 1675.12 222.8 1674.05 221.8C1672.98 220.733 1671.65 220.2 1670.05 220.2C1668.18 220.2 1666.78 220.967 1665.85 222.5C1664.92 223.967 1664.45 225.767 1664.45 227.9C1664.45 230.767 1664.92 233.633 1665.85 236.5C1666.78 239.3 1667.75 241.9 1668.75 244.3Z" fill="#FFA100"/>
<path d="M1222.1 421V340H1245.9C1250.77 340 1254.7 340.9 1257.7 342.7C1260.77 344.5 1263 347.133 1264.4 350.6C1265.87 354 1266.6 358.133 1266.6 363C1266.6 368.267 1265.7 372.533 1263.9 375.8C1262.1 379 1259.57 381.333 1256.3 382.8C1253.1 384.267 1249.3 385 1244.9 385H1236.9V421H1222.1ZM1236.9 374.6H1242.5C1245.17 374.6 1247.23 374.233 1248.7 373.5C1250.23 372.7 1251.27 371.467 1251.8 369.8C1252.4 368.067 1252.7 365.767 1252.7 362.9C1252.7 359.967 1252.47 357.6 1252 355.8C1251.6 353.933 1250.67 352.567 1249.2 351.7C1247.8 350.833 1245.57 350.4 1242.5 350.4H1236.9V374.6ZM1276.83 421V340H1296.23C1301.7 340 1306.3 340.667 1310.03 342C1313.83 343.267 1316.7 345.467 1318.63 348.6C1320.63 351.733 1321.63 356 1321.63 361.4C1321.63 364.667 1321.33 367.6 1320.73 370.2C1320.13 372.8 1319.1 375.033 1317.63 376.9C1316.23 378.7 1314.27 380.1 1311.73 381.1L1323.03 421H1308.23L1298.43 383.9H1291.63V421H1276.83ZM1291.63 374.6H1296.23C1299.1 374.6 1301.37 374.2 1303.03 373.4C1304.77 372.533 1306 371.2 1306.73 369.4C1307.47 367.533 1307.83 365.167 1307.83 362.3C1307.83 358.233 1307.07 355.2 1305.53 353.2C1304.07 351.133 1301.23 350.1 1297.03 350.1H1291.63V374.6ZM1356.5 422.1C1350.77 422.1 1346.2 421.033 1342.8 418.9C1339.4 416.767 1336.97 413.7 1335.5 409.7C1334.03 405.7 1333.3 400.967 1333.3 395.5V365.2C1333.3 359.733 1334.03 355.067 1335.5 351.2C1336.97 347.267 1339.4 344.267 1342.8 342.2C1346.2 340.133 1350.77 339.1 1356.5 339.1C1362.37 339.1 1366.97 340.133 1370.3 342.2C1373.7 344.267 1376.13 347.267 1377.6 351.2C1379.13 355.067 1379.9 359.733 1379.9 365.2V395.6C1379.9 401 1379.13 405.7 1377.6 409.7C1376.13 413.633 1373.7 416.7 1370.3 418.9C1366.97 421.033 1362.37 422.1 1356.5 422.1ZM1356.5 411.2C1358.97 411.2 1360.77 410.667 1361.9 409.6C1363.1 408.533 1363.9 407.067 1364.3 405.2C1364.7 403.333 1364.9 401.3 1364.9 399.1V361.8C1364.9 359.533 1364.7 357.5 1364.3 355.7C1363.9 353.9 1363.1 352.5 1361.9 351.5C1360.77 350.433 1358.97 349.9 1356.5 349.9C1354.17 349.9 1352.4 350.433 1351.2 351.5C1350 352.5 1349.2 353.9 1348.8 355.7C1348.4 357.5 1348.2 359.533 1348.2 361.8V399.1C1348.2 401.3 1348.37 403.333 1348.7 405.2C1349.1 407.067 1349.9 408.533 1351.1 409.6C1352.3 410.667 1354.1 411.2 1356.5 411.2ZM1392.85 421V340H1411.95C1418.55 340 1423.68 340.9 1427.35 342.7C1431.08 344.5 1433.71 347.267 1435.25 351C1436.85 354.733 1437.65 359.467 1437.65 365.2V394.8C1437.65 400.667 1436.85 405.567 1435.25 409.5C1433.71 413.367 1431.11 416.267 1427.45 418.2C1423.85 420.067 1418.88 421 1412.55 421H1392.85ZM1407.65 410.7H1412.15C1415.55 410.7 1417.98 410.1 1419.45 408.9C1420.91 407.7 1421.81 405.967 1422.15 403.7C1422.48 401.367 1422.65 398.533 1422.65 395.2V364.2C1422.65 360.933 1422.41 358.3 1421.95 356.3C1421.48 354.3 1420.51 352.833 1419.05 351.9C1417.58 350.967 1415.21 350.5 1411.95 350.5H1407.65V410.7ZM1472.71 422.1C1466.71 422.1 1462.04 421 1458.71 418.8C1455.38 416.6 1453.08 413.467 1451.81 409.4C1450.54 405.333 1449.91 400.467 1449.91 394.8V340H1464.31V396.5C1464.31 399.033 1464.48 401.433 1464.81 403.7C1465.14 405.9 1465.91 407.7 1467.11 409.1C1468.38 410.433 1470.24 411.1 1472.71 411.1C1475.31 411.1 1477.18 410.433 1478.31 409.1C1479.51 407.7 1480.28 405.9 1480.61 403.7C1481.01 401.433 1481.21 399.033 1481.21 396.5V340H1495.51V394.8C1495.51 400.467 1494.88 405.333 1493.61 409.4C1492.34 413.467 1490.04 416.6 1486.71 418.8C1483.44 421 1478.78 422.1 1472.71 422.1ZM1530.95 422.1C1525.02 422.1 1520.35 420.933 1516.95 418.6C1513.62 416.267 1511.28 413.1 1509.95 409.1C1508.62 405.033 1507.95 400.367 1507.95 395.1V366.2C1507.95 360.667 1508.62 355.867 1509.95 351.8C1511.28 347.733 1513.62 344.6 1516.95 342.4C1520.35 340.2 1525.02 339.1 1530.95 339.1C1536.55 339.1 1540.92 340.067 1544.05 342C1547.25 343.867 1549.52 346.567 1550.85 350.1C1552.18 353.633 1552.85 357.733 1552.85 362.4V369.2H1538.65V362.2C1538.65 359.933 1538.52 357.867 1538.25 356C1538.05 354.133 1537.42 352.667 1536.35 351.6C1535.35 350.467 1533.58 349.9 1531.05 349.9C1528.52 349.9 1526.65 350.5 1525.45 351.7C1524.32 352.833 1523.58 354.4 1523.25 356.4C1522.92 358.333 1522.75 360.533 1522.75 363V398.2C1522.75 401.133 1522.98 403.567 1523.45 405.5C1523.92 407.367 1524.75 408.8 1525.95 409.8C1527.22 410.733 1528.92 411.2 1531.05 411.2C1533.52 411.2 1535.25 410.633 1536.25 409.5C1537.32 408.3 1537.98 406.733 1538.25 404.8C1538.52 402.867 1538.65 400.7 1538.65 398.3V391H1552.85V397.5C1552.85 402.3 1552.22 406.567 1550.95 410.3C1549.68 413.967 1547.45 416.867 1544.25 419C1541.12 421.067 1536.68 422.1 1530.95 422.1ZM1573.25 421V350.9H1560.35V340H1600.75V350.9H1588.05V421H1573.25Z" fill="white"/>
<g filter="url(#filter0_d_32_6065)">
<g clip-path="url(#clip0_32_6065)">
<rect x="40" y="40" width="400" height="400" rx="200" fill="url(#paint0_linear_32_6065)"/>
<g filter="url(#filter1_f_32_6065)">
<path opacity="0.8" d="M-673.321 229.5L-571.701 197.056C-542.244 187.651 -510.581 187.709 -481.159 197.222L-426.288 214.962C-397.038 224.419 -365.569 224.533 -336.251 215.288L-277.353 196.716C-248.212 187.527 -216.94 187.583 -187.832 196.876L-130.947 215.038C-101.49 224.443 -69.827 224.385 -40.4045 214.872L15.7395 196.72C45.3381 187.151 77.1996 187.151 106.798 196.72L162.658 214.78C192.256 224.349 224.118 224.349 253.716 214.78L309.576 196.72C339.174 187.151 371.036 187.151 400.634 196.72L502.023 229.5" stroke="#D66C14" stroke-width="16"/>
<path opacity="0.5" d="M-730.941 278.39L-629.321 245.946C-599.864 236.541 -568.201 236.599 -538.779 246.112L-483.908 263.852C-454.658 273.309 -423.189 273.423 -393.871 264.178L-334.973 245.606C-305.832 236.417 -274.561 236.473 -245.452 245.766L-188.567 263.928C-159.11 273.332 -127.447 273.274 -98.0246 263.762L-41.8806 245.61C-12.282 236.04 19.5795 236.04 49.1781 245.61L105.037 263.67C134.636 273.239 166.497 273.239 196.096 263.67L251.955 245.61C281.554 236.04 313.416 236.04 343.014 245.61L444.403 278.39" stroke="#D66C14" stroke-width="12"/>
<path d="M-693.086 247.5L-591.466 215.056C-562.009 205.651 -530.346 205.709 -500.923 215.222L-446.053 232.962C-416.803 242.419 -385.334 242.533 -356.016 233.288L-297.118 214.716C-267.976 205.527 -236.705 205.583 -207.597 214.876L-150.712 233.038C-121.255 242.443 -89.5916 242.385 -60.1692 232.872L-4.02516 214.72C25.5735 205.151 57.4349 205.151 87.0336 214.72L142.893 232.78C172.492 242.349 204.353 242.349 233.952 232.78L289.811 214.72C319.41 205.151 351.271 205.151 380.87 214.72L482.258 247.5" stroke="#D66C14" stroke-width="8"/>
<path d="M-711.533 257.5L-609.913 225.056C-580.456 215.651 -548.793 215.709 -519.371 225.222L-464.5 242.962C-435.25 252.419 -403.781 252.533 -374.463 243.288L-315.565 224.716C-286.424 215.527 -255.152 215.583 -226.044 224.876L-169.159 243.038C-139.702 252.443 -108.039 252.385 -78.6164 242.872L-22.4724 224.72C7.12622 215.151 38.9877 215.151 68.5863 224.72L124.446 242.78C154.044 252.349 185.906 252.349 215.504 242.78L271.364 224.72C300.962 215.151 332.824 215.151 362.422 224.72L463.811 257.5" stroke="#D66C14" stroke-width="4"/>
<path d="M-705.922 262.229L-604.302 229.785C-574.845 220.38 -543.182 220.438 -513.759 229.951L-458.889 247.691C-429.639 257.148 -398.17 257.262 -368.852 248.017L-309.954 229.445C-280.812 220.256 -249.541 220.312 -220.433 229.605L-163.548 247.767C-134.091 257.172 -102.428 257.114 -73.0051 247.601L-16.8611 229.449C12.7375 219.88 44.599 219.88 74.1976 229.449L130.057 247.509C159.656 257.078 191.517 257.078 221.116 247.509L276.975 229.449C306.574 219.88 338.435 219.88 368.034 229.449L469.422 262.229" stroke="#D66C14" stroke-width="2"/>
<path d="M-718.949 267.908L-617.329 235.464C-587.872 226.059 -556.209 226.117 -526.787 235.63L-471.916 253.37C-442.666 262.827 -411.197 262.941 -381.879 253.696L-322.981 235.124C-293.84 225.935 -262.568 225.991 -233.46 235.284L-176.575 253.446C-147.118 262.851 -115.455 262.793 -86.0325 253.28L-29.8884 235.128C-0.289794 225.559 31.5716 225.559 61.1703 235.128L117.03 253.188C146.628 262.758 178.49 262.758 208.088 253.188L263.948 235.128C293.546 225.559 325.408 225.559 355.006 235.128L456.395 267.908" stroke="#D66C14" stroke-width="2"/>
<path d="M-713.746 316.825L-606.154 283.538C-577.486 274.669 -546.799 274.724 -518.163 283.695L-456.118 303.134C-427.65 312.053 -397.151 312.161 -368.621 303.443L-302.429 283.217C-274.071 274.552 -243.764 274.605 -215.437 283.369L-151.317 303.206C-122.649 312.076 -91.9626 312.021 -63.3266 303.049L0.0672054 283.188C28.8752 274.163 59.7543 274.163 88.5623 283.188L151.679 302.963C180.487 311.988 211.366 311.988 240.174 302.963L303.292 283.188C332.1 274.163 362.979 274.163 391.787 283.188L499.151 316.825" stroke="#D66C14"/>
<path d="M-734.061 324.146L-626.468 290.858C-597.8 281.989 -567.114 282.044 -538.478 291.015L-476.432 310.454C-447.964 319.373 -417.465 319.481 -388.935 310.763L-322.744 290.537C-294.386 281.872 -264.079 281.925 -235.751 290.689L-171.632 310.527C-142.964 319.396 -112.277 319.341 -83.6411 310.369L-20.2472 290.508C8.56072 281.483 39.4399 281.483 68.2478 290.508L131.365 310.283C160.173 319.308 191.052 319.308 219.86 310.283L282.977 290.508C311.785 281.483 342.664 281.483 371.472 290.508L478.837 324.146" stroke="#D66C14"/>
<path d="M-712.398 331.107L-604.806 297.82C-576.138 288.951 -545.451 289.005 -516.815 297.977L-454.77 317.416C-426.302 326.335 -395.803 326.442 -367.273 317.725L-301.082 297.499C-272.724 288.834 -242.417 288.887 -214.089 297.651L-149.97 317.488C-121.302 326.358 -90.6149 326.303 -61.9789 317.331L1.41486 297.47C30.2228 288.444 61.102 288.444 89.9099 297.47L153.027 317.244C181.835 326.27 212.714 326.27 241.522 317.244L304.639 297.47C333.447 288.444 364.326 288.444 393.134 297.47L500.499 331.107" stroke="#D66C14" stroke-width="4"/>
<path opacity="0.8" d="M-720.899 336.107L-613.307 302.819C-584.639 293.95 -553.952 294.005 -525.316 302.976L-463.271 322.415C-434.803 331.334 -404.304 331.442 -375.774 322.724L-309.582 302.498C-281.225 293.833 -250.918 293.886 -222.59 302.65L-158.471 322.488C-129.803 331.357 -99.1159 331.302 -70.4799 322.331L-7.08613 302.469C21.7219 293.444 52.601 293.444 81.4089 302.469L144.526 322.244C173.334 331.269 204.213 331.269 233.021 322.244L296.138 302.469C324.946 293.444 355.825 293.444 384.633 302.469L491.998 336.107" stroke="#D66C14" stroke-width="8"/>
<path d="M-712.427 351.138L-604.834 317.85C-576.167 308.981 -545.48 309.036 -516.844 318.007L-454.798 337.446C-426.33 346.365 -395.832 346.473 -367.301 337.755L-301.11 317.529C-272.752 308.864 -242.445 308.917 -214.117 317.681L-149.998 337.519C-121.33 346.388 -90.6433 346.333 -62.0073 337.362L1.38654 317.5C30.1945 308.475 61.0736 308.475 89.8816 317.5L152.999 337.275C181.807 346.3 212.686 346.3 241.494 337.275L304.611 317.5C333.419 308.475 364.298 308.475 393.106 317.5L500.471 351.138" stroke="#D66C14" stroke-width="2"/>
<path d="M-690.45 218L-588.83 185.556C-559.373 176.151 -527.71 176.209 -498.288 185.722L-443.417 203.462C-414.167 212.918 -382.698 213.032 -353.38 203.788L-294.482 185.216C-265.341 176.027 -234.069 176.083 -204.961 185.376L-148.076 203.538C-118.619 212.942 -86.9559 212.884 -57.5334 203.372L-1.38942 185.22C28.2092 175.65 60.0707 175.65 89.6693 185.22L145.529 203.28C175.127 212.849 206.989 212.849 236.587 203.28L292.447 185.22C322.045 175.65 353.907 175.65 383.505 185.22L484.894 218" stroke="#D66C14" stroke-width="4"/>
<path d="M-703.582 211.657L-601.962 179.213C-572.505 169.808 -540.842 169.866 -511.419 179.379L-456.549 197.119C-427.299 206.576 -395.83 206.69 -366.512 197.445L-307.614 178.873C-278.473 169.684 -247.201 169.74 -218.093 179.033L-161.208 197.195C-131.751 206.6 -100.088 206.542 -70.6653 197.029L-14.5213 178.877C15.0774 169.308 46.9388 169.308 76.5375 178.877L132.397 196.937C161.995 206.506 193.857 206.506 223.456 196.937L279.315 178.877C308.913 169.308 340.775 169.308 370.374 178.877L471.762 211.657" stroke="#D66C14" stroke-width="2"/>
<path opacity="0.5" d="M-765.474 110L-657.881 76.713C-629.213 67.8436 -598.527 67.8984 -569.891 76.87L-507.845 96.3089C-479.377 105.228 -448.878 105.335 -420.348 96.6177L-354.157 76.392C-325.799 67.7268 -295.492 67.7797 -267.164 76.5438L-203.045 96.3813C-174.377 105.251 -143.69 105.196 -115.054 96.2242L-51.6603 76.363C-22.8524 67.3374 8.02676 67.3374 36.8347 76.363L99.9518 96.1375C128.76 105.163 159.639 105.163 188.447 96.1375L251.564 76.363C280.372 67.3374 311.251 67.3374 340.059 76.363L447.424 110" stroke="#D66C14" stroke-width="4"/>
<path d="M-745.025 101.976L-637.433 68.6888C-608.765 59.8195 -578.078 59.8742 -549.442 68.8459L-487.397 88.2847C-458.929 97.2037 -428.43 97.3113 -399.9 88.5935L-333.708 68.3678C-305.351 59.7027 -275.044 59.7555 -246.716 68.5196L-182.597 88.3571C-153.929 97.2264 -123.242 97.1717 -94.6059 88.2L-31.2121 68.3388C-2.40411 59.3133 28.475 59.3133 57.283 68.3388L120.4 88.1133C149.208 97.1389 180.087 97.1389 208.895 88.1133L272.012 68.3388C300.82 59.3133 331.699 59.3133 360.507 68.3388L467.872 101.976" stroke="#D66C14" stroke-width="2"/>
<path opacity="0.7" d="M-738.607 67.3169L-631.015 34.0296C-602.347 25.1603 -571.66 25.215 -543.024 34.1867L-480.979 53.6255C-452.511 62.5445 -422.012 62.6521 -393.482 53.9344L-327.29 33.7086C-298.933 25.0435 -268.626 25.0964 -240.298 33.8604L-176.179 53.6979C-147.511 62.5673 -116.824 62.5125 -88.1879 53.5409L-24.7941 33.6796C4.01386 24.6541 34.893 24.6541 63.7009 33.6796L126.818 53.4542C155.626 62.4797 186.505 62.4797 215.313 53.4542L278.43 33.6796C307.238 24.6541 338.117 24.6541 366.925 33.6796L474.29 67.3169" stroke="#D66C14" stroke-width="2"/>
<path opacity="0.8" d="M-767.226 124.854L-659.633 91.5667C-630.965 82.6974 -600.279 82.7521 -571.643 91.7238L-509.597 111.163C-481.129 120.082 -450.63 120.189 -422.1 111.471L-355.909 91.2457C-327.551 82.5806 -297.244 82.6335 -268.916 91.3975L-204.797 111.235C-176.129 120.104 -145.442 120.05 -116.806 111.078L-53.4123 91.2167C-24.6043 82.1912 6.2748 82.1912 35.0828 91.2167L98.1999 110.991C127.008 120.017 157.887 120.017 186.695 110.991L249.812 91.2167C278.62 82.1912 309.499 82.1912 338.307 91.2167L445.672 124.854" stroke="#D66C14" stroke-width="8"/>
<path opacity="0.7" d="M-765.194 149.812L-657.602 116.524C-628.934 107.655 -598.247 107.71 -569.611 116.681L-507.566 136.12C-479.098 145.039 -448.599 145.147 -420.069 136.429L-353.877 116.203C-325.519 107.538 -295.212 107.591 -266.885 116.355L-202.765 136.193C-174.098 145.062 -143.411 145.007 -114.775 136.035L-51.381 116.174C-22.5731 107.149 8.30605 107.149 37.114 116.174L100.231 135.949C129.039 144.974 159.918 144.974 188.726 135.949L251.843 116.174C280.651 107.149 311.53 107.149 340.338 116.174L447.703 149.812" stroke="#D66C14" stroke-width="4"/>
<path opacity="0.7" d="M-790.547 139.811L-682.954 106.524C-654.287 97.6547 -623.6 97.7094 -594.964 106.681L-532.918 126.12C-504.45 135.039 -473.952 135.147 -445.421 126.429L-379.23 106.203C-350.872 97.5379 -320.565 97.5907 -292.238 106.355L-228.118 126.192C-199.45 135.062 -168.763 135.007 -140.127 126.035L-76.7336 106.174C-47.9256 97.1485 -17.0465 97.1485 11.7615 106.174L74.8786 125.949C103.687 134.974 134.566 134.974 163.374 125.949L226.491 106.174C255.299 97.1485 286.178 97.1485 314.986 106.174L422.35 139.811" stroke="#D66C14" stroke-width="4"/>
<path d="M-784.141 117.729L-676.548 84.442C-647.88 75.5726 -617.194 75.6274 -588.558 84.599L-526.512 104.038C-498.044 112.957 -467.545 113.064 -439.015 104.347L-372.824 84.121C-344.466 75.4558 -314.159 75.5087 -285.831 84.2728L-221.712 104.11C-193.044 112.98 -162.357 112.925 -133.721 103.953L-70.3273 84.092C-41.5193 75.0665 -10.6402 75.0664 18.1677 84.092L81.2849 103.867C110.093 112.892 140.972 112.892 169.78 103.867L232.897 84.092C261.705 75.0665 292.584 75.0664 321.392 84.092L428.757 117.729" stroke="#D66C14" stroke-width="2"/>
<path opacity="0.7" d="M314.249 253.499C315.007 259.724 294.694 269.594 273.898 272.741C253.102 275.889 234.507 276.724 233.749 270.499C232.991 264.274 250.358 253.346 271.154 250.198C291.95 247.051 313.491 247.274 314.249 253.499Z" fill="#D66C14"/>
<path opacity="0.6" d="M305.5 254.5C306.088 259.326 289.714 267.769 273.591 270.21C257.468 272.65 241.588 273.826 241 269C240.412 264.174 255.34 255.172 271.463 252.732C287.586 250.292 304.912 249.674 305.5 254.5Z" fill="#F8B375"/>
<path d="M295.879 119.327C296.227 124.176 288.014 130.935 279.865 131.76C271.716 132.585 263.676 132.179 263.327 127.33C262.978 122.48 270.452 115.024 278.602 114.199C286.751 113.374 295.53 114.477 295.879 119.327Z" fill="#F8B375"/>
<path opacity="0.6" d="M290.076 120.614C290.301 123.738 285.011 128.091 279.761 128.623C274.512 129.154 269.334 128.893 269.109 125.769C268.884 122.646 273.699 117.843 278.948 117.311C284.197 116.78 289.851 117.491 290.076 120.614Z" fill="#BA6824"/>
<path opacity="0.5" d="M299.749 254.999C300.12 258.04 286.431 264.973 274.237 266.818C262.043 268.664 248.619 270.79 248.249 267.749C247.879 264.708 260.702 257.653 272.896 255.807C285.09 253.962 299.379 251.959 299.749 254.999Z" fill="#D66C14"/>
<path opacity="0.6" d="M292.25 257.409C292.513 259.565 282.689 263.908 274.042 265.217C265.396 266.526 257.513 267.373 257.25 265.217C256.988 263.061 264.446 258.718 273.092 257.409C281.738 256.101 291.988 255.254 292.25 257.409Z" fill="#91470A"/>
<path opacity="0.6" d="M182.671 198.992C182.233 201.119 171.537 202.106 162.925 200.591C154.312 199.077 146.569 197.368 147.008 195.241C147.446 193.114 155.899 191.374 164.511 192.888C173.124 194.402 183.109 196.865 182.671 198.992Z" fill="#91470A"/>
<path d="M153.756 276.868C153.777 279.04 147.404 282.114 141.959 282.326C136.515 282.538 131.573 282.388 131.552 280.216C131.53 278.045 136.437 274.673 141.882 274.461C147.326 274.249 153.734 274.696 153.756 276.868Z" fill="#CE7422"/>
<path opacity="0.5" d="M189.991 90.3598C189.86 88.0695 182.458 85.937 173.506 86.4494C164.554 86.9618 155.427 90.2139 155.558 92.5043C155.689 94.7946 165.068 95.9471 174.02 95.4347C182.972 94.9223 190.122 92.6502 189.991 90.3598Z" fill="#D66C14"/>
<path opacity="0.4" d="M226.841 79.5903C226.105 77.4173 222.593 75.9117 219.27 77.0364C215.946 78.1612 213.373 81.9088 214.109 84.0818C214.844 86.2549 218.831 86.6862 222.155 85.5615C225.478 84.4367 227.576 81.7633 226.841 79.5903Z" fill="#D66C14"/>
<path opacity="0.3" d="M139.001 101.346C139.001 99.0516 137.421 96.4995 135.472 96.4995C133.522 96.4995 131.501 99.2246 131.501 101.519C131.501 103.813 133.522 105.5 135.472 105.5C137.421 105.5 139.001 103.64 139.001 101.346Z" fill="#D66C14"/>
<path opacity="0.3" d="M109 95.4615C109 94.0596 108.052 92.5 106.882 92.5C105.713 92.5 104.5 94.1654 104.5 95.5673C104.5 96.9693 105.713 98 106.882 98C108.052 98 109 96.8635 109 95.4615Z" fill="#D66C14"/>
<path opacity="0.3" d="M434 105.461C434 104.059 433.052 102.5 431.882 102.5C430.713 102.5 429.5 104.165 429.5 105.567C429.5 106.969 430.713 108 431.882 108C433.052 108 434 106.863 434 105.461Z" fill="#D66C14"/>
</g>
<g filter="url(#filter2_f_32_6065)">
<path d="M172.094 -15.3287V-15.3287C48.0009 117.502 124.312 335.04 304.192 361.239L361.866 369.639L-149.193 313.723L172.094 -15.3287Z" fill="url(#paint1_linear_32_6065)" fill-opacity="0.4"/>
</g>
<g opacity="0.2" filter="url(#filter3_f_32_6065)">
<path d="M213.845 394.306V394.306C345.91 269.398 283.189 47.5598 105.271 10.295L48.2268 -1.65297L554.853 85.7383L213.845 394.306Z" fill="#FFEAB3"/>
</g>
</g>
</g>
<defs>
<filter id="filter0_d_32_6065" x="0" y="0" width="480" height="480" filterUnits="userSpaceOnUse" color-interpolation-filters="sRGB">
<feFlood flood-opacity="0" result="BackgroundImageFix"/>
<feColorMatrix in="SourceAlpha" type="matrix" values="0 0 0 0 0 0 0 0 0 0 0 0 0 0 0 0 0 0 127 0" result="hardAlpha"/>
<feOffset/>
<feGaussianBlur stdDeviation="20"/>
<feComposite in2="hardAlpha" operator="out"/>
<feColorMatrix type="matrix" values="0 0 0 0 0.404167 0 0 0 0 0.156468 0 0 0 0 0.0690452 0 0 0 0.8 0"/>
<feBlend mode="normal" in2="BackgroundImageFix" result="effect1_dropShadow_32_6065"/>
<feBlend mode="normal" in="SourceGraphic" in2="effect1_dropShadow_32_6065" result="shape"/>
</filter>
<filter id="filter1_f_32_6065" x="-793.638" y="23.4104" width="1359.4" height="331.183" filterUnits="userSpaceOnUse" color-interpolation-filters="sRGB">
<feFlood flood-opacity="0" result="BackgroundImageFix"/>
<feBlend mode="normal" in="SourceGraphic" in2="BackgroundImageFix" result="shape"/>
<feGaussianBlur stdDeviation="1.25" result="effect1_foregroundBlur_32_6065"/>
</filter>
<filter id="filter2_f_32_6065" x="-169.192" y="-35.3286" width="551.059" height="424.967" filterUnits="userSpaceOnUse" color-interpolation-filters="sRGB">
<feFlood flood-opacity="0" result="BackgroundImageFix"/>
<feBlend mode="normal" in="SourceGraphic" in2="BackgroundImageFix" result="shape"/>
<feGaussianBlur stdDeviation="10" result="effect1_foregroundBlur_32_6065"/>
</filter>
<filter id="filter3_f_32_6065" x="23.2266" y="-26.6531" width="556.627" height="445.959" filterUnits="userSpaceOnUse" color-interpolation-filters="sRGB">
<feFlood flood-opacity="0" result="BackgroundImageFix"/>
<feBlend mode="normal" in="SourceGraphic" in2="BackgroundImageFix" result="shape"/>
<feGaussianBlur stdDeviation="12.5" result="effect1_foregroundBlur_32_6065"/>
</filter>
<linearGradient id="paint0_linear_32_6065" x1="431.667" y1="182.667" x2="40" y2="247" gradientUnits="userSpaceOnUse">
<stop stop-color="#F4E8D5"/>
<stop offset="1" stop-color="#FC7100"/>
</linearGradient>
<linearGradient id="paint1_linear_32_6065" x1="9.25049" y1="253" x2="155.139" y2="220.697" gradientUnits="userSpaceOnUse">
<stop stop-color="#511D04"/>
<stop offset="1" stop-color="#CD7121"/>
</linearGradient>
<clipPath id="clip0_32_6065">
<rect x="40" y="40" width="400" height="400" rx="200" fill="white"/>
</clipPath>
</defs>
</svg>
