<svg width="165" height="164" viewBox="0 0 165 164" fill="none" xmlns="http://www.w3.org/2000/svg">
<g filter="url(#filter0_d_8_1366)">
<rect x="28.9944" y="26.0922" width="106.966" height="106.966" rx="19.0161" fill="white"/>
<rect x="29.2915" y="26.3893" width="106.371" height="106.371" rx="18.719" stroke="#D9D9D9" stroke-width="0.594253"/>
</g>
<g clip-path="url(#clip0_8_1366)">
<path d="M64.6614 79.0101C64.6399 79.8457 64.7428 80.6798 64.967 81.4851C65.2138 82.1737 65.5111 82.8431 65.8563 83.488C65.9799 83.6786 66.0473 83.9003 66.0508 84.1276C66.0508 84.4056 65.8841 84.684 65.5229 84.9618L63.7727 86.1299C63.5616 86.2821 63.3105 86.3691 63.0505 86.3801C62.734 86.3583 62.437 86.2195 62.2171 85.9908C61.8426 85.5881 61.5076 85.1505 61.2166 84.6838C60.9388 84.2111 60.6608 83.6824 60.3554 83.043C58.1884 85.601 55.4657 86.88 52.1873 86.88C49.8529 86.88 47.9923 86.2124 46.631 84.8771C45.2698 83.5418 44.5751 81.7631 44.5751 79.5384C44.5751 77.1747 45.4085 75.2559 47.1033 73.8098C48.7981 72.3638 51.0482 71.6407 53.9098 71.6407C54.8953 71.6487 55.8791 71.7231 56.8547 71.8632C57.8826 72.0023 58.9384 72.2247 60.0495 72.4751V70.445C60.0495 68.3308 59.6049 66.8577 58.7438 65.9955C57.8545 65.1335 56.3546 64.7164 54.2153 64.7164C53.2043 64.7164 52.1969 64.8377 51.2148 65.0779C50.1935 65.3214 49.1908 65.6374 48.2143 66.0234C47.8984 66.1649 47.5736 66.2856 47.242 66.3848C47.0981 66.4323 46.9486 66.4604 46.7973 66.4683C46.4084 66.4683 46.2139 66.1903 46.2139 65.6063V64.2437C46.2139 63.7986 46.2694 63.4647 46.4084 63.2703C46.618 63.0169 46.8847 62.8167 47.1865 62.6863C48.3008 62.1344 49.4756 61.7145 50.6871 61.435C52.1027 61.0714 53.5596 60.8938 55.0211 60.9066C58.3277 60.9066 60.7441 61.6574 62.3 63.1591C63.828 64.6608 64.6058 66.941 64.6058 70.0001V79.0101H64.6614ZM53.382 83.237C54.3567 83.2262 55.3231 83.0572 56.2436 82.7364C57.2633 82.3833 58.1731 81.7696 58.8828 80.956C59.3306 80.4435 59.6539 79.8341 59.8273 79.1757C60.0182 78.3836 60.1115 77.5711 60.1051 76.7563V75.5896C59.2628 75.3843 58.4096 75.2265 57.5496 75.1168C56.6833 75.007 55.8109 74.9515 54.9377 74.9507C53.0763 74.9507 51.7151 75.3122 50.7983 76.0634C49.8815 76.8147 49.437 77.871 49.437 79.2614C49.437 80.5683 49.7705 81.5417 50.4649 82.2091C51.1319 82.9044 52.1041 83.2381 53.382 83.2381V83.237ZM75.6908 86.2403C75.1907 86.2403 74.8574 86.1569 74.6351 85.9623C74.4127 85.7954 74.2184 85.406 74.0516 84.8777L67.5226 63.3816C67.3961 63.0218 67.3122 62.6483 67.2727 62.2689C67.2727 61.8238 67.495 61.5736 67.9396 61.5736H70.6622C71.1901 61.5736 71.5515 61.6571 71.7457 61.8516C71.9681 62.0185 72.1347 62.408 72.3016 62.9362L76.9689 81.3455L81.3027 62.9367C81.4417 62.3803 81.6082 62.019 81.8306 61.8521C82.0529 61.6852 82.4418 61.5741 82.9422 61.5741H85.1655C85.6934 61.5741 86.0548 61.6575 86.2771 61.8521C86.4995 62.019 86.6939 62.4085 86.805 62.9367L91.1946 81.5685L95.9993 62.9367C96.166 62.3803 96.3604 62.019 96.5551 61.8521C96.7774 61.6852 97.1385 61.5741 97.6386 61.5741H100.222C100.667 61.5741 100.917 61.7966 100.917 62.2694C100.911 62.419 100.892 62.5678 100.861 62.7145C100.818 62.9517 100.753 63.1844 100.667 63.4097L93.9715 84.9059C93.8048 85.462 93.6103 85.8236 93.388 85.9905C93.0739 86.1917 92.7046 86.289 92.3323 86.2685H89.9429C89.415 86.2685 89.0535 86.185 88.8312 85.9905C88.6089 85.7959 88.4145 85.4341 88.3033 84.8777L83.9975 66.941L79.7189 84.8499C79.58 85.4063 79.4134 85.7676 79.1911 85.9626C78.9687 86.1577 78.5798 86.2407 78.0794 86.2407L75.6908 86.2403ZM111.39 86.9911C109.95 86.9926 108.514 86.8246 107.112 86.4905C105.723 86.1567 104.639 85.7953 103.917 85.3778C103.473 85.1276 103.167 84.8494 103.056 84.5989C102.948 84.3534 102.891 84.0883 102.889 83.82V82.4027C102.889 81.8187 103.112 81.5407 103.528 81.5407C103.698 81.5413 103.867 81.5695 104.028 81.6242C104.195 81.6798 104.445 81.7911 104.723 81.9022C105.704 82.3342 106.729 82.6605 107.779 82.8755C108.867 83.0966 109.975 83.2084 111.085 83.2093C112.835 83.2093 114.197 82.9035 115.141 82.2916C115.594 82.0183 115.966 81.6299 116.22 81.1658C116.474 80.7018 116.6 80.1787 116.586 79.6499C116.596 79.2919 116.535 78.9355 116.406 78.6014C116.277 78.2672 116.084 77.962 115.836 77.7033C115.336 77.1749 114.391 76.7018 113.03 76.2567L109.001 75.0055C106.973 74.366 105.473 73.4206 104.556 72.1689C103.662 71.0148 103.173 69.5972 103.167 68.1366C103.145 67.0598 103.403 65.9958 103.917 65.0497C104.413 64.1551 105.096 63.3775 105.918 62.7695C106.784 62.1133 107.764 61.6229 108.807 61.3229C109.945 60.9953 111.124 60.8363 112.307 60.851C112.929 60.8465 113.551 60.8836 114.169 60.9622C114.808 61.0457 115.391 61.157 115.974 61.2681C116.53 61.4072 117.058 61.5461 117.558 61.7132C117.963 61.8387 118.354 62.0065 118.725 62.2137C119.052 62.3789 119.337 62.6167 119.558 62.909C119.739 63.1796 119.827 63.5018 119.808 63.8267V65.1337C119.808 65.7177 119.586 66.0238 119.169 66.0238C118.947 66.0238 118.586 65.9126 118.113 65.69C116.53 64.967 114.752 64.6054 112.779 64.6054C111.196 64.6054 109.946 64.8556 109.084 65.3843C108.223 65.913 107.779 66.7196 107.779 67.8593C107.771 68.2286 107.841 68.5953 107.985 68.9356C108.129 69.2758 108.342 69.5819 108.612 69.8338C109.168 70.3622 110.196 70.8906 111.668 71.3633L115.613 72.614C117.614 73.2536 119.058 74.1435 119.919 75.2836C120.767 76.4022 121.217 77.7727 121.197 79.1768C121.212 80.2938 120.964 81.3986 120.475 82.4026C119.982 83.3544 119.29 84.189 118.447 84.8498C117.53 85.5644 116.482 86.0935 115.363 86.4076C114.076 86.8037 112.737 87.0007 111.39 86.9916L111.39 86.9911Z" fill="#252F3E"/>
<path d="M116.641 100.506C107.501 107.263 94.2214 110.851 82.8031 110.851C66.8007 110.851 52.3819 104.928 41.4918 95.0837C40.6305 94.3048 41.4084 93.2484 42.4363 93.8597C54.2158 100.701 68.7457 104.844 83.7756 104.844C93.916 104.844 105.056 102.73 115.308 98.3922C116.836 97.6969 118.142 99.3936 116.642 100.506L116.641 100.506Z" fill="#FF9900"/>
<path d="M120.447 96.1681C119.28 94.6664 112.724 95.4451 109.751 95.8066C108.862 95.9179 108.723 95.1389 109.529 94.5552C114.752 90.8845 123.336 91.9412 124.337 93.1648C125.337 94.4162 124.059 103.009 119.169 107.125C118.419 107.764 117.697 107.431 118.03 106.596C119.142 103.843 121.614 97.6419 120.447 96.1681Z" fill="#FF9900"/>
</g>
<path d="M70.951 159.702L73.1331 148.15H76.0425L78.1961 159.702H75.8429L75.4578 157.263H73.7606L73.3613 159.702H70.951ZM73.9888 155.737H75.2153L74.6021 151.23L73.9888 155.737ZM80.4667 159.702L79.069 148.15H81.2368L81.9214 154.881L82.7914 148.164H84.4886L85.4014 154.839L86.1002 148.15H88.2395L86.8561 159.702H84.6312L83.6471 152.728L82.7201 159.702H80.4667ZM92.9226 159.873C92.2 159.873 91.5962 159.745 91.1113 159.488C90.6264 159.231 90.2603 158.837 90.0131 158.304C89.7659 157.762 89.6281 157.064 89.5995 156.208L91.7816 155.88C91.7911 156.374 91.8339 156.774 91.91 157.078C91.9956 157.382 92.1097 157.601 92.2523 157.734C92.4044 157.867 92.5851 157.934 92.7942 157.934C93.0605 157.934 93.2316 157.843 93.3077 157.663C93.3932 157.482 93.436 157.292 93.436 157.092C93.436 156.617 93.3219 156.217 93.0937 155.894C92.8656 155.561 92.5565 155.228 92.1667 154.896L91.1684 154.026C90.731 153.655 90.3602 153.237 90.0559 152.771C89.7612 152.295 89.6138 151.711 89.6138 151.016C89.6138 150.037 89.9038 149.291 90.4838 148.777C91.0638 148.254 91.8529 147.993 92.8513 147.993C93.4693 147.993 93.9637 148.097 94.3345 148.307C94.7149 148.516 95.0001 148.792 95.1903 149.134C95.3899 149.467 95.5231 149.823 95.5896 150.203C95.6657 150.574 95.7085 150.931 95.718 151.273L93.5216 151.544C93.5121 151.202 93.4883 150.907 93.4503 150.66C93.4218 150.403 93.3552 150.208 93.2506 150.075C93.146 149.933 92.9844 149.861 92.7657 149.861C92.528 149.861 92.3521 149.961 92.238 150.161C92.1334 150.36 92.0811 150.56 92.0811 150.76C92.0811 151.188 92.181 151.539 92.3806 151.815C92.5898 152.081 92.8608 152.362 93.1936 152.657L94.1491 153.498C94.6531 153.926 95.0762 154.411 95.4185 154.953C95.7703 155.495 95.9462 156.165 95.9462 156.964C95.9462 157.506 95.8226 158 95.5753 158.447C95.3281 158.884 94.9763 159.231 94.52 159.488C94.0731 159.745 93.5406 159.873 92.9226 159.873Z" fill="white"/>
<defs>
<filter id="filter0_d_8_1366" x="0.926331" y="0.830945" width="163.102" height="163.102" filterUnits="userSpaceOnUse" color-interpolation-filters="sRGB">
<feFlood flood-opacity="0" result="BackgroundImageFix"/>
<feColorMatrix in="SourceAlpha" type="matrix" values="0 0 0 0 0 0 0 0 0 0 0 0 0 0 0 0 0 0 127 0" result="hardAlpha"/>
<feOffset dy="2.80681"/>
<feGaussianBlur stdDeviation="14.034"/>
<feComposite in2="hardAlpha" operator="out"/>
<feColorMatrix type="matrix" values="0 0 0 0 0.0367917 0 0 0 0 0.0348958 0 0 0 0 0.0484375 0 0 0 0.1 0"/>
<feBlend mode="normal" in2="BackgroundImageFix" result="effect1_dropShadow_8_1366"/>
<feBlend mode="normal" in="SourceGraphic" in2="effect1_dropShadow_8_1366" result="shape"/>
</filter>
<clipPath id="clip0_8_1366">
<rect width="83.5319" height="50" fill="white" transform="translate(41.1213 60.851)"/>
</clipPath>
</defs>
</svg>
