<svg width="165" height="164" viewBox="0 0 165 164" fill="none" xmlns="http://www.w3.org/2000/svg">
<g filter="url(#filter0_d_30_386)">
<rect x="28.9961" y="25.4482" width="106.966" height="106.966" rx="19.0161" fill="url(#paint0_linear_30_386)"/>
<rect x="29.2932" y="25.7454" width="106.371" height="106.371" rx="18.719" stroke="#D9D9D9" stroke-opacity="0.33" stroke-width="0.594253"/>
</g>
<g clip-path="url(#clip0_30_386)">
<path d="M64.6634 78.3661C64.6419 79.2017 64.7449 80.0359 64.969 80.8411C65.2158 81.5297 65.5131 82.1991 65.8583 82.844C65.9819 83.0347 66.0493 83.2563 66.0528 83.4836C66.0528 83.7616 65.8861 84.04 65.5249 84.3178L63.7747 85.4859C63.5636 85.6381 63.3125 85.7251 63.0525 85.7361C62.7361 85.7143 62.439 85.5756 62.2191 85.3468C61.8446 84.9442 61.5096 84.5065 61.2186 84.0398C60.9408 83.5671 60.6628 83.0384 60.3574 82.399C58.1904 84.957 55.4678 86.236 52.1894 86.236C49.8549 86.236 47.9943 85.5684 46.6331 84.2331C45.2718 82.8979 44.5771 81.1191 44.5771 78.8945C44.5771 76.5307 45.4106 74.6119 47.1053 73.1659C48.8001 71.7198 51.0502 70.9967 53.9118 70.9967C54.8973 71.0048 55.8811 71.0791 56.8567 71.2192C57.8846 71.3583 58.9404 71.5807 60.0515 71.8311V69.801C60.0515 67.6868 59.6069 66.2138 58.7458 65.3516C57.8565 64.4895 56.3566 64.0724 54.2173 64.0724C53.2063 64.0724 52.199 64.1937 51.2168 64.4339C50.1955 64.6774 49.1928 64.9934 48.2163 65.3794C47.9004 65.5209 47.5756 65.6416 47.244 65.7409C47.1001 65.7883 46.9506 65.8164 46.7993 65.8243C46.4104 65.8243 46.2159 65.5463 46.2159 64.9623V63.5997C46.2159 63.1546 46.2715 62.8208 46.4104 62.6264C46.62 62.3729 46.8867 62.1727 47.1886 62.0423C48.3029 61.4905 49.4776 61.0705 50.6891 60.791C52.1048 60.4274 53.5617 60.2498 55.0231 60.2626C58.3298 60.2626 60.7462 61.0134 62.302 62.5151C63.83 64.0168 64.6078 66.2971 64.6078 69.3561V78.3661H64.6634ZM53.3841 82.593C54.3587 82.5822 55.3251 82.4132 56.2456 82.0924C57.2653 81.7393 58.1751 81.1256 58.8848 80.3121C59.3326 79.7995 59.6559 79.1901 59.8294 78.5317C60.0202 77.7396 60.1135 76.9271 60.1071 76.1123V74.9456C59.2648 74.7403 58.4116 74.5825 57.5516 74.4728C56.6853 74.363 55.813 74.3075 54.9397 74.3067C53.0784 74.3067 51.7171 74.6682 50.8003 75.4194C49.8835 76.1707 49.439 77.227 49.439 78.6174C49.439 79.9244 49.7725 80.8977 50.4669 81.5651C51.1339 82.2604 52.1061 82.5941 53.3841 82.5941V82.593ZM75.6928 85.5964C75.1927 85.5964 74.8594 85.5129 74.6371 85.3183C74.4147 85.1514 74.2204 84.762 74.0536 84.2338L67.5246 62.7376C67.3981 62.3778 67.3142 62.0043 67.2747 61.6249C67.2747 61.1798 67.497 60.9296 67.9417 60.9296H70.6642C71.1921 60.9296 71.5535 61.0131 71.7478 61.2076C71.9701 61.3746 72.1367 61.764 72.3036 62.2922L76.9709 80.7015L81.3047 62.2927C81.4437 61.7363 81.6103 61.375 81.8326 61.2081C82.0549 61.0412 82.4438 60.9301 82.9442 60.9301H85.1675C85.6954 60.9301 86.0568 61.0136 86.2792 61.2081C86.5015 61.375 86.6959 61.7645 86.807 62.2927L91.1966 80.9245L96.0013 62.2927C96.168 61.7363 96.3624 61.375 96.5571 61.2081C96.7794 61.0412 97.1405 60.9301 97.6406 60.9301H100.224C100.669 60.9301 100.919 61.1526 100.919 61.6254C100.913 61.775 100.894 61.9239 100.863 62.0705C100.82 62.3077 100.755 62.5404 100.669 62.7658L93.9735 84.2619C93.8068 84.818 93.6123 85.1796 93.39 85.3465C93.0759 85.5477 92.7066 85.645 92.3343 85.6245H89.9449C89.417 85.6245 89.0556 85.541 88.8332 85.3465C88.6109 85.1519 88.4165 84.7901 88.3054 84.2338L83.9995 66.2971L79.7209 84.2059C79.582 84.7623 79.4154 85.1236 79.1931 85.3187C78.9707 85.5137 78.5818 85.5967 78.0814 85.5967L75.6928 85.5964ZM111.392 86.3471C109.952 86.3487 108.516 86.1807 107.114 85.8466C105.725 85.5127 104.641 85.1513 103.919 84.7338C103.475 84.4836 103.169 84.2055 103.058 83.9549C102.95 83.7094 102.893 83.4444 102.891 83.176V81.7588C102.891 81.1747 103.114 80.8967 103.53 80.8967C103.7 80.8973 103.869 80.9255 104.03 80.9802C104.197 81.0358 104.447 81.1471 104.725 81.2582C105.706 81.6902 106.731 82.0165 107.781 82.2315C108.869 82.4526 109.977 82.5644 111.087 82.5653C112.837 82.5653 114.199 82.2595 115.143 81.6476C115.596 81.3743 115.968 80.9859 116.222 80.5219C116.476 80.0578 116.602 79.5348 116.588 79.0059C116.598 78.6479 116.537 78.2915 116.408 77.9574C116.279 77.6232 116.086 77.318 115.838 77.0593C115.338 76.5309 114.393 76.0578 113.032 75.6127L109.003 74.3616C106.975 73.7221 105.475 72.7766 104.558 71.5249C103.664 70.3708 103.175 68.9532 103.169 67.4926C103.147 66.4159 103.405 65.3519 103.919 64.4058C104.415 63.5111 105.098 62.7335 105.92 62.1255C106.786 61.4693 107.766 60.9789 108.809 60.6789C109.947 60.3513 111.126 60.1923 112.309 60.207C112.931 60.2025 113.553 60.2396 114.171 60.3183C114.81 60.4017 115.393 60.513 115.976 60.6241C116.532 60.7632 117.06 60.9021 117.56 61.0692C117.965 61.1947 118.356 61.3625 118.727 61.5698C119.054 61.7349 119.339 61.9727 119.56 62.265C119.741 62.5357 119.829 62.8578 119.81 63.1827V64.4897C119.81 65.0737 119.588 65.3799 119.171 65.3799C118.949 65.3799 118.588 65.2686 118.115 65.046C116.532 64.323 114.754 63.9615 112.781 63.9615C111.198 63.9615 109.948 64.2117 109.086 64.7404C108.225 65.2691 107.781 66.0756 107.781 67.2154C107.773 67.5846 107.843 67.9514 107.987 68.2916C108.131 68.6318 108.344 68.9379 108.614 69.1898C109.17 69.7182 110.198 70.2466 111.67 70.7193L115.615 71.97C117.616 72.6097 119.06 73.4995 119.921 74.6396C120.769 75.7583 121.219 77.1287 121.199 78.5328C121.214 79.6498 120.966 80.7546 120.477 81.7586C119.984 82.7104 119.292 83.545 118.449 84.2058C117.532 84.9205 116.484 85.4496 115.365 85.7636C114.078 86.1598 112.739 86.3567 111.392 86.3476L111.392 86.3471Z" fill="#DCDCDC"/>
<path d="M116.643 99.8618C107.502 106.619 94.2228 110.207 82.8044 110.207C66.802 110.207 52.3832 104.284 41.4931 94.4397C40.6319 93.6608 41.4097 92.6044 42.4377 93.2157C54.2171 100.057 68.7471 104.2 83.777 104.2C93.9174 104.2 105.058 102.086 115.309 97.7482C116.837 97.0529 118.143 98.7496 116.643 99.8623L116.643 99.8618Z" fill="#FF9900"/>
<path d="M120.449 95.524C119.282 94.0223 112.726 94.801 109.753 95.1625C108.864 95.2738 108.725 94.4949 109.531 93.9112C114.754 90.2405 123.338 91.2971 124.338 92.5208C125.339 93.7721 124.061 102.365 119.171 106.481C118.421 107.12 117.699 106.787 118.032 105.952C119.143 103.199 121.616 96.9979 120.449 95.524Z" fill="#FF9900"/>
</g>
<defs>
<filter id="filter0_d_30_386" x="0.92804" y="0.186993" width="163.102" height="163.102" filterUnits="userSpaceOnUse" color-interpolation-filters="sRGB">
<feFlood flood-opacity="0" result="BackgroundImageFix"/>
<feColorMatrix in="SourceAlpha" type="matrix" values="0 0 0 0 0 0 0 0 0 0 0 0 0 0 0 0 0 0 127 0" result="hardAlpha"/>
<feOffset dy="2.80681"/>
<feGaussianBlur stdDeviation="14.034"/>
<feComposite in2="hardAlpha" operator="out"/>
<feColorMatrix type="matrix" values="0 0 0 0 0.0367917 0 0 0 0 0.0348958 0 0 0 0 0.0484375 0 0 0 0.1 0"/>
<feBlend mode="normal" in2="BackgroundImageFix" result="effect1_dropShadow_30_386"/>
<feBlend mode="normal" in="SourceGraphic" in2="effect1_dropShadow_30_386" result="shape"/>
</filter>
<linearGradient id="paint0_linear_30_386" x1="82.4789" y1="25.4482" x2="82.4789" y2="132.414" gradientUnits="userSpaceOnUse">
<stop stop-color="#1A1B24"/>
<stop offset="1" stop-color="#0E0E1A"/>
</linearGradient>
<clipPath id="clip0_30_386">
<rect width="83.5319" height="50" fill="white" transform="translate(41.123 60.207)"/>
</clipPath>
</defs>
</svg>
