<svg width="164" height="164" viewBox="0 0 164 164" fill="none" xmlns="http://www.w3.org/2000/svg">
<g filter="url(#filter0_d_8_1370)">
<rect x="28.1228" y="25.851" width="106.966" height="106.966" rx="19.0161" fill="white"/>
<rect x="28.4199" y="26.1482" width="106.371" height="106.371" rx="18.719" stroke="#D9D9D9" stroke-width="0.594253"/>
</g>
<g clip-path="url(#clip0_8_1370)">
<path d="M74.6136 61.4921H86.1726L74.1733 97.0448C74.0499 97.41 73.8151 97.7276 73.5019 97.9524C73.1887 98.1774 72.8129 98.2983 72.4273 98.2985H63.4316C63.1394 98.2985 62.8515 98.2289 62.5916 98.0955C62.3316 97.9621 62.1071 97.769 61.9368 97.5317C61.7663 97.2944 61.6549 97.02 61.6116 96.7309C61.5683 96.442 61.5945 96.1469 61.6878 95.8702L72.8672 62.7457C72.9905 62.3803 73.2253 62.0627 73.5386 61.8377C73.8519 61.6127 74.2279 61.4917 74.6136 61.4916V61.4921Z" fill="url(#paint0_linear_8_1370)"/>
<path d="M91.4104 85.3383H73.0807C72.9103 85.3381 72.7438 85.3893 72.6029 85.4852C72.4619 85.5809 72.3531 85.717 72.2906 85.8754C72.2281 86.034 72.2148 86.2077 72.2523 86.3739C72.2899 86.5401 72.3767 86.6912 72.5014 86.8073L84.2797 97.8008C84.6225 98.1205 85.0741 98.2985 85.543 98.2985H95.9221L91.4104 85.3383Z" fill="#0078D4"/>
<path d="M74.6137 61.4921C74.2237 61.4906 73.8436 61.6138 73.5286 61.8437C73.2137 62.0737 72.9806 62.3983 72.8633 62.7701L61.7016 95.8399C61.602 96.1178 61.5707 96.4155 61.6104 96.708C61.6502 97.0004 61.7597 97.2791 61.9299 97.5201C62.1001 97.7614 62.3259 97.958 62.5881 98.0934C62.8503 98.2289 63.1413 98.2992 63.4365 98.2985H72.6644C73.0081 98.2369 73.3293 98.0854 73.5953 97.8592C73.8612 97.633 74.0624 97.3405 74.1782 97.011L76.404 90.4512L84.3548 97.8668C84.688 98.1424 85.106 98.295 85.5382 98.2985H95.8786L91.3435 85.3385L78.1229 85.3416L86.2144 61.4921H74.6137Z" fill="url(#paint1_linear_8_1370)"/>
<path d="M89.3773 62.7439C89.2542 62.379 89.0199 62.062 88.707 61.8374C88.3941 61.6128 88.0187 61.492 87.6335 61.4921H74.7513C75.1364 61.4921 75.5118 61.6129 75.8245 61.8375C76.1374 62.062 76.372 62.3791 76.4951 62.7439L87.6749 95.8698C87.7683 96.1465 87.7945 96.4416 87.7513 96.7307C87.7081 97.0198 87.5966 97.2942 87.4263 97.5317C87.2558 97.769 87.0314 97.9623 86.7714 98.0957C86.5115 98.2291 86.2234 98.2989 85.9312 98.2989H98.8138C99.106 98.2987 99.3941 98.2291 99.6538 98.0957C99.9138 97.9621 100.138 97.7688 100.309 97.5315C100.479 97.294 100.59 97.0196 100.634 96.7305C100.677 96.4416 100.651 96.1465 100.557 95.8698L89.3773 62.7439Z" fill="url(#paint2_linear_8_1370)"/>
</g>
<path d="M62.069 159.702L64.2511 148.149H67.1605L69.3141 159.702H66.9609L66.5758 157.263H64.8786L64.4792 159.702H62.069ZM65.1068 155.737H66.3333L65.72 151.23L65.1068 155.737ZM70.4662 159.702V158.161L73.2901 149.875H70.5946V148.149H75.8002V149.59L72.9335 157.976H75.8287V159.702H70.4662ZM80.8435 159.873C79.9593 159.873 79.2652 159.73 78.7613 159.445C78.2669 159.15 77.9198 158.727 77.7201 158.176C77.5205 157.615 77.4206 156.93 77.4206 156.122V148.149H79.945V156.507C79.945 156.745 79.964 156.982 80.0021 157.22C80.0401 157.458 80.1209 157.653 80.2445 157.805C80.3776 157.957 80.5773 158.033 80.8435 158.033C81.1193 158.033 81.3189 157.957 81.4425 157.805C81.5661 157.653 81.6422 157.458 81.6707 157.22C81.7088 156.982 81.7278 156.745 81.7278 156.507V148.149H84.2664V156.122C84.2664 156.93 84.1618 157.615 83.9527 158.176C83.753 158.727 83.406 159.15 82.9115 159.445C82.4171 159.73 81.7278 159.873 80.8435 159.873ZM86.3186 159.702V148.149H89.4991C90.2787 148.149 90.9538 148.235 91.5243 148.406C92.0948 148.577 92.5369 148.886 92.8506 149.333C93.1739 149.771 93.3356 150.393 93.3356 151.202C93.3356 151.677 93.2975 152.1 93.2215 152.471C93.1454 152.842 93.0028 153.165 92.7936 153.441C92.5939 153.707 92.3039 153.93 91.9236 154.111L93.5067 159.702H90.8682L89.5989 154.525H88.8715V159.702H86.3186ZM88.8715 153.056H89.5846C89.9459 153.056 90.2264 152.994 90.4261 152.87C90.6258 152.737 90.7636 152.552 90.8397 152.314C90.9253 152.067 90.9681 151.772 90.9681 151.43C90.9681 150.935 90.8777 150.55 90.6971 150.274C90.5164 149.999 90.1836 149.861 89.6987 149.861H88.8715V153.056ZM95.2982 159.702V148.149H100.49V149.889H97.8511V152.756H99.862V154.525H97.8511V157.976H100.518V159.702H95.2982Z" fill="white"/>
<defs>
<filter id="filter0_d_8_1370" x="0.054718" y="0.589795" width="163.102" height="163.102" filterUnits="userSpaceOnUse" color-interpolation-filters="sRGB">
<feFlood flood-opacity="0" result="BackgroundImageFix"/>
<feColorMatrix in="SourceAlpha" type="matrix" values="0 0 0 0 0 0 0 0 0 0 0 0 0 0 0 0 0 0 127 0" result="hardAlpha"/>
<feOffset dy="2.80681"/>
<feGaussianBlur stdDeviation="14.034"/>
<feComposite in2="hardAlpha" operator="out"/>
<feColorMatrix type="matrix" values="0 0 0 0 0.0367917 0 0 0 0 0.0348958 0 0 0 0 0.0484375 0 0 0 0.1 0"/>
<feBlend mode="normal" in2="BackgroundImageFix" result="effect1_dropShadow_8_1370"/>
<feBlend mode="normal" in="SourceGraphic" in2="effect1_dropShadow_8_1370" result="shape"/>
</filter>
<linearGradient id="paint0_linear_8_1370" x1="78.8265" y1="64.2196" x2="66.8224" y2="99.683" gradientUnits="userSpaceOnUse">
<stop stop-color="#114A8B"/>
<stop offset="1" stop-color="#0669BC"/>
</linearGradient>
<linearGradient id="paint1_linear_8_1370" x1="82.5765" y1="80.7465" x2="79.7997" y2="81.6854" gradientUnits="userSpaceOnUse">
<stop stop-opacity="0.3"/>
<stop offset="0.071" stop-opacity="0.2"/>
<stop offset="0.321" stop-opacity="0.1"/>
<stop offset="0.623" stop-opacity="0.05"/>
<stop offset="1" stop-opacity="0"/>
</linearGradient>
<linearGradient id="paint2_linear_8_1370" x1="81.0493" y1="63.1852" x2="94.2263" y2="98.2912" gradientUnits="userSpaceOnUse">
<stop stop-color="#3CCBF4"/>
<stop offset="1" stop-color="#2892DF"/>
</linearGradient>
<clipPath id="clip0_8_1370">
<rect width="50" height="50" fill="white" transform="translate(56.1226 54.851)"/>
</clipPath>
</defs>
</svg>
