<svg width="164" height="165" viewBox="0 0 164 165" fill="none" xmlns="http://www.w3.org/2000/svg">
<g filter="url(#filter0_d_8_1381)">
<rect x="28.7993" y="26.2412" width="106.966" height="106.966" rx="19.0161" fill="white"/>
<rect x="29.0964" y="26.5383" width="106.371" height="106.371" rx="18.719" stroke="#D9D9D9" stroke-width="0.594253"/>
</g>
<g clip-path="url(#clip0_8_1381)">
<path d="M95.2468 54H68.6843C62.2122 54 56.9656 59.2467 56.9656 65.7188V92.2812C56.9656 98.7533 62.2122 104 68.6843 104H95.2468C101.719 104 106.966 98.7533 106.966 92.2812V65.7188C106.966 59.2467 101.719 54 95.2468 54Z" fill="#0277BD"/>
<path d="M67.4642 74.049L68.0234 80.2877H81.9844V74.049H67.4642Z" fill="#EBEBEB"/>
<path d="M81.9841 61.4219H81.9626H66.3406L66.9077 67.6606H81.9841V61.4219Z" fill="#EBEBEB"/>
<path d="M81.9841 96.7424V90.2515L81.9568 90.2588L75.0088 88.3828L74.5646 83.407H71.1884H68.302L69.176 93.2027L81.9554 96.7504L81.9841 96.7424Z" fill="#EBEBEB"/>
<path d="M89.6449 80.2877L88.9207 88.3787L81.9626 90.2568V96.7473L94.7523 93.2027L94.846 92.1486L96.3121 75.7244L96.4642 74.049L97.5906 61.4219H81.9626V67.6606H90.7535L90.1859 74.049H81.9626V80.2877H89.6449Z" fill="white"/>
</g>
<path d="M74.6423 160.022C73.7676 160.022 73.0735 159.865 72.56 159.551C72.0561 159.228 71.6996 158.781 71.4904 158.211C71.2812 157.631 71.1766 156.951 71.1766 156.171V152.007C71.1766 151.208 71.2812 150.523 71.4904 149.953C71.6996 149.373 72.0561 148.926 72.56 148.612C73.0735 148.298 73.7676 148.142 74.6423 148.142C75.498 148.142 76.1636 148.284 76.639 148.569C77.1239 148.845 77.4662 149.235 77.6659 149.739C77.8655 150.243 77.9654 150.823 77.9654 151.479V152.477H75.4695V151.322C75.4695 151.094 75.4553 150.875 75.4267 150.666C75.4077 150.457 75.3412 150.286 75.2271 150.152C75.113 150.01 74.918 149.939 74.6423 149.939C74.3761 149.939 74.1764 150.01 74.0433 150.152C73.9197 150.295 73.8389 150.476 73.8008 150.694C73.7723 150.904 73.7581 151.127 73.7581 151.365V156.799C73.7581 157.055 73.7771 157.293 73.8151 157.512C73.8627 157.721 73.9482 157.892 74.0718 158.025C74.2049 158.149 74.3951 158.211 74.6423 158.211C74.9085 158.211 75.0987 158.144 75.2128 158.011C75.3269 157.868 75.3982 157.688 75.4267 157.469C75.4553 157.25 75.4695 157.027 75.4695 156.799V155.586H77.9654V156.585C77.9654 157.241 77.8655 157.83 77.6659 158.353C77.4757 158.867 77.1382 159.275 76.6533 159.58C76.1779 159.874 75.5075 160.022 74.6423 160.022ZM82.8641 160.022C82.1415 160.022 81.5377 159.893 81.0528 159.637C80.5679 159.38 80.2018 158.985 79.9546 158.453C79.7074 157.911 79.5695 157.212 79.541 156.356L81.7231 156.028C81.7326 156.523 81.7754 156.922 81.8515 157.226C81.937 157.531 82.0511 157.749 82.1937 157.883C82.3459 158.016 82.5265 158.082 82.7357 158.082C83.0019 158.082 83.1731 157.992 83.2491 157.811C83.3347 157.631 83.3775 157.44 83.3775 157.241C83.3775 156.765 83.2634 156.366 83.0352 156.043C82.807 155.71 82.498 155.377 82.1082 155.044L81.1098 154.174C80.6725 153.804 80.3016 153.385 79.9974 152.919C79.7026 152.444 79.5553 151.859 79.5553 151.165C79.5553 150.186 79.8453 149.439 80.4253 148.926C81.0052 148.403 81.7944 148.142 82.7928 148.142C83.4108 148.142 83.9052 148.246 84.276 148.455C84.6563 148.664 84.9416 148.94 85.1317 149.283C85.3314 149.615 85.4645 149.972 85.5311 150.352C85.6071 150.723 85.6499 151.08 85.6594 151.422L83.4631 151.693C83.4536 151.351 83.4298 151.056 83.3918 150.809C83.3632 150.552 83.2967 150.357 83.1921 150.224C83.0875 150.081 82.9259 150.01 82.7072 150.01C82.4695 150.01 82.2936 150.11 82.1795 150.309C82.0749 150.509 82.0226 150.709 82.0226 150.908C82.0226 151.336 82.1224 151.688 82.3221 151.964C82.5313 152.23 82.8023 152.51 83.135 152.805L84.0906 153.647C84.5945 154.075 85.0176 154.559 85.3599 155.101C85.7117 155.643 85.8876 156.314 85.8876 157.112C85.8876 157.654 85.764 158.149 85.5168 158.596C85.2696 159.033 84.9178 159.38 84.4614 159.637C84.0145 159.893 83.4821 160.022 82.8641 160.022ZM90.3951 160.022C89.6725 160.022 89.0687 159.893 88.5838 159.637C88.0989 159.38 87.7329 158.985 87.4856 158.453C87.2384 157.911 87.1006 157.212 87.072 156.356L89.2541 156.028C89.2637 156.523 89.3064 156.922 89.3825 157.226C89.4681 157.531 89.5822 157.749 89.7248 157.883C89.8769 158.016 90.0576 158.082 90.2668 158.082C90.533 158.082 90.7041 157.992 90.7802 157.811C90.8658 157.631 90.9085 157.44 90.9085 157.241C90.9085 156.765 90.7945 156.366 90.5663 156.043C90.3381 155.71 90.0291 155.377 89.6392 155.044L88.6409 154.174C88.2035 153.804 87.8327 153.385 87.5284 152.919C87.2337 152.444 87.0863 151.859 87.0863 151.165C87.0863 150.186 87.3763 149.439 87.9563 148.926C88.5363 148.403 89.3255 148.142 90.3238 148.142C90.9418 148.142 91.4362 148.246 91.8071 148.455C92.1874 148.664 92.4726 148.94 92.6628 149.283C92.8625 149.615 92.9956 149.972 93.0621 150.352C93.1382 150.723 93.181 151.08 93.1905 151.422L90.9941 151.693C90.9846 151.351 90.9608 151.056 90.9228 150.809C90.8943 150.552 90.8277 150.357 90.7231 150.224C90.6186 150.081 90.4569 150.01 90.2382 150.01C90.0005 150.01 89.8246 150.11 89.7105 150.309C89.6059 150.509 89.5537 150.709 89.5537 150.908C89.5537 151.336 89.6535 151.688 89.8532 151.964C90.0623 152.23 90.3333 152.51 90.6661 152.805L91.6217 153.647C92.1256 154.075 92.5487 154.559 92.891 155.101C93.2428 155.643 93.4187 156.314 93.4187 157.112C93.4187 157.654 93.2951 158.149 93.0479 158.596C92.8007 159.033 92.4489 159.38 91.9925 159.637C91.5456 159.893 91.0131 160.022 90.3951 160.022Z" fill="white"/>
<defs>
<filter id="filter0_d_8_1381" x="0.731262" y="0.979932" width="163.102" height="163.102" filterUnits="userSpaceOnUse" color-interpolation-filters="sRGB">
<feFlood flood-opacity="0" result="BackgroundImageFix"/>
<feColorMatrix in="SourceAlpha" type="matrix" values="0 0 0 0 0 0 0 0 0 0 0 0 0 0 0 0 0 0 127 0" result="hardAlpha"/>
<feOffset dy="2.80681"/>
<feGaussianBlur stdDeviation="14.034"/>
<feComposite in2="hardAlpha" operator="out"/>
<feColorMatrix type="matrix" values="0 0 0 0 0.0367917 0 0 0 0 0.0348958 0 0 0 0 0.0484375 0 0 0 0.1 0"/>
<feBlend mode="normal" in2="BackgroundImageFix" result="effect1_dropShadow_8_1381"/>
<feBlend mode="normal" in="SourceGraphic" in2="effect1_dropShadow_8_1381" result="shape"/>
</filter>
<clipPath id="clip0_8_1381">
<rect width="50" height="50" fill="white" transform="translate(56.9656 54)"/>
</clipPath>
</defs>
</svg>
