<svg width="164" height="164" viewBox="0 0 164 164" fill="none" xmlns="http://www.w3.org/2000/svg">
<g filter="url(#filter0_d_30_379)">
<rect x="28.834" y="25.4482" width="106.966" height="106.966" rx="19.0161" fill="url(#paint0_linear_30_379)"/>
<rect x="29.1311" y="25.7454" width="106.371" height="106.371" rx="18.719" stroke="#D9D9D9" stroke-opacity="0.33" stroke-width="0.594253"/>
</g>
<g clip-path="url(#clip0_30_379)">
<path d="M95.2812 53.207H68.7188C62.2467 53.207 57 58.4537 57 64.9258V91.4883C57 97.9604 62.2467 103.207 68.7188 103.207H95.2812C101.753 103.207 107 97.9604 107 91.4883V64.9258C107 58.4537 101.753 53.207 95.2812 53.207Z" fill="#242938"/>
<path d="M80.0531 58.4133C79.9598 58.4227 79.6625 58.4574 79.3937 58.482C75.5746 58.8816 71.8133 60.4992 68.7461 63.0672C68.1801 63.5371 66.8906 64.8266 66.4207 65.3926C63.8816 68.4262 62.3973 71.8301 61.8492 75.8586C61.7273 76.7531 61.7273 79.7711 61.8492 80.6652C62.3969 84.6934 63.8816 88.0977 66.4207 91.1313C66.8906 91.6977 68.1801 92.9867 68.7461 93.4566C71.7797 95.9957 75.1836 97.4801 79.2121 98.0281C80.1066 98.1504 83.1246 98.1504 84.0187 98.0281C88.0469 97.4805 91.4512 95.9957 94.4848 93.4566C95.0512 92.9867 96.3402 91.6973 96.8102 91.1313C99.3492 88.0977 100.834 84.6938 101.38 80.6652C101.504 79.7707 101.504 76.7527 101.38 75.8586C100.834 71.8305 99.3492 68.4262 96.8102 65.3926C96.3402 64.8266 95.0508 63.5371 94.4848 63.0672C91.4621 60.5375 88.0227 59.0344 84.0477 58.502C83.6176 58.4422 82.9934 58.418 81.8352 58.4086C80.9516 58.3981 80.1445 58.4043 80.0531 58.4133ZM80.2973 60.5234C80.2973 61.0941 80.3352 62.3348 80.3902 63.5129C80.4191 64.0879 80.4527 64.9137 80.4684 65.3438C80.5215 66.8684 80.6832 70.8672 80.7074 71.2246L80.732 71.5801L80.5121 71.5559C80.3902 71.5465 80.2773 71.5176 80.2574 71.5023C80.2438 71.4828 80.2086 71.1453 80.1887 70.75C80.102 69.0117 79.8137 62.266 79.7844 61.2805L79.7539 60.1957L79.8914 60.1773C79.9645 60.1664 80.0867 60.1527 80.1645 60.1469L80.2973 60.1422V60.5234ZM84.9707 60.4063C84.9754 60.4106 84.9906 61.8863 85.0043 63.6836C85.0242 65.4859 85.0488 67.1016 85.0641 67.2773C85.0777 67.4586 85.073 67.6145 85.0484 67.625C85.0289 67.6387 84.9066 67.6387 84.7848 67.625L84.5605 67.6055L84.527 66.1832C84.5111 65.5372 84.4928 64.8912 84.4723 64.2453C84.4336 63.3801 84.3988 60.4457 84.4293 60.3727C84.4477 60.318 84.5023 60.3129 84.7066 60.3481C84.8488 60.377 84.9664 60.4016 84.9707 60.4063ZM73.6734 62.0418C73.7039 62.0859 73.9328 64.7777 74.2164 68.298C74.3098 69.4957 74.4012 70.5898 74.4164 70.7258C74.4406 70.9742 74.4359 70.9852 74.2789 71.0828C74.1922 71.1359 74.1035 71.1805 74.0836 71.1805C74.0699 71.1805 74.041 71.0535 74.0258 70.8965C73.957 70.2617 73.693 67.1949 73.5086 64.9777C73.4 63.673 73.3023 62.5059 73.2887 62.3789C73.2645 62.1641 73.2691 62.1441 73.3957 62.077C73.5512 61.993 73.6398 61.9793 73.673 62.0418H73.6734ZM87.1191 63.0246C87.2566 63.0734 87.2703 63.0977 87.3008 63.3754C87.3496 63.8637 87.3344 66.1984 87.2812 66.1984C87.1391 66.1984 86.8461 66.032 86.8219 65.9391C86.8063 65.8809 86.793 65.1883 86.793 64.4008C86.793 62.8141 86.773 62.907 87.1191 63.0246ZM78.0984 63.2535C78.0984 63.3848 78.1336 64.1125 78.1715 64.8801C78.2113 65.6457 78.2555 66.618 78.2754 67.0391C78.309 67.8891 78.3184 67.8586 77.9914 67.8785C77.8297 67.8828 77.8297 67.8828 77.8207 67.6387C77.8113 67.5031 77.7871 67.0773 77.7566 66.6867C77.732 66.2961 77.6742 65.4508 77.6344 64.8066C77.6078 64.3322 77.5738 63.8582 77.5324 63.3848C77.5031 63.1406 77.5078 63.1313 77.6391 63.0824C77.7184 63.0535 77.8539 63.0293 77.9426 63.0293C78.0984 63.0246 78.0984 63.0246 78.0984 63.2535ZM91.6465 63.9234L91.8129 63.9902L91.848 64.6449C91.8617 65.002 91.8723 65.7738 91.8617 66.3559L91.848 67.4191L91.6422 67.3168L91.4375 67.2191L91.4223 65.5973C91.4133 64.7047 91.4176 63.9477 91.427 63.9125C91.4465 63.8395 91.4465 63.8395 91.6465 63.9234ZM82.7293 64.5625C82.7582 64.5918 82.827 66.9598 82.8316 68.1621L82.8363 68.8856L82.6074 68.8504C82.4746 68.8348 82.3676 68.8215 82.3633 68.8168C82.3477 68.8063 82.2016 65.1879 82.2016 64.8359V64.4742L82.45 64.5031C82.5922 64.5227 82.7141 64.5473 82.7293 64.5625ZM93.9766 64.909C94.0363 64.9777 94.0453 66.0473 94.0605 71.9465C94.0742 78.7211 94.0742 78.8969 93.9871 78.8969C93.9248 78.893 93.8648 78.8707 93.8152 78.8328C93.7418 78.7793 93.7324 78.1887 93.7082 72.4012C93.6883 68.8945 93.6637 65.7098 93.65 65.3242L93.6195 64.6207L93.7613 64.7227C93.8453 64.7824 93.9387 64.8648 93.9766 64.909ZM89.5957 65.9102C89.6203 65.9297 89.6445 66.2074 89.6492 66.5266C89.6738 67.6051 89.6781 74.2231 89.6539 74.243C89.6445 74.252 89.5563 74.2273 89.4586 74.1895L89.2828 74.116V65.8074L89.4203 65.8367C89.4938 65.8563 89.5715 65.8856 89.5961 65.9102H89.5957ZM76.1164 66.1832C76.1301 66.316 76.1543 66.6133 76.1695 66.8574C76.1852 67.0973 76.2184 67.6449 76.2477 68.0691C76.307 68.9285 76.2961 68.9832 76.0184 68.9832C75.8723 68.9832 75.8523 68.9676 75.8324 68.8215C75.7836 68.5328 75.6125 66.1297 75.6371 66.0914C75.6613 66.0563 75.9164 65.9695 76.0324 65.9586C76.0629 65.9543 76.1008 66.0563 76.1164 66.1832ZM68.0383 67.4297C68.0918 67.9469 68.1984 69.032 68.2777 69.8375C68.3602 70.6434 68.4289 71.327 68.4289 71.3559C68.4289 71.4152 68.052 71.6 68.0137 71.5617C67.9895 71.5375 67.5012 67.2145 67.5012 67.0191C67.5012 66.902 67.8762 66.409 67.9254 66.4625C67.9406 66.4715 67.9895 66.9063 68.0383 67.4297ZM87.1879 67.9426L87.3301 68.0246L87.3344 69.0809C87.3391 69.6559 87.35 70.3016 87.35 70.5106C87.359 70.95 87.3055 71.0231 87.0414 70.9316L86.8906 70.877V70.457C86.8906 70.2238 86.875 69.5445 86.8555 68.9434L86.8262 67.8586H86.9395C86.9973 67.8586 87.1102 67.8981 87.1879 67.9426ZM70.182 69.8375C70.2707 70.7746 70.4109 72.357 70.5039 73.3531L70.6703 75.1617L70.4797 75.3504L70.2949 75.5414L70.2598 75.1551C70.2402 74.9402 70.1426 73.9453 70.0402 72.9383C69.9298 71.8577 69.8225 70.7769 69.7184 69.6957L69.5809 68.2887L69.7715 68.1133C69.9426 67.9516 69.9625 67.9469 69.9961 68.0352C70.0156 68.0844 70.098 68.8945 70.182 69.8375ZM66.5246 70.4281C66.6313 71.391 66.9152 73.95 67.1594 76.1137C67.4035 78.2773 67.632 80.3617 67.6766 80.7523C67.7164 81.143 67.7832 81.7348 67.823 82.0723C67.8918 82.6426 67.8918 82.6824 67.8141 82.7402C67.6965 82.8289 67.6477 82.8184 67.6477 82.716C67.6477 82.6719 67.6035 82.3008 67.55 81.9012C67.4613 81.2313 67.3148 80.0977 66.9883 77.5539C66.8876 76.7975 66.79 76.0408 66.6953 75.2836C66.5977 74.5449 66.4559 73.4465 66.3766 72.8406C66.2984 72.2348 66.1676 71.2 66.0836 70.5305C65.9965 69.8664 65.943 69.2762 65.957 69.2121C65.9922 69.0809 66.2789 68.6215 66.3094 68.6504C66.3184 68.6641 66.416 69.4605 66.5242 70.4277L66.5246 70.4281ZM65.0293 72.5324C65.1023 73.1199 65.2398 74.1895 65.3328 74.9156C65.4242 75.6391 65.5418 76.5422 65.5953 76.9195L65.6883 77.6031L65.5859 77.6914C65.5281 77.7402 65.4688 77.7586 65.4488 77.7402C65.4305 77.7203 65.3906 77.525 65.3617 77.3098C65.2298 76.3811 65.0945 75.4527 64.9559 74.525L64.6094 72.1324L64.7211 71.8C64.7805 71.6199 64.843 71.4734 64.8582 71.4734C64.8781 71.4734 64.9512 71.9523 65.0293 72.532V72.5324ZM91.8418 71.893C91.9105 71.9617 91.9211 72.2641 91.9211 74.5066V77.0414H91.784C91.4863 77.0414 91.491 77.1145 91.4715 74.3406L91.4574 71.8152H91.6129C91.6953 71.8152 91.8039 71.8488 91.8418 71.893ZM81.1516 72.7672C82.2547 72.9336 83.218 73.2418 84.1699 73.7301C84.7848 74.0477 85.0777 74.2672 85.7613 74.9215C86.7773 75.8941 87.4031 76.7438 87.9891 77.9449C88.8438 79.6934 89.1766 81.2406 89.5957 85.3926C89.7867 87.2539 90.0352 90.6277 90.0887 92.0098C90.1043 92.4113 90.1375 93.0707 90.168 93.4746C90.2215 94.3356 90.284 94.218 89.5273 94.584C88.4773 95.0926 87.4656 95.4434 86.1336 95.7715C84.5023 96.1711 83.4465 96.2977 81.8352 96.3039L80.6633 96.3086L80.6727 95.7469C80.6727 95.4387 80.7016 94.7215 80.732 94.1602C80.8785 91.4395 80.848 88.0063 80.6586 86.1004C80.5504 85.0066 80.3414 83.6785 80.2238 83.3856C80.1996 83.3219 80.3109 83.2684 80.7945 83.102C81.6797 82.7938 82.4457 82.4078 82.5629 82.2188C82.7738 81.857 82.3969 81.3383 81.9176 81.3383C81.8355 81.3383 81.5863 81.4266 81.3563 81.5289C80.2621 82.0324 78.0695 82.6227 76.8043 82.7555C75.9301 82.8488 74.5719 82.7938 73.6305 82.6227C73.118 82.5297 72.1992 82.1836 71.4316 81.7883C70.5484 81.3289 70.0066 80.7188 69.8449 79.9953C69.7562 79.6047 69.7809 78.8234 69.8937 78.384C70.0156 77.9004 70.3574 77.1969 70.6703 76.7863C72.0621 74.9555 74.9336 73.3684 77.8785 72.8117C78.8172 72.6359 80.1445 72.6164 81.152 72.7672H81.1516ZM96.218 72.9184C96.3938 72.9914 96.4133 73.0113 96.4133 73.1777C96.4242 74.5113 96.3938 77.5586 96.3691 77.6856C96.3645 77.7293 96.1113 77.734 96.0031 77.6957C95.9359 77.6715 95.925 77.4074 95.925 75.2527C95.925 73.7102 95.9449 72.8406 95.9738 72.8406C95.9984 72.8406 96.1113 72.8758 96.218 72.9184ZM98.3527 75.6008L98.5285 75.6742L98.4949 79.7176C98.4551 84.8707 98.4504 85.0215 98.2645 85.4656C97.9621 86.1934 97.9773 86.3398 98.0066 83.1465C98.0156 81.5488 98.0398 79.9328 98.0508 79.5559C98.0598 79.1809 98.0691 78.1199 98.075 77.1969C98.075 76.0828 98.0887 75.5277 98.1238 75.5277C98.1531 75.5277 98.2551 75.5613 98.3527 75.6008ZM68.9813 76.8168C69.0102 77.2121 68.9996 77.2504 68.8574 77.5629L68.702 77.8957L68.6441 77.4074C68.5508 76.6262 68.5508 76.591 68.7355 76.475C68.8195 76.4156 68.9078 76.3773 68.9219 76.3867C68.9371 76.3957 68.966 76.591 68.9813 76.8168ZM65.9617 79.7621C66.0059 80.1617 66.3477 82.8184 66.5242 84.123C66.7871 86.1402 66.8066 86.4285 66.6895 86.3066C66.6758 86.291 66.5625 85.6121 66.4453 84.7973C65.6836 79.5316 65.6883 79.5668 65.7523 79.527C65.8836 79.4383 65.9281 79.4871 65.9613 79.7617L65.9617 79.7621ZM69.4785 81.9988C69.5078 82.1211 69.6496 83.4441 69.6496 83.6055C69.6496 83.7414 69.4738 83.8695 69.3961 83.7902C69.3719 83.7656 69.3078 83.3508 69.259 82.8731C69.2055 82.3895 69.152 81.8859 69.1367 81.7547L69.1078 81.5106L69.2789 81.7059C69.3766 81.8125 69.4633 81.9441 69.4785 81.9988ZM73.4199 83.8391C73.4734 83.8879 73.5086 84.0832 73.5512 84.6113C73.6246 85.5633 73.6352 85.4902 73.4352 85.4902C73.2293 85.4902 73.234 85.5055 73.1668 84.6445C73.098 83.7703 73.098 83.7813 73.2293 83.7813C73.2934 83.7813 73.3758 83.8102 73.4199 83.8391ZM77.2883 83.9121C77.2973 83.9609 77.3215 84.2539 77.3414 84.5625C77.357 84.8707 77.4012 85.5633 77.4391 86.1004C77.5766 88.0731 77.5813 88.3234 77.4988 88.3234C77.4055 88.3234 77.3949 88.2504 77.2879 86.8574C77.2404 86.1844 77.1865 85.5119 77.1262 84.8398C77.0836 84.309 77.0531 83.8633 77.0684 83.8543C77.1219 83.7949 77.2637 83.8391 77.2883 83.9121ZM68.107 84.8508C68.1359 84.8949 68.3203 86.4574 68.5508 88.5922C68.6195 89.2359 68.6867 89.857 68.702 89.9731L68.7266 90.184L68.6043 90.1059C68.5113 90.0418 68.4777 89.9793 68.4777 89.8664C68.4777 89.5578 68.2668 87.5316 68.1066 86.291C68.0137 85.5879 67.9406 84.9684 67.9406 84.9086C67.9406 84.8066 68.0578 84.7668 68.107 84.8508ZM96.2914 86.8922L96.2578 88.934L96.1355 89.1137C95.8566 89.5246 95.8719 89.602 95.8871 87.3168L95.8961 85.2215L96.0762 85.0352C96.1738 84.9375 96.2715 84.8555 96.291 84.8555C96.3066 84.8555 96.3066 85.7738 96.291 86.8922H96.2914ZM91.7746 90.1305C91.7992 92.9684 91.793 93.1883 91.7152 93.275C91.6664 93.3285 91.6223 93.3637 91.6086 93.3484C91.5734 93.3102 91.5246 87.1211 91.5641 87.0875C91.584 87.068 91.6328 87.0586 91.6773 87.0633C91.7398 87.077 91.7551 87.425 91.775 90.1301L91.7746 90.1305ZM75.8234 88.1863C75.8566 88.4883 75.9789 89.9395 76.0277 90.6231C76.0566 91.0824 76.0566 91.0977 75.9496 91.1309C75.8918 91.1512 75.823 91.1465 75.8035 91.1223C75.7699 91.0871 75.6613 90.0035 75.5301 88.3328L75.4949 87.9328H75.6477C75.7883 87.9328 75.7988 87.9422 75.8234 88.1863ZM71.984 89.8953C72.0176 89.9305 72.0422 90.0523 72.0422 90.1746C72.0422 90.3012 72.1016 90.9602 72.1641 91.6438C72.3504 93.5148 72.3656 93.768 72.2816 93.7191C72.1551 93.6457 72.0422 93.5344 72.0668 93.5055C72.0773 93.4859 72.0574 93.2414 72.0176 92.9625C71.9781 92.6213 71.9456 92.2793 71.9199 91.9367C71.9016 91.6547 71.8574 91.1359 71.818 90.7895C71.7246 89.9348 71.7309 89.8371 71.8375 89.8371C71.8916 89.8387 71.9435 89.8594 71.984 89.8953ZM74.2941 93.182C74.3098 93.2902 74.3387 93.6898 74.3582 94.0715C74.3918 94.8039 74.3766 94.8574 74.177 94.7063C74.1187 94.6621 74.0793 94.4773 74.0211 93.9207C73.9191 92.9133 73.9129 92.9531 74.1035 92.9731C74.2453 92.9867 74.2652 93.0066 74.2941 93.182Z" fill="white"/>
<path d="M72.5507 75.1066C72.0425 75.3261 72.0042 76.0159 72.4819 76.2601C72.8296 76.4355 73.1808 76.3515 73.3624 76.0491C73.7042 75.4925 73.1472 74.8484 72.5507 75.1066ZM75.8616 75.5765C75.3929 75.8632 75.3929 76.5574 75.8616 76.846C76.3257 77.1234 76.9269 76.7574 76.9269 76.2003C76.9269 75.6632 76.3116 75.3019 75.8616 75.5765Z" fill="white"/>
</g>
<defs>
<filter id="filter0_d_30_379" x="0.76593" y="0.186993" width="163.102" height="163.102" filterUnits="userSpaceOnUse" color-interpolation-filters="sRGB">
<feFlood flood-opacity="0" result="BackgroundImageFix"/>
<feColorMatrix in="SourceAlpha" type="matrix" values="0 0 0 0 0 0 0 0 0 0 0 0 0 0 0 0 0 0 127 0" result="hardAlpha"/>
<feOffset dy="2.80681"/>
<feGaussianBlur stdDeviation="14.034"/>
<feComposite in2="hardAlpha" operator="out"/>
<feColorMatrix type="matrix" values="0 0 0 0 0.0367917 0 0 0 0 0.0348958 0 0 0 0 0.0484375 0 0 0 0.1 0"/>
<feBlend mode="normal" in2="BackgroundImageFix" result="effect1_dropShadow_30_379"/>
<feBlend mode="normal" in="SourceGraphic" in2="effect1_dropShadow_30_379" result="shape"/>
</filter>
<linearGradient id="paint0_linear_30_379" x1="82.3168" y1="25.4482" x2="82.3168" y2="132.414" gradientUnits="userSpaceOnUse">
<stop stop-color="#1A1B24"/>
<stop offset="1" stop-color="#0E0E1A"/>
</linearGradient>
<clipPath id="clip0_30_379">
<rect width="50" height="50" fill="white" transform="translate(57 53.207)"/>
</clipPath>
</defs>
</svg>
