<svg width="164" height="164" viewBox="0 0 164 164" fill="none" xmlns="http://www.w3.org/2000/svg">
<g filter="url(#filter0_d_8_1382)">
<rect x="28.8337" y="26.0922" width="106.966" height="106.966" rx="19.0161" fill="white"/>
<rect x="29.1309" y="26.3893" width="106.371" height="106.371" rx="18.719" stroke="#D9D9D9" stroke-width="0.594253"/>
</g>
<g clip-path="url(#clip0_8_1382)">
<path d="M95.2812 53.851H68.7188C62.2467 53.851 57 59.0977 57 65.5698V92.1323C57 98.6044 62.2467 103.851 68.7188 103.851H95.2812C101.753 103.851 107 98.6044 107 92.1323V65.5698C107 59.0977 101.753 53.851 95.2812 53.851Z" fill="#242938"/>
<path d="M80.0531 59.0573C79.9598 59.0666 79.6625 59.1014 79.3937 59.126C75.5746 59.5256 71.8133 61.1432 68.7461 63.7112C68.1801 64.1811 66.8906 65.4705 66.4207 66.0366C63.8816 69.0702 62.3973 72.4741 61.8492 76.5026C61.7273 77.3971 61.7273 80.4151 61.8492 81.3092C62.3969 85.3373 63.8816 88.7416 66.4207 91.7752C66.8906 92.3416 68.1801 93.6307 68.7461 94.1006C71.7797 96.6397 75.1836 98.1241 79.2121 98.6721C80.1066 98.7944 83.1246 98.7944 84.0187 98.6721C88.0469 98.1245 91.4512 96.6397 94.4848 94.1006C95.0512 93.6307 96.3402 92.3413 96.8102 91.7752C99.3492 88.7416 100.834 85.3377 101.38 81.3092C101.504 80.4147 101.504 77.3967 101.38 76.5026C100.834 72.4745 99.3492 69.0702 96.8102 66.0366C96.3402 65.4705 95.0508 64.1811 94.4848 63.7112C91.4621 61.1815 88.0227 59.6784 84.0477 59.1459C83.6176 59.0862 82.9934 59.062 81.8352 59.0526C80.9516 59.042 80.1445 59.0483 80.0531 59.0573ZM80.2973 61.1674C80.2973 61.7381 80.3352 62.9788 80.3902 64.1569C80.4191 64.7319 80.4527 65.5577 80.4684 65.9877C80.5215 67.5123 80.6832 71.5112 80.7074 71.8686L80.732 72.2241L80.5121 72.1998C80.3902 72.1905 80.2773 72.1616 80.2574 72.1463C80.2438 72.1268 80.2086 71.7893 80.1887 71.394C80.102 69.6557 79.8137 62.91 79.7844 61.9245L79.7539 60.8397L79.8914 60.8213C79.9645 60.8104 80.0867 60.7967 80.1645 60.7909L80.2973 60.7862V61.1674ZM84.9707 61.0502C84.9754 61.0545 84.9906 62.5303 85.0043 64.3276C85.0242 66.1299 85.0488 67.7455 85.0641 67.9213C85.0777 68.1026 85.073 68.2584 85.0484 68.269C85.0289 68.2827 84.9066 68.2827 84.7848 68.269L84.5605 68.2495L84.527 66.8272C84.5111 66.1812 84.4928 65.5352 84.4723 64.8893C84.4336 64.0241 84.3988 61.0897 84.4293 61.0166C84.4477 60.962 84.5023 60.9569 84.7066 60.992C84.8488 61.0209 84.9664 61.0455 84.9707 61.0502ZM73.6734 62.6858C73.7039 62.7299 73.9328 65.4217 74.2164 68.942C74.3098 70.1397 74.4012 71.2338 74.4164 71.3698C74.4406 71.6182 74.4359 71.6291 74.2789 71.7268C74.1922 71.7799 74.1035 71.8245 74.0836 71.8245C74.0699 71.8245 74.041 71.6975 74.0258 71.5405C73.957 70.9057 73.693 67.8389 73.5086 65.6217C73.4 64.317 73.3023 63.1498 73.2887 63.0229C73.2645 62.808 73.2691 62.7881 73.3957 62.7209C73.5512 62.637 73.6398 62.6233 73.673 62.6858H73.6734ZM87.1191 63.6686C87.2566 63.7174 87.2703 63.7416 87.3008 64.0194C87.3496 64.5077 87.3344 66.8424 87.2812 66.8424C87.1391 66.8424 86.8461 66.676 86.8219 66.583C86.8063 66.5248 86.793 65.8323 86.793 65.0448C86.793 63.458 86.773 63.551 87.1191 63.6686ZM78.0984 63.8975C78.0984 64.0288 78.1336 64.7565 78.1715 65.5241C78.2113 66.2897 78.2555 67.262 78.2754 67.683C78.309 68.533 78.3184 68.5026 77.9914 68.5225C77.8297 68.5268 77.8297 68.5268 77.8207 68.2827C77.8113 68.1471 77.7871 67.7213 77.7566 67.3307C77.732 66.9401 77.6742 66.0948 77.6344 65.4506C77.6078 64.9762 77.5738 64.5021 77.5324 64.0288C77.5031 63.7846 77.5078 63.7752 77.6391 63.7264C77.7184 63.6975 77.8539 63.6733 77.9426 63.6733C78.0984 63.6686 78.0984 63.6686 78.0984 63.8975ZM91.6465 64.5674L91.8129 64.6342L91.848 65.2889C91.8617 65.6459 91.8723 66.4178 91.8617 66.9998L91.848 68.0631L91.6422 67.9608L91.4375 67.8631L91.4223 66.2413C91.4133 65.3487 91.4176 64.5916 91.427 64.5565C91.4465 64.4834 91.4465 64.4834 91.6465 64.5674ZM82.7293 65.2065C82.7582 65.2358 82.827 67.6038 82.8316 68.8061L82.8363 69.5295L82.6074 69.4944C82.4746 69.4788 82.3676 69.4655 82.3633 69.4608C82.3477 69.4502 82.2016 65.8319 82.2016 65.4799V65.1182L82.45 65.1471C82.5922 65.1666 82.7141 65.1913 82.7293 65.2065ZM93.9766 65.553C94.0363 65.6217 94.0453 66.6913 94.0605 72.5905C94.0742 79.3651 94.0742 79.5409 93.9871 79.5409C93.9248 79.537 93.8648 79.5147 93.8152 79.4768C93.7418 79.4233 93.7324 78.8327 93.7082 73.0452C93.6883 69.5385 93.6637 66.3538 93.65 65.9682L93.6195 65.2647L93.7613 65.3666C93.8453 65.4264 93.9387 65.5088 93.9766 65.553ZM89.5957 66.5541C89.6203 66.5737 89.6445 66.8514 89.6492 67.1705C89.6738 68.2491 89.6781 74.867 89.6539 74.887C89.6445 74.8959 89.5563 74.8713 89.4586 74.8334L89.2828 74.76V66.4514L89.4203 66.4807C89.4938 66.5002 89.5715 66.5295 89.5961 66.5541H89.5957ZM76.1164 66.8272C76.1301 66.96 76.1543 67.2573 76.1695 67.5014C76.1852 67.7413 76.2184 68.2889 76.2477 68.7131C76.307 69.5725 76.2961 69.6272 76.0184 69.6272C75.8723 69.6272 75.8523 69.6116 75.8324 69.4655C75.7836 69.1768 75.6125 66.7737 75.6371 66.7354C75.6613 66.7002 75.9164 66.6135 76.0324 66.6026C76.0629 66.5983 76.1008 66.7002 76.1164 66.8272ZM68.0383 68.0737C68.0918 68.5909 68.1984 69.676 68.2777 70.4815C68.3602 71.2873 68.4289 71.9709 68.4289 71.9998C68.4289 72.0592 68.052 72.244 68.0137 72.2057C67.9895 72.1815 67.5012 67.8584 67.5012 67.6631C67.5012 67.5459 67.8762 67.053 67.9254 67.1065C67.9406 67.1155 67.9895 67.5502 68.0383 68.0737ZM87.1879 68.5866L87.3301 68.6686L87.3344 69.7248C87.3391 70.2998 87.35 70.9455 87.35 71.1545C87.359 71.594 87.3055 71.667 87.0414 71.5756L86.8906 71.5209V71.101C86.8906 70.8678 86.875 70.1885 86.8555 69.5873L86.8262 68.5026H86.9395C86.9973 68.5026 87.1102 68.542 87.1879 68.5866ZM70.182 70.4815C70.2707 71.4186 70.4109 73.001 70.5039 73.9971L70.6703 75.8057L70.4797 75.9944L70.2949 76.1854L70.2598 75.7991C70.2402 75.5842 70.1426 74.5893 70.0402 73.5823C69.9298 72.5017 69.8225 71.4209 69.7184 70.3397L69.5809 68.9327L69.7715 68.7573C69.9426 68.5955 69.9625 68.5909 69.9961 68.6791C70.0156 68.7284 70.098 69.5385 70.182 70.4815ZM66.5246 71.0721C66.6313 72.035 66.9152 74.594 67.1594 76.7577C67.4035 78.9213 67.632 81.0057 67.6766 81.3963C67.7164 81.787 67.7832 82.3788 67.823 82.7163C67.8918 83.2866 67.8918 83.3264 67.8141 83.3842C67.6965 83.4729 67.6477 83.4623 67.6477 83.36C67.6477 83.3159 67.6035 82.9448 67.55 82.5452C67.4613 81.8752 67.3148 80.7416 66.9883 78.1979C66.8876 77.4414 66.79 76.6848 66.6953 75.9276C66.5977 75.1889 66.4559 74.0905 66.3766 73.4846C66.2984 72.8788 66.1676 71.844 66.0836 71.1745C65.9965 70.5104 65.943 69.9202 65.957 69.8561C65.9922 69.7248 66.2789 69.2655 66.3094 69.2944C66.3184 69.308 66.416 70.1045 66.5242 71.0717L66.5246 71.0721ZM65.0293 73.1764C65.1023 73.7639 65.2398 74.8334 65.3328 75.5596C65.4242 76.283 65.5418 77.1862 65.5953 77.5635L65.6883 78.2471L65.5859 78.3354C65.5281 78.3842 65.4688 78.4026 65.4488 78.3842C65.4305 78.3643 65.3906 78.169 65.3617 77.9538C65.2298 77.025 65.0945 76.0967 64.9559 75.169L64.6094 72.7764L64.7211 72.444C64.7805 72.2639 64.843 72.1174 64.8582 72.1174C64.8781 72.1174 64.9512 72.5963 65.0293 73.176V73.1764ZM91.8418 72.537C91.9105 72.6057 91.9211 72.908 91.9211 75.1506V77.6854H91.784C91.4863 77.6854 91.491 77.7584 91.4715 74.9846L91.4574 72.4592H91.6129C91.6953 72.4592 91.8039 72.4928 91.8418 72.537ZM81.1516 73.4112C82.2547 73.5776 83.218 73.8858 84.1699 74.3741C84.7848 74.6916 85.0777 74.9112 85.7613 75.5655C86.7773 76.5381 87.4031 77.3877 87.9891 78.5889C88.8438 80.3373 89.1766 81.8846 89.5957 86.0366C89.7867 87.8979 90.0352 91.2717 90.0887 92.6538C90.1043 93.0553 90.1375 93.7147 90.168 94.1186C90.2215 94.9795 90.284 94.862 89.5273 95.228C88.4773 95.7366 87.4656 96.0873 86.1336 96.4155C84.5023 96.8151 83.4465 96.9416 81.8352 96.9479L80.6633 96.9526L80.6727 96.3909C80.6727 96.0827 80.7016 95.3655 80.732 94.8041C80.8785 92.0834 80.848 88.6502 80.6586 86.7444C80.5504 85.6506 80.3414 84.3225 80.2238 84.0295C80.1996 83.9659 80.3109 83.9123 80.7945 83.7459C81.6797 83.4377 82.4457 83.0518 82.5629 82.8627C82.7738 82.501 82.3969 81.9823 81.9176 81.9823C81.8355 81.9823 81.5863 82.0705 81.3563 82.1729C80.2621 82.6764 78.0695 83.2666 76.8043 83.3995C75.9301 83.4928 74.5719 83.4377 73.6305 83.2666C73.118 83.1737 72.1992 82.8276 71.4316 82.4323C70.5484 81.9729 70.0066 81.3627 69.8449 80.6393C69.7562 80.2487 69.7809 79.4674 69.8937 79.028C70.0156 78.5444 70.3574 77.8409 70.6703 77.4303C72.0621 75.5995 74.9336 74.0123 77.8785 73.4557C78.8172 73.2799 80.1445 73.2604 81.152 73.4112H81.1516ZM96.218 73.5623C96.3938 73.6354 96.4133 73.6553 96.4133 73.8217C96.4242 75.1553 96.3938 78.2026 96.3691 78.3295C96.3645 78.3733 96.1113 78.378 96.0031 78.3397C95.9359 78.3155 95.925 78.0514 95.925 75.8967C95.925 74.3541 95.9449 73.4846 95.9738 73.4846C95.9984 73.4846 96.1113 73.5198 96.218 73.5623ZM98.3527 76.2448L98.5285 76.3182L98.4949 80.3616C98.4551 85.5147 98.4504 85.6655 98.2645 86.1096C97.9621 86.8373 97.9773 86.9838 98.0066 83.7905C98.0156 82.1928 98.0398 80.5768 98.0508 80.1998C98.0598 79.8248 98.0691 78.7639 98.075 77.8409C98.075 76.7268 98.0887 76.1717 98.1238 76.1717C98.1531 76.1717 98.2551 76.2053 98.3527 76.2448ZM68.9813 77.4608C69.0102 77.8561 68.9996 77.8944 68.8574 78.2069L68.702 78.5397L68.6441 78.0514C68.5508 77.2702 68.5508 77.235 68.7355 77.119C68.8195 77.0596 68.9078 77.0213 68.9219 77.0307C68.9371 77.0397 68.966 77.235 68.9813 77.4608ZM65.9617 80.4061C66.0059 80.8057 66.3477 83.4623 66.5242 84.767C66.7871 86.7842 66.8066 87.0725 66.6895 86.9506C66.6758 86.935 66.5625 86.2561 66.4453 85.4413C65.6836 80.1756 65.6883 80.2108 65.7523 80.1709C65.8836 80.0823 65.9281 80.1311 65.9613 80.4057L65.9617 80.4061ZM69.4785 82.6428C69.5078 82.7651 69.6496 84.0881 69.6496 84.2495C69.6496 84.3854 69.4738 84.5135 69.3961 84.4342C69.3719 84.4096 69.3078 83.9948 69.259 83.517C69.2055 83.0334 69.152 82.5299 69.1367 82.3987L69.1078 82.1545L69.2789 82.3498C69.3766 82.4565 69.4633 82.5881 69.4785 82.6428ZM73.4199 84.483C73.4734 84.5319 73.5086 84.7272 73.5512 85.2553C73.6246 86.2073 73.6352 86.1342 73.4352 86.1342C73.2293 86.1342 73.234 86.1495 73.1668 85.2885C73.098 84.4143 73.098 84.4252 73.2293 84.4252C73.2934 84.4252 73.3758 84.4541 73.4199 84.483ZM77.2883 84.5561C77.2973 84.6049 77.3215 84.8979 77.3414 85.2065C77.357 85.5147 77.4012 86.2073 77.4391 86.7444C77.5766 88.717 77.5813 88.9674 77.4988 88.9674C77.4055 88.9674 77.3949 88.8944 77.2879 87.5014C77.2404 86.8284 77.1865 86.1559 77.1262 85.4838C77.0836 84.953 77.0531 84.5073 77.0684 84.4983C77.1219 84.4389 77.2637 84.483 77.2883 84.5561ZM68.107 85.4948C68.1359 85.5389 68.3203 87.1014 68.5508 89.2362C68.6195 89.8799 68.6867 90.501 68.702 90.617L68.7266 90.828L68.6043 90.7498C68.5113 90.6858 68.4777 90.6233 68.4777 90.5104C68.4777 90.2018 68.2668 88.1756 68.1066 86.935C68.0137 86.2319 67.9406 85.6123 67.9406 85.5526C67.9406 85.4506 68.0578 85.4108 68.107 85.4948ZM96.2914 87.5362L96.2578 89.578L96.1355 89.7577C95.8566 90.1686 95.8719 90.2459 95.8871 87.9608L95.8961 85.8655L96.0762 85.6791C96.1738 85.5815 96.2715 85.4995 96.291 85.4995C96.3066 85.4995 96.3066 86.4178 96.291 87.5362H96.2914ZM91.7746 90.7745C91.7992 93.6123 91.793 93.8323 91.7152 93.919C91.6664 93.9725 91.6223 94.0077 91.6086 93.9924C91.5734 93.9541 91.5246 87.7651 91.5641 87.7315C91.584 87.712 91.6328 87.7026 91.6773 87.7073C91.7398 87.7209 91.7551 88.069 91.775 90.7741L91.7746 90.7745ZM75.8234 88.8303C75.8566 89.1323 75.9789 90.5834 76.0277 91.267C76.0566 91.7264 76.0566 91.7416 75.9496 91.7748C75.8918 91.7952 75.823 91.7905 75.8035 91.7663C75.7699 91.7311 75.6613 90.6475 75.5301 88.9768L75.4949 88.5768H75.6477C75.7883 88.5768 75.7988 88.5862 75.8234 88.8303ZM71.984 90.5393C72.0176 90.5745 72.0422 90.6963 72.0422 90.8186C72.0422 90.9452 72.1016 91.6041 72.1641 92.2877C72.3504 94.1588 72.3656 94.412 72.2816 94.3631C72.1551 94.2897 72.0422 94.1784 72.0668 94.1495C72.0773 94.1299 72.0574 93.8854 72.0176 93.6065C71.9781 93.2653 71.9456 92.9233 71.9199 92.5807C71.9016 92.2987 71.8574 91.7799 71.818 91.4334C71.7246 90.5788 71.7309 90.4811 71.8375 90.4811C71.8916 90.4827 71.9435 90.5034 71.984 90.5393ZM74.2941 93.826C74.3098 93.9342 74.3387 94.3338 74.3582 94.7155C74.3918 95.4479 74.3766 95.5014 74.177 95.3502C74.1187 95.3061 74.0793 95.1213 74.0211 94.5647C73.9191 93.5573 73.9129 93.5971 74.1035 93.617C74.2453 93.6307 74.2652 93.6506 74.2941 93.826Z" fill="white"/>
<path d="M72.5505 75.7506C72.0423 75.9701 72.004 76.66 72.4817 76.9041C72.8294 77.0795 73.1805 76.9955 73.3622 76.6932C73.704 76.1365 73.1469 75.4924 72.5505 75.7506ZM75.8614 76.2205C75.3926 76.5072 75.3926 77.2014 75.8614 77.49C76.3255 77.7674 76.9266 77.4014 76.9266 76.8443C76.9266 76.3072 76.3114 75.9459 75.8614 76.2205Z" fill="white"/>
</g>
<path d="M67.3433 159.702V148.149H70.2671C71.2749 148.149 72.0593 148.278 72.6203 148.535C73.1813 148.782 73.5759 149.176 73.8041 149.718C74.0323 150.251 74.1464 150.945 74.1464 151.801V155.994C74.1464 156.859 74.0323 157.567 73.8041 158.119C73.5759 158.661 73.1813 159.06 72.6203 159.317C72.0688 159.573 71.2939 159.702 70.2956 159.702H67.3433ZM69.8963 157.933H70.2956C70.6854 157.933 70.9659 157.876 71.1371 157.762C71.3082 157.648 71.4128 157.477 71.4508 157.249C71.4984 157.02 71.5221 156.735 71.5221 156.393V151.358C71.5221 151.016 71.4936 150.74 71.4366 150.531C71.389 150.322 71.2797 150.17 71.1085 150.075C70.9374 149.98 70.6617 149.932 70.2813 149.932H69.8963V157.933ZM76.1279 159.702V148.149H81.3193V149.889H78.6808V152.756H80.6918V154.525H78.6808V157.976H81.3478V159.702H76.1279ZM82.9347 159.702V148.149H84.7317L87.0992 153.712V148.149H89.21V159.702H87.4843L85.1168 153.712V159.702H82.9347ZM94.6659 159.873C93.8007 159.873 93.1161 159.721 92.6122 159.416C92.1083 159.112 91.747 158.675 91.5283 158.104C91.3096 157.534 91.2002 156.854 91.2002 156.065V151.772C91.2002 150.973 91.3096 150.294 91.5283 149.733C91.747 149.172 92.1083 148.744 92.6122 148.449C93.1161 148.145 93.8007 147.993 94.6659 147.993C95.5407 147.993 96.23 148.145 96.7339 148.449C97.2474 148.744 97.6134 149.172 97.8321 149.733C98.0508 150.294 98.1601 150.973 98.1601 151.772V156.065C98.1601 156.854 98.0508 157.534 97.8321 158.104C97.6134 158.675 97.2474 159.112 96.7339 159.416C96.23 159.721 95.5407 159.873 94.6659 159.873ZM94.6659 158.062C94.9321 158.062 95.1271 157.995 95.2507 157.862C95.3743 157.729 95.4551 157.558 95.4931 157.348C95.5312 157.139 95.5502 156.925 95.5502 156.707V151.144C95.5502 150.916 95.5312 150.702 95.4931 150.503C95.4551 150.294 95.3743 150.122 95.2507 149.989C95.1271 149.856 94.9321 149.79 94.6659 149.79C94.4187 149.79 94.2333 149.856 94.1097 149.989C93.9861 150.122 93.9053 150.294 93.8672 150.503C93.8292 150.702 93.8102 150.916 93.8102 151.144V156.707C93.8102 156.925 93.8245 157.139 93.853 157.348C93.891 157.558 93.9671 157.729 94.0812 157.862C94.2048 157.995 94.3997 158.062 94.6659 158.062Z" fill="white"/>
<defs>
<filter id="filter0_d_8_1382" x="0.765686" y="0.830945" width="163.102" height="163.102" filterUnits="userSpaceOnUse" color-interpolation-filters="sRGB">
<feFlood flood-opacity="0" result="BackgroundImageFix"/>
<feColorMatrix in="SourceAlpha" type="matrix" values="0 0 0 0 0 0 0 0 0 0 0 0 0 0 0 0 0 0 127 0" result="hardAlpha"/>
<feOffset dy="2.80681"/>
<feGaussianBlur stdDeviation="14.034"/>
<feComposite in2="hardAlpha" operator="out"/>
<feColorMatrix type="matrix" values="0 0 0 0 0.0367917 0 0 0 0 0.0348958 0 0 0 0 0.0484375 0 0 0 0.1 0"/>
<feBlend mode="normal" in2="BackgroundImageFix" result="effect1_dropShadow_8_1382"/>
<feBlend mode="normal" in="SourceGraphic" in2="effect1_dropShadow_8_1382" result="shape"/>
</filter>
<clipPath id="clip0_8_1382">
<rect width="50" height="50" fill="white" transform="translate(57 53.851)"/>
</clipPath>
</defs>
</svg>
