<svg width="164" height="164" viewBox="0 0 164 164" fill="none" xmlns="http://www.w3.org/2000/svg">
<g filter="url(#filter0_d_8_1378)">
<rect x="28.9218" y="26.0922" width="106.966" height="106.966" rx="19.0161" fill="white"/>
<rect x="29.219" y="26.3893" width="106.371" height="106.371" rx="18.719" stroke="#D9D9D9" stroke-width="0.594253"/>
</g>
<g clip-path="url(#clip0_8_1378)">
<path d="M95.3694 53.851H68.8069C62.3348 53.851 57.0881 59.0977 57.0881 65.5698V92.1323C57.0881 98.6044 62.3348 103.851 68.8069 103.851H95.3694C101.841 103.851 107.088 98.6044 107.088 92.1323V65.5698C107.088 59.0977 101.841 53.851 95.3694 53.851Z" fill="#2396ED"/>
<path d="M84.6637 77.7032H88.71V74.0422H84.6637V77.7032ZM79.8469 77.7032H83.893V74.0422H79.8469V77.7032ZM75.1263 77.7032H79.1725V74.0422H75.1263V77.7032ZM70.4057 77.7032H74.3556V74.0422H70.4057V77.7032ZM65.5888 77.7032H69.635V74.0422H65.5888V77.7032ZM70.4057 73.2716H74.3556V69.6107H70.4057V73.2716ZM75.1263 73.2716H79.1725V69.6107H75.1263V73.2716ZM79.8469 73.2716H83.893V69.6107H79.8469V73.2716ZM79.8469 68.84H83.893V65.1791H79.8469V68.84ZM101.619 76.0655C101.619 76.0655 99.8852 74.4276 96.3208 75.0057C95.9354 72.2119 92.9489 70.5741 92.9489 70.5741C92.9489 70.5741 90.1551 73.9459 92.1782 77.7032C91.6002 77.9922 90.6368 78.3776 89.1916 78.3776H62.6986C62.2169 80.208 62.2169 92.3465 75.5117 92.3465C85.0491 92.3465 92.1782 87.9151 95.55 79.8225C100.56 80.208 101.619 76.0655 101.619 76.0655Z" fill="white"/>
</g>
<path d="M58.1609 159.702V148.149H61.0846C62.0924 148.149 62.8769 148.278 63.4378 148.535C63.9988 148.782 64.3934 149.176 64.6216 149.718C64.8498 150.251 64.9639 150.945 64.9639 151.801V155.994C64.9639 156.859 64.8498 157.567 64.6216 158.119C64.3934 158.661 63.9988 159.06 63.4378 159.317C62.8864 159.573 62.1115 159.702 61.1131 159.702H58.1609ZM60.7138 157.933H61.1131C61.5029 157.933 61.7834 157.876 61.9546 157.762C62.1257 157.648 62.2303 157.477 62.2683 157.249C62.3159 157.02 62.3396 156.735 62.3396 156.393V151.358C62.3396 151.016 62.3111 150.74 62.2541 150.531C62.2065 150.322 62.0972 150.17 61.926 150.075C61.7549 149.98 61.4792 149.932 61.0988 149.932H60.7138V157.933ZM70.2542 159.873C69.389 159.873 68.7044 159.721 68.2005 159.416C67.6965 159.112 67.3352 158.675 67.1166 158.104C66.8979 157.534 66.7885 156.854 66.7885 156.065V151.772C66.7885 150.973 66.8979 150.294 67.1166 149.733C67.3352 149.172 67.6965 148.744 68.2005 148.449C68.7044 148.145 69.389 147.993 70.2542 147.993C71.129 147.993 71.8183 148.145 72.3222 148.449C72.8356 148.744 73.2017 149.172 73.4204 149.733C73.6391 150.294 73.7484 150.973 73.7484 151.772V156.065C73.7484 156.854 73.6391 157.534 73.4204 158.104C73.2017 158.675 72.8356 159.112 72.3222 159.416C71.8183 159.721 71.129 159.873 70.2542 159.873ZM70.2542 158.062C70.5204 158.062 70.7153 157.995 70.839 157.862C70.9626 157.729 71.0434 157.558 71.0814 157.348C71.1194 157.139 71.1385 156.925 71.1385 156.707V151.144C71.1385 150.916 71.1194 150.702 71.0814 150.503C71.0434 150.294 70.9626 150.122 70.839 149.989C70.7153 149.856 70.5204 149.79 70.2542 149.79C70.007 149.79 69.8216 149.856 69.698 149.989C69.5744 150.122 69.4936 150.294 69.4555 150.503C69.4175 150.702 69.3985 150.916 69.3985 151.144V156.707C69.3985 156.925 69.4127 157.139 69.4413 157.348C69.4793 157.558 69.5554 157.729 69.6695 157.862C69.7931 157.995 69.988 158.062 70.2542 158.062ZM79.0388 159.873C78.164 159.873 77.4699 159.716 76.9565 159.402C76.4526 159.079 76.096 158.632 75.8868 158.062C75.6777 157.482 75.5731 156.802 75.5731 156.022V151.858C75.5731 151.059 75.6777 150.374 75.8868 149.804C76.096 149.224 76.4526 148.777 76.9565 148.463C77.4699 148.149 78.164 147.993 79.0388 147.993C79.8945 147.993 80.56 148.135 81.0355 148.42C81.5204 148.696 81.8627 149.086 82.0623 149.59C82.262 150.094 82.3618 150.674 82.3618 151.33V152.328H79.866V151.173C79.866 150.945 79.8517 150.726 79.8232 150.517C79.8042 150.308 79.7376 150.137 79.6235 150.004C79.5094 149.861 79.3145 149.79 79.0388 149.79C78.7725 149.79 78.5729 149.861 78.4398 150.004C78.3161 150.146 78.2353 150.327 78.1973 150.545C78.1688 150.755 78.1545 150.978 78.1545 151.216V156.65C78.1545 156.906 78.1735 157.144 78.2116 157.363C78.2591 157.572 78.3447 157.743 78.4683 157.876C78.6014 158 78.7915 158.062 79.0388 158.062C79.305 158.062 79.4951 157.995 79.6092 157.862C79.7233 157.719 79.7946 157.539 79.8232 157.32C79.8517 157.101 79.866 156.878 79.866 156.65V155.437H82.3618V156.436C82.3618 157.092 82.262 157.681 82.0623 158.204C81.8722 158.718 81.5346 159.126 81.0497 159.431C80.5743 159.725 79.904 159.873 79.0388 159.873ZM84.1942 159.702V148.149H86.7471V152.87L88.6867 148.149H91.1826L89.0433 153.369L91.2824 159.702H88.6867L87.0181 154.596L86.7471 155.052V159.702H84.1942ZM92.7141 159.702V148.149H97.9055V149.889H95.267V152.756H97.278V154.525H95.267V157.976H97.934V159.702H92.7141ZM99.5209 159.702V148.149H102.701C103.481 148.149 104.156 148.235 104.727 148.406C105.297 148.577 105.739 148.886 106.053 149.333C106.376 149.771 106.538 150.393 106.538 151.202C106.538 151.677 106.5 152.1 106.424 152.471C106.348 152.842 106.205 153.165 105.996 153.441C105.796 153.707 105.506 153.93 105.126 154.111L106.709 159.702H104.07L102.801 154.525H102.074V159.702H99.5209ZM102.074 153.056H102.787C103.148 153.056 103.429 152.994 103.628 152.87C103.828 152.737 103.966 152.552 104.042 152.314C104.128 152.067 104.17 151.772 104.17 151.43C104.17 150.935 104.08 150.55 103.899 150.274C103.719 149.999 103.386 149.861 102.901 149.861H102.074V153.056Z" fill="white"/>
<defs>
<filter id="filter0_d_8_1378" x="0.85379" y="0.830945" width="163.102" height="163.102" filterUnits="userSpaceOnUse" color-interpolation-filters="sRGB">
<feFlood flood-opacity="0" result="BackgroundImageFix"/>
<feColorMatrix in="SourceAlpha" type="matrix" values="0 0 0 0 0 0 0 0 0 0 0 0 0 0 0 0 0 0 127 0" result="hardAlpha"/>
<feOffset dy="2.80681"/>
<feGaussianBlur stdDeviation="14.034"/>
<feComposite in2="hardAlpha" operator="out"/>
<feColorMatrix type="matrix" values="0 0 0 0 0.0367917 0 0 0 0 0.0348958 0 0 0 0 0.0484375 0 0 0 0.1 0"/>
<feBlend mode="normal" in2="BackgroundImageFix" result="effect1_dropShadow_8_1378"/>
<feBlend mode="normal" in="SourceGraphic" in2="effect1_dropShadow_8_1378" result="shape"/>
</filter>
<clipPath id="clip0_8_1378">
<rect width="50" height="50" fill="white" transform="translate(57.0881 53.851)"/>
</clipPath>
</defs>
</svg>
