<svg width="164" height="164" viewBox="0 0 164 164" fill="none" xmlns="http://www.w3.org/2000/svg">
<g filter="url(#filter0_d_8_1329)">
<rect x="28.3923" y="25.9427" width="106.966" height="106.966" rx="19.0161" fill="white"/>
<rect x="28.6895" y="26.2399" width="106.371" height="106.371" rx="18.719" stroke="#D9D9D9" stroke-width="0.594253"/>
</g>
<path d="M75.5598 99.1302C79.1577 99.1302 82.0743 96.1784 82.0743 92.5372V85.9442H75.5598C71.9619 85.9442 69.0453 88.896 69.0453 92.5372C69.0453 96.1784 71.9619 99.1302 75.5598 99.1302Z" fill="#0ACF83"/>
<path d="M69.0453 79.3527C69.0453 75.7114 71.9619 72.7597 75.5598 72.7597H82.0743V85.9456H75.5598C71.9619 85.9456 69.0453 82.9939 69.0453 79.3527Z" fill="#A259FF"/>
<path d="M69.0457 66.1671C69.0457 62.5259 71.9623 59.5741 75.5602 59.5741H82.0747V72.7601H75.5602C71.9623 72.7601 69.0457 69.8083 69.0457 66.1671Z" fill="#F24E1E"/>
<path d="M82.075 59.5741H88.5895C92.1874 59.5741 95.104 62.5258 95.104 66.167C95.104 69.8083 92.1874 72.76 88.5895 72.76H82.075V59.5741Z" fill="#FF7262"/>
<path d="M95.104 79.3527C95.104 82.9939 92.1874 85.9456 88.5895 85.9456C84.9917 85.9456 82.075 82.9939 82.075 79.3527C82.075 75.7114 84.9917 72.7597 88.5895 72.7597C92.1874 72.7597 95.104 75.7114 95.104 79.3527Z" fill="#1ABCFE"/>
<path d="M64.1041 159.552V148H69.0958V149.726H66.657V152.635H68.7821V154.418H66.657V159.552H64.1041ZM70.7302 159.552V148H73.2831V159.552H70.7302ZM78.4428 159.724C77.6442 159.724 77.0119 159.557 76.546 159.224C76.0896 158.892 75.7616 158.426 75.5619 157.827C75.3717 157.218 75.2767 156.519 75.2767 155.73V151.851C75.2767 151.033 75.3812 150.325 75.5904 149.726C75.7996 149.127 76.1562 148.666 76.6601 148.342C77.1735 148.01 77.8676 147.843 78.7423 147.843C79.5981 147.843 80.2684 147.986 80.7533 148.271C81.2477 148.556 81.5995 148.951 81.8087 149.455C82.0179 149.959 82.1225 150.548 82.1225 151.223V151.965H79.6266V151.024C79.6266 150.776 79.6076 150.548 79.5695 150.339C79.541 150.13 79.465 149.964 79.3413 149.84C79.2273 149.707 79.0371 149.64 78.7709 149.64C78.4951 149.64 78.2955 149.716 78.1719 149.868C78.0483 150.011 77.9674 150.192 77.9294 150.41C77.9009 150.629 77.8866 150.857 77.8866 151.095V156.443C77.8866 156.7 77.9104 156.942 77.9579 157.171C78.015 157.389 78.1101 157.57 78.2432 157.713C78.3858 157.846 78.5855 157.912 78.8422 157.912C79.1084 157.912 79.3128 157.841 79.4554 157.698C79.5981 157.556 79.6979 157.37 79.7549 157.142C79.812 156.914 79.8405 156.671 79.8405 156.415V155.06H78.7994V153.562H82.1367V159.552H80.4538L80.3112 158.597C80.159 158.92 79.9356 159.191 79.6409 159.41C79.3461 159.619 78.9468 159.724 78.4428 159.724ZM84.1196 159.552L84.3193 148H87.0576L88.3269 154.718L89.6961 148H92.3345L92.5342 159.552H90.7229L90.509 151.865L89.1684 159.552H87.5568L86.1305 151.808L85.9594 159.552H84.1196ZM94.076 159.552L96.2581 148H99.1675L101.321 159.552H98.9679L98.5828 157.114H96.8856L96.4863 159.552H94.076ZM97.1138 155.588H98.3403L97.7271 151.081L97.1138 155.588Z" fill="white"/>
<defs>
<filter id="filter0_d_8_1329" x="0.32428" y="0.681477" width="163.102" height="163.102" filterUnits="userSpaceOnUse" color-interpolation-filters="sRGB">
<feFlood flood-opacity="0" result="BackgroundImageFix"/>
<feColorMatrix in="SourceAlpha" type="matrix" values="0 0 0 0 0 0 0 0 0 0 0 0 0 0 0 0 0 0 127 0" result="hardAlpha"/>
<feOffset dy="2.80681"/>
<feGaussianBlur stdDeviation="14.034"/>
<feComposite in2="hardAlpha" operator="out"/>
<feColorMatrix type="matrix" values="0 0 0 0 0.0367917 0 0 0 0 0.0348958 0 0 0 0 0.0484375 0 0 0 0.1 0"/>
<feBlend mode="normal" in2="BackgroundImageFix" result="effect1_dropShadow_8_1329"/>
<feBlend mode="normal" in="SourceGraphic" in2="effect1_dropShadow_8_1329" result="shape"/>
</filter>
</defs>
</svg>
