<svg width="164" height="165" viewBox="0 0 164 165" fill="none" xmlns="http://www.w3.org/2000/svg">
<g filter="url(#filter0_d_30_335)">
<rect x="28.96" y="26.2412" width="106.966" height="106.966" rx="19.0161" fill="url(#paint0_linear_30_335)"/>
<rect x="29.2571" y="26.5383" width="106.371" height="106.371" rx="18.719" stroke="#D9D9D9" stroke-opacity="0.33" stroke-width="0.594253"/>
</g>
<g clip-path="url(#clip0_30_335)">
<path d="M95.4072 55H68.8447C62.3726 55 57.126 60.2467 57.126 66.7188V93.2812C57.126 99.7533 62.3726 105 68.8447 105H95.4072C101.879 105 107.126 99.7533 107.126 93.2812V66.7188C107.126 60.2467 101.879 55 95.4072 55Z" fill="#242938"/>
<path d="M74.6607 92.8762C73.247 91.7643 71.739 90.6983 70.7085 89.1971C68.5402 86.5498 66.8707 83.4848 65.7294 80.2641C65.0395 78.1695 64.8032 75.9242 63.9139 73.9107C62.9836 72.4483 64.0733 70.8497 65.6752 70.3849C66.3884 70.248 67.6424 69.5753 66.1287 70.0561C64.7716 71.0518 64.6403 69.1523 66.0318 69.0321C66.9815 68.9058 67.3311 68.1284 67.0063 67.4285C65.9869 66.7637 69.4783 66.0331 67.7216 65.0412C65.8915 63.0667 70.2814 62.6867 69.1984 64.929C68.9391 66.6533 72.2658 64.613 71.494 66.6041C72.2785 67.5603 74.4318 66.8218 74.3784 68.1632C75.5212 68.2418 75.9135 69.2034 76.9863 69.2772C78.0982 69.7793 80.1139 70.175 80.4922 71.428C79.3891 72.3013 76.8348 69.624 76.7119 72.0415C77.0451 75.6127 76.9603 79.2916 78.267 82.6924C78.885 84.7516 80.3832 86.3727 81.7361 87.9764C83.0309 89.5471 84.7844 90.6529 86.5717 91.584C88.1396 92.3234 89.8299 92.8139 91.5387 93.1215C92.2316 92.5914 93.4553 90.6207 94.5365 91.4518C94.5877 92.3856 92.3906 93.4037 94.433 93.3004C95.6324 92.9387 96.4643 94.2281 97.4519 93.065C98.3619 94.1428 101.234 92.3764 100.587 94.5795C99.7111 95.1443 98.4342 94.8029 97.5574 95.5799C96.1115 94.8578 94.9605 96.2262 93.36 96.0531C91.5824 96.3715 89.774 96.5 87.9719 96.5027C85.0154 96.2691 81.9963 96.1707 79.1838 95.1414C77.5994 94.6811 76.0532 93.7787 74.6607 92.8762ZM77.1576 93.958C78.7047 94.6272 80.2176 95.3322 81.9131 95.5449C84.6031 95.9191 87.381 96.4945 90.0807 95.9697C88.8588 95.418 87.5957 96.1846 86.3783 95.5752C84.9186 95.8893 83.3518 95.4951 81.8678 95.301C80.1799 94.5492 78.3586 94.0324 76.7781 93.0565C74.8032 92.3352 77.7994 93.9816 78.3328 94.1149C79.5674 94.8156 76.9752 93.7557 76.6097 93.4645C75.5757 92.8844 75.4439 93.0057 76.5074 93.5947C76.7215 93.7199 76.9332 93.8514 77.1576 93.958ZM74.2137 91.8775C75.7129 92.433 74.2071 90.8234 73.5201 90.9168C73.2157 90.3889 72.3572 90.0553 72.9628 89.7715C71.8734 90.1498 71.8216 88.3334 71.3096 88.593C70.1571 88.2291 70.8611 86.9399 69.4883 86.1482C69.363 85.3141 68.1244 84.5906 67.7293 83.3324C67.5549 82.6883 66.33 80.8383 67.0824 82.56C67.7231 84.2174 68.8503 85.6367 69.7883 87.0543C70.5167 88.4041 71.3768 89.8149 72.7033 90.657C73.1505 91.0859 73.5822 91.7432 74.2137 91.8775ZM69.8948 87.1357C70.169 87.6258 69.9471 86.9094 69.8948 87.1357ZM76.0091 92.5434C76.3411 92.3947 75.5317 92.3561 76.0091 92.5434ZM76.823 92.8402C76.7387 92.4303 76.4514 93.0693 76.823 92.8402ZM77.8416 93.265C78.3266 92.8033 77.0941 92.974 77.8416 93.265ZM79.5877 94.2383C79.8824 93.8025 78.6443 94.0738 79.5877 94.2383ZM76.2349 91.901C76.9881 91.4137 75.2619 91.8943 76.2349 91.901ZM76.999 92.282C76.9777 92.0244 76.7268 92.3975 76.999 92.282ZM80.8186 94.666C81.4324 95.0535 84.4039 95.5152 82.5434 94.8248C82.232 94.8904 79.0932 93.9371 80.8186 94.666ZM74.7551 89.9436C74.6953 89.6852 73.802 89.6584 74.7551 89.9436ZM76.5331 90.9799C76.9959 90.6572 75.5727 90.7309 76.5331 90.9799ZM78.0287 91.8969C78.6928 91.6465 76.9516 91.6453 78.0287 91.8969ZM74.0315 89.1557C74.752 89.7082 76.9371 89.2264 75.1349 88.8258C74.3146 88.3885 72.4659 88.0893 73.726 89.0895L74.0315 89.1557ZM79.0418 92.2135C79.3418 91.7022 77.7832 91.9215 79.0418 92.2135ZM77.5193 91.0035C79.2811 91.502 76.0378 89.8895 77.0846 90.8201L77.3166 90.9252L77.5193 91.0035ZM80.5717 92.7678C82.2402 92.7838 79.0646 92.5377 80.5717 92.7678ZM73.3895 88.1902C73.3244 87.8795 72.9778 88.2164 73.3895 88.1902ZM83.3939 94.351C83.4385 93.7897 82.8496 94.7686 83.3939 94.351ZM76.2369 89.934C76.136 89.6385 75.7155 89.9219 76.2369 89.934ZM73.5478 87.9953C74.5057 87.9377 72.2364 87.5732 73.5478 87.9953ZM70.3622 85.9361C70.243 85.477 69.3199 85.1107 70.3622 85.9361ZM78.7252 91.2436C78.6426 91.2873 78.5496 91.0434 78.7252 91.2436ZM83.9305 94.4379C83.9139 94.132 83.6471 94.5535 83.9305 94.4379ZM78.2644 90.7678C78.3582 90.3738 77.4477 90.6484 78.2644 90.7678ZM74.3865 88.3102C75.0991 88.2338 73.245 87.8283 74.3865 88.3102ZM80.9463 92.3863C82.0568 91.9463 79.8641 92.1715 80.9463 92.3863ZM77.5342 90.0701C78.8141 90.2352 76.0114 89.1996 77.2533 89.9774L77.5342 90.0701ZM81.9822 92.8051C83.1771 92.0906 82.7832 94.4777 84.0096 93.0066C85.2191 92.1234 82.9648 94.0986 84.4557 93.1643C85.5338 92.4432 87.1262 93.5061 88.1322 93.8527C88.8557 93.8172 89.5588 94.4783 90.3006 94.0762C91.7281 93.6916 87.5088 93.5059 88.6148 92.8236C87.3084 93.2037 86.3434 92.3703 85.7006 91.5336C84.2352 91.1951 82.541 90.4461 81.8098 89.1494C81.5115 88.6625 82.2404 89.218 81.5523 88.4221C80.6693 87.6367 80.2285 86.7453 79.6357 85.7906C78.9275 85.4129 78.8451 84.301 78.7736 85.7533C78.7791 84.8367 77.9186 84.2197 77.7086 84.4762C77.7049 83.5936 78.6295 84.0359 77.9822 83.3828C77.843 82.468 77.3842 81.5145 77.2463 80.4815C77.032 79.9836 77.216 78.9172 76.515 80.0443C76.2596 81.2357 76.4303 78.5805 76.8273 79.4561C77.3488 78.5625 76.6403 78.6676 76.6112 78.7916C76.9508 78.0379 76.8262 76.9686 76.5227 77.3764C76.7035 76.5773 76.8086 74.4359 76.2518 74.8154C76.5893 73.9799 76.8918 70.9922 75.4269 72.1313C74.8331 72.1396 73.805 72.3468 73.319 72.5885C74.8428 73.4285 73.1657 72.8919 72.5454 72.7583C72.4646 73.5356 71.8502 73.1994 71.0827 73.207C72.3086 73.3587 70.4857 74.4609 69.7824 74.0328C68.869 74.4693 70.5706 75.559 69.8007 75.8959C69.8953 76.4039 68.4014 75.7125 68.5187 76.8856C67.632 76.5125 68.3966 78.277 68.8402 77.6803C70.3484 78.0885 69.9019 79.019 69.9403 79.9029C69.6946 80.4182 68.7271 78.6922 69.7249 78.7723C68.9377 77.4936 68.8542 78.31 68.2001 78.9041C68.0479 78.9471 69.8685 79.7492 68.726 80.1459C69.7311 80.301 69.7597 81.1805 69.9644 81.7371C70.5685 82.3664 70.4449 81.0424 71.1678 81.7984C70.7103 81.1248 68.7447 79.9002 70.3273 80.293C70.3188 79.6148 70.0411 79.0682 70.5259 79.0815C71.0061 78.2119 70.0231 81.2254 71.1053 80.1203C71.4049 79.9895 71.4792 79.2496 72.0177 80.19C72.7998 80.9596 72.3002 81.5172 71.1969 80.8125C71.3943 81.4822 72.6728 81.7215 72.4326 82.7688C72.6873 83.6897 73.0436 83.3506 73.3543 83.2973C73.5979 84.1922 73.7363 83.5342 73.7479 83.1082C74.8636 83.3471 74.6023 84.0066 74.9514 84.4674C75.7202 84.8145 73.8509 82.115 75.1709 83.6557C76.5596 84.9096 75.6917 85.433 74.4454 85.232C75.2342 85.1684 75.4886 86.2984 76.4752 86.2588C77.3748 86.6867 77.984 88.3307 76.4332 87.6463C75.8953 87.1613 73.9919 86.5631 75.5466 87.4856C76.9824 88.1504 78.1228 88.5482 79.5078 89.3828C80.4988 90.0904 80.927 90.9008 81.3027 91.0611C80.4697 91.459 78.7924 90.7436 80.0379 90.5242C79.2611 90.3828 78.3873 89.9899 79.1314 90.9578C79.7641 91.4861 81.373 91.4301 81.6615 91.4899C81.417 92.0287 80.9975 92.0715 81.6715 92.1133C80.9195 92.5141 81.9125 92.576 81.9822 92.8051ZM80.4445 88.4625C79.9869 87.984 79.8687 87.0877 80.3633 87.8676C80.6168 87.9693 81.1758 89.332 80.4445 88.4625ZM85.4525 91.6436C85.7379 91.625 85.4607 91.8604 85.4525 91.6436ZM79.7221 87.2893C79.8875 87.8471 79.7045 86.5658 79.7221 87.2893ZM79.2244 86.6195C79.9498 86.9344 78.6488 85.5076 79.2244 86.6195ZM73.1926 82.4565C73.5307 82.3662 73.359 83.0348 73.1926 82.4565ZM77.9932 85.0584C78.2371 85.7127 78.2008 84.2787 77.9932 85.0584ZM74.6017 82.7004C75.1018 83.1039 74.3627 82.2701 74.6017 82.7004ZM77.5123 83.6334C76.967 82.4117 77.8982 82.966 77.6328 83.8336L77.5123 83.6334ZM72.493 80.2859C72.2493 79.8854 71.8461 78.7094 71.9759 78.3504C72.0933 78.935 73.2191 80.8662 72.5281 79.1504C71.7645 77.7121 73.4408 79.6174 73.6133 79.976C73.6936 80.333 73.1422 79.8785 73.5158 80.7154C72.8344 79.7627 73.1136 81.2416 72.493 80.2859ZM70.9418 79.2172C71.2969 79.8561 71.0057 78.2854 70.9418 79.2172ZM71.6396 79.4572C72.2041 80.4377 71.9725 78.7541 71.6396 79.4572ZM69.9611 78.1588C69.3836 77.585 68.9656 77.0561 69.9881 77.8027C70.3821 77.8182 69.1128 76.5996 70.083 77.4158C71.1032 77.6018 70.5868 79.0885 69.9611 78.1588ZM70.8428 78.1357C71.1782 77.8035 71.0208 78.4631 70.8428 78.1357ZM71.3853 78.3098C72.0024 78.7094 70.8768 77.3566 71.3853 78.3098ZM70.3068 77.2791C68.6279 75.785 72.4165 78.0604 70.5811 77.5561L70.3068 77.2791ZM75.1171 80.074C74.3906 79.6385 74.9246 77.0072 75.1724 78.8068C75.8786 78.5783 75.1334 79.7361 75.6602 79.7254C75.5771 80.4559 75.3415 80.7186 75.1171 80.074ZM76.8963 81.1256C77.0463 81.6678 76.9676 80.3326 76.8963 81.1256ZM76.5873 80.8201C76.6674 80.4815 76.5956 81.2191 76.5873 80.8201ZM70.6361 76.7881C69.5576 75.3 73.7708 78.2934 71.327 77.1656C71.0716 77.0988 70.7644 77.075 70.6361 76.7881ZM74.0623 78.6047C74.2903 78.8123 73.9603 77.3518 74.0623 78.6047ZM76.6637 80.2734C76.8648 79.5596 76.6787 80.7455 76.6637 80.2734ZM70.8014 76.2201C71.4424 76.083 73.458 77.3461 71.607 76.5809C71.4014 76.3533 70.963 76.4566 70.8014 76.2201ZM76.3062 78.9639C76.3747 77.6826 76.6889 78.1984 76.3086 79.1473L76.3062 78.9639ZM71.2786 75.7744C71.5398 75.3912 70.5852 74.0421 71.4162 75.2904C71.7752 75.5758 72.4557 75.7684 71.8549 75.8885C72.7999 76.7221 71.6244 76.1143 71.2786 75.7744ZM76.0339 78.5637C76.2144 77.1041 76.1931 79.4188 76.0339 78.5637ZM70.7331 74.4263C70.9326 74.341 70.8384 74.6922 70.7331 74.4263ZM71.9735 75.1647C72.5624 75.9117 72.2927 74.4947 71.9735 75.1647ZM75.4723 77.1109C75.5384 77.4852 75.469 76.8537 75.4723 77.1109ZM75.2697 76.6623C75.7214 77.2967 74.784 75.4643 75.2697 76.6623ZM74.9715 75.8768C75.2485 76.4986 74.89 75.3816 74.9715 75.8768ZM75.4568 75.0879C75.1235 74.5006 75.8776 72.5 75.9617 73.7408C75.61 74.7076 75.8603 75.2484 76.1056 73.9517C76.5588 72.9311 76.0078 75.9656 75.4568 75.0879ZM75.9555 72.1126C76.1007 71.9342 75.9877 72.3275 75.9555 72.1126ZM75.1226 88.5231C75.1475 88.6328 74.9251 88.3506 75.1226 88.5231ZM76.8383 89.391C77.7926 89.6358 77.7877 89.2424 76.9252 89.1256C76.4613 88.694 74.9974 88.2363 76.3077 89.0721C76.3944 89.2918 76.6686 89.2867 76.8383 89.391ZM73.4499 87.1404C73.9757 87.5324 75.4303 88.2516 74.1989 87.2897C74.6141 86.8072 73.4043 86.5506 73.8056 86.2279C72.7848 85.6033 73.0004 85.6588 73.7155 85.6785C72.4887 85.1301 73.8926 85.1711 73.8265 84.8902C73.3535 84.7967 71.4769 84.0561 72.5809 84.951C71.4586 84.3789 72.3135 85.1643 71.9743 85.0813C70.8267 84.7682 72.9962 85.9551 71.792 85.6606C72.4503 86.1822 73.5641 86.9969 72.0703 86.2127C71.8735 86.4959 73.1393 86.9254 73.4499 87.1404ZM75.2443 88.1713C77.4262 88.8742 74.1747 87.3123 75.2443 88.1713ZM84.4297 93.7357C84.4578 93.3029 84.1316 94.1051 84.4297 93.7357ZM85.3738 94.1332C85.8771 93.6453 85.3943 94.9102 86.208 94.0137C86.2168 93.3721 86.1828 92.993 85.273 93.7725C85.0223 93.9115 84.9103 94.5029 85.3738 94.1332ZM70.3874 84.7215C70.2328 84.1137 69.3038 84.1168 70.3874 84.7215ZM71.3955 85.382C71.0212 84.7613 70.0598 84.8201 71.3955 85.382ZM77.1307 88.8408C77.6906 89.3381 79.7025 89.2057 77.8109 88.902C77.5307 88.4877 76.0318 88.5875 77.1307 88.8408ZM85.0148 93.7098C85.8766 92.9867 84.1797 94.0324 85.0148 93.7098ZM86.807 94.9414C86.8125 94.7094 86.4357 95.0432 86.807 94.9414ZM86.81 94.6166C87.7643 93.6055 85.8852 94.6764 86.81 94.6166ZM67.9079 82.6455C67.0945 81.485 67.4023 80.9633 66.6179 80.0158C66.4694 79.2912 65.2723 77.6467 65.9987 79.3889C66.6641 80.4076 66.8618 81.9852 67.9079 82.6455ZM86.5105 94.2951C88.2662 93.1604 85.7898 93.8008 86.5105 94.2951ZM87.8508 94.8203C88.7301 94.0652 87.2947 94.6623 87.8508 94.8203ZM70.0886 83.4387C70.3403 83.0643 69.4387 83.3906 70.0886 83.4387ZM87.5709 94.4617C88.4223 93.9129 87.3748 93.9971 87.4166 94.5123L87.5709 94.4617ZM76.0176 87.1797C75.9884 86.809 75.5681 87.2111 76.0176 87.1797ZM76.7316 87.5904C76.5047 87.1316 76.3828 87.6625 76.7316 87.5904ZM88.9369 94.8326C90.0275 94.0459 88.2758 94.682 88.708 94.9816L88.9369 94.8326ZM88.5193 94.6309C89.4078 93.8863 87.5812 94.9608 88.5193 94.6309ZM90.6531 96.0518C91.2496 95.6524 89.9283 95.9225 90.6531 96.0518ZM70.6357 83.1686C71.4353 83.3479 73.8311 85.1379 72.4177 83.2924C71.6938 83.0781 72.1279 81.3086 71.3895 81.6219C71.8852 82.4498 71.7973 82.8022 70.7568 82.2803C69.449 81.6418 70.0218 82.5965 70.2774 82.8598C69.9291 82.9389 70.7381 83.1619 70.6357 83.1686ZM66.9927 80.2916C67.1359 79.6996 65.6746 77.0344 66.3027 78.9563C66.5294 79.3588 66.5064 80.1217 66.9927 80.2916ZM73.6792 84.4139C73.6596 84.3652 73.2674 84.0695 73.6792 84.4139ZM74.6931 84.65C74.6926 84.0227 73.5723 84.3953 74.6931 84.65ZM83.4797 90.1891C83.3121 89.7606 82.8172 90.1791 83.4797 90.1891ZM83.9016 90.4973C83.8393 90.2574 83.6582 90.5436 83.9016 90.4973ZM87.3842 92.6908C87.7191 92.4434 86.9662 92.6594 87.3842 92.6908ZM68.8124 80.7563C69.7705 80.3852 67.7859 80.4916 68.8124 80.7563ZM82.7061 89.5094C82.6955 88.8891 82.0953 89.6631 82.7061 89.5094ZM68.4339 79.874C69.0493 79.6662 67.8646 79.7371 68.4339 79.874ZM70.2202 80.7395C70.209 80.5356 70.0312 80.8166 70.2202 80.7395ZM92.0074 94.0996C92.7988 93.9393 94.6021 94.5024 94.8937 93.8899C93.9326 93.8664 91.5687 93.2117 91.4568 94.0461L91.6674 94.0791L92.0074 94.0996ZM70.7879 80.8824C70.8016 80.2539 70.2978 80.859 70.7879 80.8824ZM66.0913 77.6246C65.878 76.427 65.2801 77.4434 66.0913 77.6246ZM67.2113 77.9061C67.225 77.5215 66.1862 77.56 67.2113 77.9061ZM67.8513 78.2203C67.7065 78.4098 67.6663 78.0705 67.8513 78.2203ZM71.8784 80.8037C72.068 80.6297 71.4296 80.6748 71.8784 80.8037ZM67.425 77.5115C67.3168 76.607 66.1278 77.376 67.425 77.5115ZM65.1289 76.0217C65.0962 75.6041 64.9052 76.1791 65.1289 76.0217ZM65.4704 75.7637C65.4147 75.2688 65.1772 75.8266 65.4704 75.7637ZM67.3575 76.89C68.1555 76.5766 65.904 76.2418 67.1945 76.8309L67.3575 76.89ZM92.6131 92.49C93.1238 92.0219 91.9641 92.3453 92.6131 92.49ZM95.6643 94.0717C95.8689 93.4662 95.1488 94.1514 95.6643 94.0717ZM67.5504 75.901C67.6344 75.3154 66.9178 76.0172 67.5504 75.901ZM64.8655 74.1022C64.7213 73.2754 64.741 71.8241 66.1206 72.3145C64.2791 72.6801 67.3951 74.6033 67.0016 73.0849C67.7759 73.1228 68.5163 72.6273 68.11 73.3793C69.6356 73.2108 70.6933 71.8879 72.1669 72.0732C73.3148 71.9213 74.5699 71.8061 75.8069 71.3441C76.8238 71.2708 77.8029 70.1758 77.2455 69.5267C75.8585 69.4094 74.4067 69.5829 72.8737 69.8876C71.175 70.2408 69.632 70.9117 67.918 71.1997C66.2473 71.4241 68.254 71.8181 67.7754 71.9058C66.9037 72.2083 68.8151 72.4123 67.6624 72.7311C66.9506 72.5958 66.2096 72.3512 66.5137 71.601C64.9134 71.8087 63.5071 72.4729 64.7715 74.1014L64.8655 74.1022ZM68.7217 72.1382C69.097 70.7559 70.732 73.2757 69.3368 72.3218C69.1701 72.1971 68.896 72.0953 68.7217 72.1382ZM68.7947 71.468C69.3363 71.0646 69.0826 71.6942 68.7947 71.468ZM69.4824 71.479C69.5313 70.8429 71.0565 71.8157 69.7339 71.7079L69.4824 71.479ZM70.423 71.1007C70.7665 70.6994 70.5218 71.4578 70.423 71.1007ZM70.6636 70.9396C71.2356 70.2524 73.9028 70.501 71.9505 70.8726C71.4272 70.4787 71.0261 71.1049 70.6636 70.9396ZM74.1444 70.4031C75.8736 71.0702 74.0574 68.5258 74.1444 70.4031ZM75.132 70.3977C75.4931 69.4515 76.5332 70.018 75.2991 70.2075C75.3259 70.3082 75.2629 70.696 75.132 70.3977ZM67.1609 75.4154C68.2398 74.7547 66.0156 74.8422 67.1609 75.4154ZM67.9586 75.6369C68.3369 75.2348 67.1367 75.4738 67.9586 75.6369ZM65.6082 73.9689C66.2247 73.4953 64.8787 73.7888 65.6082 73.9689ZM97.465 93.8986C97.483 93.3492 96.9939 94.1461 97.465 93.8986ZM94.2281 91.6895C94.3201 91.057 93.8121 91.7447 94.2281 91.6895ZM98.3553 94.1115C99.2172 94.1145 100.967 93.844 99.0914 93.8447C98.7971 93.8906 97.3768 93.8809 98.3553 94.1115ZM68.6603 75.2492C69.3579 75.2014 69.7517 74.4798 68.5254 74.5213C66.6249 74.3246 70.2022 75.1721 68.2816 74.9297C68.0235 75.1006 68.6453 75.2965 68.6603 75.2492ZM69.2747 75.5602C69.2018 75.1123 69.059 75.7982 69.2747 75.5602ZM70.0034 73.617C70.3061 73.2416 69.5845 73.5167 70.0034 73.617ZM67.6836 69.7393C68.9285 69.3158 70.6309 68.8399 71.2187 69.9478C70.6205 69.2278 70.9773 68.519 71.5423 69.5717C72.3412 70.6368 72.7412 69.0873 72.2216 68.73C72.8137 69.4658 73.4873 69.8135 72.618 68.7765C73.5626 67.6403 70.7267 68.9253 70.0821 68.9123C69.772 69.0515 66.8803 69.6498 67.6836 69.7393ZM68.4131 68.342C69.1231 67.8061 70.8687 68.6607 69.7486 67.8094C69.6391 67.7127 67.2955 68.455 68.4131 68.342ZM71.0015 68.4488C71.8325 68.47 70.6431 67.3325 71.6333 67.848C71.4707 67.3167 70.4805 67.2173 69.9963 67.005C69.7225 67.4907 70.5537 68.4554 71.0015 68.4488ZM68.867 66.0992C69.1545 65.7095 68.3632 66.2968 68.867 66.0992ZM69.9249 66.3524C71.264 66.1748 69.5836 65.7758 69.6551 66.3381L69.9249 66.3524ZM67.9496 64.8068C67.0067 63.5759 69.7227 65.0137 68.7648 63.7249C67.9585 63.0829 67.1838 64.4474 67.9496 64.8068ZM80.0496 71.3242C80.482 70.5576 78.2643 70.2908 79.7582 71.0525C79.8959 71.0985 79.8646 71.3772 80.0496 71.3242Z" fill="white"/>
</g>
<defs>
<filter id="filter0_d_30_335" x="0.891907" y="0.979962" width="163.102" height="163.102" filterUnits="userSpaceOnUse" color-interpolation-filters="sRGB">
<feFlood flood-opacity="0" result="BackgroundImageFix"/>
<feColorMatrix in="SourceAlpha" type="matrix" values="0 0 0 0 0 0 0 0 0 0 0 0 0 0 0 0 0 0 127 0" result="hardAlpha"/>
<feOffset dy="2.80681"/>
<feGaussianBlur stdDeviation="14.034"/>
<feComposite in2="hardAlpha" operator="out"/>
<feColorMatrix type="matrix" values="0 0 0 0 0.0367917 0 0 0 0 0.0348958 0 0 0 0 0.0484375 0 0 0 0.1 0"/>
<feBlend mode="normal" in2="BackgroundImageFix" result="effect1_dropShadow_30_335"/>
<feBlend mode="normal" in="SourceGraphic" in2="effect1_dropShadow_30_335" result="shape"/>
</filter>
<linearGradient id="paint0_linear_30_335" x1="82.4428" y1="26.2412" x2="82.4428" y2="133.207" gradientUnits="userSpaceOnUse">
<stop stop-color="#1A1B24"/>
<stop offset="1" stop-color="#0E0E1A"/>
</linearGradient>
<clipPath id="clip0_30_335">
<rect width="50" height="50" fill="white" transform="translate(57.126 55)"/>
</clipPath>
</defs>
</svg>
