<svg width="164" height="165" viewBox="0 0 164 165" fill="none" xmlns="http://www.w3.org/2000/svg">
<g filter="url(#filter0_d_8_1373)">
<rect x="28.9582" y="26.2412" width="106.966" height="106.966" rx="19.0161" fill="white"/>
<rect x="29.2553" y="26.5383" width="106.371" height="106.371" rx="18.719" stroke="#D9D9D9" stroke-width="0.594253"/>
</g>
<g clip-path="url(#clip0_8_1373)">
<path d="M95.4058 55H68.8433C62.3712 55 57.1245 60.2467 57.1245 66.7188V93.2812C57.1245 99.7533 62.3712 105 68.8433 105H95.4058C101.878 105 107.125 99.7533 107.125 93.2812V66.7188C107.125 60.2467 101.878 55 95.4058 55Z" fill="#242938"/>
<path d="M74.6592 92.8762C73.2455 91.7643 71.7375 90.6983 70.707 89.1971C68.5387 86.5498 66.8692 83.4848 65.7279 80.2641C65.038 78.1695 64.8018 75.9242 63.9125 73.9107C62.9821 72.4483 64.0719 70.8497 65.6737 70.3849C66.3869 70.248 67.6409 69.5753 66.1272 70.0561C64.7701 71.0518 64.6388 69.1523 66.0304 69.0321C66.9801 68.9058 67.3296 68.1284 67.0049 67.4285C65.9854 66.7637 69.4769 66.0331 67.7201 65.0412C65.8901 63.0667 70.28 62.6867 69.1969 64.929C68.9377 66.6533 72.2644 64.613 71.4925 66.6041C72.277 67.5603 74.4303 66.8218 74.3769 68.1632C75.5198 68.2418 75.912 69.2034 76.9849 69.2772C78.0968 69.7793 80.1124 70.175 80.4907 71.428C79.3876 72.3013 76.8333 69.624 76.7104 72.0415C77.0436 75.6127 76.9589 79.2916 78.2655 82.6924C78.8835 84.7516 80.3817 86.3727 81.7347 87.9764C83.0294 89.5471 84.7829 90.6529 86.5702 91.584C88.1382 92.3234 89.8284 92.8139 91.5372 93.1215C92.2302 92.5914 93.4538 90.6207 94.5351 91.4518C94.5862 92.3856 92.3892 93.4037 94.4315 93.3004C95.631 92.9387 96.4628 94.2281 97.4505 93.065C98.3604 94.1428 101.233 92.3764 100.585 94.5795C99.7097 95.1443 98.4327 94.8029 97.556 95.5799C96.1101 94.8578 94.9591 96.2262 93.3585 96.0531C91.581 96.3715 89.7726 96.5 87.9704 96.5027C85.014 96.2691 81.9948 96.1707 79.1823 95.1414C77.5979 94.6811 76.0518 93.7787 74.6592 92.8762ZM77.1561 93.958C78.7032 94.6272 80.2161 95.3322 81.9116 95.5449C84.6017 95.9191 87.3796 96.4945 90.0792 95.9697C88.8573 95.418 87.5942 96.1846 86.3769 95.5752C84.9171 95.8893 83.3503 95.4951 81.8663 95.301C80.1784 94.5492 78.3571 94.0324 76.7767 93.0565C74.8017 92.3352 77.7979 93.9816 78.3313 94.1149C79.5659 94.8156 76.9737 93.7557 76.6083 93.4645C75.5743 92.8844 75.4425 93.0057 76.5059 93.5947C76.72 93.7199 76.9317 93.8514 77.1561 93.958ZM74.2122 91.8775C75.7114 92.433 74.2056 90.8234 73.5186 90.9168C73.2142 90.3889 72.3557 90.0553 72.9613 89.7715C71.872 90.1498 71.8202 88.3334 71.3081 88.593C70.1557 88.2291 70.8596 86.9399 69.4868 86.1482C69.3615 85.3141 68.1229 84.5906 67.7279 83.3324C67.5534 82.6883 66.3285 80.8383 67.081 82.56C67.7216 84.2174 68.8488 85.6367 69.7869 87.0543C70.5152 88.4041 71.3753 89.8149 72.7018 90.657C73.149 91.0859 73.5807 91.7432 74.2122 91.8775ZM69.8933 87.1357C70.1675 87.6258 69.9456 86.9094 69.8933 87.1357ZM76.0077 92.5434C76.3396 92.3947 75.5303 92.3561 76.0077 92.5434ZM76.8216 92.8402C76.7372 92.4303 76.45 93.0693 76.8216 92.8402ZM77.8401 93.265C78.3251 92.8033 77.0927 92.974 77.8401 93.265ZM79.5862 94.2383C79.881 93.8025 78.6429 94.0738 79.5862 94.2383ZM76.2334 91.901C76.9866 91.4137 75.2605 91.8943 76.2334 91.901ZM76.9976 92.282C76.9763 92.0244 76.7253 92.3975 76.9976 92.282ZM80.8171 94.666C81.431 95.0535 84.4024 95.5152 82.5419 94.8248C82.2306 94.8904 79.0917 93.9371 80.8171 94.666ZM74.7536 89.9436C74.6939 89.6852 73.8005 89.6584 74.7536 89.9436ZM76.5317 90.9799C76.9944 90.6572 75.5712 90.7309 76.5317 90.9799ZM78.0272 91.8969C78.6913 91.6465 76.9501 91.6453 78.0272 91.8969ZM74.0301 89.1557C74.7505 89.7082 76.9356 89.2264 75.1334 88.8258C74.3131 88.3885 72.4644 88.0893 73.7245 89.0895L74.0301 89.1557ZM79.0403 92.2135C79.3403 91.7022 77.7817 91.9215 79.0403 92.2135ZM77.5179 91.0035C79.2796 91.502 76.0363 89.8895 77.0831 90.8201L77.3151 90.9252L77.5179 91.0035ZM80.5702 92.7678C82.2388 92.7838 79.0632 92.5377 80.5702 92.7678ZM73.3881 88.1902C73.3229 87.8795 72.9763 88.2164 73.3881 88.1902ZM83.3925 94.351C83.437 93.7897 82.8481 94.7686 83.3925 94.351ZM76.2354 89.934C76.1345 89.6385 75.7141 89.9219 76.2354 89.934ZM73.5463 87.9953C74.5042 87.9377 72.2349 87.5732 73.5463 87.9953ZM70.3607 85.9361C70.2415 85.477 69.3184 85.1107 70.3607 85.9361ZM78.7237 91.2436C78.6411 91.2873 78.5481 91.0434 78.7237 91.2436ZM83.929 94.4379C83.9124 94.132 83.6456 94.5535 83.929 94.4379ZM78.263 90.7678C78.3567 90.3738 77.4462 90.6484 78.263 90.7678ZM74.3851 88.3102C75.0977 88.2338 73.2435 87.8283 74.3851 88.3102ZM80.9448 92.3863C82.0554 91.9463 79.8626 92.1715 80.9448 92.3863ZM77.5327 90.0701C78.8126 90.2352 76.0099 89.1996 77.2519 89.9774L77.5327 90.0701ZM81.9808 92.8051C83.1757 92.0906 82.7817 94.4777 84.0081 93.0066C85.2177 92.1234 82.9634 94.0986 84.4542 93.1643C85.5323 92.4432 87.1247 93.5061 88.1308 93.8527C88.8542 93.8172 89.5573 94.4783 90.2991 94.0762C91.7267 93.6916 87.5073 93.5059 88.6134 92.8236C87.3069 93.2037 86.3419 92.3703 85.6991 91.5336C84.2337 91.1951 82.5395 90.4461 81.8083 89.1494C81.5101 88.6625 82.239 89.218 81.5509 88.4221C80.6679 87.6367 80.227 86.7453 79.6343 85.7906C78.9261 85.4129 78.8436 84.301 78.7722 85.7533C78.7776 84.8367 77.9171 84.2197 77.7071 84.4762C77.7034 83.5936 78.628 84.0359 77.9808 83.3828C77.8415 82.468 77.3827 81.5145 77.2448 80.4815C77.0306 79.9836 77.2145 78.9172 76.5136 80.0443C76.2582 81.2357 76.4288 78.5805 76.8259 79.4561C77.3474 78.5625 76.6388 78.6676 76.6098 78.7916C76.9493 78.0379 76.8247 76.9686 76.5212 77.3764C76.702 76.5773 76.8071 74.4359 76.2503 74.8154C76.5878 73.9799 76.8903 70.9922 75.4254 72.1313C74.8317 72.1396 73.8035 72.3468 73.3175 72.5885C74.8413 73.4285 73.1643 72.8919 72.544 72.7583C72.4631 73.5356 71.8487 73.1994 71.0812 73.207C72.3072 73.3587 70.4842 74.4609 69.7809 74.0328C68.8675 74.4693 70.5692 75.559 69.7992 75.8959C69.8938 76.4039 68.3999 75.7125 68.5172 76.8856C67.6305 76.5125 68.3951 78.277 68.8387 77.6803C70.3469 78.0885 69.9005 79.019 69.9389 79.9029C69.6931 80.4182 68.7257 78.6922 69.7234 78.7723C68.9363 77.4936 68.8527 78.31 68.1986 78.9041C68.0464 78.9471 69.867 79.7492 68.7245 80.1459C69.7297 80.301 69.7583 81.1805 69.9629 81.7371C70.5671 82.3664 70.4434 81.0424 71.1663 81.7984C70.7089 81.1248 68.7432 79.9002 70.3258 80.293C70.3174 79.6148 70.0396 79.0682 70.5245 79.0815C71.0046 78.2119 70.0216 81.2254 71.1039 80.1203C71.4035 79.9895 71.4777 79.2496 72.0162 80.19C72.7984 80.9596 72.2987 81.5172 71.1954 80.8125C71.3928 81.4822 72.6714 81.7215 72.4311 82.7688C72.6858 83.6897 73.0422 83.3506 73.3528 83.2973C73.5965 84.1922 73.7349 83.5342 73.7464 83.1082C74.8621 83.3471 74.6008 84.0066 74.9499 84.4674C75.7187 84.8145 73.8495 82.115 75.1694 83.6557C76.5581 84.9096 75.6902 85.433 74.444 85.232C75.2327 85.1684 75.4871 86.2984 76.4737 86.2588C77.3733 86.6867 77.9825 88.3307 76.4318 87.6463C75.8939 87.1613 73.9904 86.5631 75.5451 87.4856C76.981 88.1504 78.1214 88.5482 79.5063 89.3828C80.4974 90.0904 80.9255 90.9008 81.3013 91.0611C80.4683 91.459 78.7909 90.7436 80.0364 90.5242C79.2597 90.3828 78.3858 89.9899 79.13 90.9578C79.7626 91.4861 81.3716 91.4301 81.6601 91.4899C81.4155 92.0287 80.996 92.0715 81.67 92.1133C80.9181 92.5141 81.911 92.576 81.9808 92.8051ZM80.4431 88.4625C79.9854 87.984 79.8673 87.0877 80.3618 87.8676C80.6153 87.9693 81.1743 89.332 80.4431 88.4625ZM85.4511 91.6436C85.7364 91.625 85.4593 91.8604 85.4511 91.6436ZM79.7206 87.2893C79.886 87.8471 79.703 86.5658 79.7206 87.2893ZM79.2229 86.6195C79.9483 86.9344 78.6474 85.5076 79.2229 86.6195ZM73.1912 82.4565C73.5293 82.3662 73.3575 83.0348 73.1912 82.4565ZM77.9917 85.0584C78.2356 85.7127 78.1993 84.2787 77.9917 85.0584ZM74.6003 82.7004C75.1003 83.1039 74.3612 82.2701 74.6003 82.7004ZM77.5108 83.6334C76.9655 82.4117 77.8968 82.966 77.6313 83.8336L77.5108 83.6334ZM72.4916 80.2859C72.2478 79.8854 71.8446 78.7094 71.9744 78.3504C72.0918 78.935 73.2176 80.8662 72.5266 79.1504C71.763 77.7121 73.4394 79.6174 73.6118 79.976C73.6921 80.333 73.1407 79.8785 73.5143 80.7154C72.833 79.7627 73.1121 81.2416 72.4916 80.2859ZM70.9403 79.2172C71.2954 79.8561 71.0042 78.2854 70.9403 79.2172ZM71.6381 79.4572C72.2027 80.4377 71.9711 78.7541 71.6381 79.4572ZM69.9596 78.1588C69.3821 77.585 68.9642 77.0561 69.9867 77.8027C70.3806 77.8182 69.1113 76.5996 70.0815 77.4158C71.1017 77.6018 70.5853 79.0885 69.9596 78.1588ZM70.8413 78.1357C71.1767 77.8035 71.0194 78.4631 70.8413 78.1357ZM71.3838 78.3098C72.0009 78.7094 70.8753 77.3566 71.3838 78.3098ZM70.3053 77.2791C68.6264 75.785 72.415 78.0604 70.5796 77.5561L70.3053 77.2791ZM75.1157 80.074C74.3891 79.6385 74.9231 77.0072 75.1709 78.8068C75.8772 78.5783 75.1319 79.7361 75.6587 79.7254C75.5757 80.4559 75.34 80.7186 75.1157 80.074ZM76.8948 81.1256C77.0448 81.6678 76.9661 80.3326 76.8948 81.1256ZM76.5858 80.8201C76.6659 80.4815 76.5941 81.2191 76.5858 80.8201ZM70.6347 76.7881C69.5561 75.3 73.7693 78.2934 71.3255 77.1656C71.0701 77.0988 70.7629 77.075 70.6347 76.7881ZM74.0609 78.6047C74.2889 78.8123 73.9588 77.3518 74.0609 78.6047ZM76.6622 80.2734C76.8634 79.5596 76.6772 80.7455 76.6622 80.2734ZM70.7999 76.2201C71.441 76.083 73.4565 77.3461 71.6056 76.5809C71.3999 76.3533 70.9615 76.4566 70.7999 76.2201ZM76.3048 78.9639C76.3733 77.6826 76.6874 78.1984 76.3071 79.1473L76.3048 78.9639ZM71.2771 75.7744C71.5383 75.3912 70.5837 74.0421 71.4147 75.2904C71.7737 75.5758 72.4543 75.7684 71.8534 75.8885C72.7984 76.7221 71.6229 76.1143 71.2771 75.7744ZM76.0325 78.5637C76.2129 77.1041 76.1916 79.4188 76.0325 78.5637ZM70.7316 74.4263C70.9311 74.341 70.837 74.6922 70.7316 74.4263ZM71.972 75.1647C72.5609 75.9117 72.2912 74.4947 71.972 75.1647ZM75.4709 77.1109C75.5369 77.4852 75.4675 76.8537 75.4709 77.1109ZM75.2682 76.6623C75.7199 77.2967 74.7826 75.4643 75.2682 76.6623ZM74.97 75.8768C75.2471 76.4986 74.8885 75.3816 74.97 75.8768ZM75.4553 75.0879C75.122 74.5006 75.8761 72.5 75.9603 73.7408C75.6085 74.7076 75.8588 75.2484 76.1042 73.9517C76.5573 72.9311 76.0063 75.9656 75.4553 75.0879ZM75.954 72.1126C76.0993 71.9342 75.9862 72.3275 75.954 72.1126ZM75.1212 88.5231C75.146 88.6328 74.9236 88.3506 75.1212 88.5231ZM76.8368 89.391C77.7911 89.6358 77.7862 89.2424 76.9237 89.1256C76.4598 88.694 74.996 88.2363 76.3062 89.0721C76.393 89.2918 76.6671 89.2867 76.8368 89.391ZM73.4485 87.1404C73.9742 87.5324 75.4288 88.2516 74.1975 87.2897C74.6126 86.8072 73.4028 86.5506 73.8041 86.2279C72.7834 85.6033 72.9989 85.6588 73.714 85.6785C72.4873 85.1301 73.8911 85.1711 73.825 84.8902C73.352 84.7967 71.4755 84.0561 72.5794 84.951C71.4572 84.3789 72.312 85.1643 71.9728 85.0813C70.8252 84.7682 72.9948 85.9551 71.7905 85.6606C72.4489 86.1822 73.5626 86.9969 72.0689 86.2127C71.8721 86.4959 73.1378 86.9254 73.4485 87.1404ZM75.2428 88.1713C77.4247 88.8742 74.1732 87.3123 75.2428 88.1713ZM84.4282 93.7357C84.4563 93.3029 84.1302 94.1051 84.4282 93.7357ZM85.3724 94.1332C85.8757 93.6453 85.3929 94.9102 86.2065 94.0137C86.2153 93.3721 86.1813 92.993 85.2716 93.7725C85.0208 93.9115 84.9089 94.5029 85.3724 94.1332ZM70.386 84.7215C70.2314 84.1137 69.3024 84.1168 70.386 84.7215ZM71.3941 85.382C71.0197 84.7613 70.0584 84.8201 71.3941 85.382ZM77.1292 88.8408C77.6892 89.3381 79.7011 89.2057 77.8095 88.902C77.5292 88.4877 76.0304 88.5875 77.1292 88.8408ZM85.0134 93.7098C85.8751 92.9867 84.1782 94.0324 85.0134 93.7098ZM86.8056 94.9414C86.811 94.7094 86.4343 95.0432 86.8056 94.9414ZM86.8085 94.6166C87.7628 93.6055 85.8837 94.6764 86.8085 94.6166ZM67.9065 82.6455C67.0931 81.485 67.4008 80.9633 66.6164 80.0158C66.4679 79.2912 65.2708 77.6467 65.9973 79.3889C66.6626 80.4076 66.8604 81.9852 67.9065 82.6455ZM86.5091 94.2951C88.2647 93.1604 85.7884 93.8008 86.5091 94.2951ZM87.8493 94.8203C88.7286 94.0652 87.2933 94.6623 87.8493 94.8203ZM70.0871 83.4387C70.3388 83.0643 69.4373 83.3906 70.0871 83.4387ZM87.5694 94.4617C88.4208 93.9129 87.3733 93.9971 87.4151 94.5123L87.5694 94.4617ZM76.0162 87.1797C75.9869 86.809 75.5666 87.2111 76.0162 87.1797ZM76.7302 87.5904C76.5032 87.1316 76.3813 87.6625 76.7302 87.5904ZM88.9354 94.8326C90.0261 94.0459 88.2743 94.682 88.7065 94.9816L88.9354 94.8326ZM88.5179 94.6309C89.4063 93.8863 87.5798 94.9608 88.5179 94.6309ZM90.6517 96.0518C91.2481 95.6524 89.9268 95.9225 90.6517 96.0518ZM70.6342 83.1686C71.4338 83.3479 73.8297 85.1379 72.4162 83.2924C71.6923 83.0781 72.1265 81.3086 71.3881 81.6219C71.8837 82.4498 71.7958 82.8022 70.7553 82.2803C69.4475 81.6418 70.0203 82.5965 70.2759 82.8598C69.9276 82.9389 70.7367 83.1619 70.6342 83.1686ZM66.9912 80.2916C67.1344 79.6996 65.6732 77.0344 66.3012 78.9563C66.5279 79.3588 66.5049 80.1217 66.9912 80.2916ZM73.6777 84.4139C73.6581 84.3652 73.266 84.0695 73.6777 84.4139ZM74.6916 84.65C74.6911 84.0227 73.5709 84.3953 74.6916 84.65ZM83.4782 90.1891C83.3106 89.7606 82.8157 90.1791 83.4782 90.1891ZM83.9001 90.4973C83.8378 90.2574 83.6567 90.5436 83.9001 90.4973ZM87.3827 92.6908C87.7177 92.4434 86.9647 92.6594 87.3827 92.6908ZM68.811 80.7563C69.769 80.3852 67.7845 80.4916 68.811 80.7563ZM82.7046 89.5094C82.694 88.8891 82.0938 89.6631 82.7046 89.5094ZM68.4324 79.874C69.0478 79.6662 67.8631 79.7371 68.4324 79.874ZM70.2187 80.7395C70.2075 80.5356 70.0297 80.8166 70.2187 80.7395ZM92.006 94.0996C92.7974 93.9393 94.6007 94.5024 94.8923 93.8899C93.9311 93.8664 91.5673 93.2117 91.4554 94.0461L91.6659 94.0791L92.006 94.0996ZM70.7864 80.8824C70.8002 80.2539 70.2963 80.859 70.7864 80.8824ZM66.0898 77.6246C65.8765 76.427 65.2786 77.4434 66.0898 77.6246ZM67.2098 77.9061C67.2236 77.5215 66.1847 77.56 67.2098 77.9061ZM67.8498 78.2203C67.705 78.4098 67.6648 78.0705 67.8498 78.2203ZM71.877 80.8037C72.0666 80.6297 71.4281 80.6748 71.877 80.8037ZM67.4235 77.5115C67.3153 76.607 66.1264 77.376 67.4235 77.5115ZM65.1274 76.0217C65.0948 75.6041 64.9037 76.1791 65.1274 76.0217ZM65.469 75.7637C65.4133 75.2688 65.1757 75.8266 65.469 75.7637ZM67.3561 76.89C68.154 76.5766 65.9026 76.2418 67.193 76.8309L67.3561 76.89ZM92.6116 92.49C93.1224 92.0219 91.9626 92.3453 92.6116 92.49ZM95.6628 94.0717C95.8675 93.4662 95.1474 94.1514 95.6628 94.0717ZM67.5489 75.901C67.633 75.3154 66.9163 76.0172 67.5489 75.901ZM64.8641 74.1022C64.7198 73.2754 64.7395 71.8241 66.1191 72.3145C64.2776 72.6801 67.3936 74.6033 67.0001 73.0849C67.7745 73.1228 68.5149 72.6273 68.1085 73.3793C69.6341 73.2108 70.6918 71.8879 72.1654 72.0732C73.3133 71.9213 74.5684 71.8061 75.8054 71.3441C76.8224 71.2708 77.8015 70.1758 77.244 69.5267C75.857 69.4094 74.4052 69.5829 72.8722 69.8876C71.1735 70.2408 69.6305 70.9117 67.9165 71.1997C66.2459 71.4241 68.2525 71.8181 67.774 71.9058C66.9022 72.2083 68.8137 72.4123 67.661 72.7311C66.9491 72.5958 66.2081 72.3512 66.5122 71.601C64.9119 71.8087 63.5057 72.4729 64.77 74.1014L64.8641 74.1022ZM68.7203 72.1382C69.0955 70.7559 70.7305 73.2757 69.3353 72.3218C69.1686 72.1971 68.8945 72.0953 68.7203 72.1382ZM68.7933 71.468C69.3348 71.0646 69.0811 71.6942 68.7933 71.468ZM69.4809 71.479C69.5298 70.8429 71.0551 71.8157 69.7324 71.7079L69.4809 71.479ZM70.4216 71.1007C70.7651 70.6994 70.5203 71.4578 70.4216 71.1007ZM70.6622 70.9396C71.2342 70.2524 73.9013 70.501 71.9491 70.8726C71.4258 70.4787 71.0247 71.1049 70.6622 70.9396ZM74.1429 70.4031C75.8722 71.0702 74.0559 68.5258 74.1429 70.4031ZM75.1305 70.3977C75.4916 69.4515 76.5318 70.018 75.2976 70.2075C75.3244 70.3082 75.2614 70.696 75.1305 70.3977ZM67.1595 75.4154C68.2383 74.7547 66.0141 74.8422 67.1595 75.4154ZM67.9572 75.6369C68.3354 75.2348 67.1353 75.4738 67.9572 75.6369ZM65.6067 73.9689C66.2232 73.4953 64.8772 73.7888 65.6067 73.9689ZM97.4636 93.8986C97.4815 93.3492 96.9925 94.1461 97.4636 93.8986ZM94.2267 91.6895C94.3186 91.057 93.8106 91.7447 94.2267 91.6895ZM98.3538 94.1115C99.2157 94.1145 100.965 93.844 99.0899 93.8447C98.7956 93.8906 97.3753 93.8809 98.3538 94.1115ZM68.6589 75.2492C69.3564 75.2014 69.7502 74.4798 68.5239 74.5213C66.6234 74.3246 70.2007 75.1721 68.2802 74.9297C68.0221 75.1006 68.6439 75.2965 68.6589 75.2492ZM69.2732 75.5602C69.2004 75.1123 69.0575 75.7982 69.2732 75.5602ZM70.0019 73.617C70.3046 73.2416 69.5831 73.5167 70.0019 73.617ZM67.6821 69.7393C68.927 69.3158 70.6294 68.8399 71.2172 69.9478C70.619 69.2278 70.9758 68.519 71.5408 69.5717C72.3398 70.6368 72.7397 69.0873 72.2201 68.73C72.8123 69.4658 73.4858 69.8135 72.6166 68.7765C73.5611 67.6403 70.7253 68.9253 70.0807 68.9123C69.7705 69.0515 66.8788 69.6498 67.6821 69.7393ZM68.4117 68.342C69.1217 67.8061 70.8672 68.6607 69.7471 67.8094C69.6376 67.7127 67.2941 68.455 68.4117 68.342ZM71.0001 68.4488C71.831 68.47 70.6417 67.3325 71.6318 67.848C71.4692 67.3167 70.479 67.2173 69.9949 67.005C69.7211 67.4907 70.5522 68.4554 71.0001 68.4488ZM68.8655 66.0992C69.153 65.7095 68.3617 66.2968 68.8655 66.0992ZM69.9235 66.3524C71.2625 66.1748 69.5821 65.7758 69.6536 66.3381L69.9235 66.3524ZM67.9481 64.8068C67.0053 63.5759 69.7213 65.0137 68.7633 63.7249C67.9571 63.0829 67.1823 64.4474 67.9481 64.8068ZM80.0481 71.3242C80.4806 70.5576 78.2628 70.2908 79.7567 71.0525C79.8944 71.0985 79.8632 71.3772 80.0481 71.3242Z" fill="white"/>
</g>
<path d="M64.4628 159.851V148.298H69.4545V150.024H67.0157V152.934H69.1408V154.716H67.0157V159.851H64.4628ZM71.0746 159.851V148.298H73.6275V158.125H76.2803V159.851H71.0746ZM77.2695 159.851L79.4516 148.298H82.361L84.5146 159.851H82.1614L81.7763 157.412H80.0791L79.6798 159.851H77.2695ZM80.3073 155.886H81.5338L80.9206 151.379L80.3073 155.886ZM89.0638 160.022C88.3412 160.022 87.7374 159.893 87.2525 159.637C86.7676 159.38 86.4015 158.985 86.1543 158.453C85.9071 157.911 85.7692 157.212 85.7407 156.356L87.9228 156.028C87.9323 156.523 87.9751 156.922 88.0512 157.226C88.1367 157.531 88.2508 157.749 88.3935 157.883C88.5456 158.016 88.7262 158.082 88.9354 158.082C89.2016 158.082 89.3728 157.992 89.4489 157.811C89.5344 157.631 89.5772 157.44 89.5772 157.241C89.5772 156.765 89.4631 156.366 89.2349 156.043C89.0067 155.71 88.6977 155.377 88.3079 155.044L87.3095 154.174C86.8722 153.804 86.5014 153.385 86.1971 152.919C85.9023 152.444 85.755 151.859 85.755 151.165C85.755 150.186 86.045 149.439 86.625 148.926C87.205 148.403 87.9941 148.142 88.9925 148.142C89.6105 148.142 90.1049 148.246 90.4757 148.455C90.856 148.664 91.1413 148.94 91.3314 149.283C91.5311 149.615 91.6642 149.972 91.7308 150.352C91.8068 150.723 91.8496 151.08 91.8591 151.422L89.6628 151.693C89.6533 151.351 89.6295 151.056 89.5915 150.809C89.5629 150.552 89.4964 150.357 89.3918 150.224C89.2872 150.081 89.1256 150.01 88.9069 150.01C88.6692 150.01 88.4933 150.11 88.3792 150.309C88.2746 150.509 88.2223 150.709 88.2223 150.908C88.2223 151.336 88.3221 151.688 88.5218 151.964C88.731 152.23 89.002 152.51 89.3348 152.805L90.2903 153.647C90.7942 154.075 91.2173 154.559 91.5596 155.101C91.9114 155.643 92.0873 156.314 92.0873 157.112C92.0873 157.654 91.9637 158.149 91.7165 158.596C91.4693 159.033 91.1175 159.38 90.6611 159.637C90.2142 159.893 89.6818 160.022 89.0638 160.022ZM93.7513 159.851V148.298H96.3042V153.019L98.2439 148.298H100.74L98.6004 153.518L100.84 159.851H98.2439L96.5752 154.745L96.3042 155.201V159.851H93.7513Z" fill="white"/>
<defs>
<filter id="filter0_d_8_1373" x="0.890167" y="0.979932" width="163.102" height="163.102" filterUnits="userSpaceOnUse" color-interpolation-filters="sRGB">
<feFlood flood-opacity="0" result="BackgroundImageFix"/>
<feColorMatrix in="SourceAlpha" type="matrix" values="0 0 0 0 0 0 0 0 0 0 0 0 0 0 0 0 0 0 127 0" result="hardAlpha"/>
<feOffset dy="2.80681"/>
<feGaussianBlur stdDeviation="14.034"/>
<feComposite in2="hardAlpha" operator="out"/>
<feColorMatrix type="matrix" values="0 0 0 0 0.0367917 0 0 0 0 0.0348958 0 0 0 0 0.0484375 0 0 0 0.1 0"/>
<feBlend mode="normal" in2="BackgroundImageFix" result="effect1_dropShadow_8_1373"/>
<feBlend mode="normal" in="SourceGraphic" in2="effect1_dropShadow_8_1373" result="shape"/>
</filter>
<clipPath id="clip0_8_1373">
<rect width="50" height="50" fill="white" transform="translate(57.1245 55)"/>
</clipPath>
</defs>
</svg>
