<svg width="164" height="164" viewBox="0 0 164 164" fill="none" xmlns="http://www.w3.org/2000/svg">
<g filter="url(#filter0_d_8_1377)">
<rect x="28.1496" y="26.0922" width="106.966" height="106.966" rx="19.0161" fill="white"/>
<rect x="28.4468" y="26.3893" width="106.371" height="106.371" rx="18.719" stroke="#D9D9D9" stroke-width="0.594253"/>
</g>
<g clip-path="url(#clip0_8_1377)">
<path d="M94.5972 54.851H68.0347C61.5626 54.851 56.3159 60.0977 56.3159 66.5698V93.1323C56.3159 99.6044 61.5626 104.851 68.0347 104.851H94.5972C101.069 104.851 106.316 99.6044 106.316 93.1323V66.5698C106.316 60.0977 101.069 54.851 94.5972 54.851Z" fill="#242938"/>
<path d="M81.3161 60.7104C70.5306 60.7104 61.7847 69.4547 61.7847 80.2418C61.7847 88.8713 67.381 96.1924 75.1414 98.775C76.1175 98.9559 76.4759 98.3514 76.4759 97.8356C76.4759 97.3698 76.4577 95.8313 76.4493 94.1993C71.0157 95.3807 69.8692 91.8948 69.8692 91.8948C68.9807 89.6371 67.7006 89.037 67.7006 89.037C65.9285 87.8246 67.8341 87.8496 67.8341 87.8496C69.7954 87.9873 70.8281 89.8623 70.8281 89.8623C72.5702 92.8483 75.3973 91.985 76.5118 91.486C76.6872 90.2235 77.1933 89.362 77.7519 88.8743C73.4137 88.3803 68.8533 86.7055 68.8533 79.2217C68.8533 77.0893 69.6162 75.3469 70.8657 73.9792C70.6629 73.4872 69.9943 71.5007 71.0549 68.8104C71.0549 68.8104 72.695 68.2855 76.4274 70.8125C77.9854 70.3797 79.6562 70.1627 81.3161 70.1553C82.9759 70.1627 84.6481 70.3797 86.2089 70.8125C89.9368 68.2855 91.5747 68.8104 91.5747 68.8104C92.6378 71.5007 91.969 73.4872 91.7661 73.9792C93.0185 75.3469 93.7763 77.0893 93.7763 79.2217C93.7763 86.7235 89.2071 88.3752 84.8579 88.8586C85.5585 89.4649 86.1827 90.6534 86.1827 92.4756C86.1827 95.0889 86.1601 97.1922 86.1601 97.8356C86.1601 98.3553 86.5116 98.9643 87.5017 98.7725C95.2579 96.187 100.847 88.8684 100.847 80.2418C100.847 69.4547 92.1024 60.7104 81.3161 60.7104ZM69.0998 88.5332C69.0568 88.6303 68.9041 88.6594 68.7651 88.5928C68.6234 88.5291 68.5438 88.3967 68.5898 88.2995C68.6318 88.1995 68.7848 88.1717 68.9261 88.2387C69.0681 88.3024 69.149 88.436 69.0998 88.5332ZM70.0605 89.3905C69.9674 89.477 69.7853 89.4368 69.6618 89.3002C69.534 89.1641 69.5101 88.9821 69.6045 88.8944C69.7006 88.808 69.8772 88.8485 70.0052 88.9846C70.133 89.1225 70.1579 89.3032 70.0605 89.3905ZM70.7196 90.4873C70.6 90.5705 70.4043 90.4926 70.2833 90.3188C70.1637 90.1452 70.1637 89.937 70.2859 89.8534C70.4072 89.77 70.6 89.845 70.7226 90.0174C70.8419 90.194 70.8419 90.4024 70.7196 90.4873ZM71.8343 91.7577C71.7273 91.8756 71.4992 91.844 71.3323 91.6828C71.1616 91.5254 71.114 91.302 71.2214 91.1838C71.3298 91.0655 71.5591 91.0989 71.7273 91.2586C71.8967 91.4157 71.9485 91.6409 71.8343 91.7577ZM73.2749 92.1864C73.2277 92.3395 73.0081 92.409 72.7869 92.344C72.566 92.277 72.4214 92.0979 72.466 91.9432C72.512 91.7893 72.7325 91.7168 72.9554 91.7864C73.176 91.853 73.3208 92.0309 73.2749 92.1864ZM74.9144 92.3684C74.9199 92.5293 74.7323 92.6629 74.5001 92.6659C74.2666 92.6711 74.0777 92.5407 74.0751 92.3823C74.0751 92.2196 74.2585 92.0873 74.492 92.0834C74.7242 92.0789 74.9144 92.2082 74.9144 92.3684ZM76.5249 92.3067C76.5528 92.4637 76.3915 92.6252 76.1608 92.6682C75.9341 92.7096 75.7242 92.6125 75.6954 92.4567C75.6672 92.2955 75.8315 92.1342 76.0579 92.0924C76.289 92.0524 76.4956 92.1469 76.5249 92.3067Z" fill="white"/>
</g>
<path d="M62.5762 159.873C61.7776 159.873 61.1453 159.706 60.6794 159.374C60.223 159.041 59.895 158.575 59.6953 157.976C59.5051 157.367 59.4101 156.669 59.4101 155.879V152C59.4101 151.183 59.5146 150.474 59.7238 149.875C59.933 149.276 60.2896 148.815 60.7935 148.492C61.3069 148.159 62.001 147.993 62.8757 147.993C63.7315 147.993 64.4018 148.135 64.8867 148.42C65.3811 148.706 65.7329 149.1 65.9421 149.604C66.1513 150.108 66.2559 150.698 66.2559 151.373V152.114H63.76V151.173C63.76 150.926 63.741 150.698 63.7029 150.488C63.6744 150.279 63.5984 150.113 63.4748 149.989C63.3607 149.856 63.1705 149.79 62.9043 149.79C62.6285 149.79 62.4289 149.866 62.3053 150.018C62.1817 150.16 62.1008 150.341 62.0628 150.56C62.0343 150.778 62.02 151.007 62.02 151.244V156.593C62.02 156.849 62.0438 157.092 62.0913 157.32C62.1484 157.539 62.2435 157.719 62.3766 157.862C62.5192 157.995 62.7189 158.062 62.9756 158.062C63.2418 158.062 63.4462 157.99 63.5888 157.848C63.7315 157.705 63.8313 157.52 63.8884 157.291C63.9454 157.063 63.9739 156.821 63.9739 156.564V155.209H62.9328V153.712H66.2701V159.702H64.5872L64.4446 158.746C64.2924 159.069 64.069 159.34 63.7743 159.559C63.4795 159.768 63.0802 159.873 62.5762 159.873ZM68.31 159.702V148.149H70.863V159.702H68.31ZM74.0545 159.702V150.046H72.3146V148.149H78.3474V150.046H76.6217V159.702H74.0545ZM79.8351 159.702V148.149H82.3881V152.827H84.1708V148.149H86.738V159.702H84.1708V154.653H82.3881V159.702H79.8351ZM92.2624 159.873C91.3782 159.873 90.6841 159.73 90.1802 159.445C89.6857 159.15 89.3387 158.727 89.139 158.176C88.9394 157.615 88.8395 156.93 88.8395 156.122V148.149H91.3639V156.507C91.3639 156.745 91.3829 156.982 91.421 157.22C91.459 157.458 91.5398 157.653 91.6634 157.805C91.7965 157.957 91.9962 158.033 92.2624 158.033C92.5382 158.033 92.7378 157.957 92.8614 157.805C92.985 157.653 93.0611 157.458 93.0896 157.22C93.1277 156.982 93.1467 156.745 93.1467 156.507V148.149H95.6853V156.122C95.6853 156.93 95.5807 157.615 95.3716 158.176C95.1719 158.727 94.8248 159.15 94.3304 159.445C93.836 159.73 93.1467 159.873 92.2624 159.873ZM97.7375 159.702V148.149H100.747C101.241 148.149 101.707 148.187 102.144 148.264C102.591 148.34 102.986 148.487 103.328 148.706C103.671 148.915 103.937 149.219 104.127 149.618C104.327 150.008 104.426 150.526 104.426 151.173C104.426 151.639 104.355 152.033 104.212 152.357C104.079 152.671 103.884 152.922 103.628 153.113C103.381 153.303 103.081 153.431 102.729 153.498C103.176 153.555 103.552 153.702 103.856 153.94C104.16 154.168 104.388 154.477 104.541 154.867C104.702 155.257 104.783 155.727 104.783 156.279C104.783 156.878 104.702 157.396 104.541 157.833C104.388 158.261 104.165 158.613 103.87 158.889C103.575 159.165 103.209 159.369 102.772 159.502C102.344 159.635 101.85 159.702 101.289 159.702H97.7375ZM100.29 157.919H100.832C101.393 157.919 101.778 157.776 101.988 157.491C102.206 157.206 102.316 156.788 102.316 156.236C102.316 155.799 102.268 155.452 102.173 155.195C102.078 154.938 101.921 154.753 101.702 154.639C101.484 154.515 101.189 154.453 100.818 154.453H100.29V157.919ZM100.29 152.77H100.79C101.179 152.77 101.474 152.713 101.674 152.599C101.874 152.476 102.007 152.3 102.073 152.072C102.149 151.843 102.187 151.568 102.187 151.244C102.187 150.94 102.13 150.688 102.016 150.488C101.912 150.279 101.75 150.122 101.531 150.018C101.322 149.913 101.056 149.861 100.733 149.861H100.29V152.77Z" fill="white"/>
<defs>
<filter id="filter0_d_8_1377" x="0.0815887" y="0.830945" width="163.102" height="163.102" filterUnits="userSpaceOnUse" color-interpolation-filters="sRGB">
<feFlood flood-opacity="0" result="BackgroundImageFix"/>
<feColorMatrix in="SourceAlpha" type="matrix" values="0 0 0 0 0 0 0 0 0 0 0 0 0 0 0 0 0 0 127 0" result="hardAlpha"/>
<feOffset dy="2.80681"/>
<feGaussianBlur stdDeviation="14.034"/>
<feComposite in2="hardAlpha" operator="out"/>
<feColorMatrix type="matrix" values="0 0 0 0 0.0367917 0 0 0 0 0.0348958 0 0 0 0 0.0484375 0 0 0 0.1 0"/>
<feBlend mode="normal" in2="BackgroundImageFix" result="effect1_dropShadow_8_1377"/>
<feBlend mode="normal" in="SourceGraphic" in2="effect1_dropShadow_8_1377" result="shape"/>
</filter>
<clipPath id="clip0_8_1377">
<rect width="50" height="50" fill="white" transform="translate(56.3159 54.851)"/>
</clipPath>
</defs>
</svg>
