<svg width="164" height="164" viewBox="0 0 164 164" fill="none" xmlns="http://www.w3.org/2000/svg">
<g filter="url(#filter0_d_30_419)">
<rect x="28.1514" y="25.4482" width="106.966" height="106.966" rx="19.0161" fill="url(#paint0_linear_30_419)"/>
<rect x="28.4485" y="25.7454" width="106.371" height="106.371" rx="18.719" stroke="#D9D9D9" stroke-opacity="0.33" stroke-width="0.594253"/>
</g>
<g clip-path="url(#clip0_30_419)">
<path d="M94.5986 54.207H68.0361C61.564 54.207 56.3174 59.4537 56.3174 65.9258V92.4883C56.3174 98.9604 61.564 104.207 68.0361 104.207H94.5986C101.071 104.207 106.317 98.9604 106.317 92.4883V65.9258C106.317 59.4537 101.071 54.207 94.5986 54.207Z" fill="#242938"/>
<path d="M81.3176 60.0664C70.5321 60.0664 61.7861 68.8107 61.7861 79.5979C61.7861 88.2273 67.3825 95.5484 75.1429 98.1311C76.1189 98.3119 76.4773 97.7074 76.4773 97.1916C76.4773 96.7258 76.4592 95.1873 76.4508 93.5553C71.0172 94.7367 69.8706 91.2508 69.8706 91.2508C68.9822 88.9932 67.702 88.393 67.702 88.393C65.9299 87.1807 67.8356 87.2057 67.8356 87.2057C69.7969 87.3434 70.8296 89.2184 70.8296 89.2184C72.5716 92.2043 75.3987 91.341 76.5133 90.842C76.6887 89.5795 77.1947 88.718 77.7533 88.2303C73.4151 87.7363 68.8547 86.0615 68.8547 78.5777C68.8547 76.4453 69.6177 74.7029 70.8671 73.3352C70.6643 72.8433 69.9958 70.8567 71.0563 68.1664C71.0563 68.1664 72.6965 67.6415 76.4289 70.1685C77.9869 69.7357 79.6576 69.5187 81.3176 69.5113C82.9773 69.5187 84.6496 69.7357 86.2104 70.1685C89.9383 67.6415 91.5762 68.1664 91.5762 68.1664C92.6393 70.8567 91.9705 72.8433 91.7676 73.3352C93.0199 74.7029 93.7777 76.4453 93.7777 78.5777C93.7777 86.0795 89.2086 87.7313 84.8594 88.2146C85.56 88.8209 86.1842 90.0094 86.1842 91.8316C86.1842 94.4449 86.1615 96.5482 86.1615 97.1916C86.1615 97.7113 86.5131 98.3203 87.5031 98.1285C95.2594 95.543 100.849 88.2244 100.849 79.5979C100.849 68.8107 92.1039 60.0664 81.3176 60.0664ZM69.1013 87.8893C69.0583 87.9863 68.9056 88.0154 68.7665 87.9488C68.6249 87.8852 68.5453 87.7527 68.5912 87.6555C68.6333 87.5555 68.7863 87.5277 68.9276 87.5947C69.0696 87.6584 69.1504 87.792 69.1013 87.8893ZM70.062 88.7465C69.9689 88.833 69.7868 88.7928 69.6632 88.6563C69.5355 88.5201 69.5115 88.3381 69.606 88.2504C69.702 88.1641 69.8786 88.2045 70.0067 88.3406C70.1345 88.4785 70.1594 88.6592 70.062 88.7465ZM70.7211 89.8434C70.6014 89.9266 70.4058 89.8486 70.2848 89.6748C70.1651 89.5012 70.1651 89.293 70.2874 89.2094C70.4087 89.126 70.6014 89.201 70.724 89.3734C70.8434 89.55 70.8434 89.7584 70.7211 89.8434ZM71.8358 91.1137C71.7287 91.2316 71.5007 91.2 71.3338 91.0389C71.163 90.8814 71.1155 90.658 71.2229 90.5398C71.3312 90.4215 71.5605 90.4549 71.7287 90.6146C71.8982 90.7717 71.9499 90.9969 71.8358 91.1137ZM73.2764 91.5424C73.2292 91.6955 73.0096 91.765 72.7883 91.7C72.5674 91.633 72.4229 91.4539 72.4675 91.2992C72.5134 91.1453 72.734 91.0729 72.9568 91.1424C73.1774 91.209 73.3223 91.3869 73.2764 91.5424ZM74.9159 91.7244C74.9213 91.8854 74.7338 92.0189 74.5015 92.0219C74.268 92.0271 74.0791 91.8967 74.0765 91.7383C74.0765 91.5756 74.2599 91.4434 74.4935 91.4395C74.7257 91.435 74.9159 91.5643 74.9159 91.7244ZM76.5264 91.6627C76.5543 91.8197 76.393 91.9812 76.1623 92.0242C75.9355 92.0656 75.7256 91.9686 75.6969 91.8127C75.6687 91.6516 75.833 91.4902 76.0594 91.4484C76.2904 91.4084 76.4971 91.5029 76.5264 91.6627Z" fill="white"/>
</g>
<defs>
<filter id="filter0_d_30_419" x="0.083313" y="0.186993" width="163.102" height="163.102" filterUnits="userSpaceOnUse" color-interpolation-filters="sRGB">
<feFlood flood-opacity="0" result="BackgroundImageFix"/>
<feColorMatrix in="SourceAlpha" type="matrix" values="0 0 0 0 0 0 0 0 0 0 0 0 0 0 0 0 0 0 127 0" result="hardAlpha"/>
<feOffset dy="2.80681"/>
<feGaussianBlur stdDeviation="14.034"/>
<feComposite in2="hardAlpha" operator="out"/>
<feColorMatrix type="matrix" values="0 0 0 0 0.0367917 0 0 0 0 0.0348958 0 0 0 0 0.0484375 0 0 0 0.1 0"/>
<feBlend mode="normal" in2="BackgroundImageFix" result="effect1_dropShadow_30_419"/>
<feBlend mode="normal" in="SourceGraphic" in2="effect1_dropShadow_30_419" result="shape"/>
</filter>
<linearGradient id="paint0_linear_30_419" x1="81.6342" y1="25.4482" x2="81.6342" y2="132.414" gradientUnits="userSpaceOnUse">
<stop stop-color="#1A1B24"/>
<stop offset="1" stop-color="#0E0E1A"/>
</linearGradient>
<clipPath id="clip0_30_419">
<rect width="50" height="50" fill="white" transform="translate(56.3174 54.207)"/>
</clipPath>
</defs>
</svg>
