<svg width="164" height="164" viewBox="0 0 164 164" fill="none" xmlns="http://www.w3.org/2000/svg">
<g filter="url(#filter0_d_8_1358)">
<rect x="28.1838" y="26.0922" width="106.966" height="106.966" rx="19.0161" fill="white"/>
<rect x="28.481" y="26.3893" width="106.371" height="106.371" rx="18.719" stroke="#D9D9D9" stroke-width="0.594253"/>
</g>
<path d="M62.0183 100.089V59.6129C62.0183 56.9832 64.1515 54.851 66.7826 54.851H97.7511C100.382 54.851 102.516 56.976 102.516 59.6058C102.516 69.151 102.516 90.5474 102.516 100.094C102.516 102.725 100.382 104.851 97.7511 104.851H66.7826C64.1515 104.851 62.0183 102.719 62.0183 100.089Z" fill="#7E57C2"/>
<path d="M87.3792 97.9711V78.114C87.3792 78.114 88.6715 73.3628 71.4613 80.058C71.4304 80.1426 71.4304 61.6961 71.4304 61.6961L77.0535 61.6616V73.4807C77.0535 73.4807 92.7975 67.283 92.7975 78.1807V97.97L87.3792 97.9711ZM90.5832 68.8152H84.6194C86.7657 66.1914 88.7096 61.6961 88.7096 61.6961H94.8771C94.8759 61.6973 93.8206 64.6259 90.5832 68.8152ZM71.5316 97.9366V86.6295L77.1893 92.2842L71.5316 97.9366Z" fill="white"/>
<path d="M57.6803 159.702V148.149H60.2332V152.827H62.016V148.149H64.5832V159.702H62.016V154.653H60.2332V159.702H57.6803ZM66.7703 159.702V148.149H71.9617V149.889H69.3232V152.756H71.3342V154.525H69.3232V157.976H71.9902V159.702H66.7703ZM73.5771 159.702V148.149H76.7575C77.5372 148.149 78.2123 148.235 78.7827 148.406C79.3532 148.577 79.7954 148.886 80.1091 149.333C80.4324 149.771 80.594 150.393 80.594 151.202C80.594 151.677 80.556 152.1 80.4799 152.471C80.4039 152.842 80.2612 153.165 80.0521 153.441C79.8524 153.707 79.5624 153.93 79.1821 154.111L80.7652 159.702H78.1267L76.8574 154.525H76.13V159.702H73.5771ZM76.13 153.056H76.8431C77.2044 153.056 77.4849 152.994 77.6846 152.87C77.8842 152.737 78.0221 152.552 78.0982 152.314C78.1837 152.067 78.2265 151.772 78.2265 151.43C78.2265 150.935 78.1362 150.55 77.9555 150.274C77.7749 149.999 77.4421 149.861 76.9572 149.861H76.13V153.056ZM85.754 159.873C84.8888 159.873 84.2042 159.721 83.7003 159.416C83.1963 159.112 82.835 158.675 82.6164 158.104C82.3977 157.534 82.2883 156.854 82.2883 156.065V151.772C82.2883 150.973 82.3977 150.294 82.6164 149.733C82.835 149.172 83.1963 148.744 83.7003 148.449C84.2042 148.145 84.8888 147.993 85.754 147.993C86.6287 147.993 87.3181 148.145 87.822 148.449C88.3354 148.744 88.7015 149.172 88.9202 149.733C89.1389 150.294 89.2482 150.973 89.2482 151.772V156.065C89.2482 156.854 89.1389 157.534 88.9202 158.104C88.7015 158.675 88.3354 159.112 87.822 159.416C87.3181 159.721 86.6287 159.873 85.754 159.873ZM85.754 158.062C86.0202 158.062 86.2151 157.995 86.3388 157.862C86.4624 157.729 86.5432 157.558 86.5812 157.348C86.6192 157.139 86.6383 156.925 86.6383 156.707V151.144C86.6383 150.916 86.6192 150.702 86.5812 150.503C86.5432 150.294 86.4624 150.122 86.3388 149.989C86.2151 149.856 86.0202 149.79 85.754 149.79C85.5068 149.79 85.3214 149.856 85.1978 149.989C85.0742 150.122 84.9934 150.294 84.9553 150.503C84.9173 150.702 84.8983 150.916 84.8983 151.144V156.707C84.8983 156.925 84.9125 157.139 84.9411 157.348C84.9791 157.558 85.0552 157.729 85.1693 157.862C85.2929 157.995 85.4878 158.062 85.754 158.062ZM91.2298 159.702V148.149H93.7827V152.87L95.7223 148.149H98.2182L96.0789 153.369L98.318 159.702H95.7223L94.0536 154.596L93.7827 155.052V159.702H91.2298ZM103.073 159.873C102.189 159.873 101.495 159.73 100.991 159.445C100.496 159.15 100.149 158.727 99.9497 158.176C99.75 157.615 99.6502 156.93 99.6502 156.122V148.149H102.175V156.507C102.175 156.745 102.194 156.982 102.232 157.22C102.27 157.458 102.35 157.653 102.474 157.805C102.607 157.957 102.807 158.033 103.073 158.033C103.349 158.033 103.548 157.957 103.672 157.805C103.796 157.653 103.872 157.458 103.9 157.22C103.938 156.982 103.957 156.745 103.957 156.507V148.149H106.496V156.122C106.496 156.93 106.391 157.615 106.182 158.176C105.983 158.727 105.635 159.15 105.141 159.445C104.647 159.73 103.957 159.873 103.073 159.873Z" fill="white"/>
<defs>
<filter id="filter0_d_8_1358" x="0.115784" y="0.830945" width="163.102" height="163.102" filterUnits="userSpaceOnUse" color-interpolation-filters="sRGB">
<feFlood flood-opacity="0" result="BackgroundImageFix"/>
<feColorMatrix in="SourceAlpha" type="matrix" values="0 0 0 0 0 0 0 0 0 0 0 0 0 0 0 0 0 0 127 0" result="hardAlpha"/>
<feOffset dy="2.80681"/>
<feGaussianBlur stdDeviation="14.034"/>
<feComposite in2="hardAlpha" operator="out"/>
<feColorMatrix type="matrix" values="0 0 0 0 0.0367917 0 0 0 0 0.0348958 0 0 0 0 0.0484375 0 0 0 0.1 0"/>
<feBlend mode="normal" in2="BackgroundImageFix" result="effect1_dropShadow_8_1358"/>
<feBlend mode="normal" in="SourceGraphic" in2="effect1_dropShadow_8_1358" result="shape"/>
</filter>
</defs>
</svg>
