<svg width="164" height="164" viewBox="0 0 164 164" fill="none" xmlns="http://www.w3.org/2000/svg">
<g filter="url(#filter0_d_8_1372)">
<rect x="28.4131" y="26.0922" width="106.966" height="106.966" rx="19.0161" fill="white"/>
<rect x="28.7102" y="26.3893" width="106.371" height="106.371" rx="18.719" stroke="#D9D9D9" stroke-width="0.594253"/>
</g>
<g clip-path="url(#clip0_8_1372)">
<path d="M71.9251 89.7885L62.4943 82.3108L67.1818 73.6055L80.6305 78.851L71.9251 89.7885Z" fill="url(#paint0_linear_8_1372)"/>
<path d="M101.11 69.755L100.385 92.3555L85.3739 98.3823L76.3336 92.5787L89.559 78.851L83.7555 66.1836L88.9451 59.9336L101.11 69.755Z" fill="url(#paint1_linear_8_1372)"/>
<path d="M101.11 69.755L89.2242 83.8176L83.7555 66.1836L88.9451 59.9336L101.11 69.755Z" fill="url(#paint2_linear_8_1372)"/>
<path d="M80.8537 91.7416L65.1729 97.4336L67.684 88.6166L70.9764 77.7907L62.0479 74.7774L67.684 59.3198L79.9607 60.8265L92.0145 74.61L80.8537 91.7416Z" fill="url(#paint3_linear_8_1372)"/>
<path d="M93.7999 66.8533H69.6929V90.9604H93.7999V66.8533Z" fill="black"/>
<path d="M80.9652 86.4403H71.925V87.9469H80.9652V86.4403Z" fill="white"/>
<path d="M78.4541 71.8197V69.9782H73.4318V71.8197H74.8827V78.1256H73.4318V79.967H78.4541V78.1256H77.059V71.8197H78.4541Z" fill="white"/>
<path d="M83.2531 80.1346C82.4719 80.1346 81.8023 79.967 81.3 79.6881C80.7979 79.409 80.3514 79.0183 80.0166 78.6277L81.4117 77.0652C81.6906 77.4002 81.9697 77.6232 82.2488 77.7908C82.5277 77.9582 82.8625 78.0697 83.1975 78.0697C83.5881 78.0697 83.9229 77.9582 84.202 77.6791C84.425 77.4002 84.5367 77.0096 84.5367 76.3957V69.9782H86.7687V76.5072C86.7687 77.1211 86.7131 77.6232 86.5457 78.0697C86.3781 78.5162 86.1551 78.851 85.8201 79.1857C85.5412 79.4648 85.1506 79.7439 84.7041 79.8555C84.2576 80.0228 83.8113 80.1346 83.2531 80.1346Z" fill="white"/>
</g>
<path d="M41.8295 159.702V148.149H44.3824V159.702H41.8295ZM46.5328 159.702V148.149H48.3298L50.6974 153.712V148.149H52.8081V159.702H51.0824L48.7149 153.712V159.702H46.5328ZM55.9964 159.702V150.046H54.2564V148.149H60.2893V150.046H58.5636V159.702H55.9964ZM61.7342 159.702V148.149H66.9256V149.889H64.2871V152.756H66.2981V154.525H64.2871V157.976H66.9541V159.702H61.7342ZM68.541 159.702V148.149H71.0939V157.976H73.7467V159.702H68.541ZM75.2921 159.702V148.149H77.845V157.976H80.4977V159.702H75.2921ZM82.0574 159.702V148.149H84.6104V159.702H82.0574ZM86.0905 160.001V158.218C86.3472 158.218 86.5659 158.204 86.7465 158.176C86.9272 158.147 87.0698 158.095 87.1744 158.019C87.279 157.933 87.3551 157.814 87.4026 157.662C87.4501 157.501 87.4739 157.296 87.4739 157.049V148.149H90.0268V157.163C90.0268 157.791 89.946 158.318 89.7844 158.746C89.6322 159.165 89.3613 159.478 88.9714 159.687C88.5816 159.897 88.0349 160.001 87.3313 160.001H86.0905ZM96.2521 159.702V148.149H98.805V159.702H96.2521ZM100.955 159.702V148.149H103.879C104.887 148.149 105.671 148.278 106.232 148.535C106.793 148.782 107.188 149.176 107.416 149.718C107.644 150.251 107.758 150.945 107.758 151.801V155.994C107.758 156.859 107.644 157.567 107.416 158.119C107.188 158.661 106.793 159.06 106.232 159.317C105.681 159.573 104.906 159.702 103.908 159.702H100.955ZM103.508 157.933H103.908C104.298 157.933 104.578 157.876 104.749 157.762C104.92 157.648 105.025 157.477 105.063 157.249C105.11 157.02 105.134 156.735 105.134 156.393V151.358C105.134 151.016 105.106 150.74 105.049 150.531C105.001 150.322 104.892 150.17 104.721 150.075C104.55 149.98 104.274 149.932 103.893 149.932H103.508V157.933ZM109.74 159.702V148.149H114.931V149.889H112.293V152.756H114.304V154.525H112.293V157.976H114.96V159.702H109.74ZM115.991 159.702L118.173 148.149H121.082L123.236 159.702H120.882L120.497 157.263H118.8L118.401 159.702H115.991ZM119.028 155.737H120.255L119.642 151.23L119.028 155.737Z" fill="white"/>
<defs>
<filter id="filter0_d_8_1372" x="0.345032" y="0.830914" width="163.102" height="163.102" filterUnits="userSpaceOnUse" color-interpolation-filters="sRGB">
<feFlood flood-opacity="0" result="BackgroundImageFix"/>
<feColorMatrix in="SourceAlpha" type="matrix" values="0 0 0 0 0 0 0 0 0 0 0 0 0 0 0 0 0 0 127 0" result="hardAlpha"/>
<feOffset dy="2.80681"/>
<feGaussianBlur stdDeviation="14.034"/>
<feComposite in2="hardAlpha" operator="out"/>
<feColorMatrix type="matrix" values="0 0 0 0 0.0367917 0 0 0 0 0.0348958 0 0 0 0 0.0484375 0 0 0 0.1 0"/>
<feBlend mode="normal" in2="BackgroundImageFix" result="effect1_dropShadow_8_1372"/>
<feBlend mode="normal" in="SourceGraphic" in2="effect1_dropShadow_8_1372" result="shape"/>
</filter>
<linearGradient id="paint0_linear_8_1372" x1="62.4885" y1="81.6911" x2="80.64" y2="81.6911" gradientUnits="userSpaceOnUse">
<stop offset="0.258" stop-color="#F97A12"/>
<stop offset="0.459" stop-color="#B07B58"/>
<stop offset="0.724" stop-color="#577BAE"/>
<stop offset="0.91" stop-color="#1E7CE5"/>
<stop offset="1" stop-color="#087CFA"/>
</linearGradient>
<linearGradient id="paint1_linear_8_1372" x1="76.427" y1="73.2038" x2="106.369" y2="89.7717" gradientUnits="userSpaceOnUse">
<stop stop-color="#F97A12"/>
<stop offset="0.072" stop-color="#CB7A3E"/>
<stop offset="0.154" stop-color="#9E7B6A"/>
<stop offset="0.242" stop-color="#757B91"/>
<stop offset="0.334" stop-color="#537BB1"/>
<stop offset="0.432" stop-color="#387CCC"/>
<stop offset="0.538" stop-color="#237CE0"/>
<stop offset="0.655" stop-color="#147CEF"/>
<stop offset="0.792" stop-color="#0B7CF7"/>
<stop offset="1" stop-color="#087CFA"/>
</linearGradient>
<linearGradient id="paint2_linear_8_1372" x1="97.3313" y1="83.268" x2="88.9955" y2="58.3604" gradientUnits="userSpaceOnUse">
<stop stop-color="#FE315D"/>
<stop offset="0.078" stop-color="#CB417E"/>
<stop offset="0.16" stop-color="#9E4E9B"/>
<stop offset="0.247" stop-color="#755BB4"/>
<stop offset="0.339" stop-color="#5365CA"/>
<stop offset="0.436" stop-color="#386DDB"/>
<stop offset="0.541" stop-color="#2374E9"/>
<stop offset="0.658" stop-color="#1478F3"/>
<stop offset="0.794" stop-color="#0B7BF8"/>
<stop offset="1" stop-color="#087CFA"/>
</linearGradient>
<linearGradient id="paint3_linear_8_1372" x1="68.0303" y1="68.5123" x2="93.032" y2="109.867" gradientUnits="userSpaceOnUse">
<stop stop-color="#FE315D"/>
<stop offset="0.04" stop-color="#F63462"/>
<stop offset="0.104" stop-color="#DF3A71"/>
<stop offset="0.167" stop-color="#C24383"/>
<stop offset="0.291" stop-color="#AD4A91"/>
<stop offset="0.55" stop-color="#755BB4"/>
<stop offset="0.917" stop-color="#1D76ED"/>
<stop offset="1" stop-color="#087CFA"/>
</linearGradient>
<clipPath id="clip0_8_1372">
<rect width="50" height="50" fill="white" transform="translate(56.5791 53.851)"/>
</clipPath>
</defs>
</svg>
