<svg width="164" height="165" viewBox="0 0 164 165" fill="none" xmlns="http://www.w3.org/2000/svg">
<g filter="url(#filter0_d_8_1376)">
<rect x="28.8337" y="26.2412" width="106.966" height="106.966" rx="19.0161" fill="white"/>
<rect x="29.1309" y="26.5383" width="106.371" height="106.371" rx="18.719" stroke="#D9D9D9" stroke-width="0.594253"/>
</g>
<g clip-path="url(#clip0_8_1376)">
<path d="M95.2812 55H68.7188C62.2467 55 57 60.2467 57 66.7188V93.2812C57 99.7533 62.2467 105 68.7188 105H95.2812C101.753 105 107 99.7533 107 93.2812V66.7188C107 60.2467 101.753 55 95.2812 55Z" fill="#242938"/>
<path d="M76.8504 90.6677C76.8504 90.6677 75.3505 91.5806 77.8943 91.8418C80.9662 92.2332 82.5904 92.1677 85.9816 91.516C85.9816 91.516 86.8945 92.1037 88.134 92.5597C80.5022 95.8207 70.8494 92.364 76.8504 90.6677ZM75.8721 86.4285C75.8721 86.4285 74.2413 87.6679 76.785 87.9283C80.1107 88.2543 82.7207 88.3197 87.2211 87.4074C87.2211 87.4074 87.8088 88.0599 88.7865 88.3859C79.5906 91.1252 69.2847 88.6463 75.8721 86.4291V86.4285ZM93.874 93.864C93.874 93.864 94.9826 94.7769 92.6346 95.4949C88.2643 96.7992 74.3067 97.1912 70.3933 95.4949C69.0242 94.9072 71.6328 94.0589 72.4802 93.9295C73.3284 93.7338 73.7845 93.7338 73.7845 93.7338C72.2846 92.69 63.8052 95.8861 69.4797 96.8058C85.0682 99.3502 97.9178 95.6972 93.8734 93.8707L93.874 93.864ZM77.5678 81.9927C77.5678 81.9927 70.458 83.689 75.0233 84.2754C76.9801 84.5357 80.8281 84.4711 84.4156 84.2099C87.3508 83.9494 90.2926 83.4273 90.2926 83.4273C90.2926 83.4273 89.2486 83.884 88.5314 84.3402C81.2855 86.2334 67.3927 85.3853 71.3716 83.4285C74.7642 81.7976 77.5678 81.9927 77.5678 81.9927ZM90.2857 89.1023C97.5918 85.3191 94.1992 81.6668 91.8512 82.1236C91.2635 82.2539 91.0031 82.3841 91.0031 82.3841C91.0031 82.3841 91.1986 81.9927 91.6555 81.8632C96.2861 80.2324 99.9393 86.755 90.1557 89.2988C90.1557 89.2988 90.2211 89.2334 90.2857 89.1031V89.1023ZM78.285 99.407C85.3293 99.8638 96.0912 99.1464 96.3523 95.8193C96.3523 95.8193 95.8314 97.1236 90.5477 98.1021C84.5473 99.2107 77.1109 99.0804 72.7414 98.3625C72.7414 98.3625 73.6543 99.1451 78.2856 99.4062L78.285 99.407Z" fill="white"/>
<path d="M85.8448 60.4688C85.8448 60.4688 89.8885 64.5779 81.9967 70.7733C75.6698 75.7953 80.561 78.6656 81.9967 81.926C78.279 78.6002 75.6057 75.6645 77.4309 72.925C80.1116 68.8834 87.4809 66.9266 85.8448 60.4688ZM83.7579 79.1879C85.6491 81.3402 83.237 83.2971 83.237 83.2971C83.237 83.2971 88.0633 80.8193 85.8462 77.7527C83.8239 74.8176 82.2587 73.3825 90.738 68.49C90.738 68.49 77.3669 71.8158 83.7592 79.1865L83.7579 79.1879Z" fill="#F58219"/>
</g>
<path d="M68.5672 160.15V158.367C68.8239 158.367 69.0426 158.353 69.2233 158.325C69.4039 158.296 69.5465 158.244 69.6511 158.168C69.7557 158.082 69.8318 157.963 69.8793 157.811C69.9269 157.65 69.9506 157.445 69.9506 157.198V148.298H72.5035V157.312C72.5035 157.94 72.4227 158.467 72.2611 158.895C72.109 159.314 71.838 159.627 71.4481 159.836C71.0583 160.046 70.5116 160.15 69.808 160.15H68.5672ZM74.0814 159.851L76.2635 148.298H79.173L81.3265 159.851H78.9733L78.5882 157.412H76.891L76.4917 159.851H74.0814ZM77.1192 155.886H78.3458L77.7325 151.379L77.1192 155.886ZM84.0154 159.851L81.9331 148.298H84.1152L85.356 156.143L86.5112 148.298H88.8217L86.7109 159.851H84.0154ZM89.4081 159.851L91.5902 148.298H94.4997L96.6533 159.851H94.3L93.9149 157.412H92.2177L91.8184 159.851H89.4081ZM92.4459 155.886H93.6725L93.0592 151.379L92.4459 155.886Z" fill="white"/>
<defs>
<filter id="filter0_d_8_1376" x="0.765686" y="0.979932" width="163.102" height="163.102" filterUnits="userSpaceOnUse" color-interpolation-filters="sRGB">
<feFlood flood-opacity="0" result="BackgroundImageFix"/>
<feColorMatrix in="SourceAlpha" type="matrix" values="0 0 0 0 0 0 0 0 0 0 0 0 0 0 0 0 0 0 127 0" result="hardAlpha"/>
<feOffset dy="2.80681"/>
<feGaussianBlur stdDeviation="14.034"/>
<feComposite in2="hardAlpha" operator="out"/>
<feColorMatrix type="matrix" values="0 0 0 0 0.0367917 0 0 0 0 0.0348958 0 0 0 0 0.0484375 0 0 0 0.1 0"/>
<feBlend mode="normal" in2="BackgroundImageFix" result="effect1_dropShadow_8_1376"/>
<feBlend mode="normal" in="SourceGraphic" in2="effect1_dropShadow_8_1376" result="shape"/>
</filter>
<clipPath id="clip0_8_1376">
<rect width="50" height="50" fill="white" transform="translate(57 55)"/>
</clipPath>
</defs>
</svg>
