<svg width="164" height="165" viewBox="0 0 164 165" fill="none" xmlns="http://www.w3.org/2000/svg">
<g filter="url(#filter0_d_30_341)">
<rect x="28.834" y="26.2412" width="106.966" height="106.966" rx="19.0161" fill="url(#paint0_linear_30_341)"/>
<rect x="29.1311" y="26.5383" width="106.371" height="106.371" rx="18.719" stroke="#D9D9D9" stroke-opacity="0.33" stroke-width="0.594253"/>
</g>
<g clip-path="url(#clip0_30_341)">
<path d="M95.2812 55H68.7188C62.2467 55 57 60.2467 57 66.7188V93.2812C57 99.7533 62.2467 105 68.7188 105H95.2812C101.753 105 107 99.7533 107 93.2812V66.7188C107 60.2467 101.753 55 95.2812 55Z" fill="#242938"/>
<path d="M76.8504 90.6676C76.8504 90.6676 75.3505 91.5805 77.8943 91.8416C80.9662 92.233 82.5904 92.1676 85.9816 91.5159C85.9816 91.5159 86.8945 92.1036 88.134 92.5596C80.5022 95.8205 70.8494 92.3639 76.8504 90.6676ZM75.8721 86.4284C75.8721 86.4284 74.2413 87.6678 76.785 87.9282C80.1107 88.2541 82.7207 88.3196 87.2211 87.4073C87.2211 87.4073 87.8088 88.0598 88.7865 88.3858C79.5906 91.125 69.2847 88.6461 75.8721 86.4289V86.4284ZM93.874 93.8639C93.874 93.8639 94.9826 94.7768 92.6346 95.4948C88.2643 96.7991 74.3067 97.1911 70.3933 95.4948C69.0242 94.9071 71.6328 94.0588 72.4802 93.9293C73.3284 93.7336 73.7845 93.7336 73.7845 93.7336C72.2846 92.6899 63.8052 95.886 69.4797 96.8057C85.0682 99.35 97.9178 95.6971 93.8734 93.8705L93.874 93.8639ZM77.5678 81.9926C77.5678 81.9926 70.458 83.6889 75.0233 84.2752C76.9801 84.5356 80.8281 84.4709 84.4156 84.2098C87.3508 83.9493 90.2926 83.4272 90.2926 83.4272C90.2926 83.4272 89.2486 83.8838 88.5314 84.3401C81.2855 86.2332 67.3927 85.3852 71.3716 83.4284C74.7642 81.7975 77.5678 81.9926 77.5678 81.9926ZM90.2857 89.1022C97.5918 85.319 94.1992 81.6666 91.8512 82.1235C91.2635 82.2538 91.0031 82.384 91.0031 82.384C91.0031 82.384 91.1986 81.9926 91.6555 81.8631C96.2861 80.2323 99.9393 86.7549 90.1557 89.2987C90.1557 89.2987 90.2211 89.2332 90.2857 89.103V89.1022ZM78.285 99.4069C85.3293 99.8637 96.0912 99.1463 96.3523 95.8192C96.3523 95.8192 95.8314 97.1235 90.5477 98.102C84.5473 99.2106 77.1109 99.0803 72.7414 98.3623C72.7414 98.3623 73.6543 99.145 78.2856 99.4061L78.285 99.4069Z" fill="white"/>
<path d="M85.8449 60.4688C85.8449 60.4688 89.8887 64.5779 81.9969 70.7733C75.6699 75.7953 80.5611 78.6656 81.9969 81.926C78.2791 78.6002 75.6058 75.6645 77.431 72.925C80.1117 68.8834 87.481 66.9266 85.8449 60.4688ZM83.758 79.1879C85.6492 81.3402 83.2371 83.2971 83.2371 83.2971C83.2371 83.2971 88.0635 80.8193 85.8463 77.7527C83.824 74.8176 82.2588 73.3825 90.7381 68.49C90.7381 68.49 77.367 71.8158 83.7594 79.1865L83.758 79.1879Z" fill="#F58219"/>
</g>
<defs>
<filter id="filter0_d_30_341" x="0.76593" y="0.979962" width="163.102" height="163.102" filterUnits="userSpaceOnUse" color-interpolation-filters="sRGB">
<feFlood flood-opacity="0" result="BackgroundImageFix"/>
<feColorMatrix in="SourceAlpha" type="matrix" values="0 0 0 0 0 0 0 0 0 0 0 0 0 0 0 0 0 0 127 0" result="hardAlpha"/>
<feOffset dy="2.80681"/>
<feGaussianBlur stdDeviation="14.034"/>
<feComposite in2="hardAlpha" operator="out"/>
<feColorMatrix type="matrix" values="0 0 0 0 0.0367917 0 0 0 0 0.0348958 0 0 0 0 0.0484375 0 0 0 0.1 0"/>
<feBlend mode="normal" in2="BackgroundImageFix" result="effect1_dropShadow_30_341"/>
<feBlend mode="normal" in="SourceGraphic" in2="effect1_dropShadow_30_341" result="shape"/>
</filter>
<linearGradient id="paint0_linear_30_341" x1="82.3168" y1="26.2412" x2="82.3168" y2="133.207" gradientUnits="userSpaceOnUse">
<stop stop-color="#1A1B24"/>
<stop offset="1" stop-color="#0E0E1A"/>
</linearGradient>
<clipPath id="clip0_30_341">
<rect width="50" height="50" fill="white" transform="translate(57 55)"/>
</clipPath>
</defs>
</svg>
