<svg width="164" height="164" viewBox="0 0 164 164" fill="none" xmlns="http://www.w3.org/2000/svg">
<g filter="url(#filter0_d_8_1379)">
<rect x="28.7649" y="26.0922" width="106.966" height="106.966" rx="19.0161" fill="white"/>
<rect x="29.062" y="26.3893" width="106.371" height="106.371" rx="18.719" stroke="#D9D9D9" stroke-width="0.594253"/>
</g>
<g clip-path="url(#clip0_8_1379)">
<path d="M95.2124 53.851H68.6499C62.1778 53.851 56.9312 59.0977 56.9312 65.5698V92.1323C56.9312 98.6044 62.1778 103.851 68.6499 103.851H95.2124C101.684 103.851 106.931 98.6044 106.931 92.1323V65.5698C106.931 59.0977 101.684 53.851 95.2124 53.851Z" fill="#023430"/>
<path d="M90.3634 74.8649C88.3054 65.7865 84.0163 63.3697 82.9222 61.6613C82.471 60.9087 82.0712 60.1264 81.7259 59.3198C81.6681 60.1262 81.5618 60.6344 80.8763 61.2459C79.4999 62.4732 73.6541 67.2368 73.1622 77.5518C72.7038 87.1694 80.2325 93.0996 81.2271 93.7127C81.9919 94.0891 82.9233 93.7207 83.3778 93.3752C87.0069 90.8846 91.9655 84.2444 90.3673 74.8649" fill="#10AA50"/>
<path d="M82.0376 88.5915C81.8481 90.9719 81.7124 92.3551 81.2311 93.7155C81.2311 93.7155 81.547 95.9817 81.7688 98.3823H82.5538C82.7411 96.6919 83.0268 95.0137 83.41 93.3565C82.3938 92.8565 82.0766 90.6803 82.0376 88.5915Z" fill="#B8C4C2"/>
<path d="M83.4087 93.3578C82.3817 92.8834 82.0846 90.6614 82.0389 88.5914C82.2928 85.1768 82.3669 81.7512 82.2608 78.3287C82.2069 76.533 82.2862 61.6962 81.8184 59.5241C82.1385 60.2598 82.5071 60.9733 82.9221 61.66C84.0163 63.3697 88.3067 65.7865 90.3633 74.8649C91.9655 84.2284 87.0339 90.851 83.4087 93.3578Z" fill="#12924F"/>
</g>
<path d="M52.2373 159.702L52.437 148.149H55.1753L56.4446 154.867L57.8138 148.149H60.4523L60.6519 159.702H58.8406L58.6267 152.014L57.2861 159.702H55.6745L54.2483 151.957L54.0771 159.702H52.2373ZM66.0587 159.873C65.1935 159.873 64.5089 159.721 64.005 159.416C63.501 159.112 63.1397 158.675 62.9211 158.104C62.7024 157.534 62.593 156.854 62.593 156.065V151.772C62.593 150.973 62.7024 150.294 62.9211 149.733C63.1397 149.172 63.501 148.744 64.005 148.449C64.5089 148.145 65.1935 147.993 66.0587 147.993C66.9334 147.993 67.6228 148.145 68.1267 148.449C68.6401 148.744 69.0062 149.172 69.2249 149.733C69.4436 150.294 69.5529 150.973 69.5529 151.772V156.065C69.5529 156.854 69.4436 157.534 69.2249 158.104C69.0062 158.675 68.6401 159.112 68.1267 159.416C67.6228 159.721 66.9334 159.873 66.0587 159.873ZM66.0587 158.062C66.3249 158.062 66.5198 157.995 66.6435 157.862C66.7671 157.729 66.8479 157.558 66.8859 157.348C66.9239 157.139 66.943 156.925 66.943 156.707V151.144C66.943 150.916 66.9239 150.702 66.8859 150.503C66.8479 150.294 66.7671 150.122 66.6435 149.989C66.5198 149.856 66.3249 149.79 66.0587 149.79C65.8115 149.79 65.6261 149.856 65.5025 149.989C65.3789 150.122 65.2981 150.294 65.26 150.503C65.222 150.702 65.203 150.916 65.203 151.144V156.707C65.203 156.925 65.2172 157.139 65.2458 157.348C65.2838 157.558 65.3599 157.729 65.474 157.862C65.5976 157.995 65.7925 158.062 66.0587 158.062ZM71.5345 159.702V148.149H73.3315L75.699 153.712V148.149H77.8098V159.702H76.0841L73.7166 153.712V159.702H71.5345ZM82.9662 159.873C82.1675 159.873 81.5352 159.706 81.0693 159.374C80.6129 159.041 80.2849 158.575 80.0852 157.976C79.8951 157.367 79.8 156.669 79.8 155.879V152C79.8 151.183 79.9046 150.474 80.1138 149.875C80.3229 149.276 80.6795 148.815 81.1834 148.492C81.6969 148.159 82.3909 147.993 83.2657 147.993C84.1214 147.993 84.7917 148.135 85.2766 148.42C85.7711 148.706 86.1229 149.1 86.332 149.604C86.5412 150.108 86.6458 150.698 86.6458 151.373V152.114H84.1499V151.173C84.1499 150.926 84.1309 150.698 84.0929 150.488C84.0644 150.279 83.9883 150.113 83.8647 149.989C83.7506 149.856 83.5604 149.79 83.2942 149.79C83.0185 149.79 82.8188 149.866 82.6952 150.018C82.5716 150.16 82.4908 150.341 82.4527 150.56C82.4242 150.778 82.41 151.007 82.41 151.244V156.593C82.41 156.849 82.4337 157.092 82.4813 157.32C82.5383 157.539 82.6334 157.719 82.7665 157.862C82.9091 157.995 83.1088 158.062 83.3655 158.062C83.6317 158.062 83.8362 157.99 83.9788 157.848C84.1214 157.705 84.2212 157.52 84.2783 157.291C84.3353 157.063 84.3639 156.821 84.3639 156.564V155.209H83.3227V153.712H86.6601V159.702H84.9771L84.8345 158.746C84.6824 159.069 84.4589 159.34 84.1642 159.559C83.8694 159.768 83.4701 159.873 82.9662 159.873ZM91.9945 159.873C91.1293 159.873 90.4447 159.721 89.9408 159.416C89.4369 159.112 89.0756 158.675 88.8569 158.104C88.6382 157.534 88.5288 156.854 88.5288 156.065V151.772C88.5288 150.973 88.6382 150.294 88.8569 149.733C89.0756 149.172 89.4369 148.744 89.9408 148.449C90.4447 148.145 91.1293 147.993 91.9945 147.993C92.8693 147.993 93.5586 148.145 94.0625 148.449C94.576 148.744 94.942 149.172 95.1607 149.733C95.3794 150.294 95.4887 150.973 95.4887 151.772V156.065C95.4887 156.854 95.3794 157.534 95.1607 158.104C94.942 158.675 94.576 159.112 94.0625 159.416C93.5586 159.721 92.8693 159.873 91.9945 159.873ZM91.9945 158.062C92.2608 158.062 92.4557 157.995 92.5793 157.862C92.7029 157.729 92.7837 157.558 92.8217 157.348C92.8598 157.139 92.8788 156.925 92.8788 156.707V151.144C92.8788 150.916 92.8598 150.702 92.8217 150.503C92.7837 150.294 92.7029 150.122 92.5793 149.989C92.4557 149.856 92.2608 149.79 91.9945 149.79C91.7473 149.79 91.5619 149.856 91.4383 149.989C91.3147 150.122 91.2339 150.294 91.1958 150.503C91.1578 150.702 91.1388 150.916 91.1388 151.144V156.707C91.1388 156.925 91.1531 157.139 91.1816 157.348C91.2196 157.558 91.2957 157.729 91.4098 157.862C91.5334 157.995 91.7283 158.062 91.9945 158.062ZM97.4703 159.702V148.149H100.394C101.402 148.149 102.186 148.278 102.747 148.535C103.308 148.782 103.703 149.176 103.931 149.718C104.159 150.251 104.273 150.945 104.273 151.801V155.994C104.273 156.859 104.159 157.567 103.931 158.119C103.703 158.661 103.308 159.06 102.747 159.317C102.196 159.573 101.421 159.702 100.423 159.702H97.4703ZM100.023 157.933H100.423C100.812 157.933 101.093 157.876 101.264 157.762C101.435 157.648 101.54 157.477 101.578 157.249C101.625 157.02 101.649 156.735 101.649 156.393V151.358C101.649 151.016 101.621 150.74 101.563 150.531C101.516 150.322 101.407 150.17 101.235 150.075C101.064 149.98 100.789 149.932 100.408 149.932H100.023V157.933ZM106.255 159.702V148.149H109.264C109.759 148.149 110.224 148.187 110.662 148.264C111.109 148.34 111.503 148.487 111.846 148.706C112.188 148.915 112.454 149.219 112.644 149.618C112.844 150.008 112.944 150.526 112.944 151.173C112.944 151.639 112.872 152.033 112.73 152.357C112.597 152.671 112.402 152.922 112.145 153.113C111.898 153.303 111.598 153.431 111.247 153.498C111.693 153.555 112.069 153.702 112.373 153.94C112.678 154.168 112.906 154.477 113.058 154.867C113.219 155.257 113.3 155.727 113.3 156.279C113.3 156.878 113.219 157.396 113.058 157.833C112.906 158.261 112.682 158.613 112.388 158.889C112.093 159.165 111.727 159.369 111.289 159.502C110.861 159.635 110.367 159.702 109.806 159.702H106.255ZM108.808 157.919H109.35C109.911 157.919 110.296 157.776 110.505 157.491C110.724 157.206 110.833 156.788 110.833 156.236C110.833 155.799 110.785 155.452 110.69 155.195C110.595 154.938 110.438 154.753 110.22 154.639C110.001 154.515 109.706 154.453 109.335 154.453H108.808V157.919ZM108.808 152.77H109.307C109.697 152.77 109.991 152.713 110.191 152.599C110.391 152.476 110.524 152.3 110.59 152.072C110.667 151.843 110.705 151.568 110.705 151.244C110.705 150.94 110.648 150.688 110.533 150.488C110.429 150.279 110.267 150.122 110.049 150.018C109.839 149.913 109.573 149.861 109.25 149.861H108.808V152.77Z" fill="white"/>
<defs>
<filter id="filter0_d_8_1379" x="0.696838" y="0.830945" width="163.102" height="163.102" filterUnits="userSpaceOnUse" color-interpolation-filters="sRGB">
<feFlood flood-opacity="0" result="BackgroundImageFix"/>
<feColorMatrix in="SourceAlpha" type="matrix" values="0 0 0 0 0 0 0 0 0 0 0 0 0 0 0 0 0 0 127 0" result="hardAlpha"/>
<feOffset dy="2.80681"/>
<feGaussianBlur stdDeviation="14.034"/>
<feComposite in2="hardAlpha" operator="out"/>
<feColorMatrix type="matrix" values="0 0 0 0 0.0367917 0 0 0 0 0.0348958 0 0 0 0 0.0484375 0 0 0 0.1 0"/>
<feBlend mode="normal" in2="BackgroundImageFix" result="effect1_dropShadow_8_1379"/>
<feBlend mode="normal" in="SourceGraphic" in2="effect1_dropShadow_8_1379" result="shape"/>
</filter>
<clipPath id="clip0_8_1379">
<rect width="50" height="50" fill="white" transform="translate(56.9312 53.851)"/>
</clipPath>
</defs>
</svg>
