<svg width="164" height="164" viewBox="0 0 164 164" fill="none" xmlns="http://www.w3.org/2000/svg">
<g filter="url(#filter0_d_8_1330)">
<rect x="28.3557" y="25.9428" width="106.966" height="106.966" rx="19.0161" fill="white"/>
<rect x="28.6528" y="26.24" width="106.371" height="106.371" rx="18.719" stroke="#D9D9D9" stroke-width="0.594253"/>
</g>
<mask id="mask0_8_1330" style="mask-type:luminance" maskUnits="userSpaceOnUse" x="58" y="58" width="48" height="43">
<path fill-rule="evenodd" clip-rule="evenodd" d="M68.9566 59.7658L82.0119 58.3856L95.0673 59.7658L105.175 73.3341L82.0119 100.307L58.8492 73.3341L68.9566 59.7658Z" fill="white"/>
</mask>
<g mask="url(#mask0_8_1330)">
<path d="M58.2607 100.897H105.764V57.798H58.2607V100.897Z" fill="#FDB300"/>
</g>
<mask id="mask1_8_1330" style="mask-type:luminance" maskUnits="userSpaceOnUse" x="58" y="73" width="25" height="28">
<path fill-rule="evenodd" clip-rule="evenodd" d="M68.2313 73.335L82.012 100.308L58.8492 73.335H68.2313Z" fill="white"/>
</mask>
<g mask="url(#mask1_8_1330)">
<path d="M58.2608 100.898H82.6017V72.7474H58.2608V100.898Z" fill="#EA6C00"/>
</g>
<mask id="mask2_8_1330" style="mask-type:luminance" maskUnits="userSpaceOnUse" x="82" y="73" width="24" height="28">
<path fill-rule="evenodd" clip-rule="evenodd" d="M95.7919 73.335L82.0113 100.308L105.174 73.335H95.7919Z" fill="white"/>
</mask>
<g mask="url(#mask2_8_1330)">
<path d="M81.423 100.898H105.764V72.7474H81.423V100.898Z" fill="#EA6C00"/>
</g>
<mask id="mask3_8_1330" style="mask-type:luminance" maskUnits="userSpaceOnUse" x="68" y="73" width="28" height="28">
<path fill-rule="evenodd" clip-rule="evenodd" d="M68.2296 73.335H95.791L82.0103 100.308L68.2296 73.335Z" fill="white"/>
</mask>
<g mask="url(#mask3_8_1330)">
<path d="M67.6412 100.898H96.3807V72.7474H67.6412V100.898Z" fill="#FDAD00"/>
</g>
<mask id="mask4_8_1330" style="mask-type:luminance" maskUnits="userSpaceOnUse" x="68" y="58" width="15" height="16">
<path fill-rule="evenodd" clip-rule="evenodd" d="M82.0103 58.3856L68.9549 59.7658L68.2296 73.3341L82.0103 58.3856Z" fill="white"/>
</mask>
<g mask="url(#mask4_8_1330)">
<path d="M67.6412 73.9246H82.6001V57.7979H67.6412V73.9246Z" fill="#FDD231"/>
</g>
<mask id="mask5_8_1330" style="mask-type:luminance" maskUnits="userSpaceOnUse" x="82" y="58" width="14" height="16">
<path fill-rule="evenodd" clip-rule="evenodd" d="M82.0113 58.3856L95.0666 59.7658L95.7919 73.3341L82.0113 58.3856Z" fill="white"/>
</mask>
<g mask="url(#mask5_8_1330)">
<path d="M81.423 73.9246H96.3818V57.7979H81.423V73.9246Z" fill="#FDD231"/>
</g>
<mask id="mask6_8_1330" style="mask-type:luminance" maskUnits="userSpaceOnUse" x="95" y="59" width="11" height="15">
<path fill-rule="evenodd" clip-rule="evenodd" d="M105.174 73.3336L95.0662 59.7653L95.7915 73.3336H105.174Z" fill="white"/>
</mask>
<g mask="url(#mask6_8_1330)">
<path d="M94.4764 73.9241H105.762V59.1776H94.4764V73.9241Z" fill="#FDAD00"/>
</g>
<mask id="mask7_8_1330" style="mask-type:luminance" maskUnits="userSpaceOnUse" x="58" y="59" width="11" height="15">
<path fill-rule="evenodd" clip-rule="evenodd" d="M58.8492 73.3336L68.9566 59.7653L68.2313 73.3336H58.8492Z" fill="white"/>
</mask>
<g mask="url(#mask7_8_1330)">
<path d="M58.2608 73.9241H69.5463V59.1776H58.2608V73.9241Z" fill="#FDAD00"/>
</g>
<mask id="mask8_8_1330" style="mask-type:luminance" maskUnits="userSpaceOnUse" x="68" y="58" width="28" height="16">
<path fill-rule="evenodd" clip-rule="evenodd" d="M82.0103 58.3856L68.2296 73.3341H95.791L82.0103 58.3856Z" fill="white"/>
</mask>
<g mask="url(#mask8_8_1330)">
<path d="M67.6412 73.9246H96.3807V57.7979H67.6412V73.9246Z" fill="#FEEEB7"/>
</g>
<path d="M62.6583 159.724C61.9357 159.724 61.332 159.595 60.8471 159.338C60.3621 159.082 59.9961 158.687 59.7489 158.155C59.5017 157.613 59.3638 156.914 59.3353 156.058L61.5174 155.73C61.5269 156.225 61.5697 156.624 61.6457 156.928C61.7313 157.232 61.8454 157.451 61.988 157.584C62.1402 157.717 62.3208 157.784 62.53 157.784C62.7962 157.784 62.9674 157.694 63.0434 157.513C63.129 157.332 63.1718 157.142 63.1718 156.942C63.1718 156.467 63.0577 156.068 62.8295 155.744C62.6013 155.412 62.2923 155.079 61.9025 154.746L60.9041 153.876C60.4667 153.505 60.0959 153.087 59.7917 152.621C59.4969 152.146 59.3495 151.561 59.3495 150.867C59.3495 149.887 59.6395 149.141 60.2195 148.628C60.7995 148.105 61.5887 147.843 62.587 147.843C63.2051 147.843 63.6995 147.948 64.0703 148.157C64.4506 148.366 64.7359 148.642 64.926 148.984C65.1257 149.317 65.2588 149.674 65.3254 150.054C65.4014 150.425 65.4442 150.781 65.4537 151.124L63.2574 151.394C63.2478 151.052 63.2241 150.757 63.186 150.51C63.1575 150.254 63.091 150.059 62.9864 149.925C62.8818 149.783 62.7201 149.712 62.5015 149.712C62.2638 149.712 62.0879 149.811 61.9738 150.011C61.8692 150.211 61.8169 150.41 61.8169 150.61C61.8169 151.038 61.9167 151.39 62.1164 151.665C62.3256 151.932 62.5965 152.212 62.9293 152.507L63.8849 153.348C64.3888 153.776 64.8119 154.261 65.1542 154.803C65.506 155.345 65.6819 156.015 65.6819 156.814C65.6819 157.356 65.5583 157.85 65.3111 158.297C65.0639 158.735 64.7121 159.082 64.2557 159.338C63.8088 159.595 63.2764 159.724 62.6583 159.724ZM67.3459 159.552V148H69.8988V152.721L71.8384 148H74.3343L72.195 153.22L74.4341 159.552H71.8384L70.1698 154.447L69.8988 154.903V159.552H67.3459ZM75.8658 159.552V148H81.0572V149.74H78.4187V152.607H80.4297V154.375H78.4187V157.827H81.0857V159.552H75.8658ZM83.7137 159.552V149.897H81.9738V148H88.0066V149.897H86.2809V159.552H83.7137ZM92.6489 159.724C91.7742 159.724 91.0801 159.567 90.5667 159.253C90.0627 158.93 89.7062 158.483 89.497 157.912C89.2878 157.332 89.1832 156.652 89.1832 155.873V151.708C89.1832 150.91 89.2878 150.225 89.497 149.655C89.7062 149.075 90.0627 148.628 90.5667 148.314C91.0801 148 91.7742 147.843 92.6489 147.843C93.5047 147.843 94.1702 147.986 94.6456 148.271C95.1305 148.547 95.4728 148.937 95.6725 149.441C95.8722 149.945 95.972 150.524 95.972 151.181V152.179H93.4761V151.024C93.4761 150.795 93.4619 150.577 93.4333 150.368C93.4143 150.158 93.3478 149.987 93.2337 149.854C93.1196 149.712 92.9247 149.64 92.6489 149.64C92.3827 149.64 92.183 149.712 92.0499 149.854C91.9263 149.997 91.8455 150.177 91.8075 150.396C91.7789 150.605 91.7647 150.829 91.7647 151.066V156.5C91.7647 156.757 91.7837 156.995 91.8217 157.213C91.8693 157.423 91.9548 157.594 92.0785 157.727C92.2116 157.85 92.4017 157.912 92.6489 157.912C92.9152 157.912 93.1053 157.846 93.2194 157.713C93.3335 157.57 93.4048 157.389 93.4333 157.171C93.4619 156.952 93.4761 156.728 93.4761 156.5V155.288H95.972V156.286C95.972 156.942 95.8722 157.532 95.6725 158.055C95.4823 158.568 95.1448 158.977 94.6599 159.281C94.1845 159.576 93.5142 159.724 92.6489 159.724ZM97.8471 159.552V148H100.4V152.678H102.183V148H104.75V159.552H102.183V154.504H100.4V159.552H97.8471Z" fill="white"/>
<defs>
<filter id="filter0_d_8_1330" x="0.287628" y="0.681592" width="163.102" height="163.102" filterUnits="userSpaceOnUse" color-interpolation-filters="sRGB">
<feFlood flood-opacity="0" result="BackgroundImageFix"/>
<feColorMatrix in="SourceAlpha" type="matrix" values="0 0 0 0 0 0 0 0 0 0 0 0 0 0 0 0 0 0 127 0" result="hardAlpha"/>
<feOffset dy="2.80681"/>
<feGaussianBlur stdDeviation="14.034"/>
<feComposite in2="hardAlpha" operator="out"/>
<feColorMatrix type="matrix" values="0 0 0 0 0.0367917 0 0 0 0 0.0348958 0 0 0 0 0.0484375 0 0 0 0.1 0"/>
<feBlend mode="normal" in2="BackgroundImageFix" result="effect1_dropShadow_8_1330"/>
<feBlend mode="normal" in="SourceGraphic" in2="effect1_dropShadow_8_1330" result="shape"/>
</filter>
</defs>
</svg>
