<svg width="480" height="40" viewBox="0 0 480 40" fill="none" xmlns="http://www.w3.org/2000/svg">
<g filter="url(#filter0_b_2_245)">
<rect x="330" width="40" height="40" rx="20" fill="#0A0A0A" fill-opacity="0.3"/>
<path d="M357.785 25.7812L358.672 20H353.125V16.25C353.125 14.668 353.898 13.125 356.383 13.125H358.906V8.20312C358.906 8.20312 356.617 7.8125 354.43 7.8125C349.859 7.8125 346.875 10.582 346.875 15.5938V20H341.797V25.7812H346.875V39.7578C347.895 39.918 348.937 40 350 40C351.063 40 352.105 39.918 353.125 39.7578V25.7812H357.785Z" fill="white"/>
<rect x="275" width="40" height="40" rx="20" fill="#0A0A0A" fill-opacity="0.3"/>
<path d="M291.34 30.55C300.21 30.55 305.06 23.2 305.06 16.83C305.06 16.62 305.06 16.41 305.05 16.21C305.99 15.53 306.81 14.68 307.46 13.71C306.6 14.09 305.67 14.35 304.69 14.47C305.69 13.87 306.45 12.93 306.81 11.8C305.88 12.35 304.85 12.75 303.75 12.97C302.87 12.03 301.62 11.45 300.23 11.45C297.57 11.45 295.41 13.61 295.41 16.27C295.41 16.65 295.45 17.02 295.54 17.37C291.53 17.17 287.98 15.25 285.6 12.33C285.19 13.04 284.95 13.87 284.95 14.75C284.95 16.42 285.8 17.9 287.1 18.76C286.31 18.74 285.57 18.52 284.92 18.16C284.92 18.18 284.92 18.2 284.92 18.22C284.92 20.56 286.58 22.5 288.79 22.95C288.39 23.06 287.96 23.12 287.52 23.12C287.21 23.12 286.91 23.09 286.61 23.03C287.22 24.95 289 26.34 291.11 26.38C289.46 27.67 287.38 28.44 285.12 28.44C284.73 28.44 284.35 28.42 283.97 28.37C286.08 29.75 288.62 30.55 291.34 30.55Z" fill="white"/>
<rect width="40" height="40" rx="20" fill="#0A0A0A" fill-opacity="0.3"/>
<path d="M20.0032 10.163C23.2096 10.163 23.586 10.1773 24.8534 10.2345C26.0254 10.2869 26.6591 10.4823 27.0831 10.649C27.6453 10.8682 28.0455 11.1255 28.4648 11.5447C28.8841 11.964 29.1461 12.3642 29.3605 12.9264C29.5225 13.3504 29.7226 13.9841 29.775 15.1562C29.8322 16.4235 29.8465 16.7999 29.8465 20.0064C29.8465 23.2128 29.8322 23.5892 29.775 24.8565C29.7226 26.0286 29.5273 26.6623 29.3605 27.0863C29.1414 27.6485 28.8841 28.0487 28.4648 28.468C28.0455 28.8872 27.6453 29.1493 27.0831 29.3637C26.6591 29.5257 26.0254 29.7258 24.8534 29.7782C23.586 29.8354 23.2096 29.8497 20.0032 29.8497C16.7967 29.8497 16.4203 29.8354 15.153 29.7782C13.9809 29.7258 13.3473 29.5304 12.9232 29.3637C12.361 29.1445 11.9608 28.8872 11.5416 28.468C11.1223 28.0487 10.8602 27.6485 10.6458 27.0863C10.4839 26.6623 10.2837 26.0286 10.2313 24.8565C10.1742 23.5892 10.1599 23.2128 10.1599 20.0064C10.1599 16.7999 10.1742 16.4235 10.2313 15.1562C10.2837 13.9841 10.4791 13.3504 10.6458 12.9264C10.865 12.3642 11.1223 11.964 11.5416 11.5447C11.9608 11.1255 12.361 10.8634 12.9232 10.649C13.3473 10.487 13.9809 10.2869 15.153 10.2345C16.4203 10.1726 16.8015 10.163 20.0032 10.163ZM20.0032 8C16.7443 8 16.3346 8.01429 15.0529 8.07147C13.7761 8.12864 12.9042 8.33351 12.1419 8.6289C11.351 8.93383 10.684 9.34833 10.0169 10.0154C9.34992 10.6824 8.94018 11.3542 8.63049 12.1403C8.3351 12.9026 8.13023 13.7745 8.07305 15.0561C8.01588 16.333 8.00159 16.7427 8.00159 20.0016C8.00159 23.2605 8.01588 23.6702 8.07305 24.9518C8.13023 26.2287 8.3351 27.1006 8.63049 27.8677C8.93541 28.6585 9.34992 29.3256 10.0169 29.9926C10.684 30.6596 11.3557 31.0693 12.1419 31.379C12.9042 31.6744 13.7761 31.8793 15.0577 31.9365C16.3393 31.9936 16.7443 32.0079 20.0079 32.0079C23.2716 32.0079 23.6766 31.9936 24.9582 31.9365C26.2351 31.8793 27.1069 31.6744 27.874 31.379C28.6649 31.0741 29.3319 30.6596 29.999 29.9926C30.666 29.3256 31.0757 28.6538 31.3854 27.8677C31.6808 27.1053 31.8857 26.2335 31.9428 24.9518C32 23.6702 32.0143 23.2652 32.0143 20.0016C32.0143 16.738 32 16.333 31.9428 15.0513C31.8857 13.7745 31.6808 12.9026 31.3854 12.1355C31.0805 11.3446 30.666 10.6776 29.999 10.0106C29.3319 9.34357 28.6602 8.93383 27.874 8.62414C27.1117 8.32875 26.2398 8.12388 24.9582 8.0667C23.6718 8.01429 23.2621 8 20.0032 8Z" fill="white"/>
<path d="M20.0032 10.163C23.2096 10.163 23.586 10.1773 24.8534 10.2345C26.0254 10.2869 26.6591 10.4823 27.0831 10.649C27.6453 10.8682 28.0455 11.1255 28.4648 11.5447C28.8841 11.964 29.1461 12.3642 29.3605 12.9264C29.5225 13.3504 29.7226 13.9841 29.775 15.1562C29.8322 16.4235 29.8465 16.7999 29.8465 20.0064C29.8465 23.2128 29.8322 23.5892 29.775 24.8565C29.7226 26.0286 29.5273 26.6623 29.3605 27.0863C29.1414 27.6485 28.8841 28.0487 28.4648 28.468C28.0455 28.8872 27.6453 29.1493 27.0831 29.3637C26.6591 29.5257 26.0254 29.7258 24.8534 29.7782C23.586 29.8354 23.2096 29.8497 20.0032 29.8497C16.7967 29.8497 16.4203 29.8354 15.153 29.7782C13.9809 29.7258 13.3473 29.5304 12.9232 29.3637C12.361 29.1445 11.9608 28.8872 11.5416 28.468C11.1223 28.0487 10.8602 27.6485 10.6458 27.0863C10.4839 26.6623 10.2837 26.0286 10.2313 24.8565C10.1742 23.5892 10.1599 23.2128 10.1599 20.0064C10.1599 16.7999 10.1742 16.4235 10.2313 15.1562C10.2837 13.9841 10.4791 13.3504 10.6458 12.9264C10.865 12.3642 11.1223 11.964 11.5416 11.5447C11.9608 11.1255 12.361 10.8634 12.9232 10.649C13.3473 10.487 13.9809 10.2869 15.153 10.2345C16.4203 10.1726 16.8015 10.163 20.0032 10.163Z" fill="white"/>
<path d="M20.0032 13.8412C16.6014 13.8412 13.838 16.5998 13.838 20.0064C13.838 23.4129 16.5966 26.1715 20.0032 26.1715C23.4097 26.1715 26.1683 23.4129 26.1683 20.0064C26.1683 16.5998 23.4097 13.8412 20.0032 13.8412ZM20.0032 24.0037C17.7925 24.0037 16.0011 22.2123 16.0011 20.0016C16.0011 17.7909 17.7925 15.9995 20.0032 15.9995C22.2139 15.9995 24.0053 17.7909 24.0053 20.0016C24.0053 22.2123 22.2139 24.0037 20.0032 24.0037Z" fill="#0A0A0A"/>
<path d="M26.4113 15.0323C27.206 15.0323 27.8502 14.3881 27.8502 13.5934C27.8502 12.7987 27.206 12.1545 26.4113 12.1545C25.6167 12.1545 24.9725 12.7987 24.9725 13.5934C24.9725 14.3881 25.6167 15.0323 26.4113 15.0323Z" fill="#0A0A0A"/>
<rect x="385" width="40" height="40" rx="20" fill="#0A0A0A" fill-opacity="0.3"/>
<path d="M404.995 8C398.361 8 393 13.3706 393 19.9951C393 25.0794 396.159 29.4233 400.622 31.1707C400.513 30.2229 400.424 28.7618 400.661 27.7252C400.878 26.7873 402.063 21.7622 402.063 21.7622C402.063 21.7622 401.708 21.0416 401.708 19.9852C401.708 18.3167 402.675 17.0728 403.879 17.0728C404.906 17.0728 405.4 17.8429 405.4 18.761C405.4 19.7877 404.748 21.3278 404.403 22.7594C404.116 23.9539 405.005 24.9313 406.18 24.9313C408.312 24.9313 409.951 22.6804 409.951 19.4422C409.951 16.5693 407.888 14.5652 404.936 14.5652C401.52 14.5652 399.516 17.1222 399.516 19.768C399.516 20.7947 399.911 21.9004 400.404 22.5027C400.503 22.6211 400.513 22.7297 400.483 22.8482C400.394 23.2234 400.187 24.0428 400.148 24.2106C400.098 24.4278 399.97 24.4772 399.743 24.3686C398.262 23.6577 397.334 21.4661 397.334 19.7088C397.334 15.9276 400.079 12.4525 405.262 12.4525C409.418 12.4525 412.656 15.4142 412.656 19.383C412.656 23.5195 410.05 26.8466 406.436 26.8466C405.222 26.8466 404.077 26.2147 403.692 25.4644C403.692 25.4644 403.09 27.7548 402.942 28.3176C402.675 29.3641 401.944 30.6672 401.451 31.4669C402.576 31.8124 403.761 32 405.005 32C411.629 32 417 26.6294 417 20.0049C416.99 13.3706 411.619 8 404.995 8Z" fill="white"/>
<rect x="165" width="40" height="40" rx="20" fill="#0A0A0A" fill-opacity="0.3"/>
<path d="M198.698 13.1304C198.369 11.9065 197.404 10.9415 196.18 10.612C193.944 10 185 10 185 10C185 10 176.056 10 173.82 10.5884C172.619 10.9179 171.631 11.9065 171.301 13.1304C170.713 15.3664 170.713 20.0032 170.713 20.0032C170.713 20.0032 170.713 24.6636 171.301 26.876C171.631 28.1 172.596 29.065 173.82 29.3945C176.079 30.0065 185 30.0065 185 30.0065C185 30.0065 193.944 30.0065 196.18 29.418C197.404 29.0885 198.369 28.1235 198.698 26.8996C199.287 24.6636 199.287 20.0268 199.287 20.0268C199.287 20.0268 199.31 15.3664 198.698 13.1304Z" fill="white"/>
<path d="M182.152 24.287L189.59 20.0032L182.152 15.7195V24.287Z" fill="#0A0A0A"/>
<rect x="440" width="40" height="40" rx="20" fill="#0A0A0A" fill-opacity="0.3"/>
<path d="M469.703 10.8237C467.919 9.97958 466.005 9.35768 464.004 9.00149C463.967 8.99462 463.931 9.0118 463.912 9.04616C463.666 9.4974 463.394 10.0861 463.203 10.5488C461.05 10.2167 458.909 10.2167 456.801 10.5488C456.61 10.0758 456.328 9.4974 456.081 9.04616C456.062 9.01295 456.025 8.99577 455.989 9.00149C453.989 9.35654 452.075 9.97844 450.29 10.8237C450.274 10.8306 450.261 10.842 450.252 10.8569C446.622 16.4471 445.628 21.9 446.116 27.2852C446.118 27.3116 446.132 27.3368 446.152 27.3528C448.547 29.1658 450.867 30.2664 453.144 30.996C453.18 31.0075 453.219 30.9937 453.242 30.9628C453.781 30.2046 454.261 29.4052 454.672 28.5645C454.697 28.5153 454.673 28.4569 454.624 28.4374C453.862 28.1396 453.137 27.7765 452.44 27.3642C452.385 27.331 452.38 27.2497 452.431 27.2107C452.578 27.0974 452.724 26.9794 452.865 26.8603C452.89 26.8385 452.925 26.8339 452.955 26.8477C457.537 29.0043 462.498 29.0043 467.027 26.8477C467.057 26.8328 467.092 26.8374 467.118 26.8591C467.259 26.9783 467.405 27.0974 467.553 27.2107C467.604 27.2497 467.601 27.331 467.546 27.3642C466.848 27.7845 466.123 28.1396 465.36 28.4362C465.311 28.4557 465.289 28.5153 465.313 28.5645C465.733 29.404 466.213 30.2034 466.742 30.9616C466.764 30.9937 466.804 31.0075 466.84 30.996C469.128 30.2664 471.448 29.1658 473.843 27.3528C473.864 27.3368 473.877 27.3127 473.879 27.2864C474.463 21.0604 472.902 15.6523 469.74 10.858C469.732 10.842 469.719 10.8306 469.703 10.8237ZM455.357 24.0062C453.977 24.0062 452.84 22.7005 452.84 21.0971C452.84 19.4937 453.955 18.188 455.357 18.188C456.769 18.188 457.895 19.5051 457.873 21.0971C457.873 22.7005 456.758 24.0062 455.357 24.0062ZM464.661 24.0062C463.281 24.0062 462.144 22.7005 462.144 21.0971C462.144 19.4937 463.259 18.188 464.661 18.188C466.073 18.188 467.199 19.5051 467.177 21.0971C467.177 22.7005 466.073 24.0062 464.661 24.0062Z" fill="white"/>
<rect x="55" width="40" height="40" rx="20" fill="#0A0A0A" fill-opacity="0.3"/>
<path fill-rule="evenodd" clip-rule="evenodd" d="M75 6C67.2712 6 61 12.2712 61 20C61 27.7289 67.2712 34 75 34C82.7137 34 89 27.7289 89 20C89 12.2712 82.7137 6 75 6ZM84.2473 12.4534C85.9176 14.4881 86.9198 17.0846 86.9502 19.8937C86.5554 19.8178 82.6074 19.013 78.6291 19.5141C78.538 19.3167 78.462 19.1041 78.371 18.8916C78.128 18.3146 77.8547 17.7224 77.5813 17.1605C81.9848 15.3688 83.9892 12.7874 84.2473 12.4534ZM75 8.06508C78.0369 8.06508 80.8156 9.20391 82.9263 11.0716C82.7137 11.3753 80.9067 13.7896 76.6551 15.3839C74.6963 11.7852 72.525 8.83948 72.1909 8.38395C73.0867 8.17137 74.0282 8.06508 75 8.06508ZM69.9133 9.18872C70.2321 9.61388 72.3579 12.5748 74.3471 16.0976C68.7592 17.5857 63.8243 17.5553 63.2928 17.5553C64.0672 13.8503 66.5727 10.7679 69.9133 9.18872ZM63.0347 20.0152C63.0347 19.8937 63.0347 19.7722 63.0347 19.6508C63.551 19.6659 69.3514 19.7419 75.3189 17.9501C75.6682 18.6182 75.987 19.3015 76.2907 19.9848C76.1388 20.0304 75.9718 20.076 75.82 20.1215C69.6551 22.1106 66.3753 27.5466 66.102 28.0022C64.2039 25.8916 63.0347 23.0825 63.0347 20.0152ZM75 31.9653C72.2364 31.9653 69.6855 31.0239 67.6659 29.4447C67.8785 29.0044 70.308 24.3276 77.0499 21.974C77.0802 21.9588 77.0955 21.9588 77.1258 21.9436C78.8113 26.3015 79.4946 29.9609 79.6768 31.0087C78.2343 31.6312 76.6551 31.9653 75 31.9653ZM81.6659 29.9154C81.5445 29.1866 80.9067 25.6942 79.3427 21.3969C83.0933 20.8047 86.3731 21.7766 86.7831 21.9133C86.2669 25.2386 84.3536 28.1085 81.6659 29.9154Z" fill="white"/>
<rect x="110" width="40" height="40" rx="20" fill="#0A0A0A" fill-opacity="0.3"/>
<path d="M126 33C128.392 33 130.333 31.0586 130.333 28.6666V24.3333H126C123.608 24.3333 121.667 26.2746 121.667 28.6666C121.667 31.0586 123.608 33 126 33Z" fill="white"/>
<path d="M121.667 20C121.667 17.608 123.608 15.6666 126 15.6666H130.333V24.3333H126C123.608 24.3334 121.667 22.392 121.667 20Z" fill="white"/>
<path d="M121.667 11.3334C121.667 8.94137 123.608 7 126 7H130.333V15.6666H126C123.608 15.6666 121.667 13.7254 121.667 11.3334Z" fill="white"/>
<path d="M130.333 7H134.667C137.059 7 139 8.94137 139 11.3334C139 13.7254 137.059 15.6666 134.667 15.6666H130.333V7Z" fill="white"/>
<path d="M139 20C139 22.392 137.059 24.3334 134.667 24.3334C132.275 24.3334 130.333 22.392 130.333 20C130.333 17.608 132.275 15.6666 134.667 15.6666C137.059 15.6666 139 17.608 139 20Z" fill="white"/>
<rect x="220" width="40" height="40" rx="20" fill="#0A0A0A" fill-opacity="0.3"/>
<path d="M227.868 31.6334L229.583 25.4061C228.523 23.5783 227.967 21.5083 227.972 19.3921C227.972 12.7612 233.395 7.37 240.052 7.37C243.285 7.37 246.321 8.62122 248.597 10.893C250.88 13.1648 252.137 16.1862 252.132 19.3979C252.132 26.0288 246.709 31.42 240.046 31.42H240.04C238.018 31.42 236.031 30.9126 234.264 29.9555L227.868 31.6334ZM234.571 27.7817L234.936 28.0008C236.477 28.9118 238.244 29.3904 240.046 29.3962H240.052C245.585 29.3962 250.092 24.916 250.092 19.4037C250.092 16.734 249.049 14.2258 247.155 12.3345C245.26 10.4433 242.734 9.4054 240.052 9.4054C234.519 9.39963 230.012 13.8798 230.012 19.3921C230.012 21.2776 230.539 23.117 231.547 24.7084L231.785 25.089L230.771 28.7734L234.571 27.7817Z" fill="white"/>
<path d="M227.868 31.6334L229.583 25.4061C228.523 23.5783 227.967 21.5083 227.972 19.3921C227.972 12.7612 233.395 7.37 240.052 7.37C243.285 7.37 246.321 8.62122 248.597 10.893C250.88 13.1648 252.137 16.1862 252.132 19.3979C252.132 26.0288 246.709 31.42 240.046 31.42H240.04C238.018 31.42 236.031 30.9126 234.264 29.9555L227.868 31.6334ZM234.571 27.7817L234.936 28.0008C236.477 28.9118 238.244 29.3904 240.046 29.3962H240.052C245.585 29.3962 250.092 24.916 250.092 19.4037C250.092 16.734 249.049 14.2258 247.155 12.3345C245.26 10.4433 242.734 9.4054 240.052 9.4054C234.519 9.39963 230.012 13.8798 230.012 19.3921C230.012 21.2776 230.539 23.117 231.547 24.7084L231.785 25.089L230.771 28.7734L234.571 27.7817Z" fill="white"/>
<path fill-rule="evenodd" clip-rule="evenodd" d="M237.033 14.3642C236.808 13.8625 236.57 13.851 236.356 13.8452C236.182 13.8395 235.979 13.8395 235.776 13.8395C235.573 13.8395 235.249 13.9144 234.971 14.2143C234.693 14.5141 233.917 15.2406 233.917 16.7225C233.917 18.1986 235 19.6286 235.151 19.8304C235.301 20.0322 237.242 23.1631 240.307 24.3682C242.856 25.3715 243.377 25.1697 243.928 25.1178C244.478 25.0659 245.712 24.3913 245.967 23.6878C246.216 22.9844 246.216 22.3847 246.141 22.2579C246.066 22.131 245.863 22.056 245.562 21.9061C245.26 21.7562 243.777 21.0297 243.499 20.9259C243.221 20.8279 243.018 20.776 242.821 21.0758C242.618 21.3757 242.039 22.0503 241.865 22.2521C241.691 22.4539 241.512 22.477 241.211 22.3271C240.909 22.1771 239.936 21.86 238.783 20.8337C237.885 20.0379 237.277 19.052 237.103 18.7521C236.929 18.4523 237.086 18.2908 237.236 18.1409C237.369 18.0083 237.537 17.7892 237.688 17.6162C237.839 17.4432 237.891 17.3164 237.989 17.1146C238.088 16.9128 238.042 16.7398 237.966 16.5899C237.891 16.4457 237.3 14.9581 237.033 14.3642Z" fill="white"/>
</g>
<defs>
<filter id="filter0_b_2_245" x="-17" y="-17" width="514" height="74" filterUnits="userSpaceOnUse" color-interpolation-filters="sRGB">
<feFlood flood-opacity="0" result="BackgroundImageFix"/>
<feGaussianBlur in="BackgroundImageFix" stdDeviation="8.5"/>
<feComposite in2="SourceAlpha" operator="in" result="effect1_backgroundBlur_2_245"/>
<feBlend mode="normal" in="SourceGraphic" in2="effect1_backgroundBlur_2_245" result="shape"/>
</filter>
</defs>
</svg>
