<svg width="165" height="165" viewBox="0 0 165 165" fill="none" xmlns="http://www.w3.org/2000/svg">
<g filter="url(#filter0_d_8_1361)">
<rect x="28.9924" y="26.2412" width="106.966" height="106.966" rx="19.0161" fill="white"/>
<rect x="29.2896" y="26.5383" width="106.371" height="106.371" rx="18.719" stroke="#D9D9D9" stroke-width="0.594253"/>
</g>
<path d="M82.5684 102.266C94.8717 102.266 104.846 92.297 104.846 80C104.846 67.703 94.8717 57.7344 82.5684 57.7344C70.265 57.7344 60.2911 67.703 60.2911 80C60.2911 92.297 70.265 102.266 82.5684 102.266Z" stroke="#010101" stroke-width="3.80228"/>
<path d="M76.6349 78.7676C81.975 74.4071 87.1986 69.8953 92.655 65.6627C89.7929 70.0582 86.8496 74.3953 83.9876 78.7906C81.5328 78.8024 79.0782 78.8024 76.6349 78.7674V78.7676ZM81.149 81.1977C83.6153 81.1977 86.0701 81.1977 88.5249 81.2326C83.15 85.5697 77.9496 90.1162 72.4816 94.3373C75.3436 89.9418 78.2869 85.5932 81.149 81.1977Z" fill="#010101"/>
<path d="M63.4136 160.022C62.691 160.022 62.0873 159.893 61.6023 159.637C61.1174 159.38 60.7514 158.985 60.5042 158.453C60.257 157.911 60.1191 157.212 60.0906 156.356L62.2727 156.028C62.2822 156.523 62.325 156.922 62.401 157.226C62.4866 157.531 62.6007 157.749 62.7433 157.883C62.8954 158.016 63.0761 158.082 63.2853 158.082C63.5515 158.082 63.7226 157.992 63.7987 157.811C63.8843 157.631 63.9271 157.44 63.9271 157.241C63.9271 156.765 63.813 156.366 63.5848 156.043C63.3566 155.71 63.0476 155.377 62.6577 155.044L61.6594 154.174C61.222 153.804 60.8512 153.385 60.547 152.919C60.2522 152.444 60.1048 151.859 60.1048 151.165C60.1048 150.186 60.3948 149.439 60.9748 148.926C61.5548 148.403 62.344 148.142 63.3423 148.142C63.9603 148.142 64.4548 148.246 64.8256 148.455C65.2059 148.664 65.4911 148.94 65.6813 149.283C65.881 149.615 66.0141 149.972 66.0806 150.352C66.1567 150.723 66.1995 151.08 66.209 151.422L64.0126 151.693C64.0031 151.351 63.9794 151.056 63.9413 150.809C63.9128 150.552 63.8462 150.357 63.7417 150.224C63.6371 150.081 63.4754 150.01 63.2567 150.01C63.019 150.01 62.8431 150.11 62.7291 150.309C62.6245 150.509 62.5722 150.709 62.5722 150.908C62.5722 151.336 62.672 151.688 62.8717 151.964C63.0808 152.23 63.3518 152.51 63.6846 152.805L64.6402 153.647C65.1441 154.075 65.5672 154.559 65.9095 155.101C66.2613 155.643 66.4372 156.314 66.4372 157.112C66.4372 157.654 66.3136 158.149 66.0664 158.596C65.8192 159.033 65.4674 159.38 65.011 159.637C64.5641 159.893 64.0317 160.022 63.4136 160.022ZM71.41 160.022C70.5447 160.022 69.8602 159.87 69.3562 159.565C68.8523 159.261 68.491 158.824 68.2723 158.253C68.0536 157.683 67.9443 157.003 67.9443 156.214V151.921C67.9443 151.122 68.0536 150.442 68.2723 149.882C68.491 149.321 68.8523 148.893 69.3562 148.598C69.8602 148.294 70.5447 148.142 71.41 148.142C72.2847 148.142 72.9741 148.294 73.478 148.598C73.9914 148.893 74.3575 149.321 74.5762 149.882C74.7948 150.442 74.9042 151.122 74.9042 151.921V156.214C74.9042 157.003 74.7948 157.683 74.5762 158.253C74.3575 158.824 73.9914 159.261 73.478 159.565C72.9741 159.87 72.2847 160.022 71.41 160.022ZM71.41 158.211C71.6762 158.211 71.8711 158.144 71.9947 158.011C72.1183 157.878 72.1991 157.707 72.2372 157.497C72.2752 157.288 72.2942 157.074 72.2942 156.856V151.293C72.2942 151.065 72.2752 150.851 72.2372 150.652C72.1991 150.442 72.1183 150.271 71.9947 150.138C71.8711 150.005 71.6762 149.939 71.41 149.939C71.1628 149.939 70.9774 150.005 70.8538 150.138C70.7302 150.271 70.6493 150.442 70.6113 150.652C70.5733 150.851 70.5543 151.065 70.5543 151.293V156.856C70.5543 157.074 70.5685 157.288 70.597 157.497C70.6351 157.707 70.7111 157.878 70.8252 158.011C70.9488 158.144 71.1438 158.211 71.41 158.211ZM80.1945 160.022C79.3198 160.022 78.6257 159.865 78.1123 159.551C77.6083 159.228 77.2518 158.781 77.0426 158.211C76.8334 157.631 76.7288 156.951 76.7288 156.171V152.007C76.7288 151.208 76.8334 150.523 77.0426 149.953C77.2518 149.373 77.6083 148.926 78.1123 148.612C78.6257 148.298 79.3198 148.142 80.1945 148.142C81.0503 148.142 81.7158 148.284 82.1912 148.569C82.6761 148.845 83.0184 149.235 83.2181 149.739C83.4178 150.243 83.5176 150.823 83.5176 151.479V152.477H81.0217V151.322C81.0217 151.094 81.0075 150.875 80.9789 150.666C80.9599 150.457 80.8934 150.286 80.7793 150.152C80.6652 150.01 80.4703 149.939 80.1945 149.939C79.9283 149.939 79.7286 150.01 79.5955 150.152C79.4719 150.295 79.3911 150.476 79.3531 150.694C79.3245 150.904 79.3103 151.127 79.3103 151.365V156.799C79.3103 157.055 79.3293 157.293 79.3673 157.512C79.4149 157.721 79.5004 157.892 79.624 158.025C79.7572 158.149 79.9473 158.211 80.1945 158.211C80.4608 158.211 80.6509 158.144 80.765 158.011C80.8791 157.868 80.9504 157.688 80.9789 157.469C81.0075 157.25 81.0217 157.027 81.0217 156.799V155.586H83.5176V156.585C83.5176 157.241 83.4178 157.83 83.2181 158.353C83.0279 158.867 82.6904 159.275 82.2055 159.58C81.7301 159.874 81.0598 160.022 80.1945 160.022ZM85.3499 159.851V148.298H87.9028V153.019L89.8425 148.298H92.3384L90.199 153.518L92.4382 159.851H89.8425L88.1738 154.745L87.9028 155.201V159.851H85.3499ZM93.8699 159.851V148.298H99.0613V150.038H96.4228V152.905H98.4337V154.674H96.4228V158.125H99.0898V159.851H93.8699ZM101.718 159.851V150.195H99.9778V148.298H106.011V150.195H104.285V159.851H101.718Z" fill="white"/>
<defs>
<filter id="filter0_d_8_1361" x="0.924377" y="0.979932" width="163.102" height="163.102" filterUnits="userSpaceOnUse" color-interpolation-filters="sRGB">
<feFlood flood-opacity="0" result="BackgroundImageFix"/>
<feColorMatrix in="SourceAlpha" type="matrix" values="0 0 0 0 0 0 0 0 0 0 0 0 0 0 0 0 0 0 127 0" result="hardAlpha"/>
<feOffset dy="2.80681"/>
<feGaussianBlur stdDeviation="14.034"/>
<feComposite in2="hardAlpha" operator="out"/>
<feColorMatrix type="matrix" values="0 0 0 0 0.0367917 0 0 0 0 0.0348958 0 0 0 0 0.0484375 0 0 0 0.1 0"/>
<feBlend mode="normal" in2="BackgroundImageFix" result="effect1_dropShadow_8_1361"/>
<feBlend mode="normal" in="SourceGraphic" in2="effect1_dropShadow_8_1361" result="shape"/>
</filter>
</defs>
</svg>
