<svg width="164" height="165" viewBox="0 0 164 165" fill="none" xmlns="http://www.w3.org/2000/svg">
<g filter="url(#filter0_d_8_1363)">
<rect x="28.0901" y="26.2411" width="106.966" height="106.966" rx="19.0161" fill="white"/>
<rect x="28.3872" y="26.5382" width="106.371" height="106.371" rx="18.719" stroke="#D9D9D9" stroke-width="0.594253"/>
</g>
<g clip-path="url(#clip0_8_1363)">
<path d="M81.699 54.0665C70.6472 54.0665 63.7395 59.6074 60.9766 70.6888C65.1211 65.1479 69.9562 63.0701 75.4823 64.4554C78.635 65.2456 80.8886 67.5393 83.383 70.0778C87.4466 74.2136 92.1493 79 102.421 79C113.473 79 120.381 73.4591 123.144 62.3776C118.999 67.9185 114.164 69.9963 108.638 68.611C105.485 67.8208 103.232 65.5271 100.737 62.9886C96.6739 58.8529 91.9712 54.0665 81.699 54.0665ZM60.9766 79C49.9247 79 43.017 84.5409 40.2542 95.6223C44.3986 90.0814 49.2338 88.0036 54.7599 89.3889C57.9126 90.1791 60.1661 92.4728 62.6606 95.0113C66.7241 99.1471 71.4268 103.933 81.699 103.933C92.7509 103.933 99.6586 98.3926 102.421 87.3111C98.277 92.852 93.4418 94.9298 87.9157 93.5445C84.763 92.7543 82.5095 90.4606 80.015 87.9221C75.9515 83.7864 71.2488 79 60.9766 79Z" fill="url(#paint0_linear_8_1363)"/>
</g>
<path d="M54.878 159.851V150.195H53.1381V148.298H59.1709V150.195H57.4452V159.851H54.878ZM59.5443 159.851L61.7264 148.298H64.6359L66.7894 159.851H64.4362L64.0511 157.412H62.3539L61.9546 159.851H59.5443ZM62.5821 155.886H63.8087L63.1954 151.379L62.5821 155.886ZM68.3979 159.851V148.298H70.9508V159.851H68.3979ZM73.1013 159.851V148.298H75.6542V158.125H78.307V159.851H73.1013ZM80.2084 159.851L78.8107 148.298H80.9785L81.6631 155.03L82.5331 148.313H84.2303L85.1431 154.987L85.8419 148.298H87.9812L86.5978 159.851H84.3729L83.3888 152.877L82.4618 159.851H80.2084ZM89.6679 159.851V148.298H92.2208V159.851H89.6679ZM94.3713 159.851V148.298H96.1683L98.5358 153.861V148.298H100.647V159.851H98.9209L96.5534 153.861V159.851H94.3713ZM102.794 159.851V148.298H105.717C106.725 148.298 107.51 148.427 108.071 148.683C108.632 148.931 109.026 149.325 109.254 149.867C109.483 150.4 109.597 151.094 109.597 151.95V156.143C109.597 157.008 109.483 157.716 109.254 158.268C109.026 158.81 108.632 159.209 108.071 159.466C107.519 159.722 106.744 159.851 105.746 159.851H102.794ZM105.347 158.082H105.746C106.136 158.082 106.416 158.025 106.587 157.911C106.759 157.797 106.863 157.626 106.901 157.398C106.949 157.169 106.973 156.884 106.973 156.542V151.507C106.973 151.165 106.944 150.889 106.887 150.68C106.839 150.471 106.73 150.319 106.559 150.224C106.388 150.129 106.112 150.081 105.732 150.081H105.347V158.082Z" fill="white"/>
<defs>
<filter id="filter0_d_8_1363" x="0.0220337" y="0.97981" width="163.102" height="163.102" filterUnits="userSpaceOnUse" color-interpolation-filters="sRGB">
<feFlood flood-opacity="0" result="BackgroundImageFix"/>
<feColorMatrix in="SourceAlpha" type="matrix" values="0 0 0 0 0 0 0 0 0 0 0 0 0 0 0 0 0 0 127 0" result="hardAlpha"/>
<feOffset dy="2.80681"/>
<feGaussianBlur stdDeviation="14.034"/>
<feComposite in2="hardAlpha" operator="out"/>
<feColorMatrix type="matrix" values="0 0 0 0 0.0367917 0 0 0 0 0.0348958 0 0 0 0 0.0484375 0 0 0 0.1 0"/>
<feBlend mode="normal" in2="BackgroundImageFix" result="effect1_dropShadow_8_1363"/>
<feBlend mode="normal" in="SourceGraphic" in2="effect1_dropShadow_8_1363" result="shape"/>
</filter>
<linearGradient id="paint0_linear_8_1363" x1="37.9515" y1="70.0239" x2="109.636" y2="111.245" gradientUnits="userSpaceOnUse">
<stop stop-color="#2298BD"/>
<stop offset="1" stop-color="#0ED7B5"/>
</linearGradient>
<clipPath id="clip0_8_1363">
<rect width="82.8897" height="50" fill="white" transform="translate(40.2542 54)"/>
</clipPath>
</defs>
</svg>
