<svg width="164" height="165" viewBox="0 0 164 165" fill="none" xmlns="http://www.w3.org/2000/svg">
<g filter="url(#filter0_d_30_308)">
<rect x="28.0918" y="26.241" width="106.966" height="106.966" rx="19.0161" fill="url(#paint0_linear_30_308)"/>
<rect x="28.3889" y="26.5381" width="106.371" height="106.371" rx="18.719" stroke="#D9D9D9" stroke-opacity="0.33" stroke-width="0.594253"/>
</g>
<g clip-path="url(#clip0_30_308)">
<path d="M81.7007 54.0664C70.6489 54.0664 63.7412 59.6073 60.9783 70.6887C65.1228 65.1479 69.9579 63.0701 75.484 64.4554C78.6367 65.2456 80.8903 67.5393 83.3847 70.0777C87.4483 74.2135 92.151 78.9999 102.423 78.9999C113.475 78.9999 120.383 73.459 123.146 62.3776C119.001 67.9185 114.166 69.9963 108.64 68.611C105.487 67.8207 103.234 65.5271 100.739 62.9886C96.6756 58.8528 91.9729 54.0664 81.7007 54.0664ZM60.9783 78.9999C49.9264 78.9999 43.0187 84.5408 40.2559 95.6222C44.4003 90.0814 49.2355 88.0036 54.7616 89.3889C57.9143 90.1791 60.1678 92.4728 62.6623 95.0112C66.7259 99.147 71.4286 103.933 81.7007 103.933C92.7526 103.933 99.6603 98.3925 102.423 87.3111C98.2787 92.852 93.4435 94.9298 87.9175 93.5445C84.7647 92.7542 82.5112 90.4606 80.0167 87.9221C75.9532 83.7863 71.2505 78.9999 60.9783 78.9999Z" fill="url(#paint1_linear_30_308)"/>
</g>
<defs>
<filter id="filter0_d_30_308" x="0.0237427" y="0.979718" width="163.102" height="163.102" filterUnits="userSpaceOnUse" color-interpolation-filters="sRGB">
<feFlood flood-opacity="0" result="BackgroundImageFix"/>
<feColorMatrix in="SourceAlpha" type="matrix" values="0 0 0 0 0 0 0 0 0 0 0 0 0 0 0 0 0 0 127 0" result="hardAlpha"/>
<feOffset dy="2.80681"/>
<feGaussianBlur stdDeviation="14.034"/>
<feComposite in2="hardAlpha" operator="out"/>
<feColorMatrix type="matrix" values="0 0 0 0 0.0367917 0 0 0 0 0.0348958 0 0 0 0 0.0484375 0 0 0 0.1 0"/>
<feBlend mode="normal" in2="BackgroundImageFix" result="effect1_dropShadow_30_308"/>
<feBlend mode="normal" in="SourceGraphic" in2="effect1_dropShadow_30_308" result="shape"/>
</filter>
<linearGradient id="paint0_linear_30_308" x1="81.5746" y1="26.241" x2="81.5746" y2="133.207" gradientUnits="userSpaceOnUse">
<stop stop-color="#1A1B24"/>
<stop offset="1" stop-color="#0E0E1A"/>
</linearGradient>
<linearGradient id="paint1_linear_30_308" x1="37.9532" y1="70.0239" x2="109.637" y2="111.245" gradientUnits="userSpaceOnUse">
<stop stop-color="#2298BD"/>
<stop offset="1" stop-color="#0ED7B5"/>
</linearGradient>
<clipPath id="clip0_30_308">
<rect width="82.8897" height="50" fill="white" transform="translate(40.2559 54)"/>
</clipPath>
</defs>
</svg>
