<svg width="165" height="164" viewBox="0 0 165 164" fill="none" xmlns="http://www.w3.org/2000/svg">
<g filter="url(#filter0_d_8_1364)">
<rect x="29.0537" y="26.0922" width="106.966" height="106.966" rx="19.0161" fill="white"/>
<rect x="29.3508" y="26.3893" width="106.371" height="106.371" rx="18.719" stroke="#D9D9D9" stroke-width="0.594253"/>
</g>
<path d="M83.4746 53.851L112.434 103.851H54.5148L83.4746 53.851Z" fill="black"/>
<path d="M62.6231 159.702L60.5408 148.149H62.7229L63.9637 155.994L65.1189 148.149H67.4294L65.3186 159.702H62.6231ZM69.0177 159.702V148.149H74.2091V149.889H71.5706V152.756H73.5816V154.525H71.5706V157.976H74.2376V159.702H69.0177ZM75.8245 159.702V148.149H79.005C79.7846 148.149 80.4597 148.235 81.0302 148.406C81.6007 148.577 82.0428 148.886 82.3566 149.333C82.6798 149.771 82.8415 150.393 82.8415 151.202C82.8415 151.677 82.8034 152.1 82.7274 152.471C82.6513 152.842 82.5087 153.165 82.2995 153.441C82.0998 153.707 81.8098 153.93 81.4295 154.111L83.0126 159.702H80.3741L79.1048 154.525H78.3774V159.702H75.8245ZM78.3774 153.056H79.0905C79.4518 153.056 79.7323 152.994 79.932 152.87C80.1317 152.737 80.2695 152.552 80.3456 152.314C80.4312 152.067 80.474 151.772 80.474 151.43C80.474 150.935 80.3836 150.55 80.203 150.275C80.0223 149.999 79.6896 149.861 79.2046 149.861H78.3774V153.056ZM88.0014 159.873C87.1267 159.873 86.4326 159.716 85.9192 159.402C85.4153 159.079 85.0587 158.632 84.8495 158.062C84.6403 157.482 84.5358 156.802 84.5358 156.022V151.858C84.5358 151.059 84.6403 150.374 84.8495 149.804C85.0587 149.224 85.4153 148.777 85.9192 148.463C86.4326 148.149 87.1267 147.993 88.0014 147.993C88.8572 147.993 89.5227 148.135 89.9981 148.42C90.483 148.696 90.8253 149.086 91.025 149.59C91.2247 150.094 91.3245 150.674 91.3245 151.33V152.328H88.8286V151.173C88.8286 150.945 88.8144 150.726 88.7859 150.517C88.7668 150.308 88.7003 150.137 88.5862 150.004C88.4721 149.861 88.2772 149.79 88.0014 149.79C87.7352 149.79 87.5356 149.861 87.4024 150.004C87.2788 150.146 87.198 150.327 87.16 150.546C87.1315 150.755 87.1172 150.978 87.1172 151.216V156.65C87.1172 156.906 87.1362 157.144 87.1742 157.363C87.2218 157.572 87.3074 157.743 87.431 157.876C87.5641 158 87.7542 158.062 88.0014 158.062C88.2677 158.062 88.4578 157.995 88.5719 157.862C88.686 157.719 88.7573 157.539 88.7859 157.32C88.8144 157.101 88.8286 156.878 88.8286 156.65V155.437H91.3245V156.436C91.3245 157.092 91.2247 157.681 91.025 158.204C90.8348 158.718 90.4973 159.127 90.0124 159.431C89.537 159.726 88.8667 159.873 88.0014 159.873ZM93.1569 159.702V148.149H98.3483V149.889H95.7098V152.756H97.7207V154.525H95.7098V157.976H98.3768V159.702H93.1569ZM99.9637 159.702V148.149H102.517V157.976H105.169V159.702H99.9637Z" fill="white"/>
<defs>
<filter id="filter0_d_8_1364" x="0.985657" y="0.830945" width="163.102" height="163.102" filterUnits="userSpaceOnUse" color-interpolation-filters="sRGB">
<feFlood flood-opacity="0" result="BackgroundImageFix"/>
<feColorMatrix in="SourceAlpha" type="matrix" values="0 0 0 0 0 0 0 0 0 0 0 0 0 0 0 0 0 0 127 0" result="hardAlpha"/>
<feOffset dy="2.80681"/>
<feGaussianBlur stdDeviation="14.034"/>
<feComposite in2="hardAlpha" operator="out"/>
<feColorMatrix type="matrix" values="0 0 0 0 0.0367917 0 0 0 0 0.0348958 0 0 0 0 0.0484375 0 0 0 0.1 0"/>
<feBlend mode="normal" in2="BackgroundImageFix" result="effect1_dropShadow_8_1364"/>
<feBlend mode="normal" in="SourceGraphic" in2="effect1_dropShadow_8_1364" result="shape"/>
</filter>
</defs>
</svg>
