<svg width="164" height="164" viewBox="0 0 164 164" fill="none" xmlns="http://www.w3.org/2000/svg">
<g filter="url(#filter0_d_8_1380)">
<rect x="28.7993" y="25.9428" width="106.966" height="106.966" rx="19.0161" fill="white"/>
<rect x="29.0964" y="26.24" width="106.371" height="106.371" rx="18.719" stroke="#D9D9D9" stroke-width="0.594253"/>
</g>
<g clip-path="url(#clip0_8_1380)">
<path d="M95.2468 54.7017H68.6843C62.2122 54.7017 56.9656 59.9483 56.9656 66.4204V92.9829C56.9656 99.455 62.2122 104.702 68.6843 104.702H95.2468C101.719 104.702 106.966 99.455 106.966 92.9829V66.4204C106.966 59.9483 101.719 54.7017 95.2468 54.7017Z" fill="#242938"/>
<mask id="mask0_8_1380" style="mask-type:alpha" maskUnits="userSpaceOnUse" x="62" y="60" width="40" height="40">
<path d="M69.5956 93.2106L63.0856 88.3278C62.8826 88.177 62.7179 87.9808 62.6048 87.7544C62.4916 87.5282 62.4333 87.2788 62.4343 87.0259V72.3775C62.4333 72.1246 62.4916 71.875 62.6048 71.6489C62.7179 71.4227 62.8826 71.2264 63.0856 71.0756L69.5956 66.1928C69.4207 66.357 69.2885 66.5614 69.2106 66.7883C69.1326 67.0151 69.1112 67.2576 69.1482 67.4946V91.9087C69.1112 92.1458 69.1326 92.3882 69.2106 92.6151C69.2885 92.8419 69.4207 93.0464 69.5956 93.2106Z" fill="white"/>
<path d="M100.772 66.9496C100.504 66.7734 100.19 66.68 99.8689 66.681C99.6611 66.6794 99.4546 66.7187 99.2621 66.7969C99.0693 66.875 98.8939 66.9904 98.7458 67.1364L98.6324 67.2505L85.6441 79.7017L78.4578 86.5944L71.8093 92.9663L71.6952 93.0806C71.5473 93.2267 71.3719 93.3423 71.1792 93.4206C70.9864 93.4987 70.7801 93.5382 70.5721 93.5364C70.22 93.5357 69.8775 93.4216 69.5956 93.2105L63.0856 88.3278C63.4163 88.5761 63.8293 88.6892 64.2405 88.6439C64.6517 88.5985 65.0301 88.3982 65.2987 88.0835L72.5253 79.6937L78.4578 72.809L88.8503 60.7399C89.0011 60.5611 89.1892 60.4176 89.4015 60.3192C89.6138 60.2208 89.8451 60.17 90.0791 60.1704C90.3999 60.1694 90.714 60.2628 90.9822 60.439L100.772 66.9496Z" fill="white"/>
<path d="M100.772 92.4537L91.0068 98.9642C90.6744 99.1812 90.2751 99.271 89.882 99.2173C89.489 99.1634 89.1285 98.9695 88.8667 98.6714L78.4578 86.5945L72.5253 79.6937L65.2987 71.3112C65.0277 70.9998 64.6489 70.8024 64.2384 70.7588C63.8279 70.715 63.4161 70.8282 63.0856 71.0756L69.5956 66.1928C69.8775 65.9819 70.22 65.8676 70.5721 65.8669C70.7801 65.8651 70.9864 65.9045 71.1792 65.9827C71.3719 66.061 71.5473 66.1765 71.6952 66.3228L71.8093 66.4369L78.4578 72.809L85.6441 79.7017L98.6324 92.1529L98.7458 92.2669C98.8939 92.413 99.0693 92.5283 99.2621 92.6064C99.4546 92.6845 99.6611 92.724 99.8689 92.7222C100.19 92.7234 100.504 92.63 100.772 92.4537Z" fill="white"/>
<path d="M101.497 68.3082V91.095C101.497 91.3636 101.431 91.6282 101.305 91.8649C101.178 92.102 100.995 92.3042 100.772 92.4536L91.0068 98.9642C91.2298 98.8147 91.4126 98.6124 91.5392 98.3753C91.6654 98.1382 91.7312 97.8737 91.731 97.605V61.7982C91.7275 61.5276 91.6574 61.262 91.5267 61.0249C91.396 60.7879 91.2091 60.5866 90.9822 60.439L100.772 66.9496C100.995 67.0996 101.177 67.3019 101.304 67.5387C101.43 67.7756 101.496 68.0398 101.497 68.3082Z" fill="white"/>
</mask>
<g mask="url(#mask0_8_1380)">
<path d="M69.5956 93.2105L63.0856 88.3279C62.8826 88.1771 62.7179 87.9804 62.6048 87.7544C62.4916 87.5283 62.4333 87.2787 62.4343 87.0259V72.3775C62.4333 72.1246 62.4916 71.875 62.6048 71.6489C62.7179 71.4227 62.8826 71.2264 63.0856 71.0756L69.5956 66.1928C69.4207 66.357 69.2885 66.5614 69.2106 66.7883C69.1326 67.0152 69.1112 67.2576 69.1482 67.4947V91.9087C69.1112 92.1459 69.1326 92.3882 69.2106 92.6152C69.2885 92.8419 69.4207 93.0462 69.5956 93.2105Z" fill="#5E438F"/>
<g filter="url(#filter1_dd_8_1380)">
<path d="M100.772 66.9496C100.504 66.7734 100.19 66.68 99.8689 66.681C99.6611 66.6794 99.4546 66.7187 99.2619 66.7969C99.0693 66.875 98.8939 66.9904 98.7458 67.1364L98.6324 67.2505L91.7144 73.8832L85.6441 79.7017L78.4578 86.5944L71.8092 92.9663L71.6951 93.0806C71.5471 93.2267 71.3718 93.3423 71.1791 93.4206C70.9863 93.4987 70.78 93.5382 70.572 93.5364C70.2199 93.5357 69.8774 93.4216 69.5954 93.2105L63.0854 88.3278C63.4162 88.5761 63.8292 88.6892 64.2404 88.6439C64.6515 88.5985 65.03 88.3982 65.2986 88.0835L68.9448 83.8521L72.5251 79.6937L78.4578 72.809L88.8501 60.7399C89.0011 60.5611 89.1892 60.4176 89.4015 60.3192C89.6136 60.2208 89.8451 60.17 90.0787 60.1704C90.3997 60.1694 90.7138 60.2628 90.9822 60.439L100.772 66.9496Z" fill="url(#paint0_linear_8_1380)"/>
</g>
<g filter="url(#filter2_dd_8_1380)">
<path d="M100.772 92.4536L91.0066 98.9644C90.6744 99.1814 90.2751 99.271 89.882 99.2173C89.4888 99.1634 89.1285 98.9696 88.8667 98.6714L78.4578 86.5944L72.5251 79.6937L68.9448 75.5433L65.2986 71.3112C65.0276 70.9998 64.6488 70.8024 64.2383 70.7587C63.8278 70.715 63.416 70.8282 63.0854 71.0756L69.5954 66.1928C69.8774 65.9819 70.2199 65.8675 70.572 65.8669C70.78 65.8651 70.9863 65.9045 71.1791 65.9827C71.3718 66.061 71.5471 66.1765 71.6951 66.3228L71.8092 66.4369L78.4578 72.809L85.6441 79.7017L91.723 85.5288L98.6324 92.1528L98.7458 92.2671C98.8939 92.413 99.0693 92.5282 99.2619 92.6064C99.4546 92.6845 99.6611 92.7239 99.8689 92.7222C100.19 92.7233 100.504 92.6298 100.772 92.4536Z" fill="url(#paint1_linear_8_1380)"/>
</g>
<g filter="url(#filter3_dd_8_1380)">
<path d="M101.497 68.3082V91.0949C101.497 91.3636 101.431 91.6281 101.305 91.8652C101.178 92.1019 100.995 92.3042 100.772 92.4537L91.0066 98.9642C91.2298 98.8148 91.4126 98.6124 91.5388 98.3753C91.6654 98.1382 91.7312 97.8738 91.731 97.605V61.7982C91.7275 61.5276 91.6574 61.262 91.5267 61.0249C91.396 60.7878 91.2091 60.5866 90.9822 60.439L100.772 66.9496C100.995 67.0996 101.177 67.3019 101.304 67.5387C101.43 67.7756 101.496 68.0398 101.497 68.3082Z" fill="url(#paint2_linear_8_1380)"/>
</g>
</g>
</g>
<path d="M37.8231 159.552L35.7408 148H37.9229L39.1637 155.844L40.3189 148H42.6294L40.5186 159.552H37.8231ZM44.232 159.552V148H46.7849V159.552H44.232ZM52.0017 159.724C51.2791 159.724 50.6753 159.595 50.1904 159.338C49.7055 159.082 49.3395 158.687 49.0922 158.155C48.845 157.613 48.7072 156.914 48.6786 156.058L50.8607 155.73C50.8702 156.225 50.913 156.624 50.9891 156.928C51.0747 157.232 51.1888 157.451 51.3314 157.584C51.4835 157.717 51.6642 157.784 51.8733 157.784C52.1396 157.784 52.3107 157.694 52.3868 157.513C52.4724 157.332 52.5151 157.142 52.5151 156.942C52.5151 156.467 52.401 156.068 52.1729 155.744C51.9447 155.412 51.6356 155.079 51.2458 154.746L50.2475 153.876C49.8101 153.505 49.4393 153.087 49.135 152.621C48.8403 152.146 48.6929 151.561 48.6929 150.867C48.6929 149.887 48.9829 149.141 49.5629 148.628C50.1429 148.105 50.932 147.843 51.9304 147.843C52.5484 147.843 53.0428 147.948 53.4137 148.157C53.794 148.366 54.0792 148.642 54.2694 148.984C54.469 149.317 54.6022 149.674 54.6687 150.054C54.7448 150.425 54.7876 150.781 54.7971 151.123L52.6007 151.394C52.5912 151.052 52.5674 150.757 52.5294 150.51C52.5009 150.253 52.4343 150.059 52.3297 149.925C52.2251 149.783 52.0635 149.712 51.8448 149.712C51.6071 149.712 51.4312 149.811 51.3171 150.011C51.2125 150.211 51.1602 150.41 51.1602 150.61C51.1602 151.038 51.2601 151.39 51.4597 151.665C51.6689 151.932 51.9399 152.212 52.2727 152.507L53.2282 153.348C53.7322 153.776 54.1553 154.261 54.4976 154.803C54.8494 155.345 55.0253 156.015 55.0253 156.814C55.0253 157.356 54.9017 157.85 54.6545 158.297C54.4072 158.735 54.0554 159.082 53.5991 159.338C53.1522 159.595 52.6197 159.724 52.0017 159.724ZM60.0266 159.724C59.1423 159.724 58.4482 159.581 57.9443 159.296C57.4499 159.001 57.1028 158.578 56.9032 158.026C56.7035 157.465 56.6037 156.781 56.6037 155.973V148H59.1281V156.358C59.1281 156.595 59.1471 156.833 59.1851 157.071C59.2231 157.308 59.304 157.503 59.4276 157.656C59.5607 157.808 59.7604 157.884 60.0266 157.884C60.3023 157.884 60.502 157.808 60.6256 157.656C60.7492 157.503 60.8253 157.308 60.8538 157.071C60.8918 156.833 60.9108 156.595 60.9108 156.358V148H63.4495V155.973C63.4495 156.781 63.3449 157.465 63.1357 158.026C62.936 158.578 62.589 159.001 62.0946 159.296C61.6002 159.581 60.9108 159.724 60.0266 159.724ZM64.834 159.552L67.0161 148H69.9256L72.0791 159.552H69.7259L69.3408 157.114H67.6436L67.2443 159.552H64.834ZM67.8718 155.588H69.0984L68.4851 151.081L67.8718 155.588ZM73.6734 159.552V148H76.2263V157.827H78.879V159.552H73.6734ZM87.5678 159.724C86.8452 159.724 86.2414 159.595 85.7565 159.338C85.2716 159.082 84.9055 158.687 84.6583 158.155C84.4111 157.613 84.2732 156.914 84.2447 156.058L86.4268 155.73C86.4363 156.225 86.4791 156.624 86.5552 156.928C86.6407 157.232 86.7548 157.451 86.8974 157.584C87.0496 157.717 87.2302 157.784 87.4394 157.784C87.7056 157.784 87.8768 157.694 87.9528 157.513C88.0384 157.332 88.0812 157.142 88.0812 156.942C88.0812 156.467 87.9671 156.068 87.7389 155.744C87.5107 155.412 87.2017 155.079 86.8119 154.746L85.8135 153.876C85.3762 153.505 85.0053 153.087 84.7011 152.621C84.4063 152.146 84.259 151.561 84.259 150.867C84.259 149.887 84.549 149.141 85.129 148.628C85.7089 148.105 86.4981 147.843 87.4965 147.843C88.1145 147.843 88.6089 147.948 88.9797 148.157C89.36 148.366 89.6453 148.642 89.8354 148.984C90.0351 149.317 90.1682 149.674 90.2348 150.054C90.3108 150.425 90.3536 150.781 90.3631 151.123L88.1668 151.394C88.1573 151.052 88.1335 150.757 88.0955 150.51C88.0669 150.253 88.0004 150.059 87.8958 149.925C87.7912 149.783 87.6296 149.712 87.4109 149.712C87.1732 149.712 86.9973 149.811 86.8832 150.011C86.7786 150.211 86.7263 150.41 86.7263 150.61C86.7263 151.038 86.8261 151.39 87.0258 151.665C87.235 151.932 87.506 152.212 87.8387 152.507L88.7943 153.348C89.2982 153.776 89.7213 154.261 90.0636 154.803C90.4154 155.345 90.5913 156.015 90.5913 156.814C90.5913 157.356 90.4677 157.85 90.2205 158.297C89.9733 158.735 89.6215 159.082 89.1651 159.338C88.7182 159.595 88.1858 159.724 87.5678 159.724ZM93.2964 159.552V149.897H91.5565V148H97.5893V149.897H95.8636V159.552H93.2964ZM102.372 159.724C101.487 159.724 100.793 159.581 100.289 159.296C99.7949 159.001 99.4479 158.578 99.2482 158.026C99.0485 157.465 98.9487 156.781 98.9487 155.973V148H101.473V156.358C101.473 156.595 101.492 156.833 101.53 157.071C101.568 157.308 101.649 157.503 101.773 157.656C101.906 157.808 102.105 157.884 102.372 157.884C102.647 157.884 102.847 157.808 102.971 157.656C103.094 157.503 103.17 157.308 103.199 157.071C103.237 156.833 103.256 156.595 103.256 156.358V148H105.794V155.973C105.794 156.781 105.69 157.465 105.481 158.026C105.281 158.578 104.934 159.001 104.44 159.296C103.945 159.581 103.256 159.724 102.372 159.724ZM107.847 159.552V148H110.77C111.778 148 112.563 148.128 113.124 148.385C113.685 148.632 114.079 149.027 114.307 149.569C114.536 150.101 114.65 150.795 114.65 151.651V155.844C114.65 156.709 114.536 157.418 114.307 157.969C114.079 158.511 113.685 158.911 113.124 159.167C112.572 159.424 111.797 159.552 110.799 159.552H107.847ZM110.4 157.784H110.799C111.189 157.784 111.469 157.727 111.64 157.613C111.812 157.499 111.916 157.327 111.954 157.099C112.002 156.871 112.025 156.586 112.025 156.244V151.209C112.025 150.867 111.997 150.591 111.94 150.382C111.892 150.173 111.783 150.021 111.612 149.925C111.441 149.83 111.165 149.783 110.785 149.783H110.4V157.784ZM116.645 159.552V148H119.198V159.552H116.645ZM124.658 159.724C123.792 159.724 123.108 159.571 122.604 159.267C122.1 158.963 121.739 158.525 121.52 157.955C121.301 157.385 121.192 156.705 121.192 155.916V151.623C121.192 150.824 121.301 150.144 121.52 149.583C121.739 149.022 122.1 148.594 122.604 148.3C123.108 147.995 123.792 147.843 124.658 147.843C125.532 147.843 126.222 147.995 126.726 148.3C127.239 148.594 127.605 149.022 127.824 149.583C128.043 150.144 128.152 150.824 128.152 151.623V155.916C128.152 156.705 128.043 157.385 127.824 157.955C127.605 158.525 127.239 158.963 126.726 159.267C126.222 159.571 125.532 159.724 124.658 159.724ZM124.658 157.912C124.924 157.912 125.119 157.846 125.242 157.713C125.366 157.579 125.447 157.408 125.485 157.199C125.523 156.99 125.542 156.776 125.542 156.557V150.995C125.542 150.767 125.523 150.553 125.485 150.353C125.447 150.144 125.366 149.973 125.242 149.84C125.119 149.707 124.924 149.64 124.658 149.64C124.41 149.64 124.225 149.707 124.101 149.84C123.978 149.973 123.897 150.144 123.859 150.353C123.821 150.553 123.802 150.767 123.802 150.995V156.557C123.802 156.776 123.816 156.99 123.845 157.199C123.883 157.408 123.959 157.579 124.073 157.713C124.197 157.846 124.391 157.912 124.658 157.912Z" fill="white"/>
<defs>
<filter id="filter0_d_8_1380" x="0.731262" y="0.681592" width="163.102" height="163.102" filterUnits="userSpaceOnUse" color-interpolation-filters="sRGB">
<feFlood flood-opacity="0" result="BackgroundImageFix"/>
<feColorMatrix in="SourceAlpha" type="matrix" values="0 0 0 0 0 0 0 0 0 0 0 0 0 0 0 0 0 0 127 0" result="hardAlpha"/>
<feOffset dy="2.80681"/>
<feGaussianBlur stdDeviation="14.034"/>
<feComposite in2="hardAlpha" operator="out"/>
<feColorMatrix type="matrix" values="0 0 0 0 0.0367917 0 0 0 0 0.0348958 0 0 0 0 0.0484375 0 0 0 0.1 0"/>
<feBlend mode="normal" in2="BackgroundImageFix" result="effect1_dropShadow_8_1380"/>
<feBlend mode="normal" in="SourceGraphic" in2="effect1_dropShadow_8_1380" result="shape"/>
</filter>
<filter id="filter1_dd_8_1380" x="62.0735" y="59.4115" width="39.7103" height="35.3899" filterUnits="userSpaceOnUse" color-interpolation-filters="sRGB">
<feFlood flood-opacity="0" result="BackgroundImageFix"/>
<feColorMatrix in="SourceAlpha" type="matrix" values="0 0 0 0 0 0 0 0 0 0 0 0 0 0 0 0 0 0 127 0" result="hardAlpha"/>
<feOffset dy="0.0480654"/>
<feGaussianBlur stdDeviation="0.0480654"/>
<feColorMatrix type="matrix" values="0 0 0 0 0 0 0 0 0 0 0 0 0 0 0 0 0 0 0.24 0"/>
<feBlend mode="normal" in2="BackgroundImageFix" result="effect1_dropShadow_8_1380"/>
<feColorMatrix in="SourceAlpha" type="matrix" values="0 0 0 0 0 0 0 0 0 0 0 0 0 0 0 0 0 0 127 0" result="hardAlpha"/>
<feOffset dy="0.252977"/>
<feGaussianBlur stdDeviation="0.505953"/>
<feColorMatrix type="matrix" values="0 0 0 0 0 0 0 0 0 0 0 0 0 0 0 0 0 0 0.22 0"/>
<feBlend mode="normal" in2="effect1_dropShadow_8_1380" result="effect2_dropShadow_8_1380"/>
<feBlend mode="normal" in="SourceGraphic" in2="effect2_dropShadow_8_1380" result="shape"/>
</filter>
<filter id="filter2_dd_8_1380" x="62.0735" y="65.1079" width="39.7103" height="35.3895" filterUnits="userSpaceOnUse" color-interpolation-filters="sRGB">
<feFlood flood-opacity="0" result="BackgroundImageFix"/>
<feColorMatrix in="SourceAlpha" type="matrix" values="0 0 0 0 0 0 0 0 0 0 0 0 0 0 0 0 0 0 127 0" result="hardAlpha"/>
<feOffset dy="0.0480654"/>
<feGaussianBlur stdDeviation="0.0480654"/>
<feColorMatrix type="matrix" values="0 0 0 0 0 0 0 0 0 0 0 0 0 0 0 0 0 0 0.24 0"/>
<feBlend mode="normal" in2="BackgroundImageFix" result="effect1_dropShadow_8_1380"/>
<feColorMatrix in="SourceAlpha" type="matrix" values="0 0 0 0 0 0 0 0 0 0 0 0 0 0 0 0 0 0 127 0" result="hardAlpha"/>
<feOffset dy="0.252977"/>
<feGaussianBlur stdDeviation="0.505953"/>
<feColorMatrix type="matrix" values="0 0 0 0 0 0 0 0 0 0 0 0 0 0 0 0 0 0 0.22 0"/>
<feBlend mode="normal" in2="effect1_dropShadow_8_1380" result="effect2_dropShadow_8_1380"/>
<feBlend mode="normal" in="SourceGraphic" in2="effect2_dropShadow_8_1380" result="shape"/>
</filter>
<filter id="filter3_dd_8_1380" x="87.9465" y="57.4032" width="16.5861" height="44.5967" filterUnits="userSpaceOnUse" color-interpolation-filters="sRGB">
<feFlood flood-opacity="0" result="BackgroundImageFix"/>
<feColorMatrix in="SourceAlpha" type="matrix" values="0 0 0 0 0 0 0 0 0 0 0 0 0 0 0 0 0 0 127 0" result="hardAlpha"/>
<feOffset/>
<feGaussianBlur stdDeviation="0.0252977"/>
<feColorMatrix type="matrix" values="0 0 0 0 0 0 0 0 0 0 0 0 0 0 0 0 0 0 0.24 0"/>
<feBlend mode="normal" in2="BackgroundImageFix" result="effect1_dropShadow_8_1380"/>
<feColorMatrix in="SourceAlpha" type="matrix" values="0 0 0 0 0 0 0 0 0 0 0 0 0 0 0 0 0 0 127 0" result="hardAlpha"/>
<feOffset/>
<feGaussianBlur stdDeviation="1.51786"/>
<feColorMatrix type="matrix" values="0 0 0 0 0 0 0 0 0 0 0 0 0 0 0 0 0 0 0.3 0"/>
<feBlend mode="normal" in2="effect1_dropShadow_8_1380" result="effect2_dropShadow_8_1380"/>
<feBlend mode="normal" in="SourceGraphic" in2="effect2_dropShadow_8_1380" result="shape"/>
</filter>
<linearGradient id="paint0_linear_8_1380" x1="94.1724" y1="60.1704" x2="65.1666" y2="89.364" gradientUnits="userSpaceOnUse">
<stop stop-color="#7252AA"/>
<stop offset="1" stop-color="#7252AA"/>
</linearGradient>
<linearGradient id="paint1_linear_8_1380" x1="66.0964" y1="67.2909" x2="93.3585" y2="97.8081" gradientUnits="userSpaceOnUse">
<stop stop-color="#AE7FE2"/>
<stop offset="1" stop-color="#9A70D4"/>
</linearGradient>
<linearGradient id="paint2_linear_8_1380" x1="96.1238" y1="59.6534" x2="96.1238" y2="98.9314" gradientUnits="userSpaceOnUse">
<stop stop-color="#D59DFF"/>
<stop offset="1" stop-color="#C18EF1"/>
</linearGradient>
<clipPath id="clip0_8_1380">
<rect width="50" height="50" fill="white" transform="translate(56.9656 54.7017)"/>
</clipPath>
</defs>
</svg>
