<svg width="164" height="164" viewBox="0 0 164 164" fill="none" xmlns="http://www.w3.org/2000/svg">
<g filter="url(#filter0_d_8_1383)">
<rect x="28.8337" y="25.9428" width="106.966" height="106.966" rx="19.0161" fill="white"/>
<rect x="29.1309" y="26.24" width="106.371" height="106.371" rx="18.719" stroke="#D9D9D9" stroke-width="0.594253"/>
</g>
<g clip-path="url(#clip0_8_1383)">
<path d="M95.2812 54.7017H68.7188C62.2467 54.7017 57 59.9483 57 66.4204V92.9829C57 99.455 62.2467 104.702 68.7188 104.702H95.2812C101.753 104.702 107 99.455 107 92.9829V66.4204C107 59.9483 101.753 54.7017 95.2812 54.7017Z" fill="#242938"/>
<path d="M63.5851 74.2735C63.5851 74.2735 62.6604 73.6069 63.77 72.7169L66.3553 70.4052C66.3553 70.4052 67.0951 69.6269 67.8772 70.305L91.7343 88.3673V97.0286C91.7343 97.0286 91.7228 98.3888 89.9773 98.2384L63.5851 74.2735Z" fill="#2489CA"/>
<path d="M69.7344 79.8563L63.5852 85.4468C63.5852 85.4468 62.9533 85.9169 63.5852 86.7569L66.4402 89.3536C66.4402 89.3536 67.1183 90.0819 68.12 89.2534L74.6391 84.3102L69.7344 79.8563Z" fill="#1070B3"/>
<path d="M80.5301 79.9026L91.8076 71.2913L91.7344 62.6763C91.7344 62.6763 91.2527 60.7961 89.6461 61.7747L74.639 75.4331L80.5301 79.9026Z" fill="#0877B9"/>
<path d="M89.9774 98.2501C90.6324 98.9204 91.4262 98.7009 91.4262 98.7009L100.215 94.3702C101.34 93.6034 101.182 92.6519 101.182 92.6519V66.7912C101.182 65.6545 100.018 65.2616 100.018 65.2616L92.401 61.5897C90.7365 60.561 89.6461 61.7747 89.6461 61.7747C89.6461 61.7747 91.0485 60.7652 91.7344 62.6763V96.8706C91.7344 97.1058 91.6842 97.3368 91.5842 97.545C91.3838 97.9495 90.9485 98.327 89.9043 98.169L89.9774 98.2501Z" fill="#3C99D4"/>
</g>
<path d="M59.0077 159.552L56.9255 148H59.1075L60.3484 155.844L61.5036 148H63.814L61.7032 159.552H59.0077ZM68.413 159.724C67.6904 159.724 67.0866 159.595 66.6017 159.338C66.1168 159.082 65.7507 158.687 65.5035 158.155C65.2563 157.613 65.1185 156.914 65.0899 156.058L67.272 155.73C67.2815 156.225 67.3243 156.624 67.4004 156.928C67.486 157.232 67.6001 157.451 67.7427 157.584C67.8948 157.717 68.0755 157.784 68.2846 157.784C68.5509 157.784 68.722 157.694 68.7981 157.513C68.8836 157.332 68.9264 157.142 68.9264 156.942C68.9264 156.467 68.8123 156.068 68.5841 155.744C68.356 155.412 68.0469 155.079 67.6571 154.746L66.6588 153.876C66.2214 153.505 65.8506 153.087 65.5463 152.621C65.2516 152.146 65.1042 151.561 65.1042 150.867C65.1042 149.887 65.3942 149.141 65.9742 148.628C66.5542 148.105 67.3433 147.843 68.3417 147.843C68.9597 147.843 69.4541 147.948 69.8249 148.157C70.2053 148.366 70.4905 148.642 70.6807 148.984C70.8803 149.317 71.0135 149.674 71.08 150.054C71.1561 150.425 71.1989 150.781 71.2084 151.123L69.012 151.394C69.0025 151.052 68.9787 150.757 68.9407 150.51C68.9122 150.253 68.8456 150.059 68.741 149.925C68.6364 149.783 68.4748 149.712 68.2561 149.712C68.0184 149.712 67.8425 149.811 67.7284 150.011C67.6238 150.211 67.5715 150.41 67.5715 150.61C67.5715 151.038 67.6714 151.39 67.871 151.665C68.0802 151.932 68.3512 152.212 68.684 152.507L69.6395 153.348C70.1435 153.776 70.5666 154.261 70.9089 154.803C71.2607 155.345 71.4366 156.015 71.4366 156.814C71.4366 157.356 71.313 157.85 71.0657 158.297C70.8185 158.735 70.4667 159.082 70.0104 159.338C69.5635 159.595 69.031 159.724 68.413 159.724ZM80.4863 159.724C79.6116 159.724 78.9175 159.567 78.404 159.253C77.9001 158.93 77.5436 158.483 77.3344 157.912C77.1252 157.332 77.0206 156.652 77.0206 155.873V151.708C77.0206 150.91 77.1252 150.225 77.3344 149.654C77.5436 149.074 77.9001 148.628 78.404 148.314C78.9175 148 79.6116 147.843 80.4863 147.843C81.342 147.843 82.0076 147.986 82.483 148.271C82.9679 148.547 83.3102 148.937 83.5099 149.441C83.7095 149.944 83.8094 150.524 83.8094 151.181V152.179H81.3135V151.024C81.3135 150.795 81.2992 150.577 81.2707 150.368C81.2517 150.158 81.1851 149.987 81.071 149.854C80.9569 149.712 80.762 149.64 80.4863 149.64C80.2201 149.64 80.0204 149.712 79.8873 149.854C79.7637 149.997 79.6829 150.177 79.6448 150.396C79.6163 150.605 79.602 150.829 79.602 151.066V156.5C79.602 156.757 79.6211 156.995 79.6591 157.213C79.7066 157.423 79.7922 157.594 79.9158 157.727C80.0489 157.85 80.2391 157.912 80.4863 157.912C80.7525 157.912 80.9427 157.846 81.0568 157.713C81.1709 157.57 81.2422 157.389 81.2707 157.171C81.2992 156.952 81.3135 156.728 81.3135 156.5V155.288H83.8094V156.286C83.8094 156.942 83.7095 157.532 83.5099 158.055C83.3197 158.568 82.9822 158.977 82.4972 159.281C82.0218 159.576 81.3515 159.724 80.4863 159.724ZM88.9505 159.724C88.0853 159.724 87.4007 159.571 86.8968 159.267C86.3928 158.963 86.0315 158.525 85.8128 157.955C85.5942 157.385 85.4848 156.705 85.4848 155.916V151.623C85.4848 150.824 85.5942 150.144 85.8128 149.583C86.0315 149.022 86.3928 148.594 86.8968 148.3C87.4007 147.995 88.0853 147.843 88.9505 147.843C89.8252 147.843 90.5146 147.995 91.0185 148.3C91.5319 148.594 91.898 149.022 92.1167 149.583C92.3354 150.144 92.4447 150.824 92.4447 151.623V155.916C92.4447 156.705 92.3354 157.385 92.1167 157.955C91.898 158.525 91.5319 158.963 91.0185 159.267C90.5146 159.571 89.8252 159.724 88.9505 159.724ZM88.9505 157.912C89.2167 157.912 89.4116 157.846 89.5353 157.713C89.6589 157.579 89.7397 157.408 89.7777 157.199C89.8157 156.99 89.8348 156.776 89.8348 156.557V150.995C89.8348 150.767 89.8157 150.553 89.7777 150.353C89.7397 150.144 89.6589 149.973 89.5353 149.84C89.4116 149.707 89.2167 149.64 88.9505 149.64C88.7033 149.64 88.5179 149.707 88.3943 149.84C88.2707 149.973 88.1899 150.144 88.1518 150.353C88.1138 150.553 88.0948 150.767 88.0948 150.995V156.557C88.0948 156.776 88.109 156.99 88.1376 157.199C88.1756 157.408 88.2517 157.579 88.3658 157.713C88.4894 157.846 88.6843 157.912 88.9505 157.912ZM94.4263 159.552V148H97.35C98.3578 148 99.1422 148.128 99.7032 148.385C100.264 148.632 100.659 149.027 100.887 149.569C101.115 150.101 101.229 150.795 101.229 151.651V155.844C101.229 156.709 101.115 157.418 100.887 157.969C100.659 158.511 100.264 158.911 99.7032 159.167C99.1518 159.424 98.3768 159.552 97.3785 159.552H94.4263ZM96.9792 157.784H97.3785C97.7683 157.784 98.0488 157.727 98.22 157.613C98.3911 157.499 98.4957 157.327 98.5337 157.099C98.5813 156.871 98.605 156.586 98.605 156.244V151.209C98.605 150.867 98.5765 150.591 98.5195 150.382C98.4719 150.173 98.3626 150.021 98.1914 149.925C98.0203 149.83 97.7446 149.783 97.3642 149.783H96.9792V157.784ZM103.211 159.552V148H108.402V149.74H105.764V152.607H107.775V154.375H105.764V157.827H108.431V159.552H103.211Z" fill="white"/>
<defs>
<filter id="filter0_d_8_1383" x="0.765686" y="0.681592" width="163.102" height="163.102" filterUnits="userSpaceOnUse" color-interpolation-filters="sRGB">
<feFlood flood-opacity="0" result="BackgroundImageFix"/>
<feColorMatrix in="SourceAlpha" type="matrix" values="0 0 0 0 0 0 0 0 0 0 0 0 0 0 0 0 0 0 127 0" result="hardAlpha"/>
<feOffset dy="2.80681"/>
<feGaussianBlur stdDeviation="14.034"/>
<feComposite in2="hardAlpha" operator="out"/>
<feColorMatrix type="matrix" values="0 0 0 0 0.0367917 0 0 0 0 0.0348958 0 0 0 0 0.0484375 0 0 0 0.1 0"/>
<feBlend mode="normal" in2="BackgroundImageFix" result="effect1_dropShadow_8_1383"/>
<feBlend mode="normal" in="SourceGraphic" in2="effect1_dropShadow_8_1383" result="shape"/>
</filter>
<clipPath id="clip0_8_1383">
<rect width="50" height="50" fill="white" transform="translate(57 54.7017)"/>
</clipPath>
</defs>
</svg>
