<svg width="164" height="164" viewBox="0 0 164 164" fill="none" xmlns="http://www.w3.org/2000/svg">
<g filter="url(#filter0_d_30_552)">
<rect x="28.834" y="25.6548" width="106.966" height="106.966" rx="19.0161" fill="url(#paint0_linear_30_552)"/>
<rect x="29.1311" y="25.9519" width="106.371" height="106.371" rx="18.719" stroke="#D9D9D9" stroke-opacity="0.33" stroke-width="0.594253"/>
</g>
<g clip-path="url(#clip0_30_552)">
<path d="M95.2812 54.4136H68.7188C62.2467 54.4136 57 59.6602 57 66.1323V92.6948C57 99.1669 62.2467 104.414 68.7188 104.414H95.2812C101.753 104.414 107 99.1669 107 92.6948V66.1323C107 59.6602 101.753 54.4136 95.2812 54.4136Z" fill="#242938"/>
<path d="M63.5848 73.9855C63.5848 73.9855 62.6602 73.3189 63.7698 72.4289L66.3551 70.1171C66.3551 70.1171 67.0948 69.3388 67.877 70.0169L91.7341 88.0792V96.7406C91.7341 96.7406 91.7226 98.1007 89.9771 97.9503L63.5848 73.9855Z" fill="#2489CA"/>
<path d="M69.7347 79.5684L63.5855 85.1588C63.5855 85.1588 62.9536 85.6289 63.5855 86.4689L66.4405 89.0656C66.4405 89.0656 67.1186 89.7939 68.1204 88.9654L74.6395 84.0223L69.7347 79.5684Z" fill="#1070B3"/>
<path d="M80.5297 79.6146L91.8072 71.0033L91.734 62.3882C91.734 62.3882 91.2523 60.508 89.6457 61.4866L74.6387 75.145L80.5297 79.6146Z" fill="#0877B9"/>
<path d="M89.9777 97.962C90.6328 98.6323 91.4266 98.4128 91.4266 98.4128L100.215 94.0821C101.34 93.3153 101.182 92.3638 101.182 92.3638V66.5031C101.182 65.3665 100.018 64.9735 100.018 64.9735L92.4014 61.3017C90.7369 60.273 89.6465 61.4866 89.6465 61.4866C89.6465 61.4866 91.0488 60.4772 91.7348 62.3882V96.5825C91.7348 96.8177 91.6846 97.0487 91.5846 97.2569C91.3842 97.6614 90.9488 98.039 89.9047 97.881L89.9777 97.962Z" fill="#3C99D4"/>
</g>
<defs>
<filter id="filter0_d_30_552" x="0.76593" y="0.393536" width="163.102" height="163.102" filterUnits="userSpaceOnUse" color-interpolation-filters="sRGB">
<feFlood flood-opacity="0" result="BackgroundImageFix"/>
<feColorMatrix in="SourceAlpha" type="matrix" values="0 0 0 0 0 0 0 0 0 0 0 0 0 0 0 0 0 0 127 0" result="hardAlpha"/>
<feOffset dy="2.80681"/>
<feGaussianBlur stdDeviation="14.034"/>
<feComposite in2="hardAlpha" operator="out"/>
<feColorMatrix type="matrix" values="0 0 0 0 0.0367917 0 0 0 0 0.0348958 0 0 0 0 0.0484375 0 0 0 0.1 0"/>
<feBlend mode="normal" in2="BackgroundImageFix" result="effect1_dropShadow_30_552"/>
<feBlend mode="normal" in="SourceGraphic" in2="effect1_dropShadow_30_552" result="shape"/>
</filter>
<linearGradient id="paint0_linear_30_552" x1="82.3168" y1="25.6548" x2="82.3168" y2="132.62" gradientUnits="userSpaceOnUse">
<stop stop-color="#1A1B24"/>
<stop offset="1" stop-color="#0E0E1A"/>
</linearGradient>
<clipPath id="clip0_30_552">
<rect width="50" height="50" fill="white" transform="translate(57 54.4136)"/>
</clipPath>
</defs>
</svg>
